<svg viewBox="0 0 88 80" xmlns="http://www.w3.org/2000/svg" xmlns:xlink="http://www.w3.org/1999/xlink" width="88.000000" height="80.000000" fill="none">
	<defs>
		<g id="pixso_custom_effect_0">
			<effect x="-8.000000" y="0.000000" visibility="visible" fill="rgb(0,0,0)" fill-opacity="1" effectType="dropShadow" stdDeviation="0" radius="0" />
		</g>
		<filter id="filter_0" width="88.000000" height="80.000000" x="0.000000" y="0.000000" filterUnits="userSpaceOnUse" customEffect="url(#pixso_custom_effect_0)" color-interpolation-filters="sRGB">
			<feFlood flood-opacity="0" result="BackgroundImageFix" />
			<feColorMatrix result="hardAlpha" in="SourceAlpha" type="matrix" values="0 0 0 0 0 0 0 0 0 0 0 0 0 0 0 0 0 0 127 0 " />
			<feOffset dx="-8.000000" dy="0.000000" in="hardAlpha" />
			<feComposite k2="-1" k3="1" in2="hardAlpha" operator="out" />
			<feColorMatrix type="matrix" values="0 0 0 0 0 0 0 0 0 0 0 0 0 0 0 0 0 0 1 0 " />
			<feBlend result="effect_dropShadow_1" in2="BackgroundImageFix" mode="normal" />
			<feBlend result="shape" in="SourceGraphic" in2="effect_dropShadow_1" mode="normal" />
		</filter>
		<clipPath id="clipPath_9">
			<rect width="80.000000" height="80.000000" x="8.000000" y="0.000000" rx="5.000000" fill="rgb(255,255,255)" />
		</clipPath>
	</defs>
	<g clip-path="url(#clipPath_9)" filter="url(#filter_0)" customFrame="url(#clipPath_9)">
		<rect id="Frame 12" width="80.000000" height="80.000000" x="8.000000" y="0.000000" rx="5.000000" fill="rgb(255,255,255)" />
		<rect id="Frame 12" width="79.000000" height="79.000000" x="8.500000" y="0.500000" rx="4.500000" stroke="rgb(0,0,0)" stroke-width="1.000000" />
		<path id="bolt" d="M42.25 45.7502L36.3083 45.7502C35.5416 45.7502 34.9746 45.4068 34.6073 44.72C34.2399 44.0332 34.2798 43.3704 34.7271 42.7315L49.0541 22.1273C49.3736 21.6801 49.7889 21.3686 50.3 21.1929C50.8111 21.0172 51.3382 21.0252 51.8812 21.2169C52.4243 21.4086 52.8236 21.744 53.0791 22.2231C53.3347 22.7023 53.4305 23.2134 53.3666 23.7565L51.8333 36.1669L59.2604 36.1669C60.091 36.1669 60.6739 36.5343 61.0094 37.269C61.3448 38.0037 61.241 38.6905 60.6979 39.3294L44.9333 58.2086C44.5819 58.6238 44.1507 58.8954 43.6396 59.0231C43.1285 59.1509 42.6333 59.103 42.1541 58.8794C41.675 58.6558 41.2996 58.3124 41.0281 57.8492C40.7566 57.386 40.6528 56.8829 40.7166 56.3398L42.25 45.7502Z" fill="rgb(203,251,69)" fill-rule="nonzero" />
		<path id="bolt" d="M51.9569 35.1669L53.3666 23.7565C53.4305 23.2134 53.3347 22.7023 53.0791 22.2231C52.8236 21.744 52.4243 21.4086 51.8812 21.2169C51.5307 21.0932 51.1869 21.046 50.8497 21.0753C50.6645 21.0914 50.4812 21.1306 50.3 21.1929C49.7889 21.3686 49.3736 21.6801 49.0541 22.1273L34.7271 42.7315C34.5029 43.0517 34.3811 43.3779 34.3616 43.7101C34.3421 44.0408 34.424 44.3774 34.6073 44.72C34.7964 45.0737 35.0386 45.3363 35.3336 45.5079C35.6116 45.6694 35.9364 45.7502 36.3083 45.7502L42.25 45.7502L42.1052 46.7502L40.7166 56.3398C40.6528 56.8829 40.7566 57.386 41.0281 57.8492C41.2996 58.3124 41.675 58.6558 42.1541 58.8794C42.6333 59.103 43.1285 59.1509 43.6396 59.0231C44.1507 58.8954 44.5819 58.6238 44.9333 58.2086L60.6979 39.3294C61.241 38.6905 61.3448 38.0037 61.0094 37.269C60.6739 36.5343 60.091 36.1669 59.2604 36.1669L51.8333 36.1669L51.9569 35.1669ZM41.7085 56.4684L43.4052 44.7502L36.3083 44.7502C36.1361 44.7502 35.9845 44.7134 35.8537 44.6398C35.7056 44.5565 35.5841 44.426 35.4891 44.2484C35.4024 44.0863 35.3636 43.9271 35.3726 43.7706C35.3817 43.6126 35.4396 43.4573 35.5463 43.3049L49.8752 22.6982C49.9715 22.5633 50.0831 22.449 50.2099 22.3551C50.3338 22.2633 50.4722 22.1912 50.6251 22.1386C50.6994 22.1131 50.7747 22.0945 50.8511 22.0829C51.0745 22.049 51.3069 22.0747 51.5484 22.1599C51.7587 22.2341 51.9281 22.3443 52.0565 22.4904C52.1105 22.5519 52.1573 22.6196 52.1968 22.6937C52.2705 22.832 52.3227 22.9747 52.3531 23.122C52.3877 23.2888 52.3945 23.4613 52.3735 23.6396L50.7022 37.1669L59.2604 37.1669C59.4815 37.1669 59.6657 37.2191 59.8128 37.3234C59.9332 37.4088 60.0288 37.5291 60.0997 37.6843C60.1687 37.8355 60.1976 37.9836 60.1863 38.1286C60.1716 38.3183 60.0882 38.5027 59.936 38.6817L44.1657 57.5676C44.0385 57.718 43.8942 57.8367 43.7328 57.9237C43.628 57.9801 43.5161 58.0232 43.397 58.053C43.2603 58.0872 43.1256 58.0985 42.9929 58.087C42.8521 58.0748 42.7134 58.0369 42.577 57.9732C42.4521 57.9149 42.3386 57.8429 42.2367 57.7573C42.1011 57.6435 41.9858 57.5056 41.8908 57.3435C41.8237 57.2291 41.7742 57.1101 41.7423 56.9866C41.6998 56.8219 41.6885 56.6492 41.7085 56.4684Z" fill="rgb(0,0,0)" fill-rule="evenodd" />
	</g>
</svg>
