<svg viewBox="0 0 43.959 51.8994" xmlns="http://www.w3.org/2000/svg" xmlns:xlink="http://www.w3.org/1999/xlink" width="43.958984" height="51.899414" fill="none" customFrame="#000000">
	<defs>
		<linearGradient id="paint_linear_130" x1="3.72772503" x2="1.36561131" y1="17.2867451" y2="34.7827454" gradientUnits="userSpaceOnUse">
			<stop stop-color="rgb(112,183,232)" offset="0" stop-opacity="1" />
			<stop stop-color="rgb(226,245,255)" offset="1" stop-opacity="1" />
		</linearGradient>
		<linearGradient id="paint_linear_131" x1="6.13587952" x2="31.4851456" y1="14.7303438" y2="27.1749039" gradientUnits="userSpaceOnUse">
			<stop stop-color="rgb(33,166,255)" offset="0" stop-opacity="1" />
			<stop stop-color="rgb(182,212,232)" offset="1" stop-opacity="1" />
		</linearGradient>
		<linearGradient id="paint_linear_132" x1="43.316143" x2="40.1155281" y1="29.4756584" y2="15.9471922" gradientUnits="userSpaceOnUse">
			<stop stop-color="rgb(191,249,255)" offset="0" stop-opacity="1" />
			<stop stop-color="rgb(243,218,243)" offset="1" stop-opacity="1" />
		</linearGradient>
		<linearGradient id="paint_linear_133" x1="20.1348114" x2="38.9499207" y1="45.361042" y2="34.5116844" gradientUnits="userSpaceOnUse">
			<stop stop-color="rgb(229,246,231)" offset="0" stop-opacity="1" />
			<stop stop-color="rgb(84,90,252)" offset="1" stop-opacity="1" />
		</linearGradient>
		<linearGradient id="paint_linear_134" x1="3.83509398" x2="21.5611763" y1="31.8121147" y2="44.3640366" gradientUnits="userSpaceOnUse">
			<stop stop-color="rgb(11,102,234)" offset="0" stop-opacity="1" />
			<stop stop-color="rgb(247,232,231)" offset="1" stop-opacity="1" />
		</linearGradient>
		<linearGradient id="paint_linear_135" x1="4.02944183" x2="20.6409264" y1="14.9605579" y2="0.966823578" gradientUnits="userSpaceOnUse">
			<stop stop-color="rgb(255,255,255)" offset="0" stop-opacity="1" />
			<stop stop-color="rgb(229,181,244)" offset="1" stop-opacity="1" />
		</linearGradient>
		<linearGradient id="paint_linear_136" x1="40.3354874" x2="23.9029446" y1="15.3435278" y2="1.14528084" gradientUnits="userSpaceOnUse">
			<stop stop-color="rgb(74,89,251)" offset="0" stop-opacity="1" />
			<stop stop-color="rgb(229,181,244)" offset="1" stop-opacity="1" />
		</linearGradient>
		<linearGradient id="paint_linear_137" x1="2.50065327" x2="17.9617596" y1="24.1890259" y2="41.9355583" gradientUnits="userSpaceOnUse">
			<stop stop-color="rgb(215,241,224)" offset="0" stop-opacity="1" />
			<stop stop-color="rgb(90,98,251)" offset="1" stop-opacity="1" />
		</linearGradient>
		<linearGradient id="paint_linear_138" x1="26.4080849" x2="41.828289" y1="24.3986492" y2="33.6579323" gradientUnits="userSpaceOnUse">
			<stop stop-color="rgb(67,169,255)" offset="0" stop-opacity="1" />
			<stop stop-color="rgb(141,199,238)" offset="1" stop-opacity="1" />
		</linearGradient>
		<linearGradient id="paint_linear_139" x1="17.3687019" x2="23.5245113" y1="3.15461493" y2="19.009407" gradientUnits="userSpaceOnUse">
			<stop stop-color="rgb(254,238,234)" offset="0" stop-opacity="1" />
			<stop stop-color="rgb(80,93,251)" offset="1" stop-opacity="1" />
		</linearGradient>
		<linearGradient id="paint_linear_140" x1="20.9373608" x2="5.09279442" y1="34.7980881" y2="21.1111183" gradientUnits="userSpaceOnUse">
			<stop stop-color="rgb(42,51,241)" offset="0" stop-opacity="1" />
			<stop stop-color="rgb(52,62,239)" offset="0.100000001" stop-opacity="0.939999998" />
			<stop stop-color="rgb(79,92,237)" offset="0.280000001" stop-opacity="0.779999971" />
			<stop stop-color="rgb(123,140,233)" offset="0.540000021" stop-opacity="0.529999971" />
			<stop stop-color="rgb(182,205,227)" offset="0.839999974" stop-opacity="0.189999998" />
			<stop stop-color="rgb(215,241,224)" offset="1" stop-opacity="0" />
		</linearGradient>
		<linearGradient id="paint_linear_141" x1="29.8950615" x2="15.2315493" y1="21.8166885" y2="9.14716721" gradientUnits="userSpaceOnUse">
			<stop stop-color="rgb(168,208,234)" offset="0" stop-opacity="0" />
			<stop stop-color="rgb(137,190,236)" offset="0.100000001" stop-opacity="0.189999998" />
			<stop stop-color="rgb(104,171,240)" offset="0.230000004" stop-opacity="0.400000006" />
			<stop stop-color="rgb(76,154,242)" offset="0.360000014" stop-opacity="0.589999974" />
			<stop stop-color="rgb(53,141,245)" offset="0.49000001" stop-opacity="0.74000001" />
			<stop stop-color="rgb(35,130,246)" offset="0.620000005" stop-opacity="0.850000024" />
			<stop stop-color="rgb(22,123,248)" offset="0.75" stop-opacity="0.930000007" />
			<stop stop-color="rgb(14,118,248)" offset="0.879999995" stop-opacity="0.980000019" />
			<stop stop-color="rgb(12,117,249)" offset="1" stop-opacity="1" />
		</linearGradient>
		<linearGradient id="paint_linear_142" x1="33.6377182" x2="28.8061218" y1="19.0506592" y2="34.6344757" gradientUnits="userSpaceOnUse">
			<stop stop-color="rgb(28,122,247)" offset="0" stop-opacity="1" />
			<stop stop-color="rgb(31,125,247)" offset="0.100000001" stop-opacity="0.939999998" />
			<stop stop-color="rgb(39,133,247)" offset="0.280000001" stop-opacity="0.790000021" />
			<stop stop-color="rgb(53,146,248)" offset="0.519999981" stop-opacity="0.540000021" />
			<stop stop-color="rgb(71,164,250)" offset="0.829999983" stop-opacity="0.209999993" />
			<stop stop-color="rgb(83,176,251)" offset="1" stop-opacity="0" />
		</linearGradient>
		<linearGradient id="paint_linear_143" x1="0.256134033" x2="21.9446354" y1="44.2924652" y2="44.2924652" gradientUnits="userSpaceOnUse">
			<stop stop-color="rgb(45,123,235)" offset="0" stop-opacity="0" />
			<stop stop-color="rgb(81,140,231)" offset="0.159999996" stop-opacity="0.189999998" />
			<stop stop-color="rgb(149,172,224)" offset="0.460000008" stop-opacity="0.529999971" />
			<stop stop-color="rgb(198,196,219)" offset="0.720000029" stop-opacity="0.779999971" />
			<stop stop-color="rgb(229,211,216)" offset="0.899999976" stop-opacity="0.939999998" />
			<stop stop-color="rgb(241,217,215)" offset="1" stop-opacity="1" />
		</linearGradient>
		<linearGradient id="paint_linear_144" x1="24.8130226" x2="31.5619202" y1="3.17506647" y2="14.372097" gradientUnits="userSpaceOnUse">
			<stop stop-color="rgb(211,194,223)" offset="0" stop-opacity="1" />
			<stop stop-color="rgb(196,186,226)" offset="0.189999998" stop-opacity="1" />
			<stop stop-color="rgb(159,166,235)" offset="0.550000012" stop-opacity="1" />
			<stop stop-color="rgb(104,138,248)" offset="1" stop-opacity="1" />
		</linearGradient>
	</defs>
	<g id="Diamond">
		<g id="Group">
			<path id="Diamond-Fill-10" d="M7.82819 14.9502L0.256134 36.9659L0.256134 14.9502L7.82819 14.9502Z" fill="url(#paint_linear_130)" fill-rule="nonzero" />
			<path id="Diamond-Fill-9" d="M36.0662 14.9502L21.9447 36.9659L7.82822 14.9502L36.0662 14.9502Z" fill="url(#paint_linear_131)" fill-rule="nonzero" />
			<path id="Diamond-Fill-8" d="M43.6894 14.9502L43.6894 36.9659L43.6434 36.9659L36.0662 14.9502L43.6894 14.9502Z" fill="url(#paint_linear_132)" fill-rule="nonzero" />
			<path id="Diamond-Fill-7" d="M43.6895 36.9658L21.9703 51.6396L21.9703 36.9658L43.6895 36.9658Z" fill="url(#paint_linear_133)" fill-rule="nonzero" />
			<path id="Diamond-Fill-6" d="M21.9702 36.9658L21.9702 51.6396L0.256134 36.9658L21.9702 36.9658Z" fill="url(#paint_linear_134)" fill-rule="nonzero" />
			<path id="Diamond-Fill-5" d="M21.9703 0.271484L7.82825 14.9503L0.256195 14.9503L21.9703 0.271484Z" fill="url(#paint_linear_135)" fill-rule="nonzero" />
			<path id="Diamond-Fill-4" d="M43.6895 14.9498L36.0663 14.9498L21.9703 0.270996L43.6895 14.9498Z" fill="url(#paint_linear_136)" fill-rule="nonzero" />
			<path id="Diamond-Fill-3" d="M21.9446 36.9659L0.256134 36.9659L7.82819 14.9502L21.9446 36.9659Z" fill="url(#paint_linear_137)" fill-rule="nonzero" />
			<path id="Diamond-Fill-2" d="M43.6433 36.9659L21.9446 36.9659L36.0662 14.9502L43.6433 36.9659Z" fill="url(#paint_linear_138)" fill-rule="nonzero" />
			<path id="Diamond-Fill-1" d="M36.0662 14.9498L7.82822 14.9498L21.9702 0.270996L36.0662 14.9498Z" fill="url(#paint_linear_139)" fill-rule="nonzero" />
			<path id="Diamond-Shading-1" d="M21.9701 36.9659L3.30331 28.0952L7.82814 14.9502L21.9701 36.9659Z" fill="url(#paint_linear_140)" fill-rule="nonzero" />
			<path id="Diamond-Shading-2" d="M7.82822 14.9502L29.0054 25.9581L36.0662 14.9502L7.82822 14.9502Z" fill="url(#paint_linear_141)" fill-rule="nonzero" />
			<path id="Diamond-Shading-3" d="M36.0663 14.9502L34.195 36.9659L21.9703 36.9659L36.0663 14.9502Z" fill="url(#paint_linear_142)" fill-rule="nonzero" />
			<path id="Diamond-Shading-4" d="M21.9446 51.6242L11.1004 36.9658L0.256134 36.9658L21.9446 51.6242Z" fill="url(#paint_linear_143)" fill-rule="nonzero" />
			<path id="Diamond-Shading-5" d="M21.9703 0.270996L27.758 14.9498L36.0663 14.9498L21.9703 0.270996Z" fill="url(#paint_linear_144)" fill-rule="nonzero" />
			<path id="Vector" d="M43.6945 14.9502L43.6945 36.9659L0.256134 36.9659L0.256134 14.9502L43.6945 14.9502Z" stroke="rgb(0,0,0)" stroke-linecap="round" stroke-linejoin="round" stroke-width="0.511280" />
			<path id="Vector" d="M21.9702 51.6396L43.6894 36.9658L0.256134 36.9658L21.9702 51.6396Z" fill-rule="nonzero" stroke="rgb(0,0,0)" stroke-linecap="round" stroke-linejoin="round" stroke-width="0.511280" />
			<path id="Vector" d="M21.9703 0.271484L43.6894 14.9503L0.256195 14.9503L21.9703 0.271484Z" fill-rule="nonzero" stroke="rgb(0,0,0)" stroke-linecap="round" stroke-linejoin="round" stroke-width="0.511280" />
			<path id="Vector" d="M43.6382 36.9659L36.0662 14.9502L21.9446 36.9659L7.82819 14.9502L0.256134 36.9659" fill-rule="nonzero" stroke="rgb(0,0,0)" stroke-linecap="round" stroke-linejoin="round" stroke-width="0.511280" />
			<path id="Vector" d="M14.6737 0L0 0" stroke="rgb(0,0,0)" stroke-linecap="round" stroke-linejoin="round" stroke-width="0.511280" transform="matrix(-5.55112e-17,1,-1,-5.55112e-17,21.9703,36.9658)" />
			<path id="Vector" d="M36.0662 14.9498L21.9702 0.270996L7.82822 14.9498" fill-rule="nonzero" stroke="rgb(0,0,0)" stroke-linecap="round" stroke-linejoin="round" stroke-width="0.511280" />
			<path id="Vector" d="M8.37012 11.0186L9.72501 15.2315L13.9328 16.5864L9.72501 17.9362L8.37012 22.1491L7.01522 17.9362L2.80228 16.5864L7.01522 15.2315L8.37012 11.0186Z" fill="rgb(255,255,255)" fill-rule="nonzero" />
			<path id="Vector" d="M26.0092 6.62109L26.8171 9.12636L29.3172 9.93419L26.8171 10.7369L26.0092 13.2422L25.2065 10.7369L22.7013 9.93419L25.2065 9.12636L26.0092 6.62109Z" fill="rgb(255,255,255)" fill-rule="nonzero" />
			<path id="Vector" d="M34.2511 30.3496L35.6213 34.6086L39.8803 35.9788L35.6213 37.349L34.2511 41.608L32.8809 37.349L28.6219 35.9788L32.8809 34.6086L34.2511 30.3496Z" fill="rgb(255,255,255)" fill-rule="nonzero" />
		</g>
	</g>
</svg>
