<svg viewBox="0 0 1412 706" xmlns="http://www.w3.org/2000/svg" xmlns:xlink="http://www.w3.org/1999/xlink" width="1412.000000" height="706.000000" fill="none">
	<defs>
		<linearGradient id="paint_linear_101" x1="202.292511" x2="240.628296" y1="374.097595" y2="304.109467" gradientUnits="userSpaceOnUse">
			<stop stop-color="rgb(153,255,255)" offset="0" stop-opacity="1" />
			<stop stop-color="rgb(99,66,255)" offset="1" stop-opacity="0" />
		</linearGradient>
		<linearGradient id="paint_linear_102" x1="398.23114" x2="1001.44922" y1="498.294861" y2="498.294861" gradientUnits="userSpaceOnUse">
			<stop stop-color="rgb(17,247,235)" offset="0.389999986" stop-opacity="0" />
			<stop stop-color="rgb(255,229,118)" offset="1" stop-opacity="1" />
		</linearGradient>
		<linearGradient id="paint_linear_103" x1="559.375305" x2="559.375305" y1="355.530029" y2="220.942871" gradientUnits="userSpaceOnUse">
			<stop stop-color="rgb(209,230,255)" offset="0" stop-opacity="1" />
			<stop stop-color="rgb(99,66,255)" offset="1" stop-opacity="0" />
		</linearGradient>
		<linearGradient id="paint_linear_104" x1="590.615967" x2="590.615967" y1="355.530029" y2="220.942871" gradientUnits="userSpaceOnUse">
			<stop stop-color="rgb(99,66,255)" offset="0" stop-opacity="0" />
			<stop stop-color="rgb(209,230,255)" offset="1" stop-opacity="1" />
		</linearGradient>
		<linearGradient id="paint_linear_105" x1="2225.52466" x2="2225.52466" y1="220.942871" y2="220.942871" gradientUnits="userSpaceOnUse">
			<stop stop-color="rgb(99,66,255)" offset="0" stop-opacity="0" />
			<stop stop-color="rgb(209,230,255)" offset="1" stop-opacity="1" />
		</linearGradient>
		<linearGradient id="paint_linear_106" x1="1237.08887" x2="1237.08887" y1="705.411743" y2="617.620667" gradientUnits="userSpaceOnUse">
			<stop stop-color="rgb(138,114,226)" offset="0" stop-opacity="0" />
			<stop stop-color="rgb(255,229,118)" offset="1" stop-opacity="1" />
		</linearGradient>
		<linearGradient id="paint_linear_107" x1="1250.09094" x2="1112.18555" y1="469.136963" y2="332.796631" gradientUnits="userSpaceOnUse">
			<stop stop-color="rgb(99,66,255)" offset="0" stop-opacity="0" />
			<stop stop-color="rgb(255,153,248)" offset="1" stop-opacity="1" />
		</linearGradient>
		<linearGradient id="paint_linear_108" x1="921.283081" x2="1191.25757" y1="626.328369" y2="481.833649" gradientUnits="userSpaceOnUse">
			<stop stop-color="rgb(255,229,118)" offset="0" stop-opacity="0" />
			<stop stop-color="rgb(254,219,0)" offset="1" stop-opacity="0.300000012" />
		</linearGradient>
		<linearGradient id="paint_linear_109" x1="481.363159" x2="531.312683" y1="631.199219" y2="603.335815" gradientUnits="userSpaceOnUse">
			<stop stop-color="rgb(99,66,255)" offset="0" stop-opacity="0" />
			<stop stop-color="rgb(153,255,255)" offset="1" stop-opacity="1" />
		</linearGradient>
	</defs>
	<rect id="creative-super-powers-1 1" width="1412.000000" height="706.000000" x="0.000000" y="0.000000" fill="rgb(255,255,255)" fill-opacity="0" />
	<g id="BG">
		<path id="Vector" d="M1412 0L0 0L0 706L1412 706L1412 0Z" fill="rgb(0,0,0)" fill-rule="evenodd" />
	</g>
	<g id="Window Color">
		<path id="Vector" d="M401.256 307.593L401.256 131.857L136.035 131.857L136.035 307.593L136.035 378.887L401.256 378.887L401.256 307.593Z" fill="rgb(230,230,230)" fill-rule="nonzero" />
		<path id="Vector" d="M401.256 363.472L401.256 325.489L136.035 325.489L136.035 363.472L136.035 378.886L401.256 378.886L401.256 363.472Z" fill="rgb(255,96,248)" fill-rule="nonzero" />
		<path id="Vector" d="M474.209 378.887L63.0816 378.887L63.0816 434.19L474.209 434.19L474.209 378.887Z" fill="rgb(51,51,51)" fill-rule="evenodd" />
		<path id="Vector" d="M515.827 2.77686L21.4627 2.77686L21.4627 45.8076L515.827 45.8076L515.827 2.77686Z" fill="rgb(51,51,51)" fill-rule="evenodd" />
		<path id="Vector" d="M485.128 45.8076L52.1618 45.8076L52.1618 67.3171L485.128 67.3171L485.128 45.8076Z" fill="rgb(254,219,0)" fill-rule="evenodd" />
		<path id="Vector" d="M485.128 67.3169L52.1618 67.3169L52.1618 88.8264L485.128 88.8264L485.128 67.3169Z" fill="rgb(255,229,118)" fill-rule="evenodd" />
		<path id="Vector" d="M485.128 88.8267L52.1618 88.8267L52.1618 110.336L485.128 110.336L485.128 88.8267Z" fill="rgb(254,219,0)" fill-rule="evenodd" />
		<path id="Vector" d="M485.128 110.336L52.1618 110.336L52.1618 131.857L485.128 131.857L485.128 110.336Z" fill="rgb(255,229,118)" fill-rule="evenodd" />
		<path id="Vector" d="M485.128 131.857L52.1618 131.857L52.1618 153.367L485.128 153.367L485.128 131.857Z" fill="rgb(254,219,0)" fill-rule="evenodd" />
		<path id="Vector" d="M485.128 153.367L52.1618 153.367L52.1618 174.888L485.128 174.888L485.128 153.367Z" fill="rgb(255,229,118)" fill-rule="evenodd" />
		<path id="Vector" d="M485.128 153.378L52.1618 153.378L52.1618 174.888L485.128 174.888L485.128 153.378Z" fill="rgb(255,229,118)" fill-rule="evenodd" />
		<path id="Vector" d="M485.128 174.888L52.1618 174.888L52.1618 196.409L485.128 196.409L485.128 174.888Z" fill="rgb(254,219,0)" fill-rule="evenodd" />
		<path id="Vector" d="M485.128 196.409L52.1618 196.409L52.1618 217.93L485.128 217.93L485.128 196.409Z" fill="rgb(255,229,118)" fill-rule="evenodd" />
		<path id="Vector" d="M401.255 286.201L401.255 378.887L389.335 378.887C379.981 366.261 376.733 343.869 379.534 324.089C382.005 306.498 389.265 290.978 401.255 286.201Z" fill="rgb(153,255,255)" fill-rule="nonzero" />
		<path id="Vector" d="M181.478 378.886L136.035 378.886L136.035 253.359C150.731 263.385 148.107 287.706 154.614 289.801C163.687 292.731 161.251 271.704 169.393 272.033C177.677 272.374 176.359 286.188 175.665 291.401C174.865 297.331 173.241 303.168 171.111 308.745C169.852 312.052 159.756 328.995 165.722 330.996C166.616 331.29 167.593 331.066 168.44 330.69C172.9 328.725 178.371 315.64 183.772 318.052C184.737 318.488 185.702 319.406 186.655 320.971C197.033 338.009 188.903 362.177 181.478 378.886Z" fill="rgb(138,114,226)" fill-rule="nonzero" />
		<path id="Vector" d="M264.68 325.49C258.62 331.949 255.926 335.891 257.997 339.727C259.973 343.363 272.187 332.62 268.834 346.422C265.798 358.93 254.725 370.638 244.983 378.887L181.478 378.887C188.903 362.178 197.033 338.009 186.655 320.971C185.702 319.406 184.737 318.488 183.772 318.065C183.184 309.169 187.302 298.544 198.528 315.77C212.071 336.585 205.129 271.833 216.86 287.53C223.579 296.52 222.802 318.747 236.016 291.166C249.23 263.585 258.714 255.042 266.363 259.408C273.999 263.75 264.974 283.953 258.279 297.614C251.584 311.287 253.102 316.394 263.397 309.993C277.482 301.238 281.271 308.345 271.387 318.535C268.845 321.159 266.598 323.454 264.68 325.49Z" fill="rgb(105,68,245)" fill-rule="nonzero" />
		<path id="Vector" d="M389.336 378.887L366.767 378.887C366.767 378.887 361.614 373.803 354.777 364.378C354.742 364.331 354.707 364.284 354.66 364.237C351.106 359.295 347.07 353.176 343.093 345.975C338.433 337.55 337.61 330.761 338.728 325.489C340.387 317.582 346.399 313.111 350.235 311.758C356.107 309.699 364.508 306.027 379.534 324.089C376.734 343.869 379.981 366.261 389.336 378.887Z" fill="rgb(17,247,235)" fill-rule="nonzero" />
		<path id="Vector" d="M366.768 378.887L333.28 378.887C312.029 354.906 333.28 342.716 343.093 345.975C347.07 353.176 351.106 359.295 354.66 364.237C354.707 364.284 354.742 364.331 354.777 364.378C361.614 373.803 366.768 378.887 366.768 378.887Z" fill="rgb(153,255,255)" fill-rule="nonzero" />
		<path id="Vector" d="M351.989 261.797C351.989 278.87 338.151 292.708 321.066 292.708C303.98 292.708 290.155 278.87 290.155 261.797C290.155 244.723 303.992 230.886 321.066 230.886C338.139 230.886 351.989 244.723 351.989 261.797Z" fill="rgb(255,255,255)" fill-rule="nonzero" />
		<path id="Vector" d="M321.066 292.708C303.98 292.708 290.155 278.87 290.155 261.797C290.155 244.723 303.992 230.886 321.066 230.886C338.139 230.886 351.989 244.723 351.989 261.797C351.989 278.87 338.151 292.708 321.066 292.708Z" fill-rule="nonzero" stroke="rgb(35,31,32)" stroke-width="1.176667" />
		<path id="Vector" d="M136.035 217.918L86.6149 217.918L86.6149 378.886L136.035 378.886L136.035 217.918Z" fill="rgb(51,51,51)" fill-rule="evenodd" />
		<path id="Vector" d="M450.676 217.931L401.255 217.931L401.255 378.887L450.676 378.887L450.676 217.931Z" fill="rgb(51,51,51)" fill-rule="evenodd" />
		<path id="Vector" d="M77.0838 508.908L143.801 508.908L143.801 554.928L100.617 554.928" fill-rule="nonzero" stroke="rgb(77,77,77)" stroke-width="1.176667" />
		<path id="Vector" d="M210.518 554.928L143.801 554.928L143.801 508.908L210.518 508.908" fill-rule="nonzero" stroke="rgb(77,77,77)" stroke-width="1.176667" />
		<path id="Vector" d="M122.209 554.928L188.926 554.928L188.926 600.959L122.209 600.959" fill-rule="nonzero" stroke="rgb(77,77,77)" stroke-width="1.176667" />
		<path id="Vector" d="M255.643 600.959L188.926 600.959L188.926 554.928L232.109 554.928" fill-rule="nonzero" stroke="rgb(77,77,77)" stroke-width="1.176667" />
		<path id="Vector" d="M999.002 30.0635L932.285 30.0635L932.285 76.0947L975.469 76.0947" fill-rule="nonzero" stroke="rgb(77,77,77)" stroke-width="1.176667" />
		<path id="Vector" d="M853.802 76.0947L932.285 76.0947L932.285 30.0635L853.802 30.0635" fill-rule="nonzero" stroke="rgb(77,77,77)" stroke-width="1.176667" />
		<path id="Vector" d="M953.877 76.0947L887.16 76.0947L887.16 122.114L953.877 122.114" fill-rule="nonzero" stroke="rgb(77,77,77)" stroke-width="1.176667" />
		<path id="Vector" d="M808.676 122.114L887.16 122.114L887.16 76.0947L832.21 76.0947" fill-rule="nonzero" stroke="rgb(77,77,77)" stroke-width="1.176667" />
	</g>
	<g id="Window Shading">
		<path id="Vector" d="M264.679 325.49C258.62 331.949 255.925 335.891 257.996 339.727C259.973 343.363 272.187 332.62 268.833 346.422C265.797 358.93 254.725 370.638 244.982 378.887L181.477 378.887C188.902 362.178 197.033 338.009 186.655 320.971C185.702 319.406 184.737 318.488 183.772 318.065C183.183 309.169 187.302 298.544 198.527 315.77C212.071 336.585 205.128 271.833 216.86 287.53C223.578 296.52 222.802 318.747 236.016 291.166C249.23 263.585 258.714 255.042 266.362 259.408C273.999 263.75 264.974 283.953 258.278 297.614C251.583 311.287 253.101 316.394 263.397 309.993C277.482 301.238 281.27 308.345 271.386 318.535C268.845 321.159 266.597 323.454 264.679 325.49Z" fill="url(#paint_linear_101)" fill-rule="nonzero" />
	</g>
	<g id="Window Lines">
		<path id="Vector" d="M474.221 378.887L474.221 434.202L63.0816 434.202L63.0816 378.887L474.221 378.887Z" stroke="rgb(0,0,0)" stroke-linecap="round" stroke-linejoin="round" stroke-width="1.176667" />
		<path id="Vector" d="M515.839 2.78857L515.839 45.8075L21.4627 45.8075L21.4627 2.78857L515.839 2.78857Z" stroke="rgb(0,0,0)" stroke-linecap="round" stroke-linejoin="round" stroke-width="1.176667" />
		<path id="Vector" d="M485.128 45.8076L485.128 67.3171L52.1618 67.3171L52.1618 45.8076L485.128 45.8076Z" stroke="rgb(0,0,0)" stroke-linecap="round" stroke-linejoin="round" stroke-width="1.176667" />
		<path id="Vector" d="M485.128 67.3174L485.128 88.8268L52.1618 88.8268L52.1618 67.3174L485.128 67.3174Z" stroke="rgb(0,0,0)" stroke-linecap="round" stroke-linejoin="round" stroke-width="1.176667" />
		<path id="Vector" d="M485.128 88.8384L485.128 110.348L52.1618 110.348L52.1618 88.8384L485.128 88.8384Z" stroke="rgb(0,0,0)" stroke-linecap="round" stroke-linejoin="round" stroke-width="1.176667" />
		<path id="Vector" d="M485.128 110.348L485.128 131.858L52.1618 131.858L52.1618 110.348L485.128 110.348Z" stroke="rgb(0,0,0)" stroke-linecap="round" stroke-linejoin="round" stroke-width="1.176667" />
		<path id="Vector" d="M485.128 131.869L485.128 153.379L52.1618 153.379L52.1618 131.869L485.128 131.869Z" stroke="rgb(0,0,0)" stroke-linecap="round" stroke-linejoin="round" stroke-width="1.176667" />
		<path id="Vector" d="M485.128 153.379L485.128 174.888L52.1618 174.888L52.1618 153.379L485.128 153.379Z" stroke="rgb(0,0,0)" stroke-linecap="round" stroke-linejoin="round" stroke-width="1.176667" />
		<path id="Vector" d="M485.128 153.379L485.128 174.888L52.1618 174.888L52.1618 153.379L485.128 153.379Z" stroke="rgb(0,0,0)" stroke-linecap="round" stroke-linejoin="round" stroke-width="1.176667" />
		<path id="Vector" d="M485.128 174.888L485.128 196.398L52.1618 196.398L52.1618 174.888L485.128 174.888Z" stroke="rgb(0,0,0)" stroke-linecap="round" stroke-linejoin="round" stroke-width="1.176667" />
		<path id="Vector" d="M485.128 196.409L485.128 217.919L52.1618 217.919L52.1618 196.409L485.128 196.409Z" stroke="rgb(0,0,0)" stroke-linecap="round" stroke-linejoin="round" stroke-width="1.176667" />
		<path id="Vector" d="M136.035 217.919L136.035 378.887L86.6149 378.887L86.6149 217.919L136.035 217.919Z" stroke="rgb(0,0,0)" stroke-linecap="round" stroke-linejoin="round" stroke-width="1.176667" />
		<path id="Vector" d="M450.676 217.931L450.676 378.887L401.255 378.887L401.255 217.931L450.676 217.931Z" stroke="rgb(0,0,0)" stroke-linecap="round" stroke-linejoin="round" stroke-width="1.176667" />
		<path id="Vector" d="M401.255 286.201C375.792 296.355 371.662 355.036 389.336 378.887" fill-rule="nonzero" stroke="rgb(0,0,0)" stroke-linecap="round" stroke-linejoin="round" stroke-width="1.176667" />
		<path id="Vector" d="M379.534 324.089C364.508 306.027 356.107 309.699 350.235 311.758C343.834 314.017 331.432 324.925 343.093 345.975C354.742 367.026 366.767 378.887 366.767 378.887" fill-rule="nonzero" stroke="rgb(0,0,0)" stroke-linecap="round" stroke-linejoin="round" stroke-width="1.176667" />
		<path id="Vector" d="M343.093 345.976C333.291 342.716 312.041 354.907 333.291 378.887" fill-rule="nonzero" stroke="rgb(0,0,0)" stroke-linecap="round" stroke-linejoin="round" stroke-width="1.176667" />
		<path id="Vector" d="M394.513 361.037C390.724 337.15 401.255 321.312 401.255 321.312" fill-rule="nonzero" stroke="rgb(0,0,0)" stroke-linecap="round" stroke-linejoin="round" stroke-width="1.176667" />
		<path id="Vector" d="M354.777 325.325C354.777 325.325 367.309 335.609 373.463 357.248" fill-rule="nonzero" stroke="rgb(0,0,0)" stroke-linecap="round" stroke-linejoin="round" stroke-width="1.176667" />
		<path id="Vector" d="M335.868 355.601C343.093 355.142 349.341 357.283 354.789 364.39" fill-rule="nonzero" stroke="rgb(0,0,0)" stroke-linecap="round" stroke-linejoin="round" stroke-width="1.176667" />
		<path id="Vector" d="M321.077 292.708C304.005 292.708 290.166 278.868 290.166 261.797C290.166 244.725 304.005 230.886 321.077 230.886C338.149 230.886 351.988 244.725 351.988 261.797C351.988 278.868 338.149 292.708 321.077 292.708Z" stroke="rgb(0,0,0)" stroke-linecap="round" stroke-linejoin="round" stroke-width="1.176667" />
		<path id="Vector" d="M244.982 378.887C254.725 370.638 265.798 358.93 268.833 346.422C272.187 332.62 259.973 343.363 257.996 339.727C255.266 334.679 260.808 329.443 271.387 318.535C281.271 308.345 277.482 301.238 263.397 309.993C253.101 316.394 251.583 311.287 258.279 297.614C264.974 283.953 273.999 263.75 266.362 259.408C258.714 255.042 249.23 263.585 236.016 291.166C222.802 318.747 223.579 296.52 216.86 287.53C205.129 271.833 212.071 336.585 198.527 315.77C187.302 298.544 183.184 309.169 183.772 318.053" fill-rule="nonzero" stroke="rgb(0,0,0)" stroke-linecap="round" stroke-linejoin="round" stroke-width="1.176667" />
		<path id="Vector" d="M136.035 253.36C150.731 263.386 148.107 287.707 154.614 289.813C163.675 292.732 161.251 271.716 169.393 272.046C177.665 272.387 176.359 286.201 175.665 291.402C174.865 297.332 173.241 303.169 171.111 308.758C169.852 312.064 159.757 328.996 165.734 330.997C166.616 331.291 167.593 331.079 168.452 330.691C173.7 328.373 180.36 310.617 186.655 320.96C197.033 337.998 188.903 362.167 181.49 378.875" fill-rule="nonzero" stroke="rgb(0,0,0)" stroke-linecap="round" stroke-linejoin="round" stroke-width="1.176667" />
		<path id="Vector" d="M214.012 369.65C217.448 344.752 228.415 323.748 237.475 310.005" fill-rule="nonzero" stroke="rgb(0,0,0)" stroke-linecap="round" stroke-linejoin="round" stroke-width="1.176667" />
		<path id="Vector" d="M138.282 303.933C138.282 303.933 154.685 329.879 160.274 373.215" fill-rule="nonzero" stroke="rgb(0,0,0)" stroke-linecap="round" stroke-linejoin="round" stroke-width="1.176667" />
		<path id="Vector" d="M173.594 325.49L164.098 325.49" stroke="rgb(0,0,0)" stroke-linecap="round" stroke-linejoin="round" stroke-width="1.176667" />
		<path id="Vector" d="M338.728 325.49L264.68 325.49" stroke="rgb(0,0,0)" stroke-linecap="round" stroke-linejoin="round" stroke-width="1.176667" />
	</g>
	<g id="Body Color">
		<path id="Vector" d="M970.091 705.412L451.487 705.412C401.702 705.412 368.72 671.524 364.767 622.951C360.178 566.706 377.651 508.049 397.09 455.947C423.941 383.982 471.22 337.103 543.867 313.264C661.828 274.552 803.593 283.447 901.268 366.238C946.334 404.432 971.95 455.935 980.163 514.05C988.765 574.931 990.647 646.767 970.091 705.412Z" fill="rgb(17,247,235)" fill-rule="nonzero" />
	</g>
	<g id="Body Shading">
		<path id="Vector" d="M970.091 705.412L451.487 705.412C401.702 705.412 368.72 671.524 364.767 622.951C360.178 566.706 377.651 508.049 397.09 455.947C423.941 383.982 471.22 337.103 543.867 313.264C661.828 274.552 803.593 283.447 901.268 366.238C946.334 404.432 971.95 455.935 980.163 514.05C988.765 574.931 990.647 646.767 970.091 705.412Z" fill="url(#paint_linear_102)" fill-rule="nonzero" />
	</g>
	<g id="Body Lines">
		<path id="Vector" d="M571.107 560.564C585.592 510.12 581.909 447.063 573.543 417.258" fill-rule="nonzero" stroke="rgb(0,0,0)" stroke-linecap="round" stroke-linejoin="round" stroke-width="1.176667" />
		<path id="Vector" d="M364.767 622.963C360.178 566.718 377.651 508.061 397.09 455.958C423.941 383.993 471.22 337.115 543.867 313.276C661.828 274.563 803.593 283.459 901.268 366.249C946.334 404.444 971.95 455.947 980.163 514.062C988.765 574.943 990.647 646.778 970.091 705.423L451.487 705.423C401.702 705.423 368.72 671.535 364.767 622.963ZM451.487 705.423C582.885 705.423 649.92 656.239 687.479 635.918" fill-rule="nonzero" stroke="rgb(0,0,0)" stroke-linecap="round" stroke-linejoin="round" stroke-width="1.176667" />
		<path id="Vector" d="M834.751 463.642C865.603 567.977 844.376 705.411 844.376 705.411" fill-rule="nonzero" stroke="rgb(0,0,0)" stroke-linecap="round" stroke-linejoin="round" stroke-width="1.176667" />
	</g>
	<g id="Head Color">
		<path id="Vector" d="M840.151 307.428C836.963 324.819 830.538 341.069 821.525 355.53C797.074 394.76 753.549 420.858 703.917 420.858C654.285 420.858 610.725 394.736 586.286 355.495L599.688 355.495C599.688 355.495 599.429 355.53 599.688 355.53C613.502 355.53 624.704 325.395 624.704 288.224C624.704 258.996 617.773 234.11 608.089 224.814C630.505 227.45 665.099 229.144 703.905 229.144C717.378 229.144 730.345 228.944 742.464 228.567C749.489 228.344 756.22 228.073 762.621 227.744C767.61 227.485 772.399 227.203 776.929 226.873C795.203 225.602 809.546 223.861 817.948 221.849C823.325 220.554 826.278 219.154 826.278 217.683C826.278 217.589 826.267 217.483 826.243 217.389C827.961 220.601 829.55 223.884 830.997 227.226C835.762 238.122 839.128 249.747 840.916 261.902C833.338 249.053 819.348 240.44 803.357 240.44C789.249 240.44 776.694 247.147 768.739 257.537C760.773 247.147 748.23 240.44 734.122 240.44C711.942 240.44 693.621 256.996 690.879 278.423L695.457 278.423C695.198 280.258 695.057 282.129 695.057 284.036C695.057 289.201 696.057 294.131 697.881 298.638L693.021 298.638C699.022 315.535 715.154 327.643 734.122 327.643C748.23 327.643 760.762 320.936 768.739 310.546C776.706 320.936 789.249 327.643 803.357 327.643C818.83 327.643 832.421 319.583 840.151 307.428Z" fill="rgb(153,255,255)" fill-rule="nonzero" />
		<path id="Vector" d="M581.532 288.236C581.532 324.713 570.742 354.4 557.293 355.506C557.034 355.53 556.775 355.542 556.516 355.542C548.738 355.542 541.796 345.999 537.207 331.032C538.207 331.561 539.254 331.832 540.313 331.832L552.986 331.832C561.941 331.832 569.189 312.311 569.189 288.236C569.189 279.447 568.224 271.269 566.553 264.421C563.659 252.513 558.669 244.653 552.986 244.653L540.313 244.653C539.254 244.653 538.207 244.923 537.207 245.453C541.796 230.486 548.738 220.943 556.516 220.943C562.776 220.943 568.506 227.132 572.884 237.357C578.179 249.701 581.532 267.927 581.532 288.236Z" fill="rgb(138,114,226)" fill-rule="nonzero" />
		<path id="Vector" d="M569.189 288.236C569.189 312.311 561.941 331.832 552.986 331.832L540.314 331.832C549.268 331.832 556.516 312.311 556.516 288.236C556.516 264.161 549.268 244.652 540.314 244.652L552.986 244.652C558.67 244.652 563.659 252.512 566.553 264.409C568.224 271.269 569.189 279.446 569.189 288.236Z" fill="rgb(254,219,0)" fill-rule="nonzero" />
		<path id="Vector" d="M556.516 288.236C556.516 312.311 549.268 331.832 540.313 331.832C539.254 331.832 538.207 331.561 537.207 331.031C529.747 327.125 524.111 309.451 524.111 288.236C524.111 267.021 529.747 249.359 537.207 245.452C538.207 244.923 539.254 244.652 540.313 244.652C549.268 244.652 556.516 264.173 556.516 288.236Z" fill="rgb(255,229,118)" fill-rule="nonzero" />
		<path id="Vector" d="M624.704 288.236C624.704 325.407 613.502 355.542 599.688 355.542C599.429 355.542 599.688 355.506 599.688 355.506L557.293 355.506C570.742 354.4 581.532 324.713 581.532 288.236C581.532 267.927 578.178 249.701 572.883 237.369C568.506 227.132 562.776 220.943 556.516 220.943L565.894 220.943L566.294 221.166L589.769 234.71L597.758 234.71C598.323 230.038 599.111 225.449 600.112 220.955C602.9 221.072 605.595 222.437 608.089 224.826C617.773 234.122 624.704 259.008 624.704 288.236Z" fill="rgb(99,66,255)" fill-rule="nonzero" />
		<path id="Vector" d="M773.187 284.047C773.187 289.213 772.187 294.143 770.363 298.65L697.88 298.65C696.057 294.143 695.057 289.213 695.057 284.047C695.057 282.141 695.198 280.27 695.457 278.435L772.787 278.435C773.046 280.27 773.187 282.141 773.187 284.047Z" fill="rgb(255,255,255)" fill-rule="nonzero" />
		<path id="Vector" d="M777.353 278.423L690.88 278.423C693.621 256.996 711.942 240.44 734.122 240.44C748.23 240.44 760.774 247.147 768.74 257.537C773.293 263.48 776.353 270.622 777.353 278.423Z" fill="rgb(17,247,235)" fill-rule="nonzero" />
		<path id="Vector" d="M846.588 278.423L777.353 278.423C776.353 270.622 773.293 263.48 768.74 257.537C776.694 247.147 789.249 240.44 803.357 240.44C819.348 240.44 833.338 249.054 840.916 261.903C843.846 266.857 845.823 272.446 846.588 278.423Z" fill="rgb(17,247,235)" fill-rule="nonzero" />
		<path id="Vector" d="M842.411 283.283L842.411 283.306C842.411 284.189 842.411 285.047 842.375 285.918L842.375 286.012C842.152 290.46 841.187 294.708 839.599 298.638L770.363 298.638C772.187 294.131 773.187 289.201 773.187 284.036C773.187 282.129 773.046 280.258 772.787 278.423L842.022 278.423C842.246 280.011 842.387 281.635 842.411 283.283Z" fill="rgb(255,255,255)" fill-rule="nonzero" />
		<path id="Vector" d="M869.792 288.236C869.792 304.875 867.556 320.089 863.826 331.832C863.391 333.22 862.944 334.55 862.461 335.833C857.931 348.011 851.683 355.542 844.764 355.542L821.525 355.542C830.538 341.081 836.963 324.831 840.152 307.44C841.905 304.698 843.34 301.756 844.446 298.65L839.599 298.65C841.187 294.72 842.152 290.472 842.375 286.024L842.375 285.93C842.411 285.307 842.422 284.683 842.422 284.047C842.422 283.812 842.422 283.565 842.411 283.33L842.411 283.294C842.387 281.647 842.246 280.023 842.022 278.435L846.588 278.435C845.823 272.457 843.846 266.868 840.916 261.914C839.128 249.759 835.763 238.134 830.997 227.238L833.48 228.615L842.422 228.615C842.105 226.026 841.693 223.473 841.222 220.943L844.764 220.943C852.401 220.943 859.249 230.144 863.826 244.653C867.556 256.396 869.792 271.61 869.792 288.236Z" fill="rgb(99,66,255)" fill-rule="nonzero" />
		<path id="Vector" d="M882.053 288.236C882.053 312.311 874.793 331.832 865.85 331.832L863.826 331.832C867.556 320.088 869.792 304.874 869.792 288.236C869.792 271.598 867.556 256.395 863.826 244.652L865.85 244.652C874.793 244.652 882.053 264.173 882.053 288.236Z" fill="rgb(254,219,0)" fill-rule="nonzero" />
		<path id="Vector" d="M842.423 228.603L833.48 228.603C833.057 226.014 832.562 223.461 831.998 220.931C818.831 161.191 770.128 116.866 712.072 116.866C654.015 116.866 609.925 157.12 594.24 212.588C593.464 215.33 592.758 218.107 592.146 220.931C591.146 225.426 590.357 230.026 589.781 234.698L589.769 234.698L566.294 221.154C566.294 221.072 566.306 221.001 566.33 220.931C578.367 155.967 635.329 106.771 703.776 106.771C772.223 106.771 829.197 155.967 841.223 220.931C841.693 223.461 842.105 226.014 842.423 228.603Z" fill="rgb(255,255,255)" fill-rule="nonzero" />
		<path id="Vector" d="M833.48 228.603L830.997 227.226C829.55 223.885 827.962 220.602 826.244 217.389C826.22 217.295 826.173 217.213 826.126 217.119C826.114 217.083 826.091 217.036 826.055 217.001C825.291 215.789 822.502 214.612 817.983 213.53C803.475 161.509 760.597 123.821 709.977 123.821C674.736 123.821 643.26 142.083 622.48 170.735C613.844 182.631 607.054 196.327 602.618 211.247C601.677 214.424 600.841 217.66 600.112 220.943C599.112 225.438 598.323 230.027 597.758 234.698L589.781 234.698C590.357 230.027 591.146 225.426 592.146 220.931C592.758 218.107 593.464 215.33 594.24 212.589C609.925 157.12 656.745 116.867 712.072 116.867C770.128 116.867 818.831 161.192 831.998 220.931C832.562 223.461 833.057 226.014 833.48 228.603Z" fill="rgb(209,230,255)" fill-rule="nonzero" />
		<path id="Vector" d="M762.621 227.744C756.22 228.073 749.489 228.344 742.464 228.568C730.345 228.944 717.378 229.144 703.905 229.144C665.099 229.144 630.505 227.45 608.089 224.814C605.595 222.425 602.9 221.06 600.111 220.943C600.841 217.66 601.676 214.424 602.618 211.247C607.054 196.327 613.843 182.63 622.48 170.734C640.953 150.437 649.555 160.639 660.392 154.696C665.252 152.025 672.959 147.507 678.43 148.425C682.866 149.178 686.608 151.096 691.009 152.072C697.775 153.579 705.023 149.919 711.636 151.966C712.048 152.096 712.436 152.237 712.824 152.402C717.225 154.237 720.237 158.25 723.438 162.086C725.638 164.71 727.921 167.24 730.804 168.934C734.557 171.134 739.229 171.829 742.394 174.817C747.159 179.348 746.63 187.196 750.254 192.679C754.078 198.445 762.197 201.21 764.174 207.705C764.233 207.893 764.292 208.082 764.339 208.282C765.868 214.671 760.667 221.919 762.621 227.744Z" fill="rgb(255,153,248)" fill-rule="nonzero" />
		<path id="Vector" d="M747.43 162.957C751.596 165.733 757.056 165.216 762.045 164.686C762.351 164.651 762.668 164.616 762.986 164.592" fill="rgb(188,255,40)" fill-rule="nonzero" />
		<path id="Vector" d="M826.279 217.684C826.279 219.155 823.325 220.555 817.948 221.849C817.642 219.284 816.124 216.813 814.394 214.789C813.7 213.966 812.959 213.165 812.218 212.354C814.371 212.73 816.301 213.118 817.983 213.53C822.502 214.613 825.29 215.789 826.055 217.001C826.091 217.037 826.114 217.084 826.126 217.119C826.173 217.213 826.22 217.296 826.243 217.39C826.267 217.484 826.279 217.59 826.279 217.684Z" fill="rgb(17,247,235)" fill-rule="nonzero" />
		<path id="Vector" d="M817.948 221.849C809.547 223.861 795.203 225.602 776.929 226.873C772.399 227.203 767.61 227.485 762.621 227.744C760.668 221.919 765.869 214.671 764.339 208.282C764.292 208.082 764.233 207.894 764.174 207.705C762.198 201.21 754.078 198.445 750.254 192.679C746.63 187.196 747.16 179.348 742.394 174.817C739.229 171.829 734.558 171.134 730.804 168.934C727.921 167.24 725.638 164.71 723.438 162.086C720.238 158.25 717.225 154.238 712.825 152.402C716.966 150.507 720.838 147.578 725.333 147.801C728.804 147.978 731.851 150.025 735.111 151.213C738.652 152.508 742.453 152.814 746.195 153.249C749.937 153.696 753.761 154.332 757.032 156.191C760.127 157.968 762.68 161.062 762.986 164.58C767.716 164.133 772.835 164.098 776.494 167.04C779.742 169.64 781.118 174.064 784.366 176.653C787.19 178.912 791.026 179.465 794.132 181.336C798.156 183.76 800.663 188.49 800.416 193.197C802.616 194.291 804.569 195.939 805.664 198.127C806.946 200.681 806.946 203.693 807.993 206.34C808.911 208.635 810.535 210.517 812.218 212.353C812.959 213.165 813.7 213.965 814.394 214.789C816.124 216.813 817.642 219.284 817.948 221.849Z" fill="rgb(255,96,248)" fill-rule="nonzero" />
		<path id="Vector" d="M835.092 289.013C835.092 295.332 829.962 300.474 823.631 300.474C817.301 300.474 812.171 295.332 812.171 289.013L835.092 289.013Z" fill="rgb(0,0,0)" fill-rule="nonzero" />
		<path id="Vector" d="M827.679 297.191C829.024 297.191 830.114 296.1 830.114 294.755C830.114 293.41 829.024 292.319 827.679 292.319C826.333 292.319 825.243 293.41 825.243 294.755C825.243 296.1 826.333 297.191 827.679 297.191Z" fill="rgb(255,255,255)" fill-rule="evenodd" />
		<path id="Vector" d="M765.857 289.013C765.857 295.332 760.727 300.474 754.397 300.474C748.066 300.474 742.936 295.332 742.936 289.013L765.857 289.013Z" fill="rgb(0,0,0)" fill-rule="nonzero" />
		<path id="Vector" d="M757.785 297.191C759.13 297.191 760.221 296.1 760.221 294.755C760.221 293.41 759.13 292.319 757.785 292.319C756.44 292.319 755.349 293.41 755.349 294.755C755.349 296.1 756.44 297.191 757.785 297.191Z" fill="rgb(255,255,255)" fill-rule="evenodd" />
		<path id="Vector" d="M775.211 298.638C773.67 302.968 771.481 306.969 768.74 310.546C760.762 320.936 748.23 327.643 734.122 327.643C715.154 327.643 699.022 315.535 693.021 298.638L775.211 298.638Z" fill="rgb(17,247,235)" fill-rule="nonzero" />
		<path id="Vector" d="M844.446 298.638C843.34 301.745 841.905 304.686 840.151 307.416C832.421 319.583 818.83 327.643 803.357 327.643C789.249 327.643 776.706 320.936 768.74 310.546C771.481 306.969 773.67 302.968 775.211 298.638L844.446 298.638Z" fill="rgb(17,247,235)" fill-rule="nonzero" />
	</g>
	<g id="Head Shading">
		<path id="Vector" d="M581.532 288.236C581.532 324.713 570.742 354.4 557.293 355.506C557.034 355.53 556.775 355.542 556.516 355.542C548.738 355.542 541.796 345.999 537.207 331.032C538.207 331.561 539.254 331.832 540.313 331.832L552.986 331.832C561.94 331.832 569.189 312.311 569.189 288.236C569.189 279.447 568.224 271.269 566.553 264.421C563.658 252.513 558.669 244.653 552.986 244.653L540.313 244.653C539.254 244.653 538.207 244.923 537.207 245.453C541.796 230.486 548.738 220.943 556.516 220.943C562.776 220.943 568.506 227.132 572.883 237.357C578.178 249.701 581.532 267.927 581.532 288.236Z" fill="url(#paint_linear_103)" fill-rule="nonzero" />
		<path id="Vector" d="M624.704 288.236C624.704 325.407 613.502 355.542 599.688 355.542C599.429 355.542 599.688 355.506 599.688 355.506L557.293 355.506C570.742 354.4 581.532 324.713 581.532 288.236C581.532 267.927 578.179 249.701 572.884 237.369C568.506 227.132 562.776 220.943 556.516 220.943L565.894 220.943L566.294 221.166L589.769 234.71L597.758 234.71C598.323 230.038 599.112 225.449 600.112 220.955C602.9 221.072 605.595 222.437 608.089 224.826C617.773 234.122 624.704 259.008 624.704 288.236Z" fill="url(#paint_linear_104)" fill-rule="nonzero" />
		<path id="Vector" d="M869.792 288.236C869.792 304.875 867.556 320.089 863.826 331.832C863.39 333.22 862.943 334.55 862.461 335.833C857.931 348.011 851.683 355.542 844.764 355.542L821.525 355.542C830.538 341.081 836.963 324.831 840.151 307.44C841.905 304.698 843.34 301.756 844.446 298.65L839.598 298.65C841.187 294.72 842.152 290.472 842.375 286.024L842.375 285.93C842.411 285.307 842.422 284.683 842.422 284.047C842.422 283.812 842.422 283.565 842.41 283.33L842.41 283.294C842.387 281.647 842.246 280.023 842.022 278.435L846.588 278.435C845.823 272.457 843.846 266.868 840.916 261.914C839.128 249.759 835.762 238.134 830.997 227.238L833.48 228.615L842.422 228.615C842.105 226.026 841.693 223.473 841.222 220.943L844.764 220.943C852.4 220.943 859.249 230.144 863.826 244.653C867.556 256.396 869.792 271.61 869.792 288.236Z" fill="url(#paint_linear_105)" fill-rule="nonzero" />
	</g>
	<g id="Head Lines">
		<path id="Vector" d="M697.88 298.65C696.057 294.143 695.057 289.213 695.057 284.047C695.057 282.141 695.198 280.27 695.457 278.435" fill-rule="nonzero" stroke="rgb(0,0,0)" stroke-linecap="round" stroke-linejoin="round" stroke-width="1.176667" />
		<path id="Vector" d="M772.787 278.435C773.046 280.27 773.187 282.141 773.187 284.047C773.187 289.213 772.187 294.143 770.363 298.65" fill-rule="nonzero" stroke="rgb(0,0,0)" stroke-linecap="round" stroke-linejoin="round" stroke-width="1.176667" />
		<path id="Vector" d="M777.353 278.434C774.611 257.007 756.291 240.452 734.122 240.452C711.954 240.452 693.621 257.007 690.88 278.434L777.353 278.434Z" fill-rule="nonzero" stroke="rgb(0,0,0)" stroke-linecap="round" stroke-linejoin="round" stroke-width="1.176667" />
		<path id="Vector" d="M775.211 298.65C769.21 315.547 753.078 327.655 734.122 327.655C715.166 327.655 699.022 315.547 693.021 298.65L775.211 298.65Z" fill-rule="nonzero" stroke="rgb(0,0,0)" stroke-linecap="round" stroke-linejoin="round" stroke-width="1.176667" />
		<path id="Vector" d="M842.034 278.435C842.293 280.27 842.434 282.141 842.434 284.047C842.434 289.213 841.434 294.143 839.61 298.65" fill-rule="nonzero" stroke="rgb(0,0,0)" stroke-linecap="round" stroke-linejoin="round" stroke-width="1.176667" />
		<path id="Vector" d="M768.74 257.549C776.694 247.159 789.249 240.452 803.357 240.452C825.525 240.452 843.846 257.007 846.588 278.434L777.353 278.434" fill-rule="nonzero" stroke="rgb(0,0,0)" stroke-linecap="round" stroke-linejoin="round" stroke-width="1.176667" />
		<path id="Vector" d="M768.74 310.558C776.706 320.948 789.249 327.655 803.357 327.655C822.313 327.655 838.445 315.547 844.446 298.65L775.211 298.65" fill-rule="nonzero" stroke="rgb(0,0,0)" stroke-linecap="round" stroke-linejoin="round" stroke-width="1.176667" />
		<path id="Vector" d="M842.376 286.024L842.376 285.93C842.399 285.059 842.411 284.2 842.411 283.33L842.411 283.294" fill-rule="nonzero" stroke="rgb(0,0,0)" stroke-linecap="round" stroke-linejoin="round" stroke-width="1.176667" />
		<path id="Vector" d="M840.151 307.428C828.349 371.98 771.846 420.87 703.917 420.87C654.262 420.87 610.725 394.748 586.286 355.506" fill-rule="nonzero" stroke="rgb(0,0,0)" stroke-linecap="round" stroke-linejoin="round" stroke-width="1.176667" />
		<path id="Vector" d="M840.916 261.914C838.575 246.029 833.539 231.039 826.243 217.401C826.22 217.307 826.173 217.225 826.126 217.13C826.114 217.095 826.09 217.048 826.055 217.013" fill-rule="nonzero" stroke="rgb(0,0,0)" stroke-linecap="round" stroke-linejoin="round" stroke-width="1.176667" />
		<path id="Vector" d="M0.0119026 0L0 0" stroke="rgb(0,0,0)" stroke-linecap="round" stroke-linejoin="round" stroke-width="1.176667" transform="matrix(0,1,-1,0,566.553,264.409)" />
		<path id="Vector" d="M730.604 355.495L792.344 355.495" stroke="rgb(0,0,0)" stroke-linecap="round" stroke-linejoin="round" stroke-width="1.176667" />
		<path id="Vector" d="M812.218 212.365C814.371 212.741 816.301 213.13 817.984 213.541C822.502 214.624 825.291 215.801 826.056 217.013C826.091 217.048 826.114 217.095 826.126 217.13C826.173 217.224 826.22 217.307 826.244 217.401C826.267 217.495 826.279 217.601 826.279 217.695C826.279 219.166 823.326 220.566 817.948 221.86C807.452 224.379 787.708 226.461 762.621 227.756C745.195 228.65 725.18 229.156 703.906 229.156C665.099 229.156 630.505 227.461 608.09 224.826" fill-rule="nonzero" stroke="rgb(0,0,0)" stroke-linecap="round" stroke-linejoin="round" stroke-width="1.176667" />
		<path id="Vector" d="M537.207 331.032C541.796 345.999 548.738 355.542 556.516 355.542C556.775 355.542 557.034 355.53 557.293 355.506C570.742 354.4 581.532 324.713 581.532 288.236C581.532 267.927 578.179 249.701 572.884 237.369C568.506 227.132 562.776 220.943 556.516 220.943C548.738 220.943 541.796 230.486 537.207 245.453" fill-rule="nonzero" stroke="rgb(0,0,0)" stroke-linecap="round" stroke-linejoin="round" stroke-width="1.176667" />
		<path id="Vector" d="M552.986 244.652C561.941 244.652 569.189 264.173 569.189 288.236C569.189 312.299 561.941 331.832 552.986 331.832" fill-rule="nonzero" stroke="rgb(0,0,0)" stroke-linecap="round" stroke-linejoin="round" stroke-width="1.176667" />
		<path id="Vector" d="M540.313 331.82C531.365 331.82 524.111 312.307 524.111 288.236C524.111 264.165 531.365 244.652 540.313 244.652C549.262 244.652 556.516 264.165 556.516 288.236C556.516 312.307 549.262 331.82 540.313 331.82Z" stroke="rgb(0,0,0)" stroke-linecap="round" stroke-linejoin="round" stroke-width="1.176667" />
		<path id="Vector" d="M556.516 355.506L599.688 355.506C599.688 355.506 599.429 355.542 599.688 355.542C613.502 355.542 624.704 325.407 624.704 288.236C624.704 259.008 617.773 234.122 608.089 224.826C605.595 222.437 602.9 221.072 600.112 220.955" fill-rule="nonzero" stroke="rgb(0,0,0)" stroke-linecap="round" stroke-linejoin="round" stroke-width="1.176667" />
		<path id="Vector" d="M566.329 220.943L565.894 220.943L556.516 220.943" stroke="rgb(0,0,0)" stroke-linecap="round" stroke-linejoin="round" stroke-width="1.176667" />
		<path id="Vector" d="M821.537 355.542L844.776 355.542C858.602 355.542 869.804 325.407 869.804 288.236C869.804 251.077 858.602 220.943 844.776 220.943L841.234 220.943" fill-rule="nonzero" stroke="rgb(0,0,0)" stroke-linecap="round" stroke-linejoin="round" stroke-width="1.176667" />
		<path id="Vector" d="M552.986 244.652L540.314 244.652" stroke="rgb(0,0,0)" stroke-linecap="round" stroke-linejoin="round" stroke-width="1.176667" />
		<path id="Vector" d="M552.986 331.82L540.314 331.82" stroke="rgb(0,0,0)" stroke-linecap="round" stroke-linejoin="round" stroke-width="1.176667" />
		<path id="Vector" d="M863.826 331.832L865.85 331.832C874.793 331.832 882.053 312.311 882.053 288.236C882.053 264.161 874.793 244.652 865.85 244.652L863.826 244.652" fill-rule="nonzero" stroke="rgb(0,0,0)" stroke-linecap="round" stroke-linejoin="round" stroke-width="1.176667" />
		<path id="Vector" d="M817.983 213.542C803.475 161.521 760.597 123.833 709.977 123.833C659.357 123.833 617.75 160.427 602.618 211.259C601.676 214.436 600.841 217.672 600.111 220.955C599.111 225.449 598.323 230.038 597.758 234.71" fill-rule="nonzero" stroke="rgb(0,0,0)" stroke-linecap="round" stroke-linejoin="round" stroke-width="1.176667" />
		<path id="Vector" d="M597.758 234.71L589.78 234.71L589.768 234.71L566.294 221.166L565.894 220.943" fill-rule="nonzero" stroke="rgb(0,0,0)" stroke-linecap="round" stroke-linejoin="round" stroke-width="1.176667" />
		<path id="Vector" d="M589.781 234.709C590.357 230.038 591.146 225.437 592.146 220.942C592.758 218.118 593.464 215.341 594.24 212.6C609.925 157.132 656.745 116.878 712.072 116.878C770.128 116.878 818.831 161.203 831.998 220.942C832.562 223.472 833.057 226.026 833.48 228.614L842.423 228.614C842.105 226.026 841.693 223.472 841.223 220.942C829.197 155.979 772.235 106.782 703.776 106.782C635.318 106.782 578.367 155.979 566.33 220.942C566.306 221.013 566.294 221.084 566.294 221.166" fill-rule="nonzero" stroke="rgb(0,0,0)" stroke-linecap="round" stroke-linejoin="round" stroke-width="1.176667" />
		<path id="Vector" d="M833.48 228.614L830.997 227.238" stroke="rgb(0,0,0)" stroke-linecap="round" stroke-linejoin="round" stroke-width="1.176667" />
		<path id="Vector" d="M622.48 170.746C640.954 150.449 649.555 160.65 660.392 154.708C665.252 152.037 672.959 147.519 678.431 148.436C682.867 149.19 686.609 151.107 691.009 152.084C697.775 153.59 705.023 149.931 711.636 151.978C719.885 154.532 723.356 164.569 730.804 168.946C734.558 171.146 739.229 171.84 742.394 174.829C747.16 179.359 746.63 187.208 750.254 192.691C754.079 198.457 762.198 201.222 764.174 207.717C764.233 207.905 764.292 208.093 764.339 208.293C765.869 214.683 760.668 221.931 762.621 227.756" fill-rule="nonzero" stroke="rgb(0,0,0)" stroke-linecap="round" stroke-linejoin="round" stroke-width="1.176667" />
		<path id="Vector" d="M712.825 152.414C716.966 150.519 720.838 147.589 725.333 147.813C728.804 147.989 731.851 150.037 735.111 151.225C738.652 152.52 742.453 152.825 746.195 153.261C749.937 153.708 753.761 154.343 757.032 156.202C760.127 157.979 762.68 161.074 762.986 164.592" fill-rule="nonzero" stroke="rgb(0,0,0)" stroke-linecap="round" stroke-linejoin="round" stroke-width="1.176667" />
		<path id="Vector" d="M800.416 193.209C800.663 188.502 798.157 183.772 794.132 181.348C791.026 179.477 787.19 178.924 784.366 176.665C781.118 174.076 779.742 169.652 776.494 167.051C772.835 164.11 767.716 164.145 762.986 164.592C762.668 164.616 762.351 164.651 762.045 164.686C757.056 165.216 751.596 165.733 747.43 162.957" fill-rule="nonzero" stroke="rgb(0,0,0)" stroke-linecap="round" stroke-linejoin="round" stroke-width="1.176667" />
		<path id="Vector" d="M817.948 221.861C817.642 219.295 816.124 216.824 814.394 214.801C813.7 213.977 812.959 213.177 812.217 212.365C810.535 210.529 808.911 208.647 807.993 206.352C806.946 203.705 806.946 200.692 805.663 198.139C804.357 195.538 801.851 193.703 799.144 192.632C796.438 191.561 793.52 191.161 790.637 190.761" fill-rule="nonzero" stroke="rgb(0,0,0)" stroke-linecap="round" stroke-linejoin="round" stroke-width="1.176667" />
		<path id="Vector" d="M695.986 218.919C700.081 216.33 700.787 210.741 701.034 205.905C701.281 201.069 701.858 195.503 705.847 192.761C708.012 191.267 711.13 190.655 712.083 188.208C712.93 186.043 711.565 183.689 710.095 181.889C708.624 180.089 706.918 178.171 706.965 175.853C707.047 171.581 713.083 168.687 712.119 164.521" fill-rule="nonzero" stroke="rgb(0,0,0)" stroke-linecap="round" stroke-linejoin="round" stroke-width="1.176667" />
		<path id="Vector" d="M679.407 215.024C677.678 211.835 674.242 209.635 670.629 209.399C669.111 209.305 667.429 209.47 666.24 208.529C664.499 207.152 664.958 204.446 665.558 202.304C666.158 200.162 666.57 197.433 664.769 196.115C662.793 194.656 660.11 196.279 657.698 196.738C655.121 197.221 652.309 196.15 650.697 194.079" fill-rule="nonzero" stroke="rgb(0,0,0)" stroke-linecap="round" stroke-linejoin="round" stroke-width="1.176667" />
		<path id="Vector" d="M625.492 209.376C624.492 202.728 627.422 195.645 632.823 191.644C637.695 188.043 644.449 186.69 647.779 181.619C649.802 178.548 650.12 174.665 651.567 171.288C653.015 167.911 656.568 164.734 660.039 165.957C662.875 166.957 664.358 170.487 667.288 171.158C670.582 171.923 673.524 168.699 676.901 168.464C680.313 168.24 683.055 171.017 685.585 173.311C688.115 175.606 691.821 177.677 694.763 175.935" fill-rule="nonzero" stroke="rgb(0,0,0)" stroke-linecap="round" stroke-linejoin="round" stroke-width="1.176667" />
		<path id="Vector" d="M725.839 201.916C728.392 204.187 728.533 208.046 728.533 211.471C728.521 214.883 728.768 218.778 731.416 220.943C733.922 222.978 737.735 222.696 740.276 224.685C741.488 225.626 742.253 227.061 742.465 228.579" fill-rule="nonzero" stroke="rgb(0,0,0)" stroke-linecap="round" stroke-linejoin="round" stroke-width="1.176667" />
		<path id="Vector" d="M723.438 162.098C723.767 161.05 724.179 160.027 724.791 159.121C725.65 157.873 727.003 156.873 728.509 156.838C731.133 156.755 733.086 159.426 735.675 159.815" fill-rule="nonzero" stroke="rgb(0,0,0)" stroke-linecap="round" stroke-linejoin="round" stroke-width="1.176667" />
		<path id="Vector" d="M761.656 175.759C763.904 176.3 765.304 178.606 765.751 180.866C766.198 183.125 765.939 185.466 766.175 187.761C766.41 190.055 767.292 192.491 769.293 193.644C770.834 194.527 772.705 194.468 774.435 194.833C777.765 195.55 780.659 198.01 781.895 201.187" fill-rule="nonzero" stroke="rgb(0,0,0)" stroke-linecap="round" stroke-linejoin="round" stroke-width="1.176667" />
		<path id="Vector" d="M776.929 226.885C776.471 224.402 775.376 221.86 776.576 219.731C777.647 217.824 780.153 217.213 782.342 217.448C784.519 217.683 786.578 218.566 788.755 218.872C793.014 219.448 797.215 217.754 801.18 216.095" fill-rule="nonzero" stroke="rgb(0,0,0)" stroke-linecap="round" stroke-linejoin="round" stroke-width="1.176667" />
		<path id="Vector" d="M742.936 289.013C742.936 293.049 745.03 296.59 748.195 298.638L760.598 298.638C763.763 296.59 765.857 293.049 765.857 289.013L742.936 289.013Z" fill-rule="nonzero" stroke="rgb(0,0,0)" stroke-linecap="round" stroke-linejoin="round" stroke-width="1.176667" />
		<path id="Vector" d="M812.182 289.013C812.182 293.049 814.277 296.59 817.442 298.638L829.844 298.638C833.009 296.59 835.104 293.049 835.104 289.013L812.182 289.013Z" fill-rule="nonzero" stroke="rgb(0,0,0)" stroke-linecap="round" stroke-linejoin="round" stroke-width="1.176667" />
	</g>
	<g id="Lamp Color">
		<path id="Vector" d="M1324.89 705.412L1149.3 705.412C1149.3 656.921 1188.61 617.609 1237.09 617.609C1245.44 617.609 1253.53 618.774 1261.18 620.951C1268.85 623.139 1276.08 626.34 1282.74 630.399C1308.02 645.814 1324.89 673.642 1324.89 705.412Z" fill="rgb(138,114,226)" fill-rule="nonzero" />
		<path id="Vector" d="M1219.06 512.615C1234.24 496.6 1225.6 462.43 1200.31 428.048C1192.72 417.752 1183.64 407.444 1173.27 397.596C1128.24 354.871 1075.74 337.103 1056 357.907C1089.12 322.995 1139.34 314.029 1181.21 331.679C1193.34 336.785 1204.78 344.128 1214.89 353.729C1216.57 355.33 1218.19 356.965 1219.74 358.636L1219.82 358.707C1220.26 359.177 1220.7 359.66 1221.13 360.142C1238.25 379.157 1247.78 402.702 1249.61 426.753C1251.9 457.288 1241.81 488.646 1219.06 512.615Z" fill="rgb(99,66,255)" fill-rule="nonzero" />
		<path id="Vector" d="M1219.06 512.615C1216.56 515.25 1213.53 517.274 1210.05 518.686C1216.8 501.919 1208.9 475.138 1190.01 447.627C1181.73 435.543 1171.32 423.317 1159.12 411.739C1147.23 400.443 1134.8 390.9 1122.6 383.346C1094.5 365.943 1067.57 359.118 1050.88 365.967C1052.09 362.931 1053.8 360.225 1056 357.907C1075.74 337.103 1128.24 354.871 1173.27 397.595C1183.64 407.444 1192.72 417.752 1200.31 428.048C1225.6 462.43 1234.24 496.6 1219.06 512.615Z" fill="rgb(209,230,255)" fill-rule="nonzero" />
		<path id="Vector" d="M1210.05 518.675C1186.13 528.488 1141.11 510.203 1101.8 472.914C1061.8 434.955 1041.15 390.077 1050.88 365.955C1067.57 359.107 1094.5 365.932 1122.6 383.335C1113.88 391.795 1108.47 403.644 1108.47 416.764C1108.47 442.497 1129.33 463.372 1155.08 463.372C1168.98 463.372 1181.47 457.276 1190.01 447.616C1208.9 475.126 1216.8 501.907 1210.05 518.675Z" fill="rgb(59,54,130)" fill-rule="nonzero" />
		<path id="Vector" d="M1258.14 367.061C1258.14 376.51 1255.33 385.299 1250.5 392.642L1221.13 360.142L1220.26 359.177C1220.12 359.012 1219.97 358.86 1219.82 358.707L1219.74 358.636C1218.19 356.965 1216.57 355.33 1214.89 353.729C1204.78 344.128 1193.34 336.785 1181.21 331.679C1189.36 324.677 1199.96 320.453 1211.53 320.453C1237.28 320.453 1258.14 341.327 1258.14 367.061Z" fill="rgb(138,114,226)" fill-rule="nonzero" />
		<path id="Vector" d="M1190.01 447.616C1181.47 457.276 1168.98 463.371 1155.07 463.371C1129.33 463.371 1108.47 442.497 1108.47 416.764C1108.47 403.644 1113.88 391.795 1122.6 383.334C1134.8 390.889 1147.23 400.431 1159.12 411.727C1171.32 423.306 1181.73 435.531 1190.01 447.616Z" fill="rgb(255,229,118)" fill-rule="nonzero" />
		<g id="Group">
			<path id="Vector" d="M1327.97 526.947L1282.74 630.411C1276.08 626.351 1268.85 623.151 1261.17 620.962L1306.41 517.521C1311.84 523.228 1319.49 526.817 1327.97 526.947Z" fill="rgb(209,230,255)" fill-rule="nonzero" />
			<path id="Vector" d="M1318.33 467.701C1310.61 470.408 1304.32 476.138 1300.86 483.469L1249.61 426.741C1247.78 402.69 1238.25 379.145 1221.13 360.13L1250.5 392.63L1318.33 467.701Z" fill="rgb(209,230,255)" fill-rule="nonzero" />
		</g>
		<path id="Vector" d="M1358.94 496.459C1358.94 513.297 1345.29 526.947 1328.46 526.947C1328.29 526.947 1328.13 526.947 1327.97 526.935C1319.49 526.805 1311.84 523.216 1306.41 517.51C1301.17 512.038 1297.96 504.613 1297.96 496.459C1297.96 491.811 1298.99 487.411 1300.86 483.469C1304.32 476.138 1310.61 470.408 1318.33 467.701C1321.49 466.584 1324.9 465.972 1328.46 465.972C1345.29 465.972 1358.94 479.621 1358.94 496.459Z" fill="rgb(138,114,226)" fill-rule="nonzero" />
	</g>
	<g id="Lamp Shading">
		<path id="Vector" d="M1324.89 705.412L1149.3 705.412C1149.3 656.921 1188.61 617.609 1237.09 617.609C1245.44 617.609 1253.53 618.774 1261.18 620.951C1268.85 623.139 1276.08 626.34 1282.74 630.399C1308.02 645.814 1324.89 673.642 1324.89 705.412Z" fill="url(#paint_linear_106)" fill-rule="nonzero" />
		<path id="Vector" d="M1219.06 512.615C1234.24 496.6 1225.6 462.43 1200.31 428.048C1192.72 417.752 1183.64 407.444 1173.27 397.596C1128.24 354.871 1075.74 337.103 1056 357.907C1089.12 322.995 1139.34 314.029 1181.21 331.679C1193.34 336.785 1204.78 344.128 1214.89 353.729C1216.57 355.33 1218.19 356.965 1219.74 358.636L1219.82 358.707C1220.26 359.177 1220.7 359.66 1221.13 360.142C1238.25 379.157 1247.78 402.702 1249.61 426.753C1251.9 457.288 1241.81 488.646 1219.06 512.615Z" fill="url(#paint_linear_107)" fill-rule="nonzero" />
		<path id="Vector" d="M1122.6 383.347L883.794 482.01L883.794 705.412L1080.65 705.412L1190.01 447.628" fill="url(#paint_linear_108)" fill-rule="nonzero" />
	</g>
	<g id="Lamp Lines">
		<path id="Vector" d="M1237.09 617.621C1285.57 617.621 1324.89 656.933 1324.89 705.423L1149.3 705.423C1149.3 656.933 1188.61 617.621 1237.09 617.621Z" fill-rule="nonzero" stroke="rgb(0,0,0)" stroke-linecap="round" stroke-linejoin="round" stroke-width="1.176667" />
		<path id="Vector" d="M1219.06 512.615C1241.81 488.646 1251.9 457.288 1249.61 426.753C1247.78 402.702 1238.25 379.157 1221.13 360.142C1220.7 359.66 1220.26 359.177 1219.82 358.707L1219.74 358.636C1218.19 356.965 1216.57 355.33 1214.89 353.729C1204.78 344.128 1193.34 336.785 1181.21 331.679C1139.34 314.029 1089.12 322.995 1056 357.907" fill-rule="nonzero" stroke="rgb(0,0,0)" stroke-linecap="round" stroke-linejoin="round" stroke-width="1.176667" />
		<path id="Vector" d="M1210.05 518.686C1186.13 528.5 1141.11 510.214 1101.8 472.926C1061.8 434.966 1041.15 390.088 1050.88 365.967C1052.09 362.931 1053.8 360.225 1056 357.907C1075.74 337.103 1128.24 354.871 1173.27 397.595C1183.64 407.444 1192.72 417.752 1200.31 428.048C1225.6 462.43 1234.24 496.6 1219.06 512.615C1216.56 515.25 1213.53 517.274 1210.05 518.686Z" fill-rule="nonzero" stroke="rgb(0,0,0)" stroke-linecap="round" stroke-linejoin="round" stroke-width="1.176667" />
		<path id="Vector" d="M1210.05 518.686C1219.77 494.541 1199.12 449.675 1159.12 411.727C1119.81 374.427 1074.8 356.142 1050.88 365.955" fill-rule="nonzero" stroke="rgb(0,0,0)" stroke-linecap="round" stroke-linejoin="round" stroke-width="1.176667" />
		<path id="Vector" d="M1181.21 331.679C1189.36 324.677 1199.96 320.453 1211.53 320.453C1237.28 320.453 1258.14 341.327 1258.14 367.061C1258.14 376.51 1255.33 385.299 1250.5 392.642" fill-rule="nonzero" stroke="rgb(0,0,0)" stroke-linecap="round" stroke-linejoin="round" stroke-width="1.176667" />
		<path id="Vector" d="M1122.6 383.346C1113.88 391.806 1108.47 403.655 1108.47 416.775C1108.47 442.509 1129.33 463.383 1155.07 463.383C1168.98 463.383 1181.47 457.288 1190.01 447.628" fill-rule="nonzero" stroke="rgb(0,0,0)" stroke-linecap="round" stroke-linejoin="round" stroke-width="1.176667" />
		<g id="Group">
			<path id="Vector" d="M1327.97 526.947L1282.74 630.411" stroke="rgb(0,0,0)" stroke-linecap="round" stroke-linejoin="round" stroke-width="1.176667" />
			<path id="Vector" d="M1306.41 517.521L1261.18 620.962" stroke="rgb(0,0,0)" stroke-linecap="round" stroke-linejoin="round" stroke-width="1.176667" />
			<path id="Vector" d="M1219.74 358.636L1219.82 358.707C1219.97 358.86 1220.12 359.013 1220.26 359.177L1221.13 360.142L1250.5 392.642L1318.33 467.713" fill-rule="nonzero" stroke="rgb(0,0,0)" stroke-linecap="round" stroke-linejoin="round" stroke-width="1.176667" />
			<path id="Vector" d="M1300.86 483.481L1249.61 426.753" stroke="rgb(0,0,0)" stroke-linecap="round" stroke-linejoin="round" stroke-width="1.176667" />
		</g>
		<path id="Vector" d="M1328.46 526.958C1311.62 526.958 1297.97 513.309 1297.97 496.471C1297.97 479.633 1311.62 465.983 1328.46 465.983C1345.29 465.983 1358.94 479.633 1358.94 496.471C1358.94 513.309 1345.29 526.958 1328.46 526.958Z" stroke="rgb(0,0,0)" stroke-linecap="round" stroke-linejoin="round" stroke-width="1.176667" />
	</g>
	<g id="Computer Color">
		<path id="Vector" d="M1171.16 481.574L886.595 481.574C882.324 481.574 878.594 484.445 877.499 488.575L819.937 705.411L1117.86 705.411L1175.71 487.493C1176.5 484.504 1174.25 481.574 1171.16 481.574Z" fill="rgb(255,255,255)" fill-rule="nonzero" />
		<path id="Vector" d="M819.937 705.423L690.774 705.423L690.774 696.234C690.774 693.633 692.88 691.527 695.481 691.527L823.631 691.527L819.937 705.423Z" fill="rgb(209,230,255)" fill-rule="nonzero" />
		<path id="Vector" d="M1029.24 553.951L912.928 612.702C910.61 613.867 907.775 612.937 906.61 610.619L893.513 584.697C892.337 582.379 893.266 579.544 895.596 578.379L1011.9 519.628C1014.22 518.463 1017.05 519.392 1018.23 521.711L1031.31 547.632C1032.49 549.951 1031.56 552.786 1029.24 553.951Z" fill="rgb(254,219,0)" fill-rule="nonzero" />
		<path id="Vector" d="M1103.91 661.522L1030.21 661.522C1030.21 661.522 1030.27 643.39 1030.4 642.178C1032.25 623.563 1047.95 609.031 1067.06 609.031C1086.17 609.031 1101.87 623.563 1103.73 642.178C1103.85 643.39 1103.91 661.522 1103.91 661.522Z" fill="rgb(255,96,248)" fill-rule="nonzero" />
	</g>
	<g id="Computer Lines">
		<path id="Vector" d="M819.925 705.424L877.488 488.588C878.582 484.458 882.312 481.586 886.583 481.586L1171.16 481.586C1174.25 481.586 1176.5 484.516 1175.71 487.505L1117.86 705.424L819.925 705.424Z" fill-rule="nonzero" stroke="rgb(0,0,0)" stroke-linecap="round" stroke-linejoin="round" stroke-width="1.176667" />
		<path id="Vector" d="M1084.23 705.424L690.774 705.424L690.774 696.234C690.774 693.634 692.88 691.527 695.481 691.527L823.102 691.527" fill-rule="nonzero" stroke="rgb(0,0,0)" stroke-linecap="round" stroke-linejoin="round" stroke-width="1.176667" />
		<path id="Vector" d="M135.011 0C137.61 0 139.717 2.10725 139.717 4.70667L139.717 33.7468C139.717 36.3463 137.61 38.4535 135.011 38.4535L4.70667 38.4535C2.10725 38.4535 0 36.3463 0 33.7468L0 4.70667C0 2.10725 2.10725 0 4.70667 0L135.011 0Z" stroke="rgb(0,0,0)" stroke-linecap="round" stroke-linejoin="round" stroke-width="1.176667" transform="matrix(0.892586,-0.450878,0.450878,0.892586,891.398,580.447)" />
		<path id="Vector" d="M1030.21 661.522C1030.21 661.522 1030.27 643.39 1030.4 642.178C1032.25 623.563 1047.95 609.031 1067.06 609.031C1086.17 609.031 1101.87 623.563 1103.73 642.178C1103.85 643.39 1103.91 661.522 1103.91 661.522L1030.21 661.522Z" fill-rule="nonzero" stroke="rgb(0,0,0)" stroke-linecap="round" stroke-linejoin="round" stroke-width="1.176667" />
	</g>
	<g id="Arm Color">
		<path id="Vector" d="M741.112 676.16L741.112 696.01C741.112 701.211 736.899 705.424 731.698 705.424L630.94 705.424C625.739 705.424 621.527 701.211 621.527 696.01L621.527 678.666C622.104 678.372 622.656 678.066 623.162 677.76C624.445 678.384 626.434 678.961 629.046 679.502C639.259 681.62 658.839 683.044 681.325 683.044C689.868 683.044 697.987 682.844 705.341 682.467C717.319 681.855 727.25 680.808 733.581 679.502C738.382 678.513 741.112 677.372 741.112 676.16Z" fill="rgb(99,66,255)" fill-rule="nonzero" />
		<path id="Vector" d="M741.112 675.736L741.112 676.148C741.112 677.36 738.382 678.501 733.581 679.489C727.251 680.795 717.319 681.843 705.341 682.455C705.341 682.455 707.824 677.195 705.341 672.959C705.117 672.582 704.835 672.112 704.494 671.559C704.553 671.512 704.611 671.464 704.659 671.406C706.765 669.311 705.188 664.322 701.14 660.274C697.093 656.227 692.115 654.662 690.009 656.756C689.903 656.862 689.809 656.98 689.715 657.097C689.126 656.78 688.526 656.474 687.915 656.191C684.891 654.768 681.431 653.72 677.525 653.273C677.36 653.156 677.195 653.038 677.03 652.909C678.442 652.861 679.866 652.838 681.313 652.838C686.797 652.838 692.115 653.12 697.163 653.65C698.869 653.826 700.528 654.038 702.164 654.273C707.012 654.956 711.566 655.885 715.731 657.003L715.743 657.003C729.169 660.639 738.523 666.322 740.641 672.876C740.947 673.818 741.112 674.771 741.112 675.736Z" fill="rgb(138,114,226)" fill-rule="nonzero" />
		<path id="Vector" d="M705.341 682.455C697.987 682.832 689.868 683.032 681.325 683.032C658.839 683.032 639.26 681.608 629.046 679.49C626.434 678.949 624.445 678.372 623.163 677.749C622.092 677.243 621.527 676.701 621.527 676.148L621.527 675.737C621.515 674.76 621.68 673.807 621.986 672.865C623.139 669.312 626.434 666.005 631.352 663.158C640.001 658.122 653.685 654.486 669.653 653.274L669.665 653.274C672.065 653.086 674.524 652.968 677.031 652.909C677.195 653.039 677.36 653.156 677.525 653.274C681.431 653.721 684.891 654.768 687.915 656.192C688.527 656.474 689.127 656.78 689.715 657.098C688.068 659.369 689.68 664.052 693.516 667.9C697.457 671.842 702.305 673.43 704.494 671.559C704.835 672.112 705.118 672.583 705.341 672.96C707.824 677.196 705.341 682.455 705.341 682.455Z" fill="rgb(138,114,226)" fill-rule="nonzero" />
		<path id="Vector" d="M704.659 671.406C704.659 671.406 704.553 671.512 704.494 671.559C702.305 673.43 697.458 671.842 693.516 667.9C689.68 664.052 688.068 659.369 689.715 657.098C689.809 656.98 689.903 656.863 690.009 656.757C692.116 654.662 697.093 656.227 701.141 660.275C705.188 664.323 706.765 669.312 704.659 671.406Z" fill="rgb(254,219,0)" fill-rule="nonzero" />
		<path id="Vector" d="M727.239 649.038C720.826 659.981 708.295 658.639 699.175 652.521C692.904 656.521 684.314 657.804 678.266 653.803C674.477 651.297 671.759 647.649 669.359 643.731C671.724 656.639 666.605 668.453 651.744 670.547C646.602 671.265 641.166 670.453 636.73 667.758C634.824 666.605 633.153 665.158 631.658 663.523C631.658 664.723 631.176 679.054 611.984 681.337C591.946 683.714 582.933 650.626 579.508 640.613C576.908 633.012 572.613 629.764 567.424 630.223L476.644 584.203C556.881 557.458 637.059 551.268 652.579 550.233C660.357 549.715 668.217 549.327 675.948 550.586C685.526 552.151 698.387 556.787 704.235 565C710.213 573.378 708.918 585.215 701.282 592.099C707.224 599.182 713.037 606.348 718.214 614.032C724.686 623.634 734.111 637.295 727.239 649.038Z" fill="rgb(17,247,235)" fill-rule="nonzero" />
	</g>
	<g id="Arm Lines">
		<path id="Vector" d="M476.644 584.203C556.881 557.458 637.059 551.268 652.579 550.233C660.357 549.715 668.217 549.327 675.948 550.586C685.526 552.151 698.387 556.787 704.235 565C710.201 573.378 708.918 585.215 701.282 592.099" fill-rule="nonzero" stroke="rgb(0,0,0)" stroke-linecap="round" stroke-linejoin="round" stroke-width="1.176667" />
		<path id="Vector" d="M567.424 630.223C572.613 629.752 576.908 633 579.52 640.613C582.944 650.626 591.958 683.714 611.996 681.337C632.035 678.96 631.67 663.44 631.67 663.44" fill-rule="nonzero" stroke="rgb(0,0,0)" stroke-linecap="round" stroke-linejoin="round" stroke-width="1.176667" />
		<path id="Vector" d="M669.359 643.743C671.724 656.639 666.605 668.453 651.744 670.547C646.602 671.265 641.166 670.453 636.73 667.758C634.824 666.605 633.153 665.158 631.658 663.522C625.74 657.051 622.61 647.461 618.986 639.895C615.703 633.047 612.42 626.198 609.149 619.35C604.254 607.231 598.888 608.395 595.393 609.102" fill-rule="nonzero" stroke="rgb(0,0,0)" stroke-linecap="round" stroke-linejoin="round" stroke-width="1.176667" />
		<path id="Vector" d="M629.599 590.675C635.953 589.581 640.331 593.735 646.461 603.595C652.592 613.444 656.427 622.681 663.323 633.365C667.794 640.284 671.159 649.085 678.278 653.792C686.515 659.24 699.435 654.898 704.859 647.214C708.672 641.813 708.589 634.483 706.648 628.164C702.788 615.609 695.893 604.23 688.233 593.652C684.326 588.263 680.184 583.039 676.019 577.85C672.042 572.896 668.959 568.577 662.134 568.024" fill-rule="nonzero" stroke="rgb(0,0,0)" stroke-linecap="round" stroke-linejoin="round" stroke-width="1.176667" />
		<path id="Vector" d="M666.77 560.023C674.066 560.282 678.431 564 684.95 572.343C690.209 579.073 695.787 585.545 701.282 592.099C707.224 599.182 713.037 606.348 718.214 614.032C724.686 623.634 734.111 637.295 727.239 649.038C720.826 659.981 708.295 658.639 699.176 652.521" fill-rule="nonzero" stroke="rgb(0,0,0)" stroke-linecap="round" stroke-linejoin="round" stroke-width="1.176667" />
		<path id="Vector" d="M669.652 653.286C672.053 653.097 674.512 652.98 677.018 652.921" fill-rule="nonzero" stroke="rgb(0,0,0)" stroke-linecap="round" stroke-linejoin="round" stroke-width="1.176667" />
		<path id="Vector" d="M621.527 678.666L621.527 696.01C621.527 701.211 625.739 705.424 630.94 705.424L731.698 705.424C736.899 705.424 741.112 701.211 741.112 696.01L741.112 675.748C741.112 674.783 740.947 673.83 740.641 672.889C738.523 666.335 729.168 660.652 715.754 657.016L715.731 657.016" fill-rule="nonzero" stroke="rgb(0,0,0)" stroke-linecap="round" stroke-linejoin="round" stroke-width="1.176667" />
		<path id="Vector" d="M702.164 654.286C700.529 654.05 698.87 653.839 697.163 653.662" fill-rule="nonzero" stroke="rgb(0,0,0)" stroke-linecap="round" stroke-linejoin="round" stroke-width="1.176667" />
		<path id="Vector" d="M704.494 671.571C704.835 672.124 705.118 672.594 705.341 672.971C707.824 677.207 705.341 682.467 705.341 682.467" fill-rule="nonzero" stroke="rgb(0,0,0)" stroke-linecap="round" stroke-linejoin="round" stroke-width="1.176667" />
		<path id="Vector" d="M677.524 653.285C676.442 653.156 675.336 653.085 674.183 653.062" fill-rule="nonzero" stroke="rgb(0,0,0)" stroke-linecap="round" stroke-linejoin="round" stroke-width="1.176667" />
		<path id="Vector" d="M689.715 657.109C689.127 656.792 688.526 656.486 687.915 656.203" fill-rule="nonzero" stroke="rgb(0,0,0)" stroke-linecap="round" stroke-linejoin="round" stroke-width="1.176667" />
		<path id="Vector" d="M5.38915 20.7093C2.41282 20.7093 0 16.0734 0 10.3547C0 4.63593 2.41282 0 5.38915 0C8.36549 0 10.7783 4.63593 10.7783 10.3547C10.7783 16.0734 8.36549 20.7093 5.38915 20.7093Z" stroke="rgb(0,0,0)" stroke-linecap="round" stroke-linejoin="round" stroke-width="1.176667" transform="matrix(0.707107,-0.707107,0.707107,0.707107,686.195,660.581)" />
		<path id="Vector" d="M623.163 677.76C624.445 678.384 626.434 678.961 629.046 679.502C639.26 681.62 658.839 683.044 681.326 683.044C689.868 683.044 697.987 682.844 705.341 682.467C717.32 681.855 727.251 680.808 733.581 679.502C738.382 678.513 741.112 677.372 741.112 676.16" fill-rule="nonzero" stroke="rgb(0,0,0)" stroke-linecap="round" stroke-linejoin="round" stroke-width="1.176667" />
	</g>
	<g id="Ladybug Color">
		<path id="Vector" d="M502.86 638.506C491.152 620.397 474.455 605.807 454.711 596.676C450.087 594.534 445.286 592.687 440.356 591.181C429.718 587.91 418.422 586.156 406.726 586.156L406.385 586.156C343.339 586.345 292.296 637.506 292.296 700.587C292.296 702.211 292.331 703.823 292.401 705.423L269.515 705.423C269.527 635.694 326.054 579.167 395.783 579.167C409.915 579.167 423.482 581.485 436.167 585.768C436.167 585.78 436.178 585.78 436.178 585.78C443.415 588.216 450.369 591.298 456.958 594.958C475.703 605.348 491.529 620.386 502.86 638.506Z" fill="rgb(99,66,255)" fill-rule="nonzero" />
		<path id="Vector" d="M517.568 671.982C517.439 671.488 517.309 670.982 517.168 670.488C516.415 667.888 515.591 665.311 514.674 662.781C511.803 654.779 508.155 647.155 503.801 640C503.495 639.495 503.178 639 502.86 638.506C491.152 620.397 474.455 605.807 454.711 596.676C450.086 594.534 445.286 592.687 440.355 591.181C429.718 587.909 418.422 586.156 406.726 586.156L406.385 586.156C343.339 586.345 292.295 637.506 292.295 700.587C292.295 702.211 292.331 703.823 292.401 705.423L522.063 705.423C522.063 693.845 520.498 682.631 517.568 671.982Z" fill="rgb(255,96,248)" fill-rule="nonzero" />
		<path id="Vector" d="M440.45 592.699C440.014 597.994 431.648 601.618 421.776 600.806C411.892 599.994 404.244 595.04 404.679 589.757C404.785 588.439 405.397 587.215 406.385 586.145L406.726 586.145C418.423 586.145 429.719 587.898 440.356 591.169C440.461 591.675 440.497 592.181 440.45 592.699Z" fill="rgb(254,219,0)" fill-rule="nonzero" />
		<path id="Vector" d="M481.774 685.667C475.703 687.585 468.419 681.608 465.477 672.324C462.547 663.028 465.089 653.956 471.149 652.038C477.209 650.12 484.504 656.098 487.434 665.393C490.376 674.677 487.834 683.761 481.774 685.667Z" fill="rgb(254,219,0)" fill-rule="nonzero" />
		<path id="Vector" d="M384.017 680.36C384.017 689.562 376.557 697.022 367.355 697.022C358.153 697.022 350.705 689.562 350.705 680.36C350.705 671.159 358.153 663.71 367.355 663.71C376.557 663.71 384.017 671.171 384.017 680.36Z" fill="rgb(254,219,0)" fill-rule="nonzero" />
		<path id="Vector" d="M431.683 643.813C431.683 651.391 425.541 657.533 417.963 657.533C410.386 657.533 404.255 651.391 404.255 643.813C404.255 636.235 410.397 630.093 417.963 630.093C425.529 630.093 431.683 636.235 431.683 643.813Z" fill="rgb(254,219,0)" fill-rule="nonzero" />
		<path id="Vector" d="M337.762 653.403C332.797 660.216 325.184 663.111 320.736 659.887C316.3 656.651 316.723 648.508 321.677 641.684C326.643 634.871 334.267 631.976 338.704 635.2C343.151 638.436 342.728 646.579 337.762 653.403Z" fill="rgb(254,219,0)" fill-rule="nonzero" />
		<path id="Vector" d="M376.027 625.304C367.802 627.163 360.154 624.316 358.953 618.95C357.741 613.596 363.437 607.748 371.661 605.901C379.886 604.054 387.523 606.901 388.735 612.255C389.935 617.609 384.252 623.457 376.027 625.304Z" fill="rgb(254,219,0)" fill-rule="nonzero" />
		<path id="Vector" d="M471.713 629.658C468.584 633.953 461.194 633.882 455.181 629.517C449.18 625.151 446.85 618.127 449.98 613.832C453.099 609.549 460.5 609.607 466.501 613.973C472.502 618.35 474.832 625.375 471.713 629.658Z" fill="rgb(254,219,0)" fill-rule="nonzero" />
	</g>
	<g id="Ladybug Lines">
		<path id="Vector" d="M517.568 671.982C517.439 671.488 517.31 670.982 517.168 670.488C516.415 667.888 515.592 665.311 514.674 662.781C511.803 654.78 508.155 647.155 503.801 640.001C503.495 639.495 503.178 639 502.86 638.506C491.529 620.386 475.703 605.348 456.958 594.958C438.838 584.897 417.987 579.167 395.783 579.167C326.054 579.167 269.527 635.694 269.515 705.423L522.063 705.423C522.063 693.845 520.498 682.631 517.568 671.982Z" fill-rule="nonzero" stroke="rgb(0,0,0)" stroke-linecap="round" stroke-linejoin="round" stroke-width="1.176667" />
		<path id="Vector" d="M502.86 638.506C491.152 620.397 474.455 605.807 454.711 596.676C440.12 589.922 423.859 586.156 406.726 586.156C343.527 586.156 292.295 637.388 292.295 700.587C292.295 702.211 292.331 703.823 292.401 705.423" fill-rule="nonzero" stroke="rgb(0,0,0)" stroke-linecap="round" stroke-linejoin="round" stroke-width="1.176667" />
		<path id="Vector" d="M11.5078 35.2764C5.15222 35.2764 0 27.3796 0 17.6382C0 7.8969 5.15222 0 11.5078 0C17.8634 0 23.0156 7.8969 23.0156 17.6382C23.0156 27.3796 17.8634 35.2764 11.5078 35.2764Z" stroke="rgb(0,0,0)" stroke-linecap="round" stroke-linejoin="round" stroke-width="1.176667" transform="matrix(0.953612,-0.301039,0.301039,0.953612,460.159,655.537)" />
		<path id="Vector" d="M367.355 697.034C358.154 697.034 350.694 689.574 350.694 680.372C350.694 671.171 358.154 663.711 367.355 663.711C376.557 663.711 384.017 671.171 384.017 680.372C384.017 689.574 376.557 697.034 367.355 697.034Z" stroke="rgb(0,0,0)" stroke-linecap="round" stroke-linejoin="round" stroke-width="1.176667" />
		<path id="Vector" d="M417.964 657.533C410.386 657.533 404.244 651.391 404.244 643.813C404.244 636.236 410.386 630.093 417.964 630.093C425.541 630.093 431.684 636.236 431.684 643.813C431.684 651.391 425.541 657.533 417.964 657.533Z" stroke="rgb(0,0,0)" stroke-linecap="round" stroke-linejoin="round" stroke-width="1.176667" />
		<path id="Vector" d="M15.2614 19.8857C6.83275 19.8857 0 15.4341 0 9.94285C0 4.45157 6.83275 0 15.2614 0C23.69 0 30.5227 4.45157 30.5227 9.94285C30.5227 15.4341 23.69 19.8857 15.2614 19.8857Z" stroke="rgb(0,0,0)" stroke-linecap="round" stroke-linejoin="round" stroke-width="1.176667" transform="matrix(0.588632,-0.808401,0.808401,0.588632,312.709,654.042)" />
		<path id="Vector" d="M15.2614 19.8857C6.83275 19.8857 0 15.4341 0 9.94285C0 4.45157 6.83275 0 15.2614 0C23.69 0 30.5227 4.45157 30.5227 9.94285C30.5227 15.4341 23.69 19.8857 15.2614 19.8857Z" stroke="rgb(0,0,0)" stroke-linecap="round" stroke-linejoin="round" stroke-width="1.176667" transform="matrix(0.975611,-0.219506,0.219506,0.975611,356.782,609.248)" />
		<path id="Vector" d="M9.61335 26.8751C4.30403 26.8751 0 20.8589 0 13.4376C0 6.01624 4.30403 0 9.61335 0C14.9227 0 19.2267 6.01624 19.2267 13.4376C19.2267 20.8589 14.9227 26.8751 9.61335 26.8751Z" stroke="rgb(0,0,0)" stroke-linecap="round" stroke-linejoin="round" stroke-width="1.176667" transform="matrix(0.588632,-0.808401,0.808401,0.588632,444.316,621.616)" />
		<path id="Vector" d="M436.178 585.78C436.178 585.78 436.166 585.78 436.166 585.768" fill-rule="nonzero" stroke="rgb(0,0,0)" stroke-linecap="round" stroke-linejoin="round" stroke-width="1.176667" />
		<path id="Vector" d="M440.356 591.181C440.461 591.687 440.497 592.193 440.45 592.71C440.014 598.005 431.648 601.629 421.776 600.818C411.892 600.006 404.244 595.052 404.679 589.769C404.785 588.451 405.397 587.227 406.385 586.156" fill-rule="nonzero" stroke="rgb(0,0,0)" stroke-linecap="round" stroke-linejoin="round" stroke-width="1.176667" />
	</g>
	<g id="Ladybug Head">
		<path id="Vector" d="M527.5 631.446C527.5 643.613 522.629 654.65 514.745 662.71C514.722 662.734 514.698 662.757 514.675 662.781C511.804 654.78 508.156 647.155 503.802 640.001C503.496 639.495 503.179 639.001 502.861 638.506C491.53 620.386 475.703 605.348 456.959 594.958C459.712 593.005 462.701 591.357 465.866 590.063C465.866 590.51 465.89 590.981 465.949 591.44C466.772 598.923 473.515 604.324 480.998 603.5C486.788 602.865 491.318 598.688 492.706 593.369C493.118 591.816 493.247 590.145 493.059 588.451C493.036 588.274 493.012 588.086 492.989 587.91C499.507 589.439 505.473 592.381 510.545 596.405C520.876 604.595 527.5 617.244 527.5 631.446Z" fill="rgb(99,66,255)" fill-rule="nonzero" />
		<path id="Vector" d="M492.706 593.357C491.317 598.676 486.787 602.853 480.998 603.489C473.514 604.312 466.772 598.911 465.948 591.428C465.89 590.969 465.866 590.498 465.866 590.051C465.796 583.132 470.985 577.155 478.009 576.378C478.315 576.343 478.621 576.319 478.927 576.319C483.245 576.119 487.234 577.978 489.87 581.085C488.246 579.355 485.858 578.379 483.316 578.661C479.033 579.132 475.938 582.991 476.409 587.286C476.88 591.569 480.739 594.664 485.034 594.193C487.564 593.922 489.682 592.451 490.894 590.404C491.729 588.992 492.129 587.321 491.941 585.568C491.812 584.38 491.423 583.285 490.823 582.332C491.929 583.956 492.671 585.85 492.988 587.898C493.012 588.074 493.035 588.263 493.059 588.439C493.247 590.133 493.118 591.804 492.706 593.357Z" fill="rgb(255,255,255)" fill-rule="nonzero" />
		<path id="Vector" d="M490.894 590.392C489.682 592.451 487.564 593.922 485.034 594.193C480.739 594.663 476.88 591.569 476.409 587.286C475.938 582.991 479.033 579.131 483.316 578.661C485.858 578.378 488.246 579.355 489.87 581.084C489.964 581.179 490.058 581.285 490.129 581.39C490.153 581.39 490.153 581.402 490.153 581.414C490.188 581.438 490.211 581.461 490.223 581.496C490.247 581.508 490.258 581.52 490.247 581.532C490.376 581.696 490.494 581.849 490.623 582.026C490.682 582.096 490.729 582.179 490.776 582.261C490.8 582.273 490.811 582.308 490.823 582.332C491.423 583.285 491.812 584.379 491.941 585.568C492.129 587.321 491.729 588.992 490.894 590.392Z" fill="rgb(0,0,0)" fill-rule="nonzero" />
		<path id="Vector" d="M510.544 596.394C505.473 592.369 499.507 589.428 492.988 587.898C492.671 585.851 491.93 583.956 490.823 582.332C490.812 582.309 490.8 582.274 490.776 582.262C490.729 582.179 490.682 582.097 490.623 582.027C490.494 581.85 490.376 581.697 490.247 581.532C490.259 581.521 490.247 581.509 490.223 581.497C490.212 581.462 490.188 581.438 490.153 581.415C490.153 581.403 490.153 581.391 490.129 581.391C491.518 576.073 496.048 571.895 501.837 571.26C506.497 570.742 510.874 572.648 513.698 575.967C512.074 574.249 509.685 573.272 507.144 573.555C502.861 574.025 499.766 577.885 500.237 582.168C500.719 586.463 504.579 589.557 508.862 589.075C513.145 588.604 516.239 584.745 515.769 580.462C515.639 579.261 515.239 578.155 514.639 577.19C515.839 578.955 516.64 581.038 516.887 583.321C517.475 588.698 514.851 593.699 510.544 596.394Z" fill="rgb(255,255,255)" fill-rule="nonzero" />
		<path id="Vector" d="M508.862 589.086C504.579 589.568 500.719 586.474 500.237 582.179C499.766 577.896 502.861 574.036 507.144 573.566C509.685 573.283 512.074 574.26 513.698 575.978C513.839 576.119 513.968 576.272 514.074 576.425C514.133 576.508 514.204 576.59 514.263 576.672C514.404 576.837 514.521 577.013 514.639 577.202C515.239 578.167 515.639 579.273 515.769 580.473C516.239 584.756 513.145 588.615 508.862 589.086Z" fill="rgb(0,0,0)" fill-rule="nonzero" />
		<path id="Vector" d="M468.408 553.645C468.408 556.387 466.184 558.599 463.442 558.599C462.725 558.599 462.042 558.446 461.418 558.164C459.689 557.399 458.489 555.669 458.489 553.645C458.489 550.915 460.712 548.691 463.442 548.691C466.172 548.691 468.408 550.915 468.408 553.645Z" fill="rgb(0,0,0)" fill-rule="nonzero" />
		<path id="Vector" d="M488.141 560.576C488.141 563.306 485.928 565.53 483.187 565.53C482.457 565.53 481.775 565.377 481.151 565.094C479.433 564.318 478.233 562.576 478.233 560.576C478.233 557.834 480.445 555.61 483.187 555.61C485.928 555.61 488.141 557.834 488.141 560.576Z" fill="rgb(0,0,0)" fill-rule="nonzero" />
		<path id="Vector" d="M487.011 586.262C488.357 586.262 489.447 585.172 489.447 583.826C489.447 582.481 488.357 581.391 487.011 581.391C485.666 581.391 484.576 582.481 484.576 583.826C484.576 585.172 485.666 586.262 487.011 586.262Z" fill="rgb(255,255,255)" fill-rule="evenodd" />
		<path id="Vector" d="M509.497 581.05C510.842 581.05 511.933 579.959 511.933 578.614C511.933 577.269 510.842 576.178 509.497 576.178C508.152 576.178 507.061 577.269 507.061 578.614C507.061 579.959 508.152 581.05 509.497 581.05Z" fill="rgb(255,255,255)" fill-rule="evenodd" />
		<path id="Vector" d="M527.5 631.446C527.5 643.613 522.629 654.65 514.745 662.71C514.722 662.734 514.698 662.757 514.675 662.781C511.804 654.78 508.156 647.155 503.802 640.001C503.496 639.495 503.179 639.001 502.861 638.506C491.53 620.386 475.703 605.348 456.959 594.958C459.712 593.005 462.701 591.357 465.866 590.063C465.866 590.51 465.89 590.981 465.949 591.44C466.772 598.923 473.515 604.324 480.998 603.5C486.788 602.865 491.318 598.688 492.706 593.369C493.118 591.816 493.247 590.145 493.059 588.451C493.036 588.274 493.012 588.086 492.989 587.91C499.507 589.439 505.473 592.381 510.545 596.405C520.876 604.595 527.5 617.244 527.5 631.446Z" fill="url(#paint_linear_109)" fill-rule="nonzero" />
		<path id="Vector" d="M514.675 662.781L514.745 662.71C522.629 654.65 527.5 643.613 527.5 631.446C527.5 617.244 520.876 604.595 510.545 596.405C505.473 592.381 499.507 589.439 492.989 587.91" fill-rule="nonzero" stroke="rgb(0,0,0)" stroke-linecap="round" stroke-linejoin="round" stroke-width="1.176667" />
		<path id="Vector" d="M465.866 590.063C462.701 591.357 459.712 593.005 456.959 594.958" fill-rule="nonzero" stroke="rgb(0,0,0)" stroke-linecap="round" stroke-linejoin="round" stroke-width="1.176667" />
		<path id="Vector" d="M480.998 603.488C473.514 604.312 466.772 598.911 465.948 591.428C465.89 590.969 465.866 590.498 465.866 590.051C465.796 583.132 470.985 577.155 478.009 576.378C482.669 575.86 487.046 577.755 489.87 581.085C489.964 581.179 490.058 581.285 490.129 581.391C490.188 581.438 490.223 581.485 490.247 581.532C490.376 581.697 490.494 581.85 490.623 582.026C490.682 582.097 490.729 582.179 490.776 582.261C491.906 583.897 492.671 585.815 492.988 587.898C493.012 588.074 493.035 588.262 493.059 588.439C493.247 590.133 493.118 591.804 492.706 593.357C491.317 598.676 486.787 602.853 480.998 603.488Z" fill-rule="nonzero" stroke="rgb(0,0,0)" stroke-linecap="round" stroke-linejoin="round" stroke-width="1.176667" />
		<path id="Vector" d="M484.175 594.252C479.86 594.252 476.362 590.754 476.362 586.439C476.362 582.124 479.86 578.626 484.175 578.626C488.49 578.626 491.988 582.124 491.988 586.439C491.988 590.754 488.49 594.252 484.175 594.252Z" stroke="rgb(0,0,0)" stroke-linecap="round" stroke-linejoin="round" stroke-width="1.176667" />
		<path id="Vector" d="M0.0118845 0L0 0" stroke="rgb(0,0,0)" stroke-linecap="round" stroke-linejoin="round" stroke-width="1.176667" transform="matrix(0,1,-1,0,490.894,590.404)" />
		<path id="Vector" d="M490.129 581.403C491.518 576.084 496.048 571.907 501.837 571.272C506.497 570.754 510.874 572.66 513.698 575.978C513.839 576.12 513.969 576.273 514.074 576.426C514.133 576.508 514.204 576.59 514.263 576.673C514.404 576.837 514.521 577.014 514.639 577.202C515.839 578.967 516.64 581.05 516.887 583.333C517.475 588.71 514.851 593.711 510.544 596.405C505.473 592.381 499.507 589.439 492.988 587.91C493.012 588.086 493.036 588.275 493.059 588.451C493.247 590.145 493.118 591.816 492.706 593.37" fill-rule="nonzero" stroke="rgb(0,0,0)" stroke-linecap="round" stroke-linejoin="round" stroke-width="1.176667" />
		<path id="Vector" d="M508.002 589.133C503.687 589.133 500.189 585.635 500.189 581.32C500.189 577.005 503.687 573.507 508.002 573.507C512.317 573.507 515.815 577.005 515.815 581.32C515.815 585.635 512.317 589.133 508.002 589.133Z" stroke="rgb(0,0,0)" stroke-linecap="round" stroke-linejoin="round" stroke-width="1.176667" />
		<path id="Vector" d="M463.442 558.611C460.706 558.611 458.489 556.393 458.489 553.657C458.489 550.921 460.706 548.703 463.442 548.703C466.178 548.703 468.396 550.921 468.396 553.657C468.396 556.393 466.178 558.611 463.442 558.611Z" stroke="rgb(0,0,0)" stroke-linecap="round" stroke-linejoin="round" stroke-width="1.176667" />
		<path id="Vector" d="M461.418 558.175C456.97 571.001 459.347 583.062 465.878 590.063" fill-rule="nonzero" stroke="rgb(0,0,0)" stroke-linecap="round" stroke-linejoin="round" stroke-width="1.176667" />
		<path id="Vector" d="M483.187 565.53C480.451 565.53 478.233 563.312 478.233 560.576C478.233 557.84 480.451 555.622 483.187 555.622C485.923 555.622 488.141 557.84 488.141 560.576C488.141 563.312 485.923 565.53 483.187 565.53Z" stroke="rgb(0,0,0)" stroke-linecap="round" stroke-linejoin="round" stroke-width="1.176667" />
		<path id="Vector" d="M478.927 576.331C479.104 572.742 479.81 568.953 481.151 565.105" fill-rule="nonzero" stroke="rgb(0,0,0)" stroke-linecap="round" stroke-linejoin="round" stroke-width="1.176667" />
	</g>
	<g id="Clock Color">
		<path id="Vector" d="M1121.88 206.587C1178.16 206.587 1223.78 160.965 1223.78 104.688C1223.78 48.4105 1178.16 2.78857 1121.88 2.78857C1065.6 2.78857 1019.98 48.4105 1019.98 104.688C1019.98 160.965 1065.6 206.587 1121.88 206.587Z" fill="rgb(255,255,255)" fill-rule="evenodd" />
		<path id="Vector" d="M1121.88 109.395C1119.28 109.395 1117.17 107.289 1117.17 104.688L1117.17 33.0997C1117.17 30.4993 1119.28 28.3931 1121.88 28.3931C1124.48 28.3931 1126.59 30.4993 1126.59 33.0997L1126.59 104.688C1126.59 107.289 1124.48 109.395 1121.88 109.395Z" fill="rgb(255,96,248)" fill-rule="nonzero" />
		<path id="Vector" d="M1121.88 109.395C1119.28 109.395 1117.17 107.289 1117.17 104.688L1117.17 51.9264C1117.17 49.326 1119.28 47.2197 1121.88 47.2197C1124.48 47.2197 1126.59 49.326 1126.59 51.9264L1126.59 104.688C1126.59 107.289 1124.48 109.395 1121.88 109.395Z" fill="rgb(138,114,226)" fill-rule="nonzero" />
		<path id="Vector" d="M1117.17 104.688L1117.17 51.9264C1117.17 49.326 1119.28 47.2197 1121.88 47.2197C1124.48 47.2197 1126.59 49.326 1126.59 51.9264L1126.59 104.688C1126.59 107.289 1124.48 109.395 1121.88 109.395C1119.28 109.395 1117.17 107.289 1117.17 104.688Z" fill-rule="nonzero" stroke="rgb(0,0,0)" stroke-width="1.176667" />
		<path id="Vector" d="M1121.88 18.9095C1124.29 18.9095 1126.23 16.9603 1126.23 14.5558C1126.23 12.1514 1124.29 10.2021 1121.88 10.2021C1119.48 10.2021 1117.53 12.1514 1117.53 14.5558C1117.53 16.9603 1119.48 18.9095 1121.88 18.9095Z" fill="rgb(0,0,0)" fill-rule="evenodd" />
		<path id="Vector" d="M1121.88 199.174C1124.29 199.174 1126.23 197.225 1126.23 194.82C1126.23 192.416 1124.29 190.467 1121.88 190.467C1119.48 190.467 1117.53 192.416 1117.53 194.82C1117.53 197.225 1119.48 199.174 1121.88 199.174Z" fill="rgb(0,0,0)" fill-rule="evenodd" />
		<path id="Vector" d="M1076.81 30.9817C1079.22 30.9817 1081.17 29.0325 1081.17 26.6281C1081.17 24.2236 1079.22 22.2744 1076.81 22.2744C1074.41 22.2744 1072.46 24.2236 1072.46 26.6281C1072.46 29.0325 1074.41 30.9817 1076.81 30.9817Z" fill="rgb(0,0,0)" fill-rule="evenodd" />
		<path id="Vector" d="M1166.95 187.102C1169.35 187.102 1171.3 185.153 1171.3 182.748C1171.3 180.344 1169.35 178.395 1166.95 178.395C1164.54 178.395 1162.59 180.344 1162.59 182.748C1162.59 185.153 1164.54 187.102 1166.95 187.102Z" fill="rgb(0,0,0)" fill-rule="evenodd" />
		<path id="Vector" d="M1043.82 63.9759C1046.23 63.9759 1048.17 62.0267 1048.17 59.6222C1048.17 57.2178 1046.23 55.2686 1043.82 55.2686C1041.42 55.2686 1039.47 57.2178 1039.47 59.6222C1039.47 62.0267 1041.42 63.9759 1043.82 63.9759Z" fill="rgb(0,0,0)" fill-rule="evenodd" />
		<path id="Vector" d="M1199.93 154.108C1202.33 154.108 1204.28 152.159 1204.28 149.755C1204.28 147.35 1202.33 145.401 1199.93 145.401C1197.52 145.401 1195.58 147.35 1195.58 149.755C1195.58 152.159 1197.52 154.108 1199.93 154.108Z" fill="rgb(0,0,0)" fill-rule="evenodd" />
		<path id="Vector" d="M1031.75 109.042C1034.15 109.042 1036.1 107.093 1036.1 104.688C1036.1 102.284 1034.15 100.334 1031.75 100.334C1029.34 100.334 1027.39 102.284 1027.39 104.688C1027.39 107.093 1029.34 109.042 1031.75 109.042Z" fill="rgb(0,0,0)" fill-rule="evenodd" />
		<path id="Vector" d="M1212.01 109.042C1214.42 109.042 1216.37 107.093 1216.37 104.688C1216.37 102.284 1214.42 100.334 1212.01 100.334C1209.61 100.334 1207.66 102.284 1207.66 104.688C1207.66 107.093 1209.61 109.042 1212.01 109.042Z" fill="rgb(0,0,0)" fill-rule="evenodd" />
		<path id="Vector" d="M1043.82 154.108C1046.23 154.108 1048.17 152.159 1048.17 149.755C1048.17 147.35 1046.23 145.401 1043.82 145.401C1041.42 145.401 1039.47 147.35 1039.47 149.755C1039.47 152.159 1041.42 154.108 1043.82 154.108Z" fill="rgb(0,0,0)" fill-rule="evenodd" />
		<path id="Vector" d="M1199.93 63.9759C1202.33 63.9759 1204.28 62.0267 1204.28 59.6222C1204.28 57.2178 1202.33 55.2686 1199.93 55.2686C1197.52 55.2686 1195.58 57.2178 1195.58 59.6222C1195.58 62.0267 1197.52 63.9759 1199.93 63.9759Z" fill="rgb(0,0,0)" fill-rule="evenodd" />
		<path id="Vector" d="M1076.81 187.102C1079.22 187.102 1081.17 185.153 1081.17 182.748C1081.17 180.344 1079.22 178.395 1076.81 178.395C1074.41 178.395 1072.46 180.344 1072.46 182.748C1072.46 185.153 1074.41 187.102 1076.81 187.102Z" fill="rgb(0,0,0)" fill-rule="evenodd" />
		<path id="Vector" d="M1166.95 30.9817C1169.35 30.9817 1171.3 29.0325 1171.3 26.6281C1171.3 24.2236 1169.35 22.2744 1166.95 22.2744C1164.54 22.2744 1162.59 24.2236 1162.59 26.6281C1162.59 29.0325 1164.54 30.9817 1166.95 30.9817Z" fill="rgb(0,0,0)" fill-rule="evenodd" />
	</g>
	<g id="Clock Lines">
		<path id="Vector" d="M1117.17 104.688L1117.17 33.0997C1117.17 30.4993 1119.28 28.3931 1121.88 28.3931C1124.48 28.3931 1126.59 30.4993 1126.59 33.0997L1126.59 104.688C1126.59 107.289 1124.48 109.395 1121.88 109.395C1119.28 109.395 1117.17 107.289 1117.17 104.688Z" fill-rule="nonzero" stroke="rgb(0,0,0)" stroke-linecap="round" stroke-linejoin="round" stroke-width="1.176667" />
		<path id="Vector" d="M1121.88 206.587C1065.6 206.587 1019.98 160.965 1019.98 104.688C1019.98 48.4105 1065.6 2.78857 1121.88 2.78857C1178.16 2.78857 1223.78 48.4105 1223.78 104.688C1223.78 160.965 1178.16 206.587 1121.88 206.587Z" stroke="rgb(0,0,0)" stroke-linecap="round" stroke-linejoin="round" stroke-width="1.176667" />
		<path id="Vector" d="M1117.17 104.688L1117.17 51.9264C1117.17 49.326 1119.28 47.2197 1121.88 47.2197C1124.48 47.2197 1126.59 49.326 1126.59 51.9264L1126.59 104.688C1126.59 107.289 1124.48 109.395 1121.88 109.395C1119.28 109.395 1117.17 107.289 1117.17 104.688Z" fill-rule="nonzero" stroke="rgb(0,0,0)" stroke-linecap="round" stroke-linejoin="round" stroke-width="1.176667" />
		<path id="Vector" d="M1121.88 18.9095C1119.48 18.9095 1117.53 16.9603 1117.53 14.5558C1117.53 12.1514 1119.48 10.2021 1121.88 10.2021C1124.29 10.2021 1126.23 12.1514 1126.23 14.5558C1126.23 16.9603 1124.29 18.9095 1121.88 18.9095Z" stroke="rgb(0,0,0)" stroke-linecap="round" stroke-linejoin="round" stroke-width="1.176667" />
		<path id="Vector" d="M1121.88 199.174C1119.48 199.174 1117.53 197.225 1117.53 194.82C1117.53 192.416 1119.48 190.467 1121.88 190.467C1124.29 190.467 1126.23 192.416 1126.23 194.82C1126.23 197.225 1124.29 199.174 1121.88 199.174Z" stroke="rgb(0,0,0)" stroke-linecap="round" stroke-linejoin="round" stroke-width="1.176667" />
		<path id="Vector" d="M1076.81 30.9817C1074.41 30.9817 1072.46 29.0325 1072.46 26.6281C1072.46 24.2236 1074.41 22.2744 1076.81 22.2744C1079.22 22.2744 1081.17 24.2236 1081.17 26.6281C1081.17 29.0325 1079.22 30.9817 1076.81 30.9817Z" stroke="rgb(0,0,0)" stroke-linecap="round" stroke-linejoin="round" stroke-width="1.176667" />
		<path id="Vector" d="M1166.95 187.102C1164.54 187.102 1162.59 185.153 1162.59 182.748C1162.59 180.344 1164.54 178.395 1166.95 178.395C1169.35 178.395 1171.3 180.344 1171.3 182.748C1171.3 185.153 1169.35 187.102 1166.95 187.102Z" stroke="rgb(0,0,0)" stroke-linecap="round" stroke-linejoin="round" stroke-width="1.176667" />
		<path id="Vector" d="M1043.82 63.9759C1041.42 63.9759 1039.47 62.0267 1039.47 59.6222C1039.47 57.2178 1041.42 55.2686 1043.82 55.2686C1046.23 55.2686 1048.17 57.2178 1048.17 59.6222C1048.17 62.0267 1046.23 63.9759 1043.82 63.9759Z" stroke="rgb(0,0,0)" stroke-linecap="round" stroke-linejoin="round" stroke-width="1.176667" />
		<path id="Vector" d="M1199.93 154.108C1197.52 154.108 1195.58 152.159 1195.58 149.755C1195.58 147.35 1197.52 145.401 1199.93 145.401C1202.33 145.401 1204.28 147.35 1204.28 149.755C1204.28 152.159 1202.33 154.108 1199.93 154.108Z" stroke="rgb(0,0,0)" stroke-linecap="round" stroke-linejoin="round" stroke-width="1.176667" />
		<path id="Vector" d="M1031.75 109.042C1029.34 109.042 1027.39 107.093 1027.39 104.688C1027.39 102.284 1029.34 100.334 1031.75 100.334C1034.15 100.334 1036.1 102.284 1036.1 104.688C1036.1 107.093 1034.15 109.042 1031.75 109.042Z" stroke="rgb(0,0,0)" stroke-linecap="round" stroke-linejoin="round" stroke-width="1.176667" />
		<path id="Vector" d="M1212.01 109.042C1209.61 109.042 1207.66 107.093 1207.66 104.688C1207.66 102.284 1209.61 100.334 1212.01 100.334C1214.42 100.334 1216.37 102.284 1216.37 104.688C1216.37 107.093 1214.42 109.042 1212.01 109.042Z" stroke="rgb(0,0,0)" stroke-linecap="round" stroke-linejoin="round" stroke-width="1.176667" />
		<path id="Vector" d="M1043.82 154.108C1041.42 154.108 1039.47 152.159 1039.47 149.755C1039.47 147.35 1041.42 145.401 1043.82 145.401C1046.23 145.401 1048.17 147.35 1048.17 149.755C1048.17 152.159 1046.23 154.108 1043.82 154.108Z" stroke="rgb(0,0,0)" stroke-linecap="round" stroke-linejoin="round" stroke-width="1.176667" />
		<path id="Vector" d="M1199.93 63.9759C1197.52 63.9759 1195.58 62.0267 1195.58 59.6222C1195.58 57.2178 1197.52 55.2686 1199.93 55.2686C1202.33 55.2686 1204.28 57.2178 1204.28 59.6222C1204.28 62.0267 1202.33 63.9759 1199.93 63.9759Z" stroke="rgb(0,0,0)" stroke-linecap="round" stroke-linejoin="round" stroke-width="1.176667" />
		<path id="Vector" d="M1076.81 187.102C1074.41 187.102 1072.46 185.153 1072.46 182.748C1072.46 180.344 1074.41 178.395 1076.81 178.395C1079.22 178.395 1081.17 180.344 1081.17 182.748C1081.17 185.153 1079.22 187.102 1076.81 187.102Z" stroke="rgb(0,0,0)" stroke-linecap="round" stroke-linejoin="round" stroke-width="1.176667" />
		<path id="Vector" d="M1166.95 30.9817C1164.54 30.9817 1162.59 29.0325 1162.59 26.6281C1162.59 24.2236 1164.54 22.2744 1166.95 22.2744C1169.35 22.2744 1171.3 24.2236 1171.3 26.6281C1171.3 29.0325 1169.35 30.9817 1166.95 30.9817Z" stroke="rgb(0,0,0)" stroke-linecap="round" stroke-linejoin="round" stroke-width="1.176667" />
	</g>
</svg>
