<svg viewBox="0 0 2095 1451.66" xmlns="http://www.w3.org/2000/svg" xmlns:xlink="http://www.w3.org/1999/xlink" width="2095.000000" height="1451.662842" fill="none" customFrame="#000000">
	<defs>
		<clipPath id="clipPath_2">
			<rect width="640.292969" height="1212.093140" x="734.516663" y="124.594971" fill="rgb(255,255,255)" />
		</clipPath>
	</defs>
	<rect id="Craziness" width="2095.000000" height="1451.662842" x="0.000000" y="0.000000" fill="rgb(255,255,255)" fill-opacity="0" />
	<g id="Layer 9">
		<path id="Vector" />
	</g>
	<g id="Layer 10">
		<path id="Vector" d="M1033.85 1371.4C1399.24 1371.4 1695.44 1075.19 1695.44 709.807C1695.44 344.421 1399.24 48.2175 1033.85 48.2175C668.464 48.2175 372.26 344.421 372.26 709.807C372.26 1075.19 668.464 1371.4 1033.85 1371.4Z" fill="rgb(105,191,255)" fill-rule="evenodd" />
		<path id="Vector" d="M1033.85 1138.96C1270.86 1138.96 1463 946.821 1463 709.808C1463 472.794 1270.86 280.656 1033.85 280.656C796.836 280.656 604.699 472.794 604.699 709.808C604.699 946.821 796.836 1138.96 1033.85 1138.96Z" fill="rgb(114,111,247)" fill-rule="evenodd" />
	</g>
	<g id="Background Elements">
		<path id="Vector" d="M0.00802246 444.043C0.00802246 444.043 215.674 238.524 191.285 0L347.218 73.5824C347.218 73.5824 288.711 284.127 0 444.043L0.00802246 444.043Z" fill="rgb(148,252,255)" fill-rule="nonzero" transform="matrix(0.994582,0.103957,-0.103957,0.994582,1400.13,118.669)" />
		<path id="Vector" d="M1399.78 896.23L1228.84 858.876L1293.37 946.047L1226.58 900.761L1245.82 977.739L1146.2 886.046L1086.2 1006.05L1049.4 964.154L891.476 1148.69L975.246 976.608L859.775 1034.35L940.154 927.931L860.746 940.625L898.269 896.23L735.241 900.761L867.698 841.57L812.228 832.668L868.829 792.082L699.018 780.758L849.582 738.873L743.173 622.263L978.647 663.017L978.647 587.17L1033.85 641.509L1042.04 595.093L1082.79 659.625L1136 546.415L1148.46 599.624L1232.23 533.961L1218.64 566.792L1274.12 540.753L1218.64 595.093L1360.16 580.377L1218.64 643.779L1299.59 664.157L1199.41 716.226L1399.78 729.811L1251.47 772.835L1295.63 798.875L1240.16 804.536L1399.78 896.23Z" fill="rgb(255,102,200)" fill-rule="evenodd" />
		<path id="Vector" d="M1507.03 305.698L1392.62 441.297L1383.44 415.169L1336.83 454.01L1395.45 367.141L1395.45 398.219L1507.03 305.698Z" fill="rgb(173,247,160)" fill-rule="nonzero" />
		<path id="Vector" d="M1512.93 115.599L1447.36 205.147L1447.29 181.146L1382.77 274.38L1380.92 242.99L1300.58 348.099L1375.39 193.146L1379.08 221.758L1452.93 98.9872L1452.93 134.062L1507.03 48.2175L1512.93 115.599Z" fill="rgb(255,247,105)" fill-rule="nonzero" />
		<path id="Vector" d="M788.869 458.799L751.853 412.846L738.598 440.069L655.566 292.728L741.642 390.51L749.939 370.097L788.869 458.799Z" fill="rgb(255,247,105)" fill-rule="nonzero" />
		<path id="Vector" d="M214.45 1063.2L256.905 1028.23L35.8616 993.265L93.3079 935.818L326.841 1014.5L295.621 1039.48L521.658 1080.68L214.45 1063.2Z" fill="rgb(203,255,102)" fill-rule="nonzero" />
		<path id="Vector" d="M1819.01 1079.94L1858.45 1118.28L1550.84 1110.43L1779.5 1087.95L1750.45 1060.49L1989.66 1001.29L2042.18 1063.27L1819.01 1079.94Z" fill="rgb(203,255,102)" fill-rule="nonzero" />
		<path id="Vector" />
		<path id="Vector" d="M1347.64 941.016L1347.62 941.008L1347.64 941.008" fill-rule="nonzero" />
		<path id="Vector" />
		<path id="Vector" d="M706.309 539.293C572.258 476.773 557.027 323.502 557.027 323.502C533.48 345.678 537.468 384.394 537.468 384.394C428.478 187.698 463.953 53.9149 463.953 53.9149L612.096 0.608154C543.388 204.363 581.882 277.602 581.882 277.602C586.751 243.239 617.722 237.355 617.722 237.355C589.538 420.929 706.309 539.293 706.309 539.293Z" fill="rgb(203,255,102)" fill-rule="nonzero" />
		<path id="Vector" d="M564.861 514.615C260.571 350.932 198.899 135.422 198.899 135.422L363.258 60.1067C337.652 303.355 563.194 513.068 564.861 514.615Z" fill="rgb(148,252,255)" fill-rule="nonzero" />
		<path id="Vector" d="M1954.85 231.239C1954.85 231.239 1818.54 463.366 1468.79 573.175C1471.08 572.045 1764.96 426.003 1859.56 116.703L1954.85 231.239Z" fill="rgb(255,247,105)" fill-rule="nonzero" />
		<path id="Vector" d="M632.856 665.848C632.856 665.848 444.912 603.149 354.732 421.41C354.732 421.41 328.746 446.381 342.099 490.874C342.099 490.874 180.479 435.475 126.398 196.779C126.398 196.779 18.2262 326.556 29.4163 548.881C29.4163 548.881 125.712 725.538 325.942 711.419C325.942 711.419 283.852 691.852 276.935 646.103C276.935 646.103 431.452 747.5 632.856 665.848Z" fill="rgb(255,247,105)" fill-rule="nonzero" />
		<path id="Vector" d="M1997.33 465.609C1997.33 465.609 1928.56 554.418 1836 554.703C1836 554.703 1849.82 547.252 1852.67 529.456C1852.67 529.456 1784.91 583.876 1694.7 554.952C1694.7 554.952 1778.68 518.56 1805.16 435.083C1805.16 435.083 1816.45 451.828 1813.55 465.235C1813.55 465.235 1939.92 381.857 1952.22 271.985C1952.22 271.985 2007.89 362.761 1997.33 465.609Z" fill="rgb(203,255,102)" fill-rule="nonzero" />
		<path id="Vector" d="M2019.18 494.853C2019.18 494.853 2015.32 626.268 1985.39 684.498C1985.39 684.498 1893.61 773.031 1733.76 755.992C1733.76 755.992 1772.52 731.084 1782.43 707.84C1781.37 708.588 1693.44 770.405 1525.16 734.671C1525.16 734.671 1778.93 721.532 1870.91 582.416C1870.91 582.416 1883.13 628.022 1860.96 654.48C1860.96 654.48 1977.12 604.556 2019.18 494.853Z" fill="rgb(255,247,105)" fill-rule="nonzero" />
		<path id="Vector" d="M661.219 1043.23C189.354 977.943 -123.765 757.514 48.1109 706.896C205.378 660.587 254.964 795.287 254.964 795.287C367.328 794.174 372.465 899.007 372.465 899.007C372.465 899.007 434.158 868.49 500.257 949.688C563.258 1027.08 652.949 1042 661.219 1043.23Z" fill="rgb(255,255,255)" fill-rule="nonzero" />
		<path id="Vector" d="M803.824 1092.37C209.696 1293.41 35.8616 1192.96 35.8616 1192.96C35.8616 1192.96 93.7263 1193.87 128.401 1159.67C157.529 1130.95 185.313 1157.17 185.313 1157.17C190.369 1139.57 207.844 1114.32 241.13 1108.22C281.377 1100.84 302.876 1134.15 302.876 1134.15C323.939 1111.94 355.622 1115.72 377.62 1134.21C415.436 1166.01 459.583 1185.42 509.979 1176.12C582.924 1162.65 591.363 1096.26 622.058 1085.61C652.753 1074.97 667.442 1099.74 667.442 1099.74C667.442 1099.74 669.97 1085.79 685.95 1083.9C703.959 1081.75 709.932 1097.26 709.932 1097.26C716.965 1086 729.037 1078.79 755.325 1090.98C772.088 1098.77 791.646 1095.7 803.824 1092.37Z" fill="rgb(255,255,255)" fill-rule="nonzero" />
		<path id="Vector" d="M815.54 1088.39C815.023 1088.61 810.555 1090.53 803.824 1092.37C807.715 1091.06 811.614 1089.72 815.54 1088.39Z" fill-rule="nonzero" />
		<path id="Vector" d="M2094.75 1378.54C2094.75 1378.54 1528.95 1244.72 1337.77 1173.9C1338.89 1174.19 1357.13 1178.77 1378.49 1168.65C1400.53 1158.2 1413.43 1153.18 1425.5 1171.92C1425.5 1171.92 1441.31 1146.13 1482.91 1153.2C1524.51 1160.27 1526.59 1185.23 1526.59 1185.23C1526.59 1185.23 1551.53 1152.03 1603.02 1158.98C1654.51 1165.93 1668.53 1203.85 1668.53 1203.85C1668.53 1203.85 1715.27 1150.25 1801.88 1172.81C1888.47 1195.35 1888.47 1264.31 1888.47 1264.31C1888.47 1264.31 1909.14 1232.8 1955.74 1251.32C1990.79 1265.26 1984.65 1305.68 1984.65 1305.68C1984.65 1305.68 2016.24 1291.98 2034.17 1310.78C2056.43 1334.13 2054.69 1354.55 2094.75 1378.54Z" fill="rgb(255,255,255)" fill-rule="nonzero" />
		<path id="Vector" d="M866.292 1157.85C747.553 1248.07 381.385 1450.96 381.385 1450.96C404.495 1424.3 399.341 1407.3 410.255 1384C419.033 1365.25 443.576 1371.85 443.576 1371.85C443.576 1371.85 431.496 1338.59 453.084 1321.25C481.794 1298.19 502.216 1321.59 502.216 1321.59C502.216 1321.59 488.871 1263.22 544.51 1230.41C600.141 1197.6 642.907 1235.58 642.907 1235.58C642.907 1235.58 645.275 1201.27 679.611 1187.23C713.947 1173.19 737.645 1197.35 737.645 1197.35C737.645 1197.35 734.262 1175.89 761.717 1163.32C789.171 1150.75 805.106 1170.07 805.106 1170.07C809.842 1152.3 819.75 1154.5 837.048 1159.86C853.944 1165.1 865.757 1158.17 866.292 1157.85Z" fill="rgb(255,255,255)" fill-rule="nonzero" />
		<path id="Vector" d="M2088.13 844.605C2062.08 887.55 1982.16 939.29 1864.84 984.78C1744.36 1031.49 1584.42 1071.6 1402.93 1088.79C1411.51 1087.89 1504.67 1076.48 1573.07 999.576C1644.82 918.895 1707.1 953.044 1707.1 953.044C1707.1 953.044 1716.88 847.053 1830.1 851.326L1830.11 851.326C1846.34 794.788 1898.43 753.428 1960.18 753.428C1971.11 753.428 1981.74 754.728 1991.91 757.176L1991.93 757.176C2036.95 768.001 2073.21 801.331 2088.13 844.605Z" fill="rgb(255,255,255)" fill-rule="nonzero" />
		<path id="Vector" d="M1402.29 1088.85C1402.37 1088.84 1402.46 1088.83 1402.54 1088.82C1402.56 1088.82 1402.6 1088.82 1402.64 1088.81C1402.74 1088.8 1402.83 1088.79 1402.93 1088.79" fill-rule="nonzero" />
	</g>
	<g id="Planes">
		<path id="Vector" d="M1637.41 326.556L1631.87 343.167L1599.69 334.799L1553.82 322.879L1609.98 325.354L1637.41 326.556Z" fill="rgb(145,174,234)" fill-rule="nonzero" />
		<path id="Vector" d="M1652.13 652.503L1562.29 615.826L1592.44 604.013L1652.13 652.503Z" fill="rgb(255,255,255)" fill-rule="nonzero" />
		<path id="Vector" d="M1652.13 652.503L1571.68 661.45L1567.54 648.408L1652.13 652.503Z" fill="rgb(145,174,234)" fill-rule="nonzero" />
		<path id="Vector" d="M1652.13 652.503L1567.54 648.408L1527.37 646.459L1553.39 621.755L1569.92 626.9L1652.13 652.503Z" fill="rgb(255,255,255)" fill-rule="nonzero" />
		<path id="Vector" d="M1473.98 966.077L1310.77 942.21L1310.75 942.201L1441.33 928.215L1473.98 966.077Z" fill="rgb(255,255,255)" fill-rule="nonzero" />
		<path id="Vector" d="M1438.37 1009.21L1425.43 1023.13L1310.82 942.246L1438.37 1009.21Z" fill="rgb(145,174,234)" fill-rule="nonzero" />
		<path id="Vector" d="M1488.8 985.279L1458.62 1019.85L1438.37 1009.21L1310.82 942.245L1310.77 942.219L1454.05 976.875L1488.8 985.279Z" fill="rgb(255,255,255)" fill-rule="nonzero" />
		<path id="Vector" d="M777.918 946.661L641.34 1001.5L733.176 929.586L777.918 946.661Z" fill="rgb(255,255,255)" fill-rule="nonzero" />
		<path id="Vector" d="M772.88 996.736L766.889 1017.02L641.34 1001.5L772.88 996.736Z" fill="rgb(145,174,234)" fill-rule="nonzero" />
		<path id="Vector" d="M834.056 994.519L772.88 996.736L641.34 1001.5L768.696 964.59L795.767 956.747L834.056 994.519Z" fill="rgb(255,255,255)" fill-rule="nonzero" />
		<path id="Vector" d="M818.486 293.101L738.206 260.341L709.478 248.616L739.648 235.352L751.942 244.361L818.486 293.101Z" fill="rgb(255,255,255)" fill-rule="nonzero" />
		<path id="Vector" d="M818.486 293.101L753.375 231.951L778.123 223.574L818.486 293.101Z" fill="rgb(255,255,255)" fill-rule="nonzero" />
		<path id="Vector" d="M818.486 293.101L735.108 274.834L738.206 260.341L818.486 293.101Z" fill="rgb(145,174,234)" fill-rule="nonzero" />
		<path id="Vector" d="M1625.68 292.282L1553.82 322.879L1612.27 278.181L1625.68 292.282Z" fill="rgb(255,255,255)" fill-rule="nonzero" />
		<path id="Vector" d="M1656.95 327.419L1637.41 326.556L1609.98 325.354L1553.82 322.879L1618.19 306.365L1633.72 302.377L1637.37 301.442L1656.95 327.419Z" fill="rgb(255,255,255)" fill-rule="nonzero" />
		<path id="Vector" d="M649.895 775.061L569.801 713.591L601.725 705.614L649.895 775.061Z" fill="rgb(255,255,255)" fill-rule="nonzero" />
		<path id="Vector" d="M649.895 775.061L546.157 746.395L556.501 717.134L569.801 725.386L649.895 775.061Z" fill="rgb(255,255,255)" fill-rule="nonzero" />
		<path id="Vector" d="M1652.13 652.504L1569.92 626.901L1562.29 615.826L1652.13 652.504Z" fill="rgb(0,0,0)" fill-rule="nonzero" />
		<path id="Vector" d="M1473.98 966.076L1454.05 976.875L1310.77 942.218L1310.77 942.209L1473.98 966.076Z" fill="rgb(0,0,0)" fill-rule="nonzero" />
		<path id="Vector" d="M777.918 946.661L768.696 964.59L641.34 1001.5L777.918 946.661Z" fill="rgb(0,0,0)" fill-rule="nonzero" />
		<path id="Vector" d="M818.486 293.101L751.942 244.361L753.375 231.952L818.486 293.101Z" fill="rgb(0,0,0)" fill-rule="nonzero" />
		<path id="Vector" d="M1625.68 292.282L1618.19 306.365L1553.82 322.879L1625.68 292.282Z" fill="rgb(0,0,0)" fill-rule="nonzero" />
		<path id="Vector" d="M649.895 775.061L569.801 725.386L569.801 713.591L649.895 775.061Z" fill="rgb(0,0,0)" fill-rule="nonzero" />
	</g>
	<g id="Frame 380" customFrame="url(#clipPath_2)">
		<rect id="Frame 380" width="640.292969" height="1212.093140" x="734.516663" y="124.594971" />
		<g id="Color Foreground">
			<g id="Group">
				<path id="Vector" d="M1170.86 387.905L1169.05 391.085C1167.49 389.15 1165.54 387.462 1163.25 386.155C1158.7 383.562 1153.59 382.893 1148.85 383.891C1151.93 376.296 1154.45 368.413 1156.33 360.283C1158.94 360.489 1161.53 361.26 1163.94 362.639C1172.83 367.703 1175.93 379.023 1170.86 387.905Z" fill="rgb(255,255,255)" fill-rule="nonzero" />
				<path id="Vector" d="M1147.75 428.206L1147.74 428.215" fill="rgb(255,255,255)" fill-rule="nonzero" />
			</g>
			<path id="Vector" d="M1177.36 490.294C1176.57 492.723 1175.64 495.131 1174.57 497.518C1170.89 505.649 1165.59 513.439 1158.7 520.334C1146.93 532.108 1132.54 539.25 1118.3 541.514C1116.45 541.802 1114.61 542.018 1112.78 542.142C1097.56 543.222 1082.91 538.602 1072.31 528.001C1057.93 513.614 1054.57 491.807 1061.49 471.172C1065.01 460.634 1071.21 450.404 1079.99 441.626C1088.58 433.033 1098.58 426.899 1108.88 423.348L1113.53 415.187C1116.71 409.609 1122.35 406.306 1128.31 405.884L1135.17 393.853C1138.21 388.522 1143.27 385.054 1148.85 383.891C1153.59 382.893 1158.7 383.562 1163.25 386.155C1165.54 387.462 1167.49 389.15 1169.05 391.085C1174.23 397.476 1175.26 406.656 1170.93 414.23L1161.92 430.038C1163.46 431.242 1164.96 432.549 1166.37 433.959C1180.64 448.223 1184.06 469.804 1177.36 490.294Z" fill="rgb(255,255,255)" fill-rule="nonzero" />
			<path id="Vector" d="M1111.96 210.316L1110.11 213.599C1107.99 217.366 1090.07 211.294 1070.05 200.046C1050.03 188.797 1035.52 176.622 1037.63 172.856L1039.05 170.324C1027.2 167.484 1014.82 165.981 1002.08 165.981C914.629 165.981 843.732 236.878 843.732 324.334C843.732 324.797 843.732 325.271 843.742 325.734C843.804 333.566 844.442 341.264 845.605 348.776C849.042 350.547 852.016 353.294 854.075 356.896L860.939 368.927C866.898 369.349 872.537 372.652 875.717 378.23L880.369 386.391C890.671 389.952 900.664 396.076 909.257 404.669C926.783 422.195 934.049 445.505 930.241 465.491C951.801 476.492 976.223 482.688 1002.08 482.688C1023.09 482.688 1043.15 478.602 1061.49 471.172C1065.01 460.633 1071.21 450.404 1079.99 441.625C1088.58 433.032 1098.58 426.898 1108.88 423.348L1113.53 415.187C1116.71 409.609 1122.35 406.305 1128.31 405.883L1135.17 393.853C1138.21 388.522 1143.27 385.053 1148.85 383.891C1151.93 376.296 1154.45 368.412 1156.33 360.282C1159.01 348.735 1160.43 336.694 1160.43 324.334C1160.43 279.557 1141.84 239.112 1111.96 210.316Z" fill="rgb(79,117,250)" fill-rule="nonzero" />
			<path id="Vector" d="M1111.96 210.316L1110.11 213.599C1107.99 217.366 1090.07 211.294 1070.05 200.046C1050.03 188.797 1035.52 176.622 1037.63 172.856L1039.05 170.324C1027.2 167.484 1014.82 165.981 1002.08 165.981C914.629 165.981 843.732 236.878 843.732 324.334C843.732 324.797 843.732 325.271 843.742 325.734C843.804 333.566 844.442 341.264 845.605 348.776C849.042 350.547 852.016 353.294 854.075 356.896L860.939 368.927C866.898 369.349 872.537 372.652 875.717 378.23L880.369 386.391C890.671 389.952 900.664 396.076 909.257 404.669C926.783 422.195 934.049 445.505 930.241 465.491C951.801 476.492 976.223 482.688 1002.08 482.688C1023.09 482.688 1043.15 478.602 1061.49 471.172C1065.01 460.633 1071.21 450.404 1079.99 441.625C1088.58 433.032 1098.58 426.898 1108.88 423.348L1113.53 415.187C1116.71 409.609 1122.35 406.305 1128.31 405.883L1135.17 393.853C1138.21 388.522 1143.27 385.053 1148.85 383.891C1151.93 376.296 1154.45 368.412 1156.33 360.282C1159.01 348.735 1160.43 336.694 1160.43 324.334C1160.43 279.557 1141.84 239.112 1111.96 210.316Z" fill="rgb(184,177,255)" fill-rule="nonzero" />
			<path id="Vector" d="M986.926 263.554C979.063 242.272 958.594 227.092 934.574 227.092C903.751 227.092 878.764 252.079 878.764 282.902C878.764 313.725 903.751 338.702 934.574 338.702C946.893 338.702 958.285 334.709 967.516 327.947C965.283 321.916 964.069 315.402 964.069 308.599C964.069 290.106 973.063 273.712 986.926 263.554Z" fill="rgb(255,255,255)" fill-rule="nonzero" />
			<path id="Vector" d="M1019.88 252.799C1007.55 252.799 996.157 256.792 986.926 263.554C973.063 273.711 964.069 290.106 964.069 308.599C964.069 315.402 965.283 321.916 967.516 327.947C975.389 349.24 995.859 364.409 1019.88 364.409C1050.69 364.409 1075.68 339.422 1075.68 308.599C1075.68 277.776 1050.69 252.799 1019.88 252.799Z" fill="rgb(255,255,255)" fill-rule="nonzero" />
			<path id="Vector" d="M951.688 364.409C938.392 364.409 927.606 375.184 927.606 388.48C927.606 401.777 938.392 412.562 951.688 412.562C964.985 412.562 975.77 401.787 975.77 388.48C975.77 375.174 964.985 364.409 951.688 364.409Z" fill="rgb(0,0,0)" fill-rule="nonzero" />
			<path id="Vector" d="M16.4662 0L0 0L0 49.8926L16.4662 49.8926L16.4662 0Z" fill="rgb(0,0,0)" fill-rule="evenodd" transform="matrix(0.378649,-0.925541,0.925541,0.378649,932.762,213.275)" />
			<path id="Vector" d="M1078.53 238.607L1073.81 254.374L1024.54 239.616L1029.26 223.839L1078.53 238.607Z" fill="rgb(0,0,0)" fill-rule="nonzero" />
			<path id="Vector" d="M1019.13 275.111C1011.72 269.986 999.142 275.337 991.032 287.059C986.298 293.924 984.137 301.447 984.641 307.529L984.641 307.549C985.001 311.862 986.699 315.453 989.777 317.573C996.404 322.163 1007.18 318.355 1015.17 309.103L1004.45 296.342L1022.63 296.342C1025.73 287.419 1024.62 278.919 1019.13 275.111Z" fill="rgb(0,0,0)" fill-rule="nonzero" />
			<path id="Vector" d="M932.227 252.923C924.818 247.798 912.241 253.15 904.132 264.882C896.022 276.604 895.467 290.26 902.876 295.385C909.504 299.965 920.258 296.178 928.265 286.926L917.552 274.154L935.726 274.154C938.834 265.232 937.723 256.731 932.227 252.923Z" fill="rgb(0,0,0)" fill-rule="nonzero" />
			<g id="Group">
				<path id="Vector" />
				<path id="Vector" d="M934.07 625.923L885.083 663.158C872.28 672.883 864.757 688.042 864.757 704.117L864.757 734.343L773.061 707.585C744.348 699.208 728.067 668.921 736.938 640.352L774.841 518.204C786.131 525.397 807.136 534.68 831.815 542.923C856.359 551.126 878.609 556.323 891.988 557.393L875.985 608.974L934.07 625.923Z" fill="rgb(148,252,255)" fill-rule="nonzero" />
			</g>
			<g id="Group">
				<path id="Vector" d="M1297.03 629.69L1297.03 723.063C1297.03 758.281 1275.77 788.537 1245.39 801.7C1234.97 806.218 1223.46 808.729 1211.37 808.729C1201.71 808.729 1192.41 807.123 1183.75 804.18C1170.99 812.218 1122.63 818.619 1060.38 820.656L1060.38 776.939C1060.38 766.73 1063.41 756.747 1069.1 748.267L1106.7 692.241L1123.04 667.891C1128.77 659.35 1138.38 654.214 1148.68 654.214L1168.99 654.214C1166.99 649.789 1164.37 645.621 1161.16 641.875L1145.29 623.34L1126.72 601.646C1138.73 596.119 1158.22 582.946 1178.83 565.883C1198.24 549.819 1214.07 534.104 1222.26 523.339L1284.66 596.233C1292.64 605.557 1297.03 617.423 1297.03 629.69Z" fill="rgb(148,252,255)" fill-rule="nonzero" />
				<path id="Vector" d="M1125.71 706.556L1125.71 723.063C1125.71 746.713 1135.3 768.139 1150.8 783.638C1159.97 792.808 1171.2 799.909 1183.75 804.18" fill="rgb(148,252,255)" fill-rule="nonzero" />
				<path id="Vector" d="M1168.99 654.214C1171.96 660.811 1173.53 668.005 1173.53 675.343L1173.53 706.7" fill="rgb(148,252,255)" fill-rule="nonzero" />
			</g>
			<path id="Vector" d="M1312.72 1085.01L1228.93 1013.55C1217.46 1003.77 1210.86 989.466 1210.86 974.399L1210.86 913.114C1233.3 889.629 1247.08 857.798 1247.08 822.745C1247.08 815.583 1246.51 808.554 1245.39 801.7C1234.97 806.218 1223.46 808.729 1211.37 808.729C1201.71 808.729 1192.41 807.123 1183.75 804.18C1170.99 812.217 1122.63 818.619 1060.38 820.656C1046.83 821.099 1032.63 821.336 1017.99 821.336L1017.25 821.336C975.482 821.315 937.291 819.37 907.878 816.18C889.765 814.204 874.987 811.765 864.757 808.996C854.579 806.248 848.898 803.171 848.898 799.929L848.898 850.81C848.898 852.343 848.95 853.877 849.053 855.4L849.053 855.441C849.094 856.182 849.156 856.923 849.228 857.664L849.238 857.685C850.977 876.014 859.704 893.077 873.752 905.241L884.208 914.308L875.913 981.912C873.464 1001.86 882.849 1021.39 899.933 1031.96L979.033 1080.84C979.341 1080.3 979.702 1079.78 980.103 1079.28C989.015 1068.14 1012.79 1069.18 1021.92 1078.99C1021.92 1078.99 1051.55 1060.61 1066.78 1024.15L1066.78 1040.88C1066.78 1044.06 1067.08 1047.2 1067.65 1050.28C1069.26 1058.97 1073.1 1067.12 1078.79 1073.92C1080.62 1076.1 1082.65 1078.15 1084.85 1080.03L1104.16 1096.5L1124.72 1114.03L1201.43 1179.46C1207.32 1183.46 1214.58 1181.46 1221.66 1177.25C1220.79 1174.32 1219.81 1170.75 1218.99 1167.17C1217.04 1158.6 1219.76 1153.55 1237.25 1150.44C1254.76 1147.34 1264.47 1143.84 1275.75 1152.78C1279.94 1156.1 1284.81 1159.6 1289.86 1161.84C1303.75 1144.23 1313.59 1124.76 1316.84 1109.41C1317.3 1107.21 1317.63 1105.1 1317.81 1103.09C1318.57 1095.04 1317.03 1088.64 1312.72 1085.01ZM907.878 872.576C889.765 870.6 874.987 868.161 864.757 865.393L864.757 830.896C874.987 833.665 889.765 836.104 907.878 838.08L907.878 872.576ZM1017.99 877.732L1017.25 877.732L1017.25 843.236L1017.99 843.236C1032.63 843.236 1046.83 842.999 1060.38 842.556L1060.38 877.053C1046.83 877.495 1032.63 877.732 1017.99 877.732ZM1066.78 989.888L1046.9 977.61C1053.62 977.486 1060.25 977.013 1066.78 976.2L1066.78 989.888Z" fill="rgb(184,177,255)" fill-rule="nonzero" />
			<path id="Vector" d="M940.707 620.87L940.707 668.056L928.203 677.565C915.401 687.291 907.878 702.45 907.878 718.525L907.878 816.18C889.765 814.204 874.987 811.765 864.757 808.996L864.757 704.117C864.757 688.042 872.28 672.883 885.082 663.157L934.069 625.923L940.707 620.87Z" fill="rgb(255,247,105)" fill-rule="nonzero" />
			<path id="Vector" d="M1102.1 605.104L1102.1 628.99C1099.08 631.12 1096.44 633.796 1094.32 636.935L1041.21 715.53L1026.07 737.934C1020.32 746.435 1017.25 756.469 1017.25 766.74L1017.25 821.335C975.482 821.315 937.29 819.37 907.878 816.18L907.878 718.525C907.878 702.45 915.401 687.29 928.203 677.565L940.707 668.056L940.707 605.104C953.839 612.349 985.022 617.453 1021.4 617.453C1057.78 617.453 1088.96 612.359 1102.1 605.104Z" fill="rgb(148,252,255)" fill-rule="nonzero" />
			<path id="Vector" d="M864.757 790.852L864.757 808.996C854.579 806.248 848.898 803.171 848.898 799.929C848.898 796.688 854.579 793.61 864.757 790.852Z" fill="rgb(69,72,203)" fill-rule="nonzero" />
			<path id="Vector" d="M1168.99 654.214L1148.67 654.214C1138.38 654.214 1128.77 659.35 1123.04 667.891L1106.7 692.241L1069.1 748.267C1063.41 756.747 1060.37 766.73 1060.37 776.939L1060.37 820.656C1046.83 821.099 1032.63 821.336 1017.98 821.336L1017.25 821.336L1017.25 766.74C1017.25 756.469 1020.32 746.435 1026.07 737.935L1041.21 715.53L1094.32 636.935C1096.44 633.796 1099.08 631.12 1102.1 628.99C1107.23 625.367 1113.43 623.34 1119.9 623.34L1145.29 623.34L1161.16 641.875C1164.37 645.621 1166.99 649.789 1168.99 654.214Z" fill="rgb(255,247,105)" fill-rule="nonzero" />
			<path id="Vector" d="M1060.37 842.557L1060.37 877.053C1046.83 877.496 1032.63 877.733 1017.98 877.733L1017.25 877.733L1017.25 843.236L1017.98 843.236C1032.63 843.236 1046.83 842.999 1060.37 842.557Z" fill="rgb(255,247,105)" fill-rule="nonzero" />
			<path id="Vector" d="M907.878 838.08L907.878 872.577C889.765 870.601 874.987 868.162 864.757 865.393L864.757 830.896C874.987 833.665 889.765 836.104 907.878 838.08Z" fill="rgb(255,247,105)" fill-rule="nonzero" />
			<path id="Vector" d="M845.605 348.776C839.625 345.72 832.277 345.637 826 349.208C823.705 350.516 821.76 352.193 820.195 354.128L818.384 350.948C813.321 342.066 816.418 330.746 825.31 325.682C831.228 322.307 838.226 322.554 843.742 325.734C843.804 333.566 844.442 341.264 845.605 348.776Z" fill="rgb(255,255,255)" fill-rule="nonzero" />
			<path id="Vector" d="M930.241 465.491C928.409 475.124 924.004 483.985 916.934 491.055C911.377 496.612 904.718 500.523 897.442 502.828C894.057 503.909 890.547 504.629 886.945 505.02C868.009 507.048 846.799 499.628 830.548 483.378C828.768 481.597 827.08 479.745 825.516 477.851C825.012 477.244 824.538 476.657 824.065 476.05C804.172 450.548 803.112 416.772 822.881 397.002C824.291 395.592 825.784 394.285 827.327 393.091L818.312 377.284C813.99 369.699 815.019 360.53 820.195 354.128C821.76 352.194 823.705 350.516 826 349.209C832.277 345.638 839.625 345.72 845.605 348.777C849.042 350.547 852.016 353.295 854.075 356.897L860.939 368.927C866.898 369.349 872.537 372.653 875.717 378.231L880.369 386.392C890.671 389.953 900.664 396.076 909.257 404.669C926.783 422.195 934.049 445.505 930.241 465.491Z" fill="rgb(255,255,255)" fill-rule="nonzero" />
			<path id="Vector" d="M1102.77 552.597C1094.61 561.674 1089.83 568.796 1089.87 572.316C1073.87 576.947 1049.15 579.911 1021.4 579.911C973.166 579.911 934.069 570.947 934.069 559.884C934.069 548.82 973.166 539.867 1021.4 539.867C1058.41 539.867 1090.06 545.146 1102.77 552.597Z" fill="rgb(211,49,99)" fill-rule="nonzero" />
			<path id="Vector" d="M1108.74 596.057L1108.74 597.426C1108.74 600.153 1106.38 602.746 1102.1 605.103C1088.96 612.359 1057.77 617.453 1021.4 617.453C985.032 617.453 953.839 612.348 940.707 605.103C936.426 602.736 934.069 600.143 934.069 597.426L934.069 559.883C934.069 570.946 973.166 579.91 1021.4 579.91C1049.15 579.91 1073.87 576.946 1089.87 572.315C1089.87 572.943 1090.05 573.457 1090.36 573.848L1108.74 596.057Z" fill="rgb(105,191,255)" fill-rule="nonzero" />
			<path id="Vector" d="M1184.58 508.354L1174.57 497.517C1175.64 495.13 1176.58 492.722 1177.36 490.293C1191.05 481.73 1200.93 477.707 1203.21 480.465C1205.75 483.542 1198.19 494.379 1184.58 508.354Z" fill="rgb(211,49,99)" fill-rule="nonzero" />
			<path id="Vector" d="M1184.58 508.354C1176.36 516.793 1165.93 526.385 1154.19 536.1C1145.87 542.985 1137.73 549.242 1130.19 554.614L1118.31 541.513C1132.54 539.249 1146.93 532.107 1158.7 520.333C1165.59 513.438 1170.89 505.648 1174.57 497.518L1184.58 508.354Z" fill="rgb(196,213,255)" fill-rule="nonzero" />
			<path id="Vector" d="M1130.19 554.614C1122.2 560.315 1114.88 565.019 1108.74 568.435C1098.99 573.88 1092.21 576.072 1090.36 573.849C1090.04 573.458 1089.88 572.943 1089.87 572.315C1089.83 568.796 1094.61 561.674 1102.77 552.597C1105.69 549.335 1109.04 545.825 1112.78 542.141C1114.61 542.017 1116.45 541.801 1118.31 541.513L1130.19 554.614Z" fill="rgb(211,49,99)" fill-rule="nonzero" />
			<path id="Vector" d="M1222.26 523.339C1214.07 534.103 1198.24 549.818 1178.83 565.883C1158.22 582.946 1138.73 596.119 1126.72 601.646C1120.59 604.466 1116.4 605.289 1115.01 603.632L1115 603.632L1108.74 596.057L1090.36 573.849C1092.21 576.072 1098.99 573.88 1108.74 568.435C1114.88 565.019 1122.2 560.316 1130.19 554.614C1137.73 549.242 1145.87 542.985 1154.19 536.1C1165.93 526.385 1176.36 516.793 1184.58 508.354C1198.19 494.379 1205.75 483.542 1203.21 480.465L1227.85 510.238C1229.39 512.101 1227.23 516.814 1222.26 523.339Z" fill="rgb(105,191,255)" fill-rule="nonzero" />
			<path id="Vector" d="M825.516 477.841L818.93 497.024C793.664 486.784 776.725 476.698 778.279 472.036C779.802 467.477 798.594 469.402 824.065 476.05C824.538 476.657 825.012 477.244 825.516 477.841Z" fill="rgb(211,49,99)" fill-rule="nonzero" />
			<path id="Vector" d="M917.212 518.45C915.926 522.289 902.382 521.528 882.911 517.215L886.945 505.02C890.547 504.629 894.056 503.909 897.442 502.828C910.584 509.456 918.282 515.24 917.212 518.45Z" fill="rgb(211,49,99)" fill-rule="nonzero" />
			<path id="Vector" d="M904.955 555.118L904.965 555.118C904.235 557.31 899.521 558 891.988 557.393C878.609 556.322 856.359 551.125 831.814 542.923C807.136 534.68 786.131 525.397 774.841 518.203C768.594 514.22 765.312 510.876 766.032 508.704L778.279 472.036C776.725 476.698 793.664 486.784 818.93 497.024C826.628 500.142 835.097 503.27 844.061 506.265C858.191 510.979 871.56 514.704 882.911 517.215C902.382 521.527 915.926 522.289 917.212 518.45L904.955 555.118Z" fill="rgb(105,191,255)" fill-rule="nonzero" />
			<path id="Vector" d="M886.945 505.02L882.911 517.216C871.56 514.704 858.191 510.979 844.061 506.266C835.097 503.271 826.628 500.142 818.93 497.024L825.516 477.851C827.08 479.745 828.768 481.597 830.549 483.378C846.799 499.628 868.009 507.048 886.945 505.02Z" fill="rgb(196,213,255)" fill-rule="nonzero" />
			<path id="Vector" d="M1122.64 191.329C1121.02 194.2 1110.21 191.35 1096.28 184.846C1091.95 182.818 1087.32 180.441 1082.56 177.775C1077.8 175.1 1073.34 172.362 1069.36 169.707C1056.58 161.206 1048.54 153.457 1050.16 150.586C1051.8 147.653 1063.06 150.678 1077.43 157.491C1076.63 158.51 1075.89 159.498 1075.21 160.445C1070.68 158.531 1067.58 157.717 1067.14 158.5C1066.7 159.261 1068.88 161.392 1072.67 164.139C1075.98 166.547 1080.51 169.429 1085.64 172.311C1090.93 175.285 1095.89 177.724 1099.71 179.288C1103.84 180.997 1106.62 181.676 1107.05 180.935C1107.45 180.225 1105.6 178.341 1102.28 175.851C1103.01 174.945 1103.8 173.998 1104.67 173.031C1116.73 181.213 1124.2 188.55 1122.64 191.329Z" fill="rgb(116,158,255)" fill-rule="nonzero" />
			<path id="Vector" d="M1122.64 191.329L1111.96 210.316L1110.11 213.599C1107.99 217.366 1090.07 211.294 1070.05 200.045C1050.03 188.797 1035.52 176.622 1037.63 172.856L1039.05 170.324L1050.16 150.585C1048.54 153.456 1056.58 161.206 1069.36 169.706C1073.34 172.362 1077.8 175.099 1082.56 177.775C1087.32 180.44 1091.95 182.818 1096.28 184.845C1110.21 191.349 1121.02 194.2 1122.64 191.329Z" fill="rgb(145,174,234)" fill-rule="nonzero" />
			<path id="Vector" d="M1107.05 180.935C1106.63 181.676 1103.84 180.997 1099.71 179.288C1100.44 178.239 1101.3 177.076 1102.28 175.851C1105.6 178.341 1107.45 180.225 1107.05 180.935Z" fill="rgb(48,97,196)" fill-rule="nonzero" />
			<path id="Vector" d="M1075.21 160.445C1074.26 161.762 1073.41 163.007 1072.67 164.139C1068.88 161.391 1066.7 159.261 1067.14 158.499C1067.58 157.717 1070.68 158.53 1075.21 160.445Z" fill="rgb(48,97,196)" fill-rule="nonzero" />
			<path id="Vector" d="M1307.09 384.58C1305.63 385.836 1304.12 387.029 1302.55 388.161C1289.68 397.465 1273.64 402.291 1257.52 402.291C1245.56 402.291 1233.54 399.636 1222.71 394.192C1193.01 379.239 1177.67 347.469 1180.61 307.045C1181.53 294.356 1182.74 282.016 1183.91 270.099C1186.84 240.357 1189.59 212.272 1186.13 191.946C1182.88 172.897 1175.1 163.161 1159.28 158.324C1141.51 152.901 1125.8 155.36 1112.55 165.641C1109.49 168.019 1106.86 170.581 1104.67 173.031C1103.8 173.998 1103.01 174.945 1102.28 175.85C1101.3 177.075 1100.44 178.238 1099.71 179.288C1095.89 177.723 1090.93 175.284 1085.64 172.31C1080.51 169.429 1075.98 166.547 1072.67 164.139C1073.41 163.007 1074.26 161.762 1075.21 160.444C1075.89 159.497 1076.63 158.509 1077.43 157.491C1081.15 152.726 1086.11 147.292 1092.41 142.218C1107.44 130.116 1132.8 117.962 1168.29 128.798C1195.17 137.011 1211.41 156.513 1216.57 186.759C1220.73 211.17 1217.77 241.262 1214.64 273.114C1213.49 284.846 1212.3 296.98 1211.4 309.288C1209.38 337.054 1218.33 357.411 1236.59 366.611C1251.96 374.35 1271.96 372.621 1285.12 362.659C1285.75 362.186 1286.36 361.692 1286.96 361.177C1293.42 355.62 1303.17 356.351 1308.73 362.814C1314.28 369.277 1313.55 379.023 1307.09 384.58Z" fill="rgb(239,245,255)" fill-rule="nonzero" />
			<path id="Vector" d="M1022.33 1108.71C1022.33 1113.01 1017.8 1116.81 1010.86 1119.11C1007.09 1116.96 1001.59 1115.27 994.541 1114.49C984.95 1113.41 978.116 1114.27 973.362 1115.83C970.449 1113.8 968.751 1111.35 968.751 1108.71C968.751 1105.23 971.705 1102.08 976.501 1099.8C981.358 1097.47 988.089 1096.03 995.54 1096.03C998.833 1096.03 1001.99 1096.31 1004.9 1096.84C1014.33 1098.49 1021.25 1102.61 1022.21 1107.53C1022.29 1107.93 1022.33 1108.31 1022.33 1108.71Z" fill="rgb(255,255,255)" fill-rule="nonzero" />
			<path id="Vector" d="M1104.16 1096.5C1098.2 1109.52 1090.7 1124.33 1081.28 1140.84C1039.73 1213.58 989.859 1229.42 971.149 1220.29C961.321 1215.48 957.318 1205.08 956.989 1191.27L956.989 1191.09C956.989 1190.39 956.968 1189.69 956.989 1189L956.989 1188.79C957.061 1177.45 959.417 1164.03 962.968 1149.64C963.441 1149.74 963.945 1149.83 964.46 1149.88C973.794 1150.9 983.201 1150.13 992.556 1149.85C996.631 1149.72 1000.95 1149.81 1004.81 1148.31C1006.17 1147.79 1007.46 1147.02 1008.52 1146.03C1015.13 1156.66 1032.04 1157.93 1041.47 1150.57C1045.97 1147.06 1048.79 1141.75 1050.39 1136.27C1052 1130.79 1052.5 1125.05 1053.2 1119.39C1054.24 1111.01 1055.72 1102.58 1059.05 1094.81C1063.07 1085.39 1069.7 1077.95 1078.8 1073.92C1080.63 1076.1 1082.66 1078.15 1084.86 1080.03L1104.17 1096.5L1104.16 1096.5Z" fill="rgb(255,255,255)" fill-rule="nonzero" />
			<path id="Vector" d="M1067.65 1050.28C1059.22 1072.51 1047.82 1082.19 1047.82 1082.19C1044.98 1084.86 1040.67 1086.43 1036.38 1086.59L1036.37 1086.59C1032.61 1086.74 1028.88 1085.78 1026.2 1083.5C1024.61 1082.15 1023.33 1080.51 1021.92 1078.99C1021.92 1078.99 1051.55 1060.61 1066.78 1024.15L1066.78 1040.88C1066.78 1044.06 1067.07 1047.2 1067.65 1050.28Z" fill="rgb(69,72,203)" fill-rule="nonzero" />
			<path id="Vector" d="M1078.79 1073.92C1069.69 1077.95 1063.06 1085.39 1059.04 1094.81C1055.71 1102.58 1054.23 1111.01 1053.19 1119.39C1052.49 1125.05 1051.99 1130.79 1050.38 1136.27C1048.78 1141.75 1045.96 1147.06 1041.46 1150.57C1032.03 1157.94 1015.12 1156.66 1008.51 1146.03C1009.27 1145.34 1009.91 1144.53 1010.37 1143.6C1012.22 1139.93 1011.21 1137.34 1008.74 1135.53C1019.2 1131.03 1019.33 1123.91 1010.86 1119.11C1017.8 1116.81 1022.33 1113.01 1022.33 1108.71C1022.33 1108.31 1022.29 1107.93 1022.21 1107.54C1021.25 1102.61 1014.33 1098.49 1004.9 1096.84C1001.99 1096.31 998.833 1096.03 995.54 1096.03C988.089 1096.03 981.358 1097.47 976.501 1099.8C976.377 1093.59 975.832 1086.24 979.032 1080.84C979.341 1080.3 979.701 1079.78 980.103 1079.28C989.015 1068.14 1012.79 1069.18 1021.92 1078.99C1023.33 1080.51 1024.61 1082.15 1026.2 1083.5C1028.88 1085.78 1032.61 1086.74 1036.37 1086.59L1036.38 1086.59C1040.67 1086.43 1044.98 1084.86 1047.82 1082.19C1047.82 1082.19 1059.22 1072.51 1067.65 1050.28C1069.26 1058.97 1073.1 1067.12 1078.79 1073.92Z" fill="rgb(239,245,255)" fill-rule="nonzero" />
			<path id="Vector" d="M1124.72 1114.03C1122.5 1119.24 1120.13 1124.68 1117.55 1130.36C1116.29 1133.15 1114.93 1135.9 1113.5 1138.61C1097.11 1169.69 1073.1 1201.54 1045.98 1223.78C1031.51 1235.66 1010.35 1247.19 990.435 1242.06C979.887 1239.33 970.069 1232.94 964.151 1223.68C958.12 1214.23 957.122 1202.33 956.988 1191.27C957.318 1205.08 961.321 1215.48 971.149 1220.29C989.859 1229.42 1039.73 1213.58 1081.28 1140.84C1090.7 1124.33 1098.2 1109.52 1104.15 1096.5L1124.72 1114.03Z" fill="rgb(196,213,255)" fill-rule="nonzero" />
			<path id="Vector" d="M1321.66 1133.63C1321.23 1141.22 1318.92 1148.78 1314.63 1155.11C1307.47 1165.72 1298.4 1165.6 1289.86 1161.84C1303.75 1144.23 1313.59 1124.76 1316.84 1109.41C1317.41 1113.33 1319.28 1116.91 1320.42 1120.69C1321.67 1124.83 1321.9 1129.33 1321.66 1133.63Z" fill="rgb(69,72,203)" fill-rule="nonzero" />
			<path id="Vector" d="M1333.74 1148.23C1325.85 1155.46 1319.75 1164.73 1317.13 1175.16C1313.14 1191.08 1319.62 1209.15 1310.56 1223.82C1300.88 1239.45 1275.98 1241.93 1266.1 1226.5C1266.22 1226.29 1266.34 1226.07 1266.44 1225.86C1267.04 1224.61 1267.27 1223.15 1266.87 1221.83C1266.31 1219.98 1264.57 1218.71 1262.74 1218.06C1261.38 1217.56 1259.96 1217.17 1258.51 1216.88C1265.47 1214.29 1269.69 1210.91 1270.58 1207.46C1271.74 1202.89 1269.1 1200.28 1264.93 1198.86C1265.21 1198.62 1265.47 1198.41 1265.66 1198.27C1268.45 1196.17 1271.3 1193.55 1273.01 1190.46C1274 1188.63 1274.52 1186.45 1273.96 1184.45C1273.48 1182.74 1272.24 1181.31 1270.79 1180.3C1266.58 1177.37 1261.05 1176.93 1256.11 1176.46C1250.46 1175.91 1244.7 1176.09 1239.08 1176.9C1233.47 1177.72 1227.98 1179.21 1222.96 1181.44C1222.6 1180.31 1222.15 1178.88 1221.66 1177.25C1220.79 1174.32 1219.81 1170.75 1218.99 1167.17C1217.04 1158.6 1219.76 1153.55 1237.25 1150.44C1254.76 1147.34 1264.47 1143.84 1275.75 1152.78C1279.94 1156.1 1284.81 1159.6 1289.86 1161.84C1298.4 1165.6 1307.47 1165.72 1314.63 1155.11C1318.91 1148.78 1321.23 1141.22 1321.66 1133.63C1321.9 1129.33 1321.67 1124.83 1320.42 1120.69C1319.28 1116.91 1317.41 1113.33 1316.84 1109.41C1317.3 1107.21 1317.63 1105.1 1317.81 1103.09C1318.83 1101.3 1320.57 1100.05 1323.03 1100.08C1327.41 1100.13 1330.83 1104.17 1333.9 1106.88C1333.92 1106.9 1333.94 1106.91 1333.96 1106.93C1334.13 1107.07 1334.29 1107.21 1334.44 1107.36C1340.67 1113.37 1346.75 1136.33 1333.74 1148.23Z" fill="rgb(239,245,255)" fill-rule="nonzero" />
			<path id="Vector" d="M1357.51 1152.98C1355.52 1172.06 1351.54 1221.46 1311.19 1272.77C1270.84 1324.08 1241.95 1324.04 1225.02 1312.02C1220.15 1308.57 1216.96 1303.47 1215.03 1297.48C1215.02 1297.45 1215.02 1297.43 1215.01 1297.39C1209.61 1280.47 1214.31 1256.54 1219.99 1242.93C1222.14 1242.74 1224.26 1242.26 1226.08 1241.89C1232.61 1240.57 1239.03 1238.7 1245.48 1236.99C1251.1 1235.5 1257.18 1233.99 1262.08 1230.72C1263.66 1229.67 1265.15 1228.18 1266.1 1226.5C1275.98 1241.93 1300.88 1239.45 1310.56 1223.82C1319.63 1209.15 1313.14 1191.08 1317.13 1175.16C1319.75 1164.73 1325.85 1155.46 1333.75 1148.23C1346.75 1136.33 1340.67 1113.37 1334.44 1107.36C1339.33 1111.54 1343.94 1116.09 1348.49 1120.64C1353.73 1125.88 1356.81 1129.9 1357.78 1137.29C1358.3 1141.28 1358.21 1146.28 1357.51 1152.98Z" fill="rgb(255,255,255)" fill-rule="nonzero" />
			<path id="Vector" d="M1372.21 1187.96C1362.08 1241.78 1339.98 1293.28 1294.4 1326.16C1278.68 1337.51 1250.65 1341.36 1234.5 1329.24C1224.51 1321.75 1217.84 1309.53 1215.03 1297.48C1216.96 1303.47 1220.15 1308.57 1225.02 1312.02C1241.95 1324.04 1270.84 1324.08 1311.19 1272.77C1351.54 1221.46 1355.52 1172.06 1357.51 1152.98C1358.21 1146.28 1358.3 1141.28 1357.78 1137.29C1357.78 1137.29 1369.42 1151.31 1372.21 1155.13C1375.01 1158.94 1376.28 1166.32 1372.21 1187.96Z" fill="rgb(196,213,255)" fill-rule="nonzero" />
			<path id="Vector" d="M1266.44 1225.86C1266.34 1226.07 1266.22 1226.29 1266.1 1226.5C1265.15 1228.18 1263.66 1229.67 1262.08 1230.72C1257.18 1233.99 1251.09 1235.5 1245.48 1236.99C1239.03 1238.7 1232.61 1240.56 1226.08 1241.89C1224.26 1242.26 1222.14 1242.74 1219.99 1242.93C1216.71 1243.25 1213.39 1242.95 1211.06 1240.73C1209.37 1239.11 1208.45 1236.73 1208.6 1234.39C1208.79 1231.58 1210.45 1229.04 1212.58 1227.19C1215.59 1224.57 1219.49 1222.84 1223.18 1221.45C1223.48 1221.34 1223.78 1221.23 1224.09 1221.12C1234.35 1217.37 1247.39 1214.53 1258.5 1216.88L1258.52 1216.88C1259.96 1217.17 1261.38 1217.56 1262.74 1218.06C1264.57 1218.71 1266.31 1219.98 1266.87 1221.83C1267.27 1223.15 1267.04 1224.61 1266.44 1225.86Z" fill="rgb(255,255,255)" fill-rule="nonzero" />
			<path id="Vector" d="M1270.58 1207.46C1269.69 1210.91 1265.47 1214.29 1258.52 1216.88L1258.5 1216.88C1247.39 1214.53 1234.35 1217.37 1224.09 1221.12C1214.4 1219.88 1212.32 1215.65 1212.63 1212.36C1213.12 1207.15 1218.57 1204.18 1223.32 1202.28C1224.45 1201.83 1225.54 1201.44 1226.52 1201.09C1230.8 1199.55 1235.06 1198.67 1239.54 1198.13C1239.8 1198.1 1240.05 1198.07 1240.31 1198.04C1244.47 1197.58 1257.28 1196.25 1264.93 1198.86C1269.1 1200.28 1271.74 1202.89 1270.58 1207.46Z" fill="rgb(255,255,255)" fill-rule="nonzero" />
			<path id="Vector" d="M1273.01 1190.46C1271.3 1193.55 1268.45 1196.17 1265.66 1198.27C1265.47 1198.41 1265.21 1198.62 1264.93 1198.86C1257.28 1196.25 1244.47 1197.58 1240.31 1198.04C1240.05 1198.07 1239.8 1198.1 1239.54 1198.13C1235.06 1198.67 1230.8 1199.55 1226.52 1201.09C1225.54 1201.44 1224.45 1201.83 1223.32 1202.28C1216.22 1200.38 1209.98 1195.06 1215.16 1187.15C1216.81 1184.62 1219.52 1182.98 1222.28 1181.73C1222.51 1181.63 1222.73 1181.52 1222.96 1181.44C1227.98 1179.21 1233.47 1177.71 1239.08 1176.9C1244.7 1176.09 1250.46 1175.91 1256.11 1176.46C1261.05 1176.93 1266.58 1177.36 1270.79 1180.3C1272.24 1181.31 1273.48 1182.74 1273.96 1184.45C1274.52 1186.45 1274 1188.63 1273.01 1190.46Z" fill="rgb(255,255,255)" fill-rule="nonzero" />
			<path id="Vector" d="M1010.37 1143.6C1009.91 1144.53 1009.27 1145.34 1008.51 1146.03C1007.45 1147.02 1006.16 1147.79 1004.8 1148.31C1000.94 1149.82 996.62 1149.72 992.545 1149.85C983.19 1150.13 973.784 1150.9 964.449 1149.88C963.935 1149.83 963.431 1149.74 962.957 1149.64C959.592 1148.95 957.338 1147.14 957.74 1143.11C958.419 1136.18 966.086 1133.97 971.921 1132.77C972.271 1132.71 972.6 1132.64 972.93 1132.58C977.221 1131.75 981.574 1131.38 985.938 1131.33L986.01 1131.33C990.466 1131.28 1003.25 1131.48 1008.74 1135.53C1011.21 1137.34 1012.22 1139.93 1010.37 1143.6Z" fill="rgb(255,255,255)" fill-rule="nonzero" />
			<path id="Vector" d="M1008.74 1135.53C1003.25 1131.48 990.466 1131.28 986.01 1131.33L985.938 1131.33C981.574 1131.38 977.221 1131.75 972.93 1132.58C972.6 1132.64 972.271 1132.71 971.921 1132.77C962.968 1129.33 963.739 1125.79 963.739 1123.66C963.739 1122.22 966.148 1118.21 973.362 1115.83C978.116 1114.27 984.95 1113.42 994.541 1114.49C1001.59 1115.27 1007.09 1116.96 1010.86 1119.11C1019.33 1123.91 1019.2 1131.03 1008.74 1135.53Z" fill="rgb(255,255,255)" fill-rule="nonzero" />
			<path id="Vector" d="M1322.04 387.575C1321.8 387.689 1321.54 387.791 1321.29 387.884C1320.74 388.111 1320.16 388.316 1319.58 388.491C1317.05 389.304 1314.36 389.737 1311.57 389.737C1296.95 389.737 1285.11 377.891 1285.11 363.277C1285.11 354.839 1289.06 347.316 1295.21 342.489C1299.71 338.938 1305.39 336.818 1311.57 336.818C1312.42 336.818 1313.27 336.859 1314.11 336.942C1310.5 340.492 1305.18 347.316 1304.97 356.753C1304.97 356.753 1332.82 355.158 1338.02 329.656C1338.02 329.656 1356.29 373.847 1322.04 387.575C1321.8 387.689 1321.54 387.791 1321.29 387.884C1320.74 388.09 1320.16 388.296 1319.58 388.491" fill="rgb(255,233,39)" fill-rule="nonzero" />
		</g>
		<g id="Black Features">
			<path id="Vector" d="M1102.77 552.598C1094.61 561.675 1089.83 568.796 1089.87 572.316C1073.87 576.947 1049.15 579.911 1021.4 579.911C973.166 579.911 934.069 570.947 934.069 559.884C934.069 548.821 973.166 539.867 1021.4 539.867C1058.41 539.867 1090.06 545.147 1102.77 552.598Z" fill="rgb(0,0,0)" fill-rule="nonzero" />
			<path id="Vector" d="M1184.58 508.354L1174.57 497.517C1175.64 495.13 1176.57 492.722 1177.36 490.293C1191.04 481.73 1200.92 477.707 1203.21 480.465C1205.75 483.542 1198.19 494.379 1184.58 508.354Z" fill="rgb(0,0,0)" fill-rule="nonzero" />
			<path id="Vector" d="M1130.19 554.614C1122.2 560.315 1114.88 565.019 1108.74 568.435C1098.99 573.88 1092.21 576.072 1090.36 573.849C1090.04 573.458 1089.88 572.943 1089.87 572.315C1089.83 568.796 1094.61 561.674 1102.76 552.597C1105.69 549.335 1109.04 545.825 1112.78 542.141C1114.61 542.017 1116.45 541.801 1118.3 541.513L1130.19 554.614Z" fill="rgb(0,0,0)" fill-rule="nonzero" />
			<path id="Vector" d="M825.516 477.841L818.929 497.024C793.664 486.784 776.724 476.698 778.279 472.036C779.802 467.477 798.594 469.402 824.065 476.05C824.538 476.657 825.012 477.244 825.516 477.841Z" fill="rgb(0,0,0)" fill-rule="nonzero" />
			<path id="Vector" d="M917.212 518.45C915.926 522.289 902.382 521.528 882.911 517.215L886.945 505.02C890.547 504.629 894.056 503.909 897.442 502.828C910.584 509.456 918.282 515.24 917.212 518.45Z" fill="rgb(0,0,0)" fill-rule="nonzero" />
			<path id="Vector" d="M1067.65 1050.28C1059.22 1072.51 1047.82 1082.19 1047.82 1082.19C1044.98 1084.86 1040.67 1086.43 1036.38 1086.59L1036.37 1086.59C1032.61 1086.74 1028.88 1085.78 1026.2 1083.5C1024.61 1082.15 1023.33 1080.51 1021.92 1078.99C1021.92 1078.99 1051.55 1060.61 1066.78 1024.15L1066.78 1040.88C1066.78 1044.06 1067.07 1047.2 1067.65 1050.28Z" fill="rgb(0,0,0)" fill-rule="nonzero" />
			<path id="Vector" d="M1321.66 1133.63C1321.23 1141.22 1318.92 1148.78 1314.63 1155.11C1307.47 1165.72 1298.4 1165.6 1289.86 1161.84C1303.75 1144.23 1313.59 1124.76 1316.84 1109.41C1317.41 1113.33 1319.28 1116.91 1320.42 1120.69C1321.67 1124.83 1321.9 1129.33 1321.66 1133.63Z" fill="rgb(0,0,0)" fill-rule="nonzero" />
			<path id="Vector" d="M1107.05 180.935C1106.62 181.676 1103.84 180.997 1099.71 179.288C1100.44 178.238 1101.3 177.076 1102.28 175.851C1105.6 178.341 1107.45 180.225 1107.05 180.935Z" fill="rgb(0,0,0)" fill-rule="nonzero" />
			<path id="Vector" d="M1075.21 160.445C1074.26 161.762 1073.41 163.007 1072.67 164.139C1068.88 161.391 1066.7 159.261 1067.14 158.5C1067.58 157.717 1070.68 158.53 1075.21 160.445Z" fill="rgb(0,0,0)" fill-rule="nonzero" />
			<path id="Vector" d="M864.757 790.853L864.757 808.996C854.578 806.248 848.898 803.171 848.898 799.93C848.898 796.688 854.578 793.611 864.757 790.853Z" fill="rgb(0,0,0)" fill-rule="nonzero" />
		</g>
		<g id="Lines Foreground">
			<g id="Group">
				<path id="Vector" d="M1156.33 360.283C1158.94 360.489 1161.53 361.26 1163.94 362.639C1172.83 367.703 1175.93 379.023 1170.86 387.905L1169.05 391.085" fill-rule="nonzero" stroke="rgb(0,0,0)" stroke-width="0.771853" />
				<path id="Vector" d="M1147.75 428.206L1147.74 428.215" fill-rule="nonzero" stroke="rgb(0,0,0)" stroke-width="0.771853" />
			</g>
			<path id="Vector" d="M1108.88 423.348C1098.58 426.898 1088.58 433.032 1079.99 441.625C1071.4 450.218 1065.01 460.633 1061.49 471.172C1054.57 491.806 1057.93 513.613 1072.31 528.001C1094.05 549.736 1132.72 546.309 1158.7 520.333C1184.66 494.358 1188.1 455.683 1166.37 433.958C1164.96 432.548 1163.46 431.241 1161.92 430.037" fill-rule="nonzero" stroke="rgb(0,0,0)" stroke-width="0.771853" />
			<path id="Vector" d="M1148.06 422.576L1148.05 422.576" stroke="rgb(0,0,0)" stroke-width="0.771853" />
			<path id="Vector" d="M1133.67 478.19L1132.24 477.315C1127.5 474.413 1125.92 468.269 1128.67 463.443L1145.47 433.958C1150.62 424.932 1147.6 413.066 1138.49 408.096C1129.65 403.269 1118.54 406.398 1113.53 415.186L1099.59 439.649" fill-rule="nonzero" stroke="rgb(0,0,0)" stroke-width="0.771853" />
			<path id="Vector" d="M1128.87 463.092L1128.86 463.083" fill-rule="nonzero" stroke="rgb(0,0,0)" stroke-width="0.771853" />
			<path id="Vector" d="M1128.31 405.884L1135.17 393.853C1138.21 388.522 1143.27 385.054 1148.85 383.891C1153.59 382.893 1158.7 383.562 1163.25 386.155C1165.54 387.462 1167.49 389.15 1169.05 391.085C1174.23 397.476 1175.26 406.656 1170.94 414.23L1161.92 430.038L1155.44 441.41C1152.69 446.236 1154.26 452.38 1159 455.283L1160.43 456.157" fill-rule="nonzero" stroke="rgb(0,0,0)" stroke-width="0.771853" />
			<path id="Vector" d="M1148.85 383.891C1151.93 376.296 1154.45 368.413 1156.33 360.283C1159.01 348.736 1160.43 336.695 1160.43 324.335C1160.43 279.557 1141.84 239.112 1111.96 210.317" fill-rule="nonzero" stroke="rgb(0,0,0)" stroke-width="0.771853" />
			<path id="Vector" d="M1039.05 170.324C1027.2 167.484 1014.82 165.981 1002.08 165.981C914.629 165.981 843.732 236.878 843.732 324.334C843.732 324.797 843.732 325.271 843.742 325.734C843.804 333.566 844.442 341.264 845.605 348.776" fill-rule="nonzero" stroke="rgb(0,0,0)" stroke-width="0.771853" />
			<path id="Vector" d="M930.241 465.491C951.801 476.493 976.223 482.688 1002.08 482.688C1023.09 482.688 1043.15 478.602 1061.49 471.172" fill-rule="nonzero" stroke="rgb(0,0,0)" stroke-width="0.771853" />
			<path id="Vector" d="M1019.88 364.399C989.062 364.399 964.079 339.417 964.079 308.599C964.079 277.782 989.062 252.799 1019.88 252.799C1050.7 252.799 1075.68 277.782 1075.68 308.599C1075.68 339.417 1050.7 364.399 1019.88 364.399Z" stroke="rgb(0,0,0)" stroke-width="0.771853" />
			<path id="Vector" d="M0 0L0.0213142 0" stroke="rgb(0,0,0)" stroke-width="0.771853" transform="matrix(0,1,-1,0,984.641,307.529)" />
			<path id="Vector" d="M967.516 327.947C958.285 334.709 946.893 338.702 934.574 338.702C903.751 338.702 878.764 313.725 878.764 282.902C878.764 252.079 903.751 227.092 934.574 227.092C958.594 227.092 979.063 242.272 986.926 263.554" fill-rule="nonzero" stroke="rgb(0,0,0)" stroke-width="0.771853" />
			<path id="Vector" d="M951.688 412.563C938.388 412.563 927.606 401.781 927.606 388.481C927.606 375.181 938.388 364.399 951.688 364.399C964.988 364.399 975.77 375.181 975.77 388.481C975.77 401.781 964.988 412.563 951.688 412.563Z" stroke="rgb(0,0,0)" stroke-width="0.771853" />
			<path id="Vector" d="M16.4662 0L16.4662 49.8823L0 49.8823L0 0L16.4662 0Z" stroke="rgb(0,0,0)" stroke-width="0.771853" transform="matrix(0.378487,-0.925607,0.925607,0.378487,932.811,213.292)" />
			<path id="Vector" d="M16.4662 0L16.4662 51.426L0 51.426L0 0L16.4662 0Z" stroke="rgb(0,0,0)" stroke-width="0.771853" transform="matrix(0.287026,-0.957923,0.957923,0.287026,1024.46,239.582)" />
			<path id="Vector" d="M1004.45 296.342L1022.63 296.342C1025.73 287.419 1024.62 278.919 1019.13 275.111C1011.72 269.986 999.142 275.337 991.032 287.059C986.298 293.924 984.137 301.447 984.641 307.529L984.641 307.549C985.001 311.862 986.699 315.453 989.777 317.573C996.404 322.163 1007.18 318.355 1015.17 309.103L1004.45 296.342Z" fill-rule="nonzero" stroke="rgb(0,0,0)" stroke-width="0.771853" />
			<path id="Vector" d="M917.552 274.154L935.726 274.154C938.834 265.232 937.723 256.731 932.227 252.923C924.818 247.798 912.241 253.15 904.132 264.882C896.022 276.604 895.467 290.26 902.876 295.385C909.504 299.965 920.258 296.178 928.265 286.926L917.552 274.154Z" fill-rule="nonzero" stroke="rgb(0,0,0)" stroke-width="0.771853" />
			<g id="Group">
				<path id="Vector" d="M891.988 557.393L875.985 608.973L869.141 631.018" fill-rule="nonzero" stroke="rgb(0,0,0)" stroke-width="0.771853" />
				<path id="Vector" d="M774.841 518.204L736.938 640.352C728.067 668.921 744.348 699.208 773.061 707.585L864.757 734.343" fill-rule="nonzero" stroke="rgb(0,0,0)" stroke-width="0.771853" />
				<path id="Vector" d="M934.069 625.923L875.985 608.973" stroke="rgb(0,0,0)" stroke-width="0.771853" />
			</g>
			<g id="Group">
				<path id="Vector" d="M1125.71 706.556L1125.71 723.063C1125.71 746.713 1135.3 768.14 1150.8 783.638C1159.97 792.808 1171.2 799.909 1183.75 804.18C1192.41 807.123 1201.71 808.729 1211.37 808.729C1223.46 808.729 1234.97 806.218 1245.39 801.7C1275.77 788.537 1297.03 758.281 1297.03 723.063L1297.03 629.69C1297.03 617.423 1292.64 605.557 1284.66 596.233L1222.26 523.339" fill-rule="nonzero" stroke="rgb(0,0,0)" stroke-width="0.771853" />
				<path id="Vector" d="M1126.72 601.646L1145.29 623.34L1161.16 641.875C1164.37 645.621 1166.99 649.789 1168.99 654.214C1171.96 660.811 1173.53 668.005 1173.53 675.342L1173.53 706.7" fill-rule="nonzero" stroke="rgb(0,0,0)" stroke-width="0.771853" />
			</g>
			<g id="Group">
				<path id="Vector" d="M1036.37 1086.59L1036.37 1086.59" stroke="rgb(0,0,0)" stroke-width="0.771853" />
				<path id="Vector" d="M0.00916977 0L0 0" stroke="rgb(0,0,0)" stroke-width="0.771853" transform="matrix(0,1,-1,0,1022.22,1107.53)" />
				<path id="Vector" d="M884.208 914.308L875.913 981.912C873.464 1001.86 882.849 1021.39 899.933 1031.96L979.032 1080.84" fill-rule="nonzero" stroke="rgb(0,0,0)" stroke-width="0.771853" />
				<path id="Vector" d="M1066.78 989.888L1046.9 977.61" stroke="rgb(0,0,0)" stroke-width="0.771853" />
			</g>
			<g id="Group">
				<path id="Vector" d="M1289.86 1161.84C1303.75 1144.23 1313.59 1124.76 1316.84 1109.41C1317.3 1107.21 1317.63 1105.1 1317.81 1103.09C1318.57 1095.05 1317.03 1088.64 1312.72 1085.01L1228.93 1013.55C1217.46 1003.77 1210.86 989.466 1210.86 974.399L1210.86 913.114" fill-rule="nonzero" stroke="rgb(0,0,0)" stroke-width="0.771853" />
				<path id="Vector" d="M1221.66 1177.25C1214.58 1181.46 1207.32 1183.46 1201.43 1179.47L1124.72 1114.03L1104.16 1096.5L1084.85 1080.03C1082.65 1078.15 1080.62 1076.1 1078.79 1073.92C1073.1 1067.12 1069.26 1058.97 1067.65 1050.28C1067.08 1047.2 1066.78 1044.06 1066.78 1040.88L1066.78 940.191C1066.78 934.243 1069.03 928.51 1073.09 924.147L1081.28 915.337" fill-rule="nonzero" stroke="rgb(0,0,0)" stroke-width="0.771853" />
			</g>
			<path id="Vector" d="M940.707 620.87L934.069 625.923L885.082 663.157C872.28 672.883 864.757 688.042 864.757 704.117L864.757 808.996" fill-rule="nonzero" stroke="rgb(0,0,0)" stroke-width="0.771853" />
			<path id="Vector" d="M907.878 816.18L907.878 718.525C907.878 702.45 915.401 687.29 928.203 677.565L940.707 668.056" fill-rule="nonzero" stroke="rgb(0,0,0)" stroke-width="0.771853" />
			<path id="Vector" d="M1145.29 623.34L1119.9 623.34C1113.43 623.34 1107.23 625.367 1102.1 628.99C1099.08 631.12 1096.44 633.796 1094.32 636.935L1041.21 715.53L1026.07 737.935C1020.32 746.435 1017.25 756.469 1017.25 766.74L1017.25 821.336" fill-rule="nonzero" stroke="rgb(0,0,0)" stroke-width="0.771853" />
			<path id="Vector" d="M1060.38 820.657L1060.38 776.939C1060.38 766.73 1063.41 756.747 1069.1 748.267L1106.7 692.241L1123.04 667.892C1128.77 659.35 1138.38 654.214 1148.68 654.214L1168.99 654.214" fill-rule="nonzero" stroke="rgb(0,0,0)" stroke-width="0.771853" />
			<path id="Vector" d="M1245.39 801.7C1246.51 808.554 1247.08 815.583 1247.08 822.746C1247.08 867.709 1224.4 907.382 1189.86 930.928" fill-rule="nonzero" stroke="rgb(0,0,0)" stroke-width="0.771853" />
			<path id="Vector" d="M848.898 799.929L848.898 850.81C848.898 871.701 857.965 891.564 873.752 905.241L884.208 914.308L907.878 934.829" fill-rule="nonzero" stroke="rgb(0,0,0)" stroke-width="0.771853" />
			<path id="Vector" d="M1183.75 804.18C1170.99 812.217 1122.63 818.618 1060.38 820.656C1046.83 821.099 1032.63 821.335 1017.99 821.335L1017.25 821.335C975.482 821.315 937.291 819.37 907.878 816.179C889.765 814.203 874.987 811.764 864.757 808.996C854.579 806.248 848.898 803.171 848.898 799.929C848.898 796.688 854.579 793.61 864.757 790.852" fill-rule="nonzero" stroke="rgb(0,0,0)" stroke-width="0.771853" />
			<path id="Vector" d="M1017.98 843.236L1017.25 843.236L1017.25 877.733L1017.98 877.733C1032.63 877.733 1046.83 877.496 1060.37 877.053L1060.37 842.557C1046.83 842.999 1032.63 843.236 1017.98 843.236Z" fill-rule="nonzero" stroke="rgb(0,0,0)" stroke-width="0.771853" />
			<path id="Vector" d="M849.238 857.685L849.228 857.685L849.228 857.664C849.011 857.221 848.898 856.779 848.898 856.326C848.898 856.017 848.95 855.739 849.053 855.431L849.053 855.41" fill-rule="nonzero" stroke="rgb(0,0,0)" stroke-width="0.771853" />
			<path id="Vector" d="M864.757 865.393C874.987 868.162 889.765 870.601 907.878 872.577L907.878 838.08C889.765 836.104 874.987 833.665 864.757 830.896L864.757 865.393Z" fill-rule="nonzero" stroke="rgb(0,0,0)" stroke-width="0.771853" />
			<path id="Vector" d="M952.388 954.661C979.382 969.326 1010.32 977.652 1043.19 977.652C1044.43 977.652 1045.67 977.652 1046.9 977.61C1053.62 977.487 1060.25 977.013 1066.78 976.201" fill-rule="nonzero" stroke="rgb(0,0,0)" stroke-width="0.771853" />
			<g id="Group">
				<path id="Vector" d="M820.195 354.128L818.384 350.948C813.321 342.066 816.418 330.746 825.31 325.682C831.228 322.307 838.226 322.554 843.742 325.734" fill-rule="nonzero" stroke="rgb(0,0,0)" stroke-width="0.771853" />
				<path id="Vector" d="M0.00916977 0L0 0" stroke="rgb(0,0,0)" stroke-width="0.771853" transform="matrix(0,1,-1,0,838.689,386.556)" />
			</g>
			<path id="Vector" d="M827.327 393.091C825.783 394.285 824.291 395.592 822.881 397.002C801.146 418.737 804.583 457.402 830.548 483.377C856.524 509.352 895.199 512.779 916.934 491.054C924.004 483.984 928.409 475.123 930.241 465.491C934.049 445.505 926.783 422.195 909.257 404.669C900.664 396.075 890.671 389.952 880.369 386.391" fill-rule="nonzero" stroke="rgb(0,0,0)" stroke-width="0.771853" />
			<path id="Vector" d="M855.577 441.235L857.007 440.36C861.752 437.458 863.326 431.314 860.578 426.487L843.773 397.002C838.627 387.977 841.642 376.111 850.76 371.14C859.879 366.169 870.705 369.442 875.717 378.231L891.216 405.421" fill-rule="nonzero" stroke="rgb(0,0,0)" stroke-width="0.771853" />
			<path id="Vector" d="M828.82 419.211L830.25 418.336C834.994 415.434 836.569 409.29 833.821 404.463L818.322 377.294C814 369.709 815.029 360.54 820.206 354.139C821.77 352.204 823.715 350.526 826.01 349.219C832.288 345.648 839.636 345.731 845.615 348.787C849.052 350.557 852.027 353.305 854.085 356.907L860.949 368.938" fill-rule="nonzero" stroke="rgb(0,0,0)" stroke-width="0.771853" />
			<path id="Vector" d="M1089.87 572.316C1073.87 576.947 1049.15 579.911 1021.4 579.911C973.166 579.911 934.069 570.947 934.069 559.884C934.069 548.82 973.166 539.867 1021.4 539.867C1058.41 539.867 1090.06 545.146 1102.77 552.597" fill-rule="nonzero" stroke="rgb(0,0,0)" stroke-width="0.771853" />
			<path id="Vector" d="M934.069 559.883L934.069 597.426C934.069 600.143 936.426 602.736 940.707 605.103C953.839 612.348 985.022 617.453 1021.4 617.453C1057.78 617.453 1088.96 612.359 1102.1 605.103C1106.38 602.746 1108.74 600.153 1108.74 597.426L1108.74 596.057" fill-rule="nonzero" stroke="rgb(0,0,0)" stroke-width="0.771853" />
			<path id="Vector" d="M0 0L76.2075 0" stroke="rgb(0,0,0)" stroke-width="0.771853" transform="matrix(0,1,-1,0,940.708,605.104)" />
			<path id="Vector" d="M23.8863 0L0 0" stroke="rgb(0,0,0)" stroke-width="0.771853" transform="matrix(0,1,-1,0,1102.1,605.104)" />
			<path id="Vector" d="M1177.36 490.293C1191.04 481.73 1200.92 477.707 1203.21 480.465C1207.29 485.405 1185.35 510.31 1154.19 536.1C1137.05 550.292 1120.67 561.787 1108.74 568.435C1098.99 573.879 1092.21 576.071 1090.36 573.849C1090.04 573.457 1089.88 572.943 1089.87 572.315C1089.83 568.795 1094.61 561.674 1102.77 552.597C1105.69 549.334 1109.04 545.825 1112.78 542.141" fill-rule="nonzero" stroke="rgb(0,0,0)" stroke-width="0.771853" />
			<path id="Vector" d="M1115 603.622C1119.1 608.562 1147.68 591.663 1178.83 565.883C1209.99 540.093 1231.94 515.178 1227.85 510.238" fill-rule="nonzero" stroke="rgb(0,0,0)" stroke-width="0.771853" />
			<path id="Vector" d="M1090.36 573.848L1115.01 603.632" stroke="rgb(0,0,0)" stroke-width="0.771853" />
			<path id="Vector" d="M1203.21 480.465L1227.85 510.238" stroke="rgb(0,0,0)" stroke-width="0.771853" />
			<path id="Vector" d="M824.065 476.05C798.594 469.402 779.802 467.477 778.279 472.036C776.725 476.698 793.664 486.784 818.93 497.024C826.628 500.142 835.097 503.271 844.061 506.265C858.191 510.979 871.56 514.704 882.911 517.215C902.382 521.527 915.926 522.289 917.212 518.45C918.283 515.239 910.585 509.456 897.443 502.828" fill-rule="nonzero" stroke="rgb(0,0,0)" stroke-width="0.771853" />
			<path id="Vector" d="M778.279 472.036L766.032 508.704" stroke="rgb(0,0,0)" stroke-width="0.771853" />
			<path id="Vector" d="M917.212 518.451L904.955 555.119L904.965 555.119C904.235 557.311 899.521 558 891.988 557.393C878.609 556.323 856.359 551.126 831.814 542.923C807.136 534.68 786.131 525.397 774.841 518.204C768.594 514.221 765.312 510.876 766.032 508.705" fill-rule="nonzero" stroke="rgb(0,0,0)" stroke-width="0.771853" />
			<path id="Vector" d="M1118.31 541.513L1130.19 554.614" stroke="rgb(0,0,0)" stroke-width="0.771853" />
			<path id="Vector" d="M1174.57 497.518L1184.58 508.354" stroke="rgb(0,0,0)" stroke-width="0.771853" />
			<path id="Vector" d="M886.945 505.021L882.911 517.216" stroke="rgb(0,0,0)" stroke-width="0.771853" />
			<path id="Vector" d="M825.516 477.84L818.93 497.023" stroke="rgb(0,0,0)" stroke-width="0.771853" />
			<path id="Vector" d="M1104.67 173.031C1116.73 181.213 1124.2 188.55 1122.64 191.329C1121.02 194.2 1110.21 191.35 1096.28 184.846C1091.95 182.818 1087.32 180.441 1082.56 177.775C1077.8 175.1 1073.34 172.362 1069.36 169.707C1056.58 161.206 1048.54 153.457 1050.16 150.586C1051.8 147.653 1063.06 150.678 1077.43 157.491" fill-rule="nonzero" stroke="rgb(0,0,0)" stroke-width="0.771853" />
			<path id="Vector" d="M1075.21 160.445C1070.68 158.53 1067.58 157.717 1067.14 158.499C1066.7 159.261 1068.88 161.391 1072.67 164.139C1075.98 166.547 1080.51 169.429 1085.64 172.31C1090.93 175.285 1095.89 177.724 1099.71 179.288C1103.84 180.996 1106.62 181.676 1107.05 180.935C1107.45 180.225 1105.6 178.341 1102.28 175.851" fill-rule="nonzero" stroke="rgb(0,0,0)" stroke-width="0.771853" />
			<path id="Vector" d="M1037.63 172.856C1035.51 176.622 1050.03 188.797 1070.04 200.046C1090.06 211.294 1107.99 217.366 1110.1 213.599" fill-rule="nonzero" stroke="rgb(0,0,0)" stroke-width="0.771853" />
			<path id="Vector" d="M1122.64 191.329L1110.11 213.6" stroke="rgb(0,0,0)" stroke-width="0.771853" />
			<path id="Vector" d="M1050.16 150.585L1037.63 172.856" stroke="rgb(0,0,0)" stroke-width="0.771853" />
			<g id="Group">
				<path id="Vector" d="M1099.71 179.288C1100.44 178.238 1101.3 177.075 1102.28 175.851C1103.01 174.945 1103.81 173.998 1104.67 173.031C1106.86 170.581 1109.49 168.019 1112.55 165.642C1125.8 155.361 1141.51 152.901 1159.28 158.324C1175.1 163.161 1182.88 172.897 1186.13 191.946C1189.59 212.272 1186.84 240.357 1183.91 270.099C1182.74 282.016 1181.53 294.356 1180.61 307.045C1177.67 347.47 1193.01 379.239 1222.71 394.192C1233.54 399.637 1245.56 402.292 1257.52 402.292C1273.64 402.292 1289.68 397.465 1302.55 388.162" fill-rule="nonzero" stroke="rgb(0,0,0)" stroke-width="0.771853" />
				<path id="Vector" d="M1285.12 362.659C1271.96 372.621 1251.96 374.35 1236.59 366.611C1218.33 357.411 1209.38 337.054 1211.4 309.288C1212.3 296.98 1213.49 284.846 1214.64 273.114C1217.77 241.262 1220.73 211.17 1216.57 186.759C1211.41 156.513 1195.17 137.011 1168.29 128.798C1132.8 117.962 1107.44 130.116 1092.41 142.218C1086.11 147.292 1081.15 152.726 1077.43 157.491C1076.63 158.509 1075.89 159.497 1075.21 160.444C1074.26 161.762 1073.41 163.007 1072.67 164.139" fill-rule="nonzero" stroke="rgb(0,0,0)" stroke-width="0.771853" />
			</g>
			<path id="Vector" d="M1321.29 387.884C1320.74 388.111 1320.16 388.316 1319.58 388.491C1317.05 389.304 1314.36 389.737 1311.57 389.737C1296.95 389.737 1285.11 377.891 1285.11 363.277C1285.11 354.839 1289.06 347.316 1295.21 342.489C1299.71 338.938 1305.39 336.818 1311.57 336.818C1312.42 336.818 1313.27 336.859 1314.11 336.942C1310.5 340.492 1305.18 347.316 1304.97 356.753C1304.97 356.753 1332.82 355.158 1338.02 329.656C1338.02 329.656 1356.29 373.847 1322.04 387.575C1321.8 387.689 1321.54 387.791 1321.29 387.884C1320.74 388.09 1320.16 388.296 1319.58 388.491" fill-rule="nonzero" stroke="rgb(0,0,0)" stroke-width="0.771853" />
			<path id="Vector" d="M1010.86 1119.11C1017.8 1116.81 1022.33 1113.01 1022.33 1108.71C1022.33 1108.31 1022.29 1107.92 1022.21 1107.53C1021.25 1102.61 1014.33 1098.49 1004.9 1096.84C1001.99 1096.31 998.833 1096.03 995.54 1096.03C988.089 1096.03 981.358 1097.47 976.501 1099.8C971.705 1102.08 968.751 1105.23 968.751 1108.71C968.751 1111.35 970.449 1113.8 973.362 1115.83" fill-rule="nonzero" stroke="rgb(0,0,0)" stroke-width="0.771853" />
			<path id="Vector" d="M962.957 1149.64C959.407 1164.03 957.05 1177.45 956.978 1188.79L956.978 1189.01C956.968 1189.72 956.968 1190.41 956.978 1191.09L956.978 1191.19C957.287 1205.04 961.29 1215.47 971.139 1220.29C989.849 1229.42 1039.72 1213.58 1081.27 1140.84C1090.69 1124.33 1098.19 1109.52 1104.14 1096.5" fill-rule="nonzero" stroke="rgb(0,0,0)" stroke-width="0.771853" />
			<path id="Vector" d="M976.501 1099.8C976.377 1093.59 975.832 1086.24 979.032 1080.84C979.341 1080.3 979.701 1079.78 980.103 1079.28C989.015 1068.14 1012.79 1069.18 1021.92 1078.99C1023.33 1080.51 1024.61 1082.15 1026.2 1083.5C1028.88 1085.78 1032.61 1086.74 1036.37 1086.59L1036.38 1086.59C1040.67 1086.43 1044.98 1084.86 1047.82 1082.19C1047.82 1082.19 1059.22 1072.51 1067.65 1050.28" fill-rule="nonzero" stroke="rgb(0,0,0)" stroke-width="0.771853" />
			<path id="Vector" d="M1124.72 1114.03C1122.5 1119.24 1120.13 1124.68 1117.55 1130.37C1116.29 1133.15 1114.93 1135.9 1113.5 1138.61C1097.11 1169.69 1073.1 1201.54 1045.98 1223.78C1031.51 1235.66 1010.35 1247.19 990.435 1242.06C979.886 1239.33 970.069 1232.94 964.151 1223.68C958.089 1214.18 957.112 1202.21 956.988 1191.09C956.988 1190.39 956.968 1189.69 956.988 1189.01C956.978 1188.59 956.978 1188.19 956.978 1187.79" fill-rule="nonzero" stroke="rgb(0,0,0)" stroke-width="0.771853" />
			<path id="Vector" d="M1317.81 1103.09C1318.83 1101.3 1320.57 1100.05 1323.03 1100.08C1327.42 1100.13 1330.84 1104.19 1333.92 1106.9C1333.93 1106.91 1333.95 1106.92 1333.96 1106.93C1333.98 1106.95 1334.01 1106.97 1334.03 1106.99C1334.18 1107.11 1334.31 1107.23 1334.44 1107.36C1339.33 1111.54 1343.94 1116.09 1348.49 1120.64C1353.73 1125.88 1356.81 1129.9 1357.78 1137.29C1358.3 1141.28 1358.21 1146.28 1357.51 1152.98C1355.52 1172.06 1351.54 1221.46 1311.19 1272.77C1270.84 1324.08 1241.95 1324.04 1225.02 1312.02C1220.15 1308.57 1216.96 1303.47 1215.03 1297.48C1215.03 1297.45 1215.03 1297.43 1215.01 1297.39C1209.61 1280.46 1214.31 1256.54 1219.99 1242.93" fill-rule="nonzero" stroke="rgb(0,0,0)" stroke-width="0.771853" />
			<path id="Vector" d="M1222.96 1181.44C1222.6 1180.31 1222.15 1178.88 1221.66 1177.25C1220.79 1174.32 1219.81 1170.75 1218.99 1167.17C1217.04 1158.6 1219.76 1153.55 1237.25 1150.44C1254.76 1147.34 1264.47 1143.84 1275.75 1152.78C1287.03 1161.72 1303.23 1171.99 1314.63 1155.11C1318.91 1148.78 1321.23 1141.22 1321.66 1133.63C1321.9 1129.33 1321.67 1124.83 1320.42 1120.69C1319.28 1116.91 1317.41 1113.33 1316.84 1109.41" fill-rule="nonzero" stroke="rgb(0,0,0)" stroke-width="0.771853" />
			<path id="Vector" d="M1357.78 1137.29C1357.78 1137.29 1369.4 1151.3 1372.2 1155.12C1375 1158.93 1376.28 1166.31 1372.2 1187.95C1362.08 1241.77 1339.98 1293.27 1294.4 1326.15C1278.67 1337.5 1250.65 1341.35 1234.48 1329.23C1224.48 1321.72 1217.8 1309.46 1215 1297.38" fill-rule="nonzero" stroke="rgb(0,0,0)" stroke-width="0.771853" />
			<path id="Vector" d="M1226.08 1241.89C1221.44 1242.84 1214.88 1244.39 1211.06 1240.73C1209.37 1239.11 1208.45 1236.73 1208.6 1234.39C1208.79 1231.58 1210.46 1229.03 1212.58 1227.19C1215.59 1224.57 1219.49 1222.84 1223.18 1221.45C1234.89 1217.05 1250.51 1213.69 1262.74 1218.06C1264.57 1218.71 1266.31 1219.98 1266.87 1221.83C1267.27 1223.15 1267.04 1224.61 1266.44 1225.86C1265.52 1227.8 1263.86 1229.53 1262.08 1230.72C1257.18 1233.99 1251.09 1235.5 1245.48 1236.98L1245.48 1236.99C1239.03 1238.7 1232.61 1240.58 1226.08 1241.89Z" fill-rule="nonzero" stroke="rgb(0,0,0)" stroke-width="0.771853" />
			<path id="Vector" d="M1258.5 1216.88C1265.47 1214.29 1269.69 1210.91 1270.58 1207.46C1271.74 1202.89 1269.1 1200.28 1264.93 1198.86C1257.28 1196.25 1244.47 1197.58 1240.31 1198.04L1239.54 1198.13C1235.06 1198.67 1230.8 1199.55 1226.52 1201.09C1225.54 1201.44 1224.45 1201.83 1223.32 1202.28C1218.57 1204.18 1213.12 1207.15 1212.63 1212.36C1212.32 1215.65 1214.4 1219.88 1224.09 1221.12" fill-rule="nonzero" stroke="rgb(0,0,0)" stroke-width="0.771853" />
			<path id="Vector" d="M1223.32 1202.28C1216.22 1200.38 1209.98 1195.06 1215.16 1187.15C1216.81 1184.62 1219.52 1182.98 1222.28 1181.73C1222.51 1181.63 1222.73 1181.52 1222.96 1181.44C1227.98 1179.21 1233.47 1177.71 1239.08 1176.9C1244.7 1176.09 1250.46 1175.91 1256.11 1176.46C1261.05 1176.93 1266.58 1177.36 1270.79 1180.3C1272.24 1181.31 1273.48 1182.74 1273.96 1184.45C1274.52 1186.45 1274 1188.63 1273.01 1190.46C1271.3 1193.55 1268.45 1196.17 1265.66 1198.27C1265.47 1198.41 1265.21 1198.62 1264.93 1198.86" fill-rule="nonzero" stroke="rgb(0,0,0)" stroke-width="0.771853" />
			<path id="Vector" d="M1333.74 1106.76C1333.82 1106.81 1333.89 1106.87 1333.96 1106.93C1334.13 1107.07 1334.29 1107.21 1334.44 1107.36C1340.67 1113.37 1346.75 1136.33 1333.74 1148.23C1325.85 1155.46 1319.75 1164.73 1317.13 1175.16C1313.14 1191.08 1319.62 1209.15 1310.56 1223.82C1300.88 1239.45 1275.98 1241.93 1266.1 1226.5" fill-rule="nonzero" stroke="rgb(0,0,0)" stroke-width="0.771853" />
			<path id="Vector" d="M985.938 1131.33C981.574 1131.38 977.221 1131.75 972.93 1132.58C967.002 1133.72 958.46 1135.77 957.74 1143.11C957.287 1147.72 960.292 1149.43 964.46 1149.88C973.794 1150.9 983.2 1150.12 992.555 1149.85C996.631 1149.72 1000.95 1149.82 1004.81 1148.31C1007.13 1147.41 1009.26 1145.82 1010.38 1143.61C1016.36 1131.71 992.463 1131.27 986.02 1131.34L986.01 1131.33C986.01 1131.33 985.958 1131.33 985.938 1131.33Z" fill-rule="nonzero" stroke="rgb(0,0,0)" stroke-width="0.771853" />
			<path id="Vector" d="M971.921 1132.77C962.968 1129.33 963.739 1125.79 963.739 1123.66C963.739 1122.22 966.148 1118.21 973.362 1115.83C978.116 1114.27 984.95 1113.42 994.541 1114.49C1001.59 1115.27 1007.09 1116.96 1010.86 1119.11C1019.33 1123.91 1019.2 1131.03 1008.74 1135.53" fill-rule="nonzero" stroke="rgb(0,0,0)" stroke-width="0.771853" />
			<path id="Vector" d="M1021.92 1078.99C1021.92 1078.99 1051.55 1060.61 1066.78 1024.15" fill-rule="nonzero" stroke="rgb(0,0,0)" stroke-width="0.771853" />
			<path id="Vector" d="M1008.51 1146.03C1015.12 1156.66 1032.03 1157.93 1041.46 1150.57C1045.96 1147.06 1048.78 1141.75 1050.38 1136.27C1051.99 1130.79 1052.49 1125.05 1053.19 1119.39C1054.23 1111.01 1055.71 1102.58 1059.04 1094.81C1063.06 1085.39 1069.69 1077.95 1078.79 1073.92" fill-rule="nonzero" stroke="rgb(0,0,0)" stroke-width="0.771853" />
		</g>
	</g>
</svg>
