<svg viewBox="0 0 1450 1079" xmlns="http://www.w3.org/2000/svg" xmlns:xlink="http://www.w3.org/1999/xlink" width="1450.000000" height="1079.000000" fill="none" customFrame="#000000">
	<defs>
		<clipPath id="clipPath_5">
			<rect width="338.000000" height="808.000000" x="556.000000" y="0.000000" fill="rgb(255,255,255)" />
		</clipPath>
		<linearGradient id="paint_linear_88" x1="556.930176" x2="893.07019" y1="367.269989" y2="367.269989" gradientUnits="userSpaceOnUse">
			<stop stop-color="rgb(255,203,252)" offset="0" stop-opacity="1" />
			<stop stop-color="rgb(255,255,255)" offset="1" stop-opacity="1" />
		</linearGradient>
		<linearGradient id="paint_linear_89" x1="582.629883" x2="867.369873" y1="427.179993" y2="427.179993" gradientUnits="userSpaceOnUse">
			<stop stop-color="rgb(156,127,255)" offset="0" stop-opacity="1" />
			<stop stop-color="rgb(214,231,255)" offset="1" stop-opacity="1" />
		</linearGradient>
		<linearGradient id="paint_linear_90" x1="655.179932" x2="655.179932" y1="470.099976" y2="547.27002" gradientUnits="userSpaceOnUse">
			<stop stop-color="rgb(173,154,255)" offset="0" stop-opacity="1" />
			<stop stop-color="rgb(214,231,255)" offset="1" stop-opacity="1" />
		</linearGradient>
		<linearGradient id="paint_linear_91" x1="367.219727" x2="367.219727" y1="470.099976" y2="470.099976" gradientUnits="userSpaceOnUse">
			<stop stop-color="rgb(173,154,255)" offset="0" stop-opacity="1" />
			<stop stop-color="rgb(214,231,255)" offset="1" stop-opacity="1" />
		</linearGradient>
		<linearGradient id="paint_linear_92" x1="413.759766" x2="413.759766" y1="470.099976" y2="470.099976" gradientUnits="userSpaceOnUse">
			<stop stop-color="rgb(173,154,255)" offset="0" stop-opacity="1" />
			<stop stop-color="rgb(214,231,255)" offset="1" stop-opacity="1" />
		</linearGradient>
		<linearGradient id="paint_linear_93" x1="460.310059" x2="460.310059" y1="470.099976" y2="470.099976" gradientUnits="userSpaceOnUse">
			<stop stop-color="rgb(173,154,255)" offset="0" stop-opacity="1" />
			<stop stop-color="rgb(214,231,255)" offset="1" stop-opacity="1" />
		</linearGradient>
		<linearGradient id="paint_linear_94" x1="556.930176" x2="893.07019" y1="321.540009" y2="321.540009" gradientUnits="userSpaceOnUse">
			<stop stop-color="rgb(223,201,255)" offset="0" stop-opacity="1" />
			<stop stop-color="rgb(117,141,170)" offset="1" stop-opacity="1" />
		</linearGradient>
		<linearGradient id="paint_linear_95" x1="624.299805" x2="825.699829" y1="507.450012" y2="507.450012" gradientUnits="userSpaceOnUse">
			<stop stop-color="rgb(255,203,252)" offset="0" stop-opacity="1" />
			<stop stop-color="rgb(255,255,255)" offset="1" stop-opacity="1" />
		</linearGradient>
		<clipPath id="clipPath_6">
			<rect width="1450.000000" height="300.440002" x="0.000000" y="778.560059" fill="rgb(255,255,255)" />
		</clipPath>
		<linearGradient id="paint_linear_96" x1="605.810303" x2="605.810303" y1="896.75" y2="944.099976" gradientUnits="userSpaceOnUse">
			<stop stop-color="rgb(255,203,252)" offset="0" stop-opacity="1" />
			<stop stop-color="rgb(255,255,255)" offset="1" stop-opacity="1" />
		</linearGradient>
		<linearGradient id="paint_linear_97" x1="442.360352" x2="442.360352" y1="896.75" y2="896.75" gradientUnits="userSpaceOnUse">
			<stop stop-color="rgb(255,203,252)" offset="0" stop-opacity="1" />
			<stop stop-color="rgb(255,255,255)" offset="1" stop-opacity="1" />
		</linearGradient>
		<linearGradient id="paint_linear_98" x1="634.23999" x2="815.720032" y1="822.370056" y2="822.370056" gradientUnits="userSpaceOnUse">
			<stop stop-color="rgb(113,255,251)" offset="0" stop-opacity="1" />
			<stop stop-color="rgb(203,251,69)" offset="1" stop-opacity="1" />
		</linearGradient>
		<linearGradient id="paint_linear_99" x1="890.100037" x2="890.100037" y1="1078.22998" y2="896.75" gradientUnits="userSpaceOnUse">
			<stop stop-color="rgb(113,255,251)" offset="0" stop-opacity="1" />
			<stop stop-color="rgb(203,251,69)" offset="1" stop-opacity="1" />
		</linearGradient>
		<linearGradient id="paint_linear_100" x1="559.860291" x2="559.860291" y1="1078.22998" y2="896.75" gradientUnits="userSpaceOnUse">
			<stop stop-color="rgb(113,255,251)" offset="0" stop-opacity="1" />
			<stop stop-color="rgb(203,251,69)" offset="1" stop-opacity="1" />
		</linearGradient>
	</defs>
	<rect id="Frame 5" width="1450.000000" height="1079.000000" x="0.000000" y="0.000000" />
	<g id="brain-food_Brain Pump 1" clip-path="url(#clipPath_5)" customFrame="url(#clipPath_5)">
		<rect id="brain-food_Brain Pump 1" width="338.000000" height="808.000000" x="556.000000" y="0.000000" fill="rgb(255,255,255)" fill-opacity="0" />
		<g id="Color">
			<path id="Vector" d="M893.07 321.52L893.07 387.09C893.07 392.16 883.65 396.88 867.37 400.87C837.63 408.17 784.98 413.02 725 413.02C665.02 413.02 612.37 408.17 582.63 400.87C566.35 396.88 556.93 392.16 556.93 387.09L556.93 321.52C556.93 335.84 632.18 347.45 725 347.45C817.82 347.45 893.07 335.84 893.07 321.52Z" fill="rgb(255,255,255)" fill-rule="nonzero" />
			<path id="Vector" d="M867.37 400.87L867.37 427.57C867.37 434.73 851.45 441.2 825.7 445.9C799.94 450.6 764.33 453.5 725 453.5C685.67 453.5 650.06 450.6 624.3 445.9C598.55 441.2 582.63 434.73 582.63 427.57L582.63 400.87C612.37 408.17 665.02 413.02 725 413.02C784.98 413.02 837.63 408.17 867.37 400.87Z" fill="rgb(214,231,255)" fill-rule="nonzero" />
			<path id="Vector" d="M725 453.5C685.67 453.5 650.06 450.6 624.3 445.9L624.3 548.07C624.3 562.39 669.38 569 725 569C780.62 569 825.7 562.39 825.7 548.07L825.7 445.9C799.94 450.6 764.33 453.5 725 453.5Z" fill="rgb(255,255,255)" fill-rule="nonzero" />
			<path id="Vector" d="M655.18 470.1C650.48 470.1 646.67 473.91 646.67 478.61L646.67 538.76C646.67 543.46 650.48 547.27 655.18 547.27C659.88 547.27 663.69 543.46 663.69 538.76L663.69 478.61C663.69 476.26 662.74 474.13 661.2 472.59C659.66 471.05 657.53 470.1 655.18 470.1Z" fill="rgb(214,231,255)" fill-rule="nonzero" />
			<path id="Vector" d="M701.73 470.1C697.03 470.1 693.22 473.91 693.22 478.61L693.22 538.76C693.22 543.46 697.03 547.27 701.73 547.27C706.43 547.27 710.24 543.46 710.24 538.76L710.24 478.61C710.24 476.26 709.29 474.13 707.75 472.59C706.21 471.05 704.08 470.1 701.73 470.1Z" fill="rgb(214,231,255)" fill-rule="nonzero" />
			<path id="Vector" d="M748.27 470.1C743.57 470.1 739.76 473.91 739.76 478.61L739.76 538.76C739.76 543.46 743.57 547.27 748.27 547.27C752.97 547.27 756.78 543.46 756.78 538.76L756.78 478.61C756.78 476.26 755.83 474.13 754.29 472.59C752.75 471.05 750.62 470.1 748.27 470.1Z" fill="rgb(214,231,255)" fill-rule="nonzero" />
			<path id="Vector" d="M800.84 472.59C799.3 471.05 797.17 470.1 794.82 470.1C790.12 470.1 786.31 473.91 786.31 478.61L786.31 538.76C786.31 543.46 790.12 547.27 794.82 547.27C799.52 547.27 803.33 543.46 803.33 538.76L803.33 478.61C803.33 476.26 802.38 474.13 800.84 472.59Z" fill="rgb(214,231,255)" fill-rule="nonzero" />
			<path id="Vector" d="M733.85 295.63L716.15 295.63C627.44 296.34 556.93 307.66 556.93 321.52C556.93 335.38 632.18 347.45 725 347.45C817.82 347.45 893.07 335.84 893.07 321.52C893.07 307.2 822.56 296.34 733.85 295.63Z" fill="rgb(117,141,170)" fill-rule="nonzero" />
			<path id="Vector" d="M716.15 295.63C627.44 296.34 556.93 307.66 556.93 321.52L556.93 169.39C556.93 122.98 575.74 80.96 606.16 50.55C636.57 20.13 678.59 1.32001 725 1.32001C817.82 1.32001 893.07 76.57 893.07 169.39L893.07 321.52C893.07 307.66 822.56 296.34 733.85 295.63L716.15 295.63Z" opacity="0" fill="rgb(255,255,255)" fill-rule="nonzero" />
		</g>
		<g id="Shading">
			<path id="Vector" d="M893.07 321.52L893.07 387.09C893.07 392.16 883.65 396.88 867.37 400.87C837.63 408.17 784.98 413.02 725 413.02C665.02 413.02 612.37 408.17 582.63 400.87C566.35 396.88 556.93 392.16 556.93 387.09L556.93 321.52C556.93 335.84 632.18 347.45 725 347.45C817.82 347.45 893.07 335.84 893.07 321.52Z" fill="url(#paint_linear_88)" fill-rule="nonzero" />
			<path id="Vector" d="M867.37 400.87L867.37 427.57C867.37 434.73 851.45 441.2 825.7 445.9C799.94 450.6 764.33 453.5 725 453.5C685.67 453.5 650.06 450.6 624.3 445.9C598.55 441.2 582.63 434.73 582.63 427.57L582.63 400.87C612.37 408.17 665.02 413.02 725 413.02C784.98 413.02 837.63 408.17 867.37 400.87Z" fill="url(#paint_linear_89)" fill-rule="nonzero" />
			<path id="Vector" d="M663.69 478.61L663.69 538.76C663.69 543.46 659.88 547.27 655.18 547.27C650.48 547.27 646.67 543.46 646.67 538.76L646.67 478.61C646.67 473.91 650.48 470.1 655.18 470.1C657.53 470.1 659.66 471.05 661.2 472.59C662.74 474.13 663.69 476.26 663.69 478.61Z" fill="url(#paint_linear_90)" fill-rule="nonzero" />
			<path id="Vector" d="M710.24 478.61L710.24 538.76C710.24 543.46 706.43 547.27 701.73 547.27C697.03 547.27 693.22 543.46 693.22 538.76L693.22 478.61C693.22 473.91 697.03 470.1 701.73 470.1C704.08 470.1 706.21 471.05 707.75 472.59C709.29 474.13 710.24 476.26 710.24 478.61Z" fill="url(#paint_linear_91)" fill-rule="nonzero" />
			<path id="Vector" d="M756.78 478.61L756.78 538.76C756.78 543.46 752.97 547.27 748.27 547.27C743.57 547.27 739.76 543.46 739.76 538.76L739.76 478.61C739.76 473.91 743.57 470.1 748.27 470.1C750.62 470.1 752.75 471.05 754.29 472.59C755.83 474.13 756.78 476.26 756.78 478.61Z" fill="url(#paint_linear_92)" fill-rule="nonzero" />
			<path id="Vector" d="M803.33 478.61L803.33 538.76C803.33 543.46 799.52 547.27 794.82 547.27C790.12 547.27 786.31 543.46 786.31 538.76L786.31 478.61C786.31 473.91 790.12 470.1 794.82 470.1C797.17 470.1 799.3 471.05 800.84 472.59C802.38 474.13 803.33 476.26 803.33 478.61Z" fill="url(#paint_linear_93)" fill-rule="nonzero" />
			<path id="Vector" d="M733.85 295.63L716.15 295.63C627.44 296.34 556.93 307.66 556.93 321.52C556.93 335.38 632.18 347.45 725 347.45C817.82 347.45 893.07 335.84 893.07 321.52C893.07 307.2 822.56 296.34 733.85 295.63ZM733.85 335.36C730.92 335.38 727.97 335.39 725 335.39C722.03 335.39 719.08 335.38 716.15 335.36C639.6 334.83 578.93 327.54 578.93 318.6C578.93 309.66 639.6 302.37 716.15 301.84L733.85 301.84C810.4 302.37 871.07 309.67 871.07 318.6C871.07 327.53 810.4 334.83 733.85 335.36Z" fill="url(#paint_linear_94)" fill-rule="nonzero" />
			<path id="Vector" d="M725 453.5C685.67 453.5 650.06 450.6 624.3 445.9L624.3 548.07C624.3 562.39 669.38 569 725 569C780.62 569 825.7 562.39 825.7 548.07L825.7 445.9C799.94 450.6 764.33 453.5 725 453.5ZM663.69 538.76C663.69 543.46 659.88 547.27 655.18 547.27C650.48 547.27 646.67 543.46 646.67 538.76L646.67 478.61C646.67 473.91 650.48 470.1 655.18 470.1C657.53 470.1 659.66 471.05 661.2 472.59C662.74 474.13 663.69 476.26 663.69 478.61L663.69 538.76ZM710.24 538.76C710.24 543.46 706.43 547.27 701.73 547.27C697.03 547.27 693.22 543.46 693.22 538.76L693.22 478.61C693.22 473.91 697.03 470.1 701.73 470.1C704.08 470.1 706.21 471.05 707.75 472.59C709.29 474.13 710.24 476.26 710.24 478.61L710.24 538.76ZM756.78 538.76C756.78 543.46 752.97 547.27 748.27 547.27C743.57 547.27 739.76 543.46 739.76 538.76L739.76 478.61C739.76 473.91 743.57 470.1 748.27 470.1C750.62 470.1 752.75 471.05 754.29 472.59C755.83 474.13 756.78 476.26 756.78 478.61L756.78 538.76ZM803.33 538.76C803.33 543.46 799.52 547.27 794.82 547.27C790.12 547.27 786.31 543.46 786.31 538.76L786.31 478.61C786.31 473.91 790.12 470.1 794.82 470.1C797.17 470.1 799.3 471.05 800.84 472.59C802.38 474.13 803.33 476.26 803.33 478.61L803.33 538.76Z" fill="url(#paint_linear_95)" fill-rule="nonzero" />
		</g>
		<g id="Black">
			<path id="Vector" d="M733.85 301.84L716.15 301.84C639.6 302.37 578.93 309.67 578.93 318.6C578.93 327.53 639.6 334.83 716.15 335.36L733.85 335.36C810.4 334.83 871.07 327.54 871.07 318.6C871.07 309.66 810.4 302.37 733.85 301.84Z" fill="rgb(0,0,0)" fill-rule="nonzero" />
			<path id="Vector" d="M725 453.5C685.67 453.5 650.06 450.6 624.3 445.9L624.3 453.9C650.06 458.6 685.67 461.5 725 461.5C764.33 461.5 799.94 458.6 825.7 453.9L825.7 445.9C799.94 450.6 764.33 453.5 725 453.5Z" fill="rgb(0,0,0)" fill-rule="nonzero" />
		</g>
		<g id="Lines">
			<path id="Vector" d="M242.73 0L0 0" stroke="rgb(255,255,255)" stroke-linecap="round" stroke-linejoin="round" stroke-width="1.290000" transform="matrix(0,1,-1,0,657.82,564.65)" />
			<path id="Vector" d="M0 0L242.73 0" stroke="rgb(255,255,255)" stroke-linecap="round" stroke-linejoin="round" stroke-width="1.290000" transform="matrix(0,1,-1,0,792.18,564.65)" />
			<path id="Vector" d="M893.07 324.7L893.07 169.39C893.07 76.57 817.82 1.32001 725 1.32001C632.18 1.32001 556.93 76.57 556.93 169.39L556.93 324.7" fill-rule="nonzero" stroke="rgb(255,255,255)" stroke-linecap="round" stroke-linejoin="round" stroke-width="1.000000" />
			<path id="Vector" d="M893.07 321.52C893.07 335.38 817.82 347.45 725 347.45C632.18 347.45 556.93 335.84 556.93 321.52C556.93 307.2 627.44 296.34 716.15 295.63L733.85 295.63C822.56 296.34 893.07 307.66 893.07 321.52Z" fill-rule="nonzero" stroke="rgb(0,0,0)" stroke-linecap="round" stroke-linejoin="round" stroke-width="1.000000" />
			<path id="Vector" d="M893.07 321.52L893.07 387.09C893.07 401.41 817.82 413.02 725 413.02C632.18 413.02 556.93 401.41 556.93 387.09L556.93 321.52" fill-rule="nonzero" stroke="rgb(0,0,0)" stroke-linecap="round" stroke-linejoin="round" stroke-width="1.000000" />
			<path id="Vector" d="M867.37 400.87L867.37 427.57C867.37 441.89 803.63 453.5 725 453.5C646.37 453.5 582.63 441.89 582.63 427.57L582.63 400.87" fill-rule="nonzero" stroke="rgb(0,0,0)" stroke-linecap="round" stroke-linejoin="round" stroke-width="1.000000" />
			<path id="Vector" d="M825.7 445.9L825.7 548.07C825.7 562.39 780.61 569 725 569C669.39 569 624.3 562.39 624.3 548.07L624.3 445.9" fill-rule="nonzero" stroke="rgb(0,0,0)" stroke-linecap="round" stroke-linejoin="round" stroke-width="1.000000" />
			<path id="Vector" d="M578.93 318.6C578.93 327.53 639.6 334.83 716.15 335.36C719.08 335.38 722.03 335.39 725 335.39C727.97 335.39 730.92 335.39 733.85 335.36C810.4 334.83 871.07 327.54 871.07 318.6C871.07 309.66 810.4 302.37 733.85 301.84L716.15 301.84C639.6 302.37 578.93 309.67 578.93 318.6Z" fill-rule="nonzero" stroke="rgb(0,0,0)" stroke-linecap="round" stroke-linejoin="round" stroke-width="1.000000" />
			<path id="Vector" d="M663.69 478.61L663.69 538.75C663.69 543.45 659.88 547.26 655.18 547.26C650.48 547.26 646.67 543.45 646.67 538.75L646.67 478.61C646.67 473.91 650.48 470.1 655.18 470.1C659.88 470.1 663.69 473.91 663.69 478.61Z" stroke="rgb(0,0,0)" stroke-linecap="round" stroke-linejoin="round" stroke-width="1.000000" />
			<path id="Vector" d="M710.24 478.61L710.24 538.75C710.24 543.45 706.43 547.26 701.73 547.26C697.03 547.26 693.22 543.45 693.22 538.75L693.22 478.61C693.22 473.91 697.03 470.1 701.73 470.1C706.43 470.1 710.24 473.91 710.24 478.61Z" stroke="rgb(0,0,0)" stroke-linecap="round" stroke-linejoin="round" stroke-width="1.000000" />
			<path id="Vector" d="M756.78 478.61L756.78 538.75C756.78 543.45 752.97 547.26 748.27 547.26C743.57 547.26 739.76 543.45 739.76 538.75L739.76 478.61C739.76 473.91 743.57 470.1 748.27 470.1C752.97 470.1 756.78 473.91 756.78 478.61Z" stroke="rgb(0,0,0)" stroke-linecap="round" stroke-linejoin="round" stroke-width="1.000000" />
			<path id="Vector" d="M803.33 478.61L803.33 538.75C803.33 543.45 799.52 547.26 794.82 547.26C790.12 547.26 786.31 543.45 786.31 538.75L786.31 478.61C786.31 473.91 790.12 470.1 794.82 470.1C799.52 470.1 803.33 473.91 803.33 478.61Z" stroke="rgb(0,0,0)" stroke-linecap="round" stroke-linejoin="round" stroke-width="1.000000" />
		</g>
		<g id="Stem">
			<path id="Vector" />
			<path id="Vector" d="M691.98 217.82C704.72 222.95 716.15 240.73 716.15 275.4L716.15 335.36C719.08 335.38 722.03 335.39 725 335.39C727.97 335.39 730.92 335.38 733.85 335.36L733.85 275.4C733.85 238.59 746.73 220.82 760.4 217.01L780.58 200.09L780.58 182.8L673.95 182.8L673.95 200.09L691.98 217.82Z" fill="rgb(115,73,255)" fill-rule="nonzero" />
			<path id="Vector" d="M716.15 335.36L716.15 275.4C716.15 240.73 704.72 222.95 691.98 217.82L673.95 200.09L673.95 182.8L780.58 182.8L780.58 200.09L760.4 217.01C746.73 220.82 733.85 238.59 733.85 275.4L733.85 335.36" fill-rule="nonzero" stroke="rgb(0,0,0)" stroke-linecap="round" stroke-linejoin="round" stroke-width="1.000000" />
		</g>
		<g id="Brain">
			<path id="Vector" d="M624.31 140.58C642.54 150.65 658.06 138.95 660.23 127.79C662.4 116.63 668.39 101.12 687.44 100.85" fill-rule="nonzero" stroke="rgb(0,0,0)" stroke-linecap="round" stroke-linejoin="round" stroke-width="1.000000" />
			<path id="Vector" d="M683.7 151.57C684.2 151.08 684.68 150.6 685.17 150.14C692.16 143.51 698.46 139.93 710.31 146.57" fill-rule="nonzero" stroke="rgb(0,0,0)" stroke-linecap="round" stroke-linejoin="round" stroke-width="1.000000" />
			<path id="Vector" d="M625.04 110.22C631.83 109.13 639.17 109.88 646.08 112.56" fill-rule="nonzero" stroke="rgb(0,0,0)" stroke-linecap="round" stroke-linejoin="round" stroke-width="1.000000" />
			<path id="Vector" d="M769.97 153.08C767.92 158.8 762.36 163.1 756.3 163.63C750.24 164.16 744.02 160.91 741 155.63C737.14 148.88 738.59 140.24 735.51 133.09C732.45 125.98 724.68 121.2 716.95 121.67C712.67 121.93 708.62 123.63 704.65 125.25C700.68 126.87 696.56 128.46 692.27 128.48C687.98 128.5 683.41 126.63 681.4 122.84" fill-rule="nonzero" stroke="rgb(0,0,0)" stroke-linecap="round" stroke-linejoin="round" stroke-width="1.000000" />
			<path id="Vector" d="M707.67 81.46C715.37 88.35 720.92 97.58 723.2 108.04" fill-rule="nonzero" stroke="rgb(0,0,0)" stroke-linecap="round" stroke-linejoin="round" stroke-width="1.000000" />
			<path id="Vector" d="M652.63 145.51L652.62 145.51" stroke="rgb(0,0,0)" stroke-linecap="round" stroke-linejoin="round" stroke-width="1.000000" />
			<path id="Vector" d="M839.47 166.67C838.43 170.09 836.86 173.29 834.87 176.16" fill-rule="nonzero" stroke="rgb(0,0,0)" stroke-linecap="round" stroke-linejoin="round" stroke-width="1.000000" />
			<path id="Vector" d="M812.79 122.99L812.78 122.99C810.81 122.64 808.79 122.46 806.72 122.46C801.62 122.46 796.77 123.58 792.43 125.57" fill-rule="nonzero" stroke="rgb(0,0,0)" stroke-linecap="round" stroke-linejoin="round" stroke-width="1.000000" />
			<path id="Vector" d="M0.00999451 0L0 0" stroke="rgb(0,0,0)" stroke-linecap="round" stroke-linejoin="round" stroke-width="1.000000" transform="matrix(0,1,-1,0,786.7,136.11)" />
			<path id="Vector" d="M812.79 122.99L812.78 122.99" stroke="rgb(0,0,0)" stroke-linecap="round" stroke-linejoin="round" stroke-width="1.000000" />
			<path id="Vector" d="M685.17 150.14C685.11 150.08 685.05 150.01 684.98 149.94" fill-rule="nonzero" stroke="rgb(0,0,0)" stroke-linecap="round" stroke-linejoin="round" stroke-width="1.000000" />
			<path id="Vector" d="M789.92 113.97C789.61 110.21 788.88 106.57 787.77 103.1" fill-rule="nonzero" stroke="rgb(0,0,0)" stroke-linecap="round" stroke-linejoin="round" stroke-width="1.000000" />
			<path id="Vector" d="M734.53 196.64C755.21 188.48 765.01 189.29 777.53 196.64C790.05 203.99 806.65 199.36 806.65 184.67C806.65 169.98 792.23 163.4 782.43 163.69" fill-rule="nonzero" stroke="rgb(0,0,0)" stroke-linecap="round" stroke-linejoin="round" stroke-width="1.000000" />
			<path id="Vector" d="M808.58 150.72C804.72 145.82 798.76 142.65 792.54 142.18C786.54 141.73 780.27 143.65 774.6 141.61C768.36 139.36 764.46 131.99 766.13 125.57" fill-rule="nonzero" stroke="rgb(0,0,0)" stroke-linecap="round" stroke-linejoin="round" stroke-width="1.000000" />
			<path id="Vector" d="M701.03 107.17C709.64 110.78 719.86 110.33 728.12 105.98C734.06 102.85 739 97.86 745.33 95.63C752.31 93.18 760.51 94.62 766.24 99.29C771.97 103.96 775.02 111.72 774.03 119.04" fill-rule="nonzero" stroke="rgb(0,0,0)" stroke-linecap="round" stroke-linejoin="round" stroke-width="1.000000" />
			<path id="Vector" d="M752.93 142.15C749.43 134.02 749.75 124.35 753.78 116.48C757.02 110.13 762.64 105.04 769.23 102.3" fill-rule="nonzero" stroke="rgb(0,0,0)" stroke-linecap="round" stroke-linejoin="round" stroke-width="1.000000" />
			<path id="Vector" d="M752.27 207.93C750.1 202.57 750.53 196.17 753.48 191.18" fill-rule="nonzero" stroke="rgb(0,0,0)" stroke-linecap="round" stroke-linejoin="round" stroke-width="1.000000" />
			<path id="Vector" d="M816.34 140.11C823.12 140.81 826.31 148.59 825.59 154.58C825.11 158.59 823.47 162.36 822.16 166.19C822.15 166.23 822.13 166.27 822.12 166.31C820.8 170.17 819.81 174.34 820.73 178.32C821.41 181.28 822.92 183.64 824.82 185.74C828.6 189.92 833.89 193.06 837.07 197.71C838.58 199.9 839.59 202.44 840.07 205.06" fill-rule="nonzero" stroke="rgb(0,0,0)" stroke-linecap="round" stroke-linejoin="round" stroke-width="1.000000" />
			<path id="Vector" d="M688.93 179.3C690.2 180.4 691.57 181.39 693.01 182.24C699.02 185.79 706.17 187.14 713.15 186.84C720.92 186.51 728.46 184.23 735.89 181.94C743.33 179.64 750.84 177.31 758.61 176.86C766.37 176.41 774.55 178.05 780.58 182.95" fill-rule="nonzero" stroke="rgb(0,0,0)" stroke-linecap="round" stroke-linejoin="round" stroke-width="1.000000" />
			<path id="Vector" d="M703.4 159.43C717.46 165.72 730.82 163.32 740.59 154.87" fill-rule="nonzero" stroke="rgb(0,0,0)" stroke-linecap="round" stroke-linejoin="round" stroke-width="1.000000" />
			<path id="Vector" d="M840.07 205.06C840.8 209.04 840.3 213.24 838.39 216.8C835.24 222.72 828.21 226.44 821.62 225.28C812.69 223.71 806.54 214.48 797.58 213.05C788.22 211.55 779.63 219.07 770.17 219.44C766.77 219.57 763.37 218.68 760.4 217.01C757.42 215.35 754.88 212.89 753.21 209.9C752.86 209.26 752.54 208.61 752.27 207.93C750.19 207.7 748.09 207.7 746.03 207.89C739.22 208.53 732.7 211.03 726.15 213.14C719.6 215.25 712.77 217 705.99 216.06C703.17 215.67 700.4 214.79 697.82 213.49C696.05 215.14 694.09 216.6 691.98 217.82C687.24 220.55 681.74 222.12 675.87 222.12C662 222.12 650.17 213.35 645.64 201.05C641.84 202.63 637.68 203.5 633.31 203.5C615.52 203.5 601.1 189.08 601.1 171.29C601.1 167.1 601.9 163.1 603.35 159.43C600.2 154.74 598.32 148.94 598.32 141.95C598.32 123.42 610.43 112.56 625.04 110.22C629.1 86.66 649.63 68.74 674.34 68.74C687.14 68.74 698.83 73.55 707.67 81.46C716.42 73.55 728.02 68.74 740.75 68.74C762.77 68.74 781.43 83.18 787.77 103.1C789.95 102.17 792.35 101.66 794.87 101.66C804.92 101.66 813.06 109.81 813.06 119.86C813.06 120.93 812.97 121.98 812.79 122.99C828.8 125.86 840.95 139.85 840.95 156.68C840.95 160.16 840.43 163.51 839.47 166.67C846.69 170.12 851.68 177.49 851.68 186.02C851.68 194.55 846.97 201.51 840.07 205.06Z" fill="rgb(255,195,239)" fill-rule="nonzero" />
			<path id="Vector" d="M624.31 140.58C642.54 150.65 658.06 138.95 660.23 127.79C662.4 116.63 668.39 101.12 687.44 100.85" fill-rule="nonzero" stroke="rgb(0,0,0)" stroke-linecap="round" stroke-linejoin="round" stroke-width="1.000000" />
			<path id="Vector" d="M646.08 112.56C624.31 104.12 598.32 114.8 598.32 141.94C598.32 171.33 631.62 179.63 651.8 173.51C685 163.44 685.55 132.69 710.31 146.57" fill-rule="nonzero" stroke="rgb(0,0,0)" stroke-linecap="round" stroke-linejoin="round" stroke-width="1.000000" />
			<path id="Vector" d="M769.97 153.08C767.92 158.8 762.36 163.1 756.3 163.63C750.24 164.16 744.02 160.91 741 155.63C737.14 148.88 738.59 140.24 735.51 133.09C732.45 125.98 724.68 121.2 716.95 121.67C712.67 121.93 708.62 123.63 704.65 125.25C700.68 126.87 696.56 128.46 692.27 128.48C687.98 128.5 683.41 126.63 681.4 122.84" fill-rule="nonzero" stroke="rgb(0,0,0)" stroke-linecap="round" stroke-linejoin="round" stroke-width="1.000000" />
			<path id="Vector" d="M625.04 110.22C629.1 86.66 649.63 68.74 674.34 68.74C687.14 68.74 698.83 73.55 707.67 81.46C715.37 88.35 720.92 97.58 723.2 108.04" fill-rule="nonzero" stroke="rgb(0,0,0)" stroke-linecap="round" stroke-linejoin="round" stroke-width="1.000000" />
			<path id="Vector" d="M658.07 191.88C654.76 195.86 650.5 199.04 645.64 201.05C641.84 202.63 637.68 203.5 633.31 203.5C615.52 203.5 601.1 189.08 601.1 171.29C601.1 167.1 601.9 163.1 603.35 159.43" fill-rule="nonzero" stroke="rgb(0,0,0)" stroke-linecap="round" stroke-linejoin="round" stroke-width="1.000000" />
			<path id="Vector" d="M792.43 125.57C796.78 123.57 801.62 122.46 806.72 122.46C808.79 122.46 810.81 122.64 812.78 122.99L812.79 122.99C828.8 125.86 840.95 139.85 840.95 156.68C840.95 160.16 840.43 163.51 839.47 166.67C838.42 170.09 836.86 173.29 834.87 176.16" fill-rule="nonzero" stroke="rgb(0,0,0)" stroke-linecap="round" stroke-linejoin="round" stroke-width="1.000000" />
			<path id="Vector" d="M787.77 103.1C789.95 102.17 792.35 101.66 794.87 101.66C804.92 101.66 813.06 109.81 813.06 119.86C813.06 120.93 812.97 121.98 812.79 122.99L812.78 122.99" fill-rule="nonzero" stroke="rgb(0,0,0)" stroke-linecap="round" stroke-linejoin="round" stroke-width="1.000000" />
			<path id="Vector" d="M839.47 166.67C846.69 170.12 851.68 177.49 851.68 186.02C851.68 194.55 846.97 201.51 840.07 205.06" fill-rule="nonzero" stroke="rgb(0,0,0)" stroke-linecap="round" stroke-linejoin="round" stroke-width="1.000000" />
			<path id="Vector" d="M645.64 201.05C650.17 213.35 662 222.12 675.87 222.12C684.35 222.12 692.07 218.85 697.82 213.49" fill-rule="nonzero" stroke="rgb(0,0,0)" stroke-linecap="round" stroke-linejoin="round" stroke-width="1.000000" />
			<path id="Vector" d="M641.59 175.3C644.1 183.13 650.26 189.33 658.07 191.88C660.6 192.72 663.3 193.17 666.1 193.17C671.84 193.17 677.13 191.29 681.41 188.12C684.55 185.8 687.13 182.78 688.93 179.3" fill-rule="nonzero" stroke="rgb(0,0,0)" stroke-linecap="round" stroke-linejoin="round" stroke-width="1.000000" />
			<path id="Vector" d="M707.67 81.46C716.42 73.55 728.02 68.74 740.75 68.74C762.77 68.74 781.43 83.18 787.77 103.1C788.88 106.57 789.61 110.21 789.92 113.97" fill-rule="nonzero" stroke="rgb(0,0,0)" stroke-linecap="round" stroke-linejoin="round" stroke-width="1.000000" />
			<path id="Vector" d="M734.53 196.64C755.21 188.48 765.01 189.29 777.53 196.64C790.05 203.99 806.65 199.36 806.65 184.67C806.65 169.98 792.23 163.4 782.43 163.69" fill-rule="nonzero" stroke="rgb(0,0,0)" stroke-linecap="round" stroke-linejoin="round" stroke-width="1.000000" />
			<path id="Vector" d="M808.58 150.72C804.72 145.82 798.76 142.65 792.54 142.18C786.54 141.73 780.27 143.65 774.6 141.61C768.36 139.36 764.46 131.99 766.13 125.57" fill-rule="nonzero" stroke="rgb(0,0,0)" stroke-linecap="round" stroke-linejoin="round" stroke-width="1.000000" />
			<path id="Vector" d="M701.03 107.17C709.64 110.78 719.86 110.33 728.12 105.98C734.06 102.85 739 97.86 745.33 95.63C752.31 93.18 760.51 94.62 766.24 99.29C771.97 103.96 775.02 111.72 774.03 119.04" fill-rule="nonzero" stroke="rgb(0,0,0)" stroke-linecap="round" stroke-linejoin="round" stroke-width="1.000000" />
			<path id="Vector" d="M752.93 142.15C749.43 134.02 749.75 124.35 753.78 116.48C757.02 110.13 762.64 105.04 769.23 102.3" fill-rule="nonzero" stroke="rgb(0,0,0)" stroke-linecap="round" stroke-linejoin="round" stroke-width="1.000000" />
			<path id="Vector" d="M816.34 140.11C823.12 140.81 826.31 148.59 825.59 154.58C825.11 158.59 823.47 162.36 822.16 166.19C822.16 166.23 822.13 166.27 822.12 166.31C820.8 170.17 819.81 174.34 820.73 178.32C821.41 181.28 822.92 183.64 824.82 185.74C828.6 189.92 833.89 193.06 837.07 197.71C838.58 199.9 839.59 202.44 840.07 205.06C840.8 209.04 840.3 213.24 838.39 216.8C835.24 222.72 828.21 226.44 821.62 225.28C812.69 223.71 806.54 214.48 797.58 213.05C788.22 211.55 779.63 219.07 770.17 219.44C763.35 219.7 756.54 215.87 753.21 209.9C752.86 209.26 752.54 208.61 752.27 207.93C750.1 202.57 750.53 196.17 753.48 191.18" fill-rule="nonzero" stroke="rgb(0,0,0)" stroke-linecap="round" stroke-linejoin="round" stroke-width="1.000000" />
			<path id="Vector" d="M681.41 188.12C681.89 194.1 683.98 199.94 687.41 204.66C690.17 208.44 693.78 211.47 697.82 213.49C700.4 214.79 703.17 215.67 705.99 216.06C712.77 217 719.6 215.25 726.15 213.14C732.7 211.03 739.22 208.53 746.03 207.89C748.09 207.7 750.19 207.7 752.27 207.93" fill-rule="nonzero" stroke="rgb(0,0,0)" stroke-linecap="round" stroke-linejoin="round" stroke-width="1.000000" />
			<path id="Vector" d="M780.58 182.95C774.55 178.05 766.37 176.41 758.61 176.86C750.84 177.31 743.33 179.64 735.89 181.94C728.46 184.23 720.92 186.51 713.15 186.84C706.17 187.14 699.02 185.79 693.01 182.24C691.57 181.39 690.2 180.4 688.93 179.3C685.95 176.73 683.53 173.53 682.07 169.88C679.99 164.68 679.98 158.58 682.5 153.58C682.85 152.88 683.25 152.21 683.7 151.57" fill-rule="nonzero" stroke="rgb(0,0,0)" stroke-linecap="round" stroke-linejoin="round" stroke-width="1.000000" />
			<path id="Vector" d="M703.4 159.43C717.46 165.72 730.82 163.32 740.59 154.87" fill-rule="nonzero" stroke="rgb(0,0,0)" stroke-linecap="round" stroke-linejoin="round" stroke-width="1.000000" />
		</g>
	</g>
	<g id="brain-food-02 1" clip-path="url(#clipPath_6)" customFrame="url(#clipPath_6)">
		<rect id="brain-food-02 1" width="1450.000000" height="300.440002" x="0.000000" y="778.560059" fill="rgb(255,255,255)" fill-opacity="0" />
		<g id="Group">
			<g id="Color">
				<path id="Vector" d="M905.93 987.49C905.93 937.38 912.2 896.75 919.93 896.75L815.72 896.75L815.72 792.54C815.72 800.27 775.09 806.54 724.98 806.54C674.87 806.54 634.24 800.27 634.24 792.54L634.24 896.75L530.03 896.75C537.76 896.75 544.03 937.38 544.03 987.49C544.03 1037.6 537.76 1078.23 530.03 1078.23L919.93 1078.23C912.2 1078.23 905.93 1037.6 905.93 987.49Z" fill="rgb(255,255,255)" fill-rule="nonzero" />
				<path id="Vector" d="M815.72 850.53L815.72 1014.94L634.24 1014.94L634.24 849.73C637.15 851.24 640.62 852.19 645.07 852.19C665.27 852.19 665.27 832.39 685.45 832.39C705.63 832.39 705.64 852.19 725.83 852.19C746.02 852.19 746.01 832.39 766.2 832.39C786.39 832.39 786.4 852.19 806.58 852.19C810.19 852.19 813.16 851.55 815.71 850.52L815.72 850.53Z" fill-rule="nonzero" />
				<path id="Vector" d="M815.72 792.53L815.72 850.52C813.17 851.55 810.2 852.19 806.59 852.19C786.4 852.19 786.4 832.39 766.21 832.39C746.02 832.39 746.02 852.19 725.84 852.19C705.66 852.19 705.64 832.39 685.46 832.39C665.28 832.39 665.28 852.19 645.08 852.19C640.63 852.19 637.16 851.23 634.25 849.73L634.25 792.53C634.25 800.26 674.87 806.53 724.99 806.53C775.11 806.53 815.73 800.26 815.73 792.53L815.72 792.53Z" fill="rgb(203,251,69)" fill-rule="nonzero" />
				<path id="Vector" d="M729.76 778.56L720.2 778.56C672.31 778.94 634.24 785.05 634.24 792.54C634.24 800.03 674.87 806.54 724.98 806.54C775.09 806.54 815.72 800.27 815.72 792.54C815.72 784.81 777.65 778.94 729.76 778.56Z" opacity="0" fill="rgb(14,37,56)" fill-rule="nonzero" />
				<path id="Vector" d="M919.93 1078.23L861.94 1078.23C860.91 1075.68 860.27 1072.71 860.27 1069.1C860.27 1048.91 880.07 1048.91 880.07 1028.72C880.07 1008.53 860.27 1008.53 860.27 988.35C860.27 968.17 880.07 968.15 880.07 947.97C880.07 927.79 860.27 927.79 860.27 907.59C860.27 903.14 861.23 899.67 862.73 896.76L919.93 896.76C912.2 896.76 905.93 937.38 905.93 987.5C905.93 1037.62 912.2 1078.24 919.93 1078.24L919.93 1078.23Z" fill="rgb(203,251,69)" fill-rule="nonzero" />
				<path id="Vector" d="M933.91 992.26L933.91 982.7C933.53 934.81 927.42 896.74 919.93 896.74C912.44 896.74 905.93 937.37 905.93 987.48C905.93 1037.59 912.2 1078.22 919.93 1078.22C927.66 1078.22 933.52 1040.15 933.91 992.26Z" fill="rgb(0,0,0)" fill-rule="nonzero" />
				<path id="Vector" d="M530.03 1078.23L588.02 1078.23C589.05 1075.68 589.69 1072.71 589.69 1069.1C589.69 1048.91 569.89 1048.91 569.89 1028.72C569.89 1008.53 589.69 1008.53 589.69 988.35C589.69 968.15 569.89 968.15 569.89 947.97C569.89 927.79 589.69 927.79 589.69 907.59C589.69 903.14 588.73 899.67 587.23 896.76L530.03 896.76C537.76 896.76 544.03 937.38 544.03 987.5C544.03 1037.62 537.76 1078.24 530.03 1078.24L530.03 1078.23Z" fill="rgb(203,251,69)" fill-rule="nonzero" />
				<path id="Vector" d="M530.03 1078.23C537.76 1078.23 544.03 1037.6 544.03 987.49C544.03 937.38 537.76 896.75 530.03 896.75C522.55 896.75 516.44 934.82 516.05 982.71L516.05 992.27C516.43 1040.16 522.54 1078.23 530.03 1078.23Z" fill="rgb(0,0,0)" fill-rule="nonzero" />
			</g>
			<g id="Shading">
				<g style="mix-blend-mode:multiply">
					<path id="Vector" d="M681.6 944.1L542.34 944.1C539.95 915.88 535.34 896.74 530.03 896.74L634.24 896.74L681.6 944.1Z" fill="url(#paint_linear_96)" style="mix-blend-mode:multiply" fill-rule="nonzero" />
				</g>
				<g style="mix-blend-mode:multiply">
					<path id="Vector" d="M919.93 896.75C914.62 896.75 910.01 915.89 907.62 944.11L768.36 944.11L815.72 896.75L919.93 896.75Z" fill="url(#paint_linear_97)" style="mix-blend-mode:multiply" fill-rule="nonzero" />
				</g>
				<path id="Vector" d="M815.72 792.53L815.72 850.52C813.17 851.55 810.2 852.19 806.59 852.19C786.4 852.19 786.4 832.39 766.21 832.39C746.02 832.39 746.02 852.19 725.84 852.19C705.66 852.19 705.64 832.39 685.46 832.39C665.28 832.39 665.28 852.19 645.08 852.19C640.63 852.19 637.16 851.23 634.25 849.73L634.25 792.53C634.25 800.26 674.87 806.53 724.99 806.53C775.11 806.53 815.73 800.26 815.73 792.53L815.72 792.53Z" fill="url(#paint_linear_98)" fill-rule="nonzero" />
				<path id="Vector" d="M919.93 1078.23L861.94 1078.23C860.91 1075.68 860.27 1072.71 860.27 1069.1C860.27 1048.91 880.07 1048.91 880.07 1028.72C880.07 1008.53 860.27 1008.53 860.27 988.35C860.27 968.17 880.07 968.15 880.07 947.97C880.07 927.79 860.27 927.79 860.27 907.59C860.27 903.14 861.23 899.67 862.73 896.76L919.93 896.76C912.2 896.76 905.93 937.38 905.93 987.5C905.93 1037.62 912.2 1078.24 919.93 1078.24L919.93 1078.23Z" fill="url(#paint_linear_99)" fill-rule="nonzero" />
				<path id="Vector" d="M530.03 1078.23L588.02 1078.23C589.05 1075.68 589.69 1072.71 589.69 1069.1C589.69 1048.91 569.89 1048.91 569.89 1028.72C569.89 1008.53 589.69 1008.53 589.69 988.35C589.69 968.15 569.89 968.15 569.89 947.97C569.89 927.79 589.69 927.79 589.69 907.59C589.69 903.14 588.73 899.67 587.23 896.76L530.03 896.76C537.76 896.76 544.03 937.38 544.03 987.5C544.03 1037.62 537.76 1078.24 530.03 1078.24L530.03 1078.23Z" fill="url(#paint_linear_100)" fill-rule="nonzero" />
			</g>
			<g id="Lines">
				<path id="Vector" d="M919.93 896.75L815.72 896.75L815.72 792.54C815.72 800.27 775.09 806.54 724.98 806.54C674.87 806.54 634.24 800.27 634.24 792.54L634.24 896.75L530.03 896.75C537.76 896.75 544.03 937.38 544.03 987.49C544.03 1037.6 537.76 1078.23 530.03 1078.23L919.93 1078.23C912.2 1078.23 905.93 1037.6 905.93 987.49C905.93 937.38 912.2 896.75 919.93 896.75Z" fill-rule="nonzero" stroke="rgb(0,0,0)" stroke-linecap="round" stroke-linejoin="round" stroke-width="1.000000" />
				<path id="Vector" d="M815.72 850.53C813.17 851.56 810.2 852.2 806.59 852.2C786.4 852.2 786.4 832.4 766.21 832.4C746.02 832.4 746.02 852.2 725.84 852.2C705.66 852.2 705.64 832.4 685.46 832.4C665.28 832.4 665.28 852.2 645.08 852.2C640.63 852.2 637.16 851.24 634.25 849.74" fill-rule="nonzero" stroke="rgb(0,0,0)" stroke-linecap="round" stroke-linejoin="round" stroke-width="1.000000" />
				<path id="Vector" d="M861.94 1078.23C860.91 1075.68 860.27 1072.71 860.27 1069.1C860.27 1048.91 880.07 1048.91 880.07 1028.72C880.07 1008.53 860.27 1008.53 860.27 988.35C860.27 968.17 880.07 968.15 880.07 947.97C880.07 927.79 860.27 927.79 860.27 907.59C860.27 903.14 861.23 899.67 862.73 896.76" fill-rule="nonzero" stroke="rgb(0,0,0)" stroke-linecap="round" stroke-linejoin="round" stroke-width="1.000000" />
				<path id="Vector" d="M588.02 1078.23C589.05 1075.68 589.69 1072.71 589.69 1069.1C589.69 1048.91 569.89 1048.91 569.89 1028.72C569.89 1008.53 589.69 1008.53 589.69 988.35C589.69 968.15 569.89 968.15 569.89 947.97C569.89 927.79 589.69 927.79 589.69 907.59C589.69 903.14 588.73 899.67 587.23 896.76" fill-rule="nonzero" stroke="rgb(0,0,0)" stroke-linecap="round" stroke-linejoin="round" stroke-width="1.000000" />
				<path id="Vector" d="M720.2 778.56C672.31 778.94 634.24 785.05 634.24 792.54C634.24 800.03 674.87 806.54 724.98 806.54C775.09 806.54 815.72 800.27 815.72 792.54C815.72 784.81 777.65 778.94 729.76 778.56L720.2 778.56Z" opacity="0" fill-rule="nonzero" stroke="rgb(0,0,0)" stroke-linecap="round" stroke-linejoin="round" stroke-width="1.000000" />
				<path id="Vector" d="M933.91 982.7C933.53 934.81 927.42 896.74 919.93 896.74C912.44 896.74 905.93 937.37 905.93 987.48C905.93 1037.59 912.2 1078.22 919.93 1078.22C927.66 1078.22 933.52 1040.15 933.91 992.26L933.91 982.7Z" opacity="0" fill-rule="nonzero" stroke="rgb(0,0,0)" stroke-linecap="round" stroke-linejoin="round" stroke-width="1.000000" />
				<path id="Vector" d="M544.03 987.49C544.03 937.38 537.76 896.75 530.03 896.75C522.55 896.75 516.44 934.82 516.05 982.71L516.05 992.27C516.43 1040.16 522.54 1078.23 530.03 1078.23C537.76 1078.23 544.03 1037.6 544.03 987.49Z" opacity="0" fill-rule="nonzero" stroke="rgb(0,0,0)" stroke-linecap="round" stroke-linejoin="round" stroke-width="1.000000" />
			</g>
			<path id="Vector 1" d="M0 915L539 915" stroke="rgb(255,255,255)" stroke-width="1.290000" />
			<path id="Vector 3" d="M911 915L1450 915" stroke="rgb(255,255,255)" stroke-width="1.290000" />
			<path id="Vector 2" d="M0 1060L539 1060" stroke="rgb(255,255,255)" stroke-width="1.290000" />
			<path id="Vector 4" d="M911 1060L1450 1060" stroke="rgb(255,255,255)" stroke-width="1.290000" />
		</g>
	</g>
</svg>
