<svg width="32" height="32" viewBox="0 0 32 32" fill="none" xmlns="http://www.w3.org/2000/svg">
<mask id="mask0_22_3948" style="mask-type:alpha" maskUnits="userSpaceOnUse" x="0" y="0" width="32" height="32">
<rect width="32" height="32" fill="#D9D9D9"/>
</mask>
<g mask="url(#mask0_22_3948)">
<path d="M14.6 16.9325L12.6667 15.0325C12.4222 14.7881 12.1167 14.6658 11.75 14.6658C11.3833 14.6658 11.0667 14.7992 10.8 15.0658C10.5556 15.3103 10.4333 15.6214 10.4333 15.9992C10.4333 16.377 10.5556 16.6881 10.8 16.9325L13.6667 19.7992C13.9333 20.0658 14.2444 20.1992 14.6 20.1992C14.9556 20.1992 15.2667 20.0658 15.5333 19.7992L21.2 14.1325C21.4667 13.8658 21.5944 13.5547 21.5833 13.1992C21.5722 12.8436 21.4444 12.5325 21.2 12.2658C20.9333 11.9992 20.6167 11.8603 20.25 11.8492C19.8833 11.8381 19.5667 11.9658 19.3 12.2325L14.6 16.9325ZM10.8667 28.9992L8.93333 25.7325L5.26667 24.9325C4.93333 24.8658 4.66667 24.6936 4.46667 24.4159C4.26667 24.1381 4.18889 23.8325 4.23333 23.4992L4.6 19.7325L2.1 16.8658C1.87778 16.6214 1.76667 16.3325 1.76667 15.9992C1.76667 15.6658 1.87778 15.377 2.1 15.1325L4.6 12.2658L4.23333 8.49918C4.18889 8.16585 4.26667 7.86029 4.46667 7.58252C4.66667 7.30474 4.93333 7.13251 5.26667 7.06585L8.93333 6.26585L10.8667 2.99918C11.0444 2.71029 11.2889 2.51585 11.6 2.41585C11.9111 2.31585 12.2222 2.33251 12.5333 2.46585L16 3.93251L19.4667 2.46585C19.7778 2.33251 20.0889 2.31585 20.4 2.41585C20.7111 2.51585 20.9556 2.71029 21.1333 2.99918L23.0667 6.26585L26.7333 7.06585C27.0667 7.13251 27.3333 7.30474 27.5333 7.58252C27.7333 7.86029 27.8111 8.16585 27.7667 8.49918L27.4 12.2658L29.9 15.1325C30.1222 15.377 30.2333 15.6658 30.2333 15.9992C30.2333 16.3325 30.1222 16.6214 29.9 16.8658L27.4 19.7325L27.7667 23.4992C27.8111 23.8325 27.7333 24.1381 27.5333 24.4159C27.3333 24.6936 27.0667 24.8658 26.7333 24.9325L23.0667 25.7325L21.1333 28.9992C20.9556 29.2881 20.7111 29.4825 20.4 29.5825C20.0889 29.6825 19.7778 29.6658 19.4667 29.5325L16 28.0658L12.5333 29.5325C12.2222 29.6658 11.9111 29.6825 11.6 29.5825C11.2889 29.4825 11.0444 29.2881 10.8667 28.9992ZM12.6 26.5992L16 25.1325L19.4667 26.5992L21.3333 23.3992L25 22.5325L24.6667 18.7992L27.1333 15.9992L24.6667 13.1325L25 9.39918L21.3333 8.59918L19.4 5.39918L16 6.86585L12.5333 5.39918L10.6667 8.59918L7 9.39918L7.33333 13.1325L4.86667 15.9992L7.33333 18.7992L7 22.5992L10.6667 23.3992L12.6 26.5992Z" fill="#726FF7"/>
</g>
</svg>
