<svg width="34" height="33" viewBox="0 0 34 33" fill="none" xmlns="http://www.w3.org/2000/svg">
<path d="M11.6667 32.7917C11.2222 32.7917 10.8333 32.6319 10.5 32.3125C10.1667 31.9931 10 31.5833 10 31.0833V25.9167C7.19444 25.6944 4.82639 24.5556 2.89583 22.5C0.965278 20.4444 0 17.9861 0 15.125C0 12.0972 1.04861 9.53472 3.14583 7.4375C5.24306 5.34028 7.80556 4.29167 10.8333 4.29167H11.9583L10.4583 2.79167C10.1528 2.48611 10 2.10417 10 1.64583C10 1.1875 10.1667 0.791667 10.5 0.458333C10.8056 0.152778 11.1944 0 11.6667 0C12.1389 0 12.5278 0.152778 12.8333 0.458333L17.1667 4.79167C17.3333 4.95833 17.4514 5.13889 17.5208 5.33333C17.5903 5.52778 17.625 5.73611 17.625 5.95833C17.625 6.18056 17.5903 6.38889 17.5208 6.58333C17.4514 6.77778 17.3333 6.95833 17.1667 7.125L12.8333 11.4583C12.5278 11.7639 12.1458 11.9236 11.6875 11.9375C11.2292 11.9514 10.8333 11.7917 10.5 11.4583C10.1944 11.1528 10.0417 10.7639 10.0417 10.2917C10.0417 9.81945 10.1944 9.43056 10.5 9.125L11.9583 7.625H10.8333C8.75 7.625 6.97917 8.35417 5.52083 9.8125C4.0625 11.2708 3.33333 13.0417 3.33333 15.125C3.33333 17.2083 4.0625 18.9792 5.52083 20.4375C6.97917 21.8958 8.75 22.625 10.8333 22.625H13.3333V27.0833L17.7917 22.625H22.5C24.5833 22.625 26.3542 21.8958 27.8125 20.4375C29.2708 18.9792 30 17.2083 30 15.125C30 13.0417 29.2708 11.2708 27.8125 9.8125C26.3542 8.35417 24.5833 7.625 22.5 7.625C22.0278 7.625 21.6319 7.46528 21.3125 7.14583C20.9931 6.82639 20.8333 6.43056 20.8333 5.95833C20.8333 5.48611 20.9931 5.09028 21.3125 4.77083C21.6319 4.45139 22.0278 4.29167 22.5 4.29167C25.5278 4.29167 28.0903 5.34028 30.1875 7.4375C32.2847 9.53472 33.3333 12.0972 33.3333 15.125C33.3333 18.1528 32.2847 20.7153 30.1875 22.8125C28.0903 24.9097 25.5278 25.9583 22.5 25.9583H19.1667L12.8333 32.2917C12.6667 32.4583 12.4861 32.5833 12.2917 32.6667C12.0972 32.75 11.8889 32.7917 11.6667 32.7917Z" fill="#726FF7"/>
</svg>
