<svg width="327" height="348" viewBox="0 0 327 348" fill="none" xmlns="http://www.w3.org/2000/svg">
<path d="M826.464 105.254L624.859 61.1992L700.967 164.007L622.192 110.598L644.891 201.384L527.395 93.2426L456.63 234.772L413.237 185.362L226.982 403L325.779 200.051L189.594 268.148L284.391 142.641L190.739 157.613L234.993 105.254L42.7212 110.598L198.938 40.7887L133.518 30.2896L200.272 -17.5762L0 -30.9312L177.573 -80.3298L52.0759 -217.859L329.79 -169.793V-259.246L394.895 -195.159L404.554 -249.902L452.62 -173.794L515.373 -307.312L530.062 -244.558L628.859 -322L612.837 -283.279L678.268 -313.989L612.837 -249.902L779.743 -267.257L612.837 -192.482L708.306 -168.449L590.148 -107.04L826.464 -91.018L651.558 -40.2755L703.634 -9.56537L638.214 -2.88791L826.464 105.254Z" fill="#FFB3F4"/>
</svg>
