<svg viewBox="0 0 129 51.8593" xmlns="http://www.w3.org/2000/svg" xmlns:xlink="http://www.w3.org/1999/xlink" width="129.000000" height="51.859253" fill="none">
	<defs>
		<linearGradient id="paint_linear_0" x1="0.0388952345" x2="128.883331" y1="25.962059" y2="25.962059" gradientUnits="userSpaceOnUse">
			<stop stop-color="rgb(128,231,255)" offset="0" stop-opacity="1" />
			<stop stop-color="rgb(114,111,247)" offset="0.239999995" stop-opacity="1" />
			<stop stop-color="rgb(244,130,174)" offset="0.5" stop-opacity="1" />
			<stop stop-color="rgb(220,249,128)" offset="0.75" stop-opacity="1" />
			<stop stop-color="rgb(123,252,233)" offset="1" stop-opacity="1" />
		</linearGradient>
	</defs>
	<rect id="logo-type 2" width="129.000000" height="51.859295" x="0.000000" y="0.000000" fill="rgb(255,255,255)" fill-opacity="0" />
	<path id="Vector" d="M112.267 51.7637C109.554 51.7637 107.195 51.1219 105.305 49.887L104.61 51.2094L64.513 51.2094C63.5114 51.5773 62.424 51.7637 61.2701 51.7637L58.191 51.7637C56.4667 51.7637 54.9141 51.3196 53.6144 50.4656C51.788 51.3277 49.6942 51.7637 47.3573 51.7637L44.2781 51.7637C41.1471 51.7637 38.4877 50.9096 36.4782 49.2744L36.1411 51.2094C36.0714 51.6081 23.515 51.1851 22.2395 51.2094C21.0938 51.2305 20.0047 51.5238 18.8492 51.6437C13.2565 52.2239 6.91187 51.7134 3.05322 47.1206C0.465113 44.0383 -0.502386 39.7275 0.328983 34.9807C1.79725 26.5487 7.99768 21.097 16.125 21.097L19.2041 21.097C19.8832 21.097 20.5395 21.1278 21.1716 21.1878C20.6254 19.0324 20.5606 16.6339 21.0014 14.1138C21.7793 9.67176 24.0514 5.48574 27.8241 2.90574C32.0993 -0.0194504 38.0242 -0.408392 42.9849 0.563969C45.6038 1.0777 47.9942 1.91069 49.9016 3.84569C50.3376 4.28812 50.7362 4.77105 51.0944 5.29127L121.555 5.29127L110.759 26.0804C111.987 25.7643 113.287 25.6039 114.633 25.6039L117.713 25.6039C122.521 25.6039 125.167 27.5535 126.54 29.1887C129.783 33.0522 129.18 39.285 127.601 43.7482C125.743 49.0054 120.767 51.7637 115.346 51.7637L112.267 51.7637Z" fill="url(#paint_linear_0)" fill-rule="nonzero" />
	<path id="Vector" d="M124.18 31.1686C122.798 29.5188 120.621 28.6842 117.711 28.6842L114.632 28.6842C113.301 28.6842 112.058 28.8722 110.921 29.2385L105.649 29.2385L116.484 8.37157L104.432 8.37157L103.487 10.561L103.302 8.37157L70.4201 8.37157C69.6632 7.99883 68.7427 7.81732 67.6423 7.81732L64.5632 7.81732C63.7594 7.81732 62.8551 7.95832 61.9492 8.37157L49.3085 8.37157C48.8952 7.46565 48.3636 6.67156 47.7073 6.00711C45.9425 4.21796 43.3074 3.31042 39.8733 3.31042L36.7942 3.31042C30.14 3.31042 25.2506 7.65526 24.0319 14.6482C23.361 18.4825 24.087 21.902 26.082 24.2729C28.0316 26.5952 31.0459 27.8204 34.7992 27.8204L37.8783 27.8204C40.0953 27.8204 42.0627 27.3553 43.7563 26.4526L43.7384 26.5418L43.612 27.2662L54.2254 27.2662L55.679 18.9217C55.846 17.9769 56.0583 17.4875 56.4083 17.2346C56.5185 17.152 56.6644 17.0872 56.8362 17.0321C56.8329 17.0499 56.8297 17.0661 56.8264 17.0839C56.1004 21.1857 56.5185 24.3102 58.037 26.1188C58.9705 27.2338 60.3221 27.822 61.9378 27.822L65.017 27.822C65.9926 27.822 66.8645 27.6405 67.6504 27.2678L74.4521 27.2678L74.1004 29.2417L66.67 29.2417C65.9132 28.869 64.9894 28.6874 63.8923 28.6874L60.8131 28.6874C59.3141 28.6874 57.5119 29.1639 55.9691 30.9287C55.9254 30.8817 55.8865 30.8364 55.8395 30.7926C54.4474 29.394 52.3876 28.6858 49.7185 28.6858L46.6393 28.6858C44.9669 28.6858 43.4435 28.9759 42.0968 29.535L42.1486 29.2401L40.716 29.2401C40.1002 29.2401 39.546 29.2984 39.0322 29.4621L39.0695 29.2401L28.6312 29.2401C28.2179 28.3309 27.6864 27.5401 27.03 26.8756C25.2652 25.0832 22.6301 24.1789 19.1993 24.1789L16.1201 24.1789C9.4627 24.1789 4.57334 28.5205 3.35788 35.5134C2.68371 39.3494 3.41299 42.7672 5.40471 45.1414C7.35429 47.4605 10.3686 48.6857 14.1252 48.6857L17.2043 48.6857C19.4181 48.6857 21.3855 48.2238 23.079 47.3211L23.0644 47.4103L22.9348 48.1314L33.5481 48.1314L35.005 39.7902C35.1768 38.7919 35.3615 38.2506 35.9758 37.9703C35.381 41.3087 35.898 44.0702 37.4748 45.9582C38.9658 47.7441 41.3173 48.6857 44.2732 48.6857L47.3524 48.6857C50.357 48.6857 52.4946 47.8203 54.0098 46.6194C54.1395 46.8042 54.274 46.9792 54.4231 47.1396C55.3598 48.1655 56.6271 48.6857 58.1894 48.6857L61.2685 48.6857C62.2409 48.6857 63.1128 48.5074 63.8987 48.1314L89.4864 48.1314L90.441 42.6878L91.3858 48.1314L102.745 48.1314L104.595 44.6082C104.838 45.0944 105.122 45.5466 105.464 45.9566C106.955 47.7425 109.306 48.6841 112.262 48.6841L115.342 48.6841C121.041 48.6841 123.615 45.5709 124.773 42.9601L125.044 42.3475L119.96 40.5924L125.085 40.5924L125.211 40.1435C125.365 39.5828 125.423 39.2651 125.498 38.8632C125.516 38.7644 125.535 38.6574 125.556 38.5407C126.101 35.4405 125.624 32.8962 124.177 31.1718L124.18 31.1686ZM39.4941 15.0873C39.3612 16.1407 39.0225 17.1682 38.5088 18.0968C38.0096 18.9995 37.4489 19.9265 36.4717 20.3754C36.1054 20.2149 35.7943 19.9929 35.5512 19.7012C34.7716 18.771 34.5593 17.1358 34.9418 14.969C35.3761 12.5365 36.6483 11.2611 38.008 10.7539C38.2981 10.8738 38.5444 11.0342 38.7405 11.2336C39.4584 11.9628 39.5541 13.0794 39.5573 14.0518C39.5573 14.3986 39.5362 14.7438 39.4941 15.0873ZM24.8698 37.1762L22.3935 36.6738L21.87 36.5684L21.6918 37.0708C21.682 37.0984 21.6739 37.1227 21.6642 37.1502L19.3143 36.6738L18.7909 36.5684L18.6126 37.0708C17.765 39.4515 16.9402 40.7204 15.8009 41.2423C15.4314 41.0818 15.1202 40.8566 14.8771 40.5648C14.0976 39.6379 13.8886 37.9994 14.271 35.8327C14.7021 33.4034 15.9743 32.1247 17.334 31.6207C17.6257 31.7407 17.8704 31.8979 18.0665 32.1004C18.645 32.6952 18.9108 33.7291 18.8735 35.2687L18.8557 35.9494L19.5364 35.8975L21.9413 35.7063L21.9349 35.9494L22.6155 35.8975L25.1274 35.6982L24.8681 37.1762L24.8698 37.1762ZM84.7154 29.2385L85.0687 27.2646L93.2187 27.2646L93.3078 26.7557L94.136 22.1094L95.2752 29.2368L84.7138 29.2368L84.7154 29.2385Z" fill="rgb(0,0,0)" fill-rule="nonzero" />
	<g id="uuid-20b2047e-1253-4176-9060-f18607e554d1">
		<path id="Vector" d="M115.37 48.3856C112.506 48.3856 110.236 47.4795 108.805 45.7661C107.44 44.1322 106.902 41.8029 107.229 38.9873L102.585 47.8312L94.7498 47.8312L92.0168 32.0886L89.2499 47.8312L82.3414 47.8312L84.5362 35.3402L83.3674 35.3402L81.1419 47.8312L74.2301 47.8312L76.459 35.3402L75.2676 35.3402L73.0728 47.8312L66.1659 47.8312L66.6668 44.9443C65.3101 47.3368 63.634 48.3856 61.2836 48.3856C59.8118 48.3856 58.6204 47.8993 57.7451 46.9381C56.9735 46.0936 56.4743 44.8925 56.257 43.3914C55.0267 45.7872 52.5062 48.384 47.3677 48.384C44.5035 48.384 42.2342 47.4779 40.8029 45.7645C39.2776 43.9377 38.7848 41.2421 39.3781 37.9694C39.4105 37.7862 39.4462 37.5982 39.4867 37.4085L37.9922 37.4085C35.577 37.4085 35.055 37.7797 34.7114 39.7411L33.2995 47.8312L26.391 47.8312L27.2761 42.7933C25.1169 46.4615 21.6757 48.3856 17.2099 48.3856C13.5482 48.3856 10.6127 47.1974 8.72589 44.9492C6.79209 42.6458 6.08698 39.3148 6.74347 35.5704C7.93487 28.7348 12.7086 24.4879 19.2053 24.4879C22.5542 24.4879 25.1153 25.3649 26.8189 27.0944C28.0266 28.3198 28.8111 29.9813 29.1645 32.0513L29.6037 29.5501L36.5106 29.5501L35.7488 33.9543C37.2903 30.2293 38.6081 29.5501 40.7267 29.5501L41.7949 29.5501L41.1465 33.2913C42.9782 30.5049 45.9624 28.9958 49.7327 28.9958C52.3165 28.9958 54.3038 29.675 55.6362 31.0122C56.5521 31.9313 57.1307 33.1243 57.369 34.5735C58.7031 30.9166 60.9416 28.9958 63.9063 28.9958C66.6749 28.9958 68.2375 30.158 68.8259 32.7191L69.3754 29.5501L77.4542 29.5501L78.0264 26.3439L84.9349 26.3439L84.3627 29.5501L112.183 29.5501L111.517 30.8194C113.204 29.6215 115.323 28.9958 117.735 28.9958C120.549 28.9958 122.646 29.7949 123.969 31.3721C125.355 33.0238 125.809 35.4844 125.28 38.4848C125.258 38.6064 125.238 38.7134 125.22 38.8139C125.149 39.2094 125.092 39.5206 124.942 40.0653L124.878 40.2906L113.861 40.2906C113.871 41.0087 114.028 41.516 114.336 41.837C114.683 42.1968 115.274 42.3719 116.143 42.3719C117.724 42.3719 118.226 41.6732 118.717 40.759L118.842 40.5288L124.655 42.534L124.519 42.8403C123.398 45.369 120.902 48.3824 115.367 48.3824L115.37 48.3856ZM45.8603 40.2922C45.87 41.0103 46.0272 41.5176 46.3352 41.8386C46.6821 42.1984 47.2737 42.3735 48.1426 42.3735C49.723 42.3735 50.2255 41.6749 50.7166 40.7606L50.8414 40.5305L56.1549 42.3638C56.1176 41.717 56.1274 41.0249 56.1809 40.2906L45.8603 40.2906L45.8603 40.2922ZM18.8001 31.0528C16.8712 31.0528 14.5872 32.296 13.9664 35.7876C13.5693 38.0488 13.8027 39.7719 14.6424 40.772C15.2454 41.4901 16.1725 41.8548 17.3964 41.8548C19.5538 41.8548 20.755 40.6326 21.9853 37.1816L22.0744 36.9303L28.0946 38.1477L28.6279 35.1165L22.256 35.6239L22.2641 35.2818C22.3046 33.6576 22.0128 32.5473 21.3709 31.8908C20.8198 31.3267 19.9802 31.0511 18.8017 31.0511L18.8001 31.0528ZM119.165 36.9773C119.242 36.2236 119.13 35.666 118.832 35.3191C118.523 34.9593 117.994 34.7842 117.219 34.7842C115.765 34.7842 114.957 35.4066 114.423 36.9773L119.166 36.9773L119.165 36.9773ZM51.1624 36.9773C51.2402 36.2236 51.1284 35.666 50.8301 35.3191C50.5205 34.9593 49.9921 34.7842 49.2156 34.7842C47.7616 34.7842 46.9528 35.4066 46.4195 36.9773L51.1624 36.9773Z" fill="rgb(255,255,255)" fill-rule="nonzero" />
		<path id="Vector" d="M19.2069 24.7947C25.9015 24.7947 28.944 28.304 29.0688 34.3826L29.8647 29.8585L36.1475 29.8585L34.9642 36.6957L35.0744 36.6957C37.1444 30.4502 38.5481 29.8585 40.7283 29.8585L41.4302 29.8585L40.5143 35.1363C42.0883 31.413 45.3043 29.3041 49.7327 29.3041C54.9278 29.3041 57.1972 32.1214 57.1842 36.2013C58.3545 31.7826 60.6125 29.3041 63.9079 29.3041C66.5679 29.3041 68.4531 30.3756 68.7497 34.3307L68.8599 34.3307L69.6364 29.8585L77.7135 29.8585L78.2857 26.6523L84.5686 26.6523L83.9964 29.8585L111.674 29.8585L110.501 32.0938C112.258 30.2864 114.713 29.3041 117.736 29.3041C123.834 29.3041 125.904 33.1847 124.98 38.4317C124.87 39.0234 124.833 39.3184 124.648 39.9846L113.561 39.9846C113.486 41.9427 114.3 42.6819 116.148 42.6819C117.886 42.6819 118.476 41.8681 118.994 40.9085L124.241 42.7191C122.948 45.6385 120.323 48.078 115.371 48.078C109.975 48.078 106.464 44.7518 107.685 38.0265C107.742 37.7055 107.807 37.3911 107.881 37.0863L102.399 47.5253L95.0075 47.5253L92.0168 30.301L88.9905 47.5253L82.7077 47.5253L84.9025 35.0342L83.1097 35.0342L80.8841 47.5253L74.5981 47.5253L76.8269 35.0342L75.0098 35.0342L72.815 47.5253L66.5322 47.5253L67.3087 43.053L67.2341 43.053C65.6083 47.0082 63.6486 48.0796 61.2836 48.0796C57.7515 48.0796 56.0495 45.1003 56.5164 39.9862L45.5571 39.9862C45.4826 41.9443 46.2963 42.6835 48.1442 42.6835C49.8818 42.6835 50.4718 41.8698 50.9905 40.9102L56.2376 42.7208C54.9441 45.6401 52.3197 48.0796 47.3677 48.0796C41.9716 48.0796 38.4606 44.7534 39.6812 38.0281C39.7363 37.712 39.8011 37.404 39.8741 37.1042L37.9938 37.1042C35.444 37.1042 34.7794 37.584 34.4082 39.6912L33.0401 47.5253L26.7573 47.5253L27.9536 40.7221C26.1543 45.1376 22.6547 48.0796 17.2099 48.0796C9.56066 48.0796 5.79033 42.7953 7.04657 35.6259C8.19258 29.048 12.775 24.7979 19.2053 24.7979M17.3947 42.168C19.9072 42.168 21.1278 40.5049 22.2738 37.2906L28.341 38.5176L28.9975 34.783L22.5688 35.2952C22.6434 32.3013 21.6449 30.75 18.8001 30.75C15.9553 30.75 14.1431 33.0421 13.6633 35.7393C12.9614 39.7301 14.1431 42.1696 17.3963 42.1696M114.003 37.2922L119.435 37.2922C119.73 35.3341 118.955 34.4831 117.218 34.4831C115.48 34.4831 114.593 35.2222 114.003 37.2922ZM46.0013 37.2922L51.4331 37.2922C51.7281 35.3341 50.9533 34.4831 49.2156 34.4831C47.478 34.4831 46.5913 35.2222 46.0013 37.2922ZM19.2069 24.1852C15.9197 24.1852 12.989 25.2583 10.7342 27.2909C8.51677 29.2879 7.03198 32.1359 6.44195 35.5237C5.76926 39.3605 6.49707 42.7807 8.49084 45.1538C10.4392 47.4734 13.4542 48.6988 17.2116 48.6988C19.9591 48.6988 22.3467 47.9791 24.3113 46.5592C25.2158 45.9043 26.0214 45.11 26.7233 44.1796L26.1527 47.4215L26.0263 48.1445L33.5605 48.1445L33.6496 47.6339L35.0177 39.7998C35.3127 38.1173 35.6223 37.7234 37.9954 37.7234L39.1138 37.7234C39.1009 37.7914 39.0895 37.8579 39.0766 37.926C38.4671 41.2878 38.9825 44.0694 40.5678 45.9691C42.0591 47.7554 44.4111 48.7004 47.3693 48.7004C52.1349 48.7004 54.7171 46.5235 56.1111 44.2834C56.3851 45.4618 56.8568 46.4295 57.5181 47.1524C58.455 48.1785 59.7226 48.7004 61.2852 48.7004C63.279 48.7004 64.8416 47.9483 66.1173 46.3241L65.926 47.4248L65.8012 48.1461L73.3321 48.1461L73.4213 47.6371L75.5269 35.655L76.091 35.655L73.9918 47.4215L73.8622 48.1461L81.3996 48.1461L81.4904 47.6387L83.6252 35.655L84.1682 35.655L82.0998 47.4231L81.9734 48.1461L89.5076 48.1461L89.5967 47.6371L92.0136 33.8866L94.4012 47.6371L94.4904 48.1477L102.772 48.1477L102.945 47.8186L106.831 40.4206C106.808 42.6737 107.396 44.5654 108.572 45.9724C110.063 47.7587 112.415 48.7037 115.373 48.7037C121.072 48.7037 123.648 45.5898 124.805 42.9785L125.078 42.3658L124.444 42.1469L119.991 40.6103L125.118 40.6103L125.243 40.1597C125.399 39.6004 125.455 39.2827 125.528 38.8791C125.546 38.7802 125.566 38.6749 125.587 38.5565C126.133 35.4557 125.656 32.9091 124.209 31.1845C122.825 29.5343 120.648 28.6979 117.738 28.6979C115.705 28.6979 113.872 29.1323 112.319 29.9704L112.697 29.2523L84.7355 29.2523L85.178 26.7706L85.3077 26.046L77.7735 26.046L77.6827 26.5534L77.2013 29.2507L69.1209 29.2507L69.0317 29.7613L68.7367 31.4584C67.9198 29.5862 66.341 28.6963 63.9095 28.6963C61.8412 28.6963 59.1958 29.6056 57.4533 33.5494C57.1356 32.4699 56.6023 31.5508 55.8566 30.8035C54.4626 29.4046 52.4024 28.6963 49.7343 28.6963C46.3481 28.6963 43.5747 29.8828 41.6701 32.0938L42.038 29.972L42.1628 29.2507L40.7283 29.2507C38.955 29.2507 37.6842 29.7191 36.4214 31.8863L36.7521 29.972L36.8769 29.2507L29.346 29.2507L29.2568 29.7596L29.1239 30.5199C28.6846 29.0626 27.9876 27.8469 27.041 26.8857C25.2774 25.0962 22.6417 24.1884 19.2086 24.1884L19.2069 24.1852ZM17.3963 41.5553C16.2682 41.5553 15.4204 41.2279 14.879 40.5827C14.0993 39.6539 13.8902 38.0168 14.2711 35.8479C14.8596 32.546 16.9976 31.3676 18.8017 31.3676C19.8926 31.3676 20.6593 31.6124 21.1505 32.1133C21.7308 32.7081 21.9934 33.7439 21.9561 35.2822L21.9399 35.9663L22.6207 35.9128L28.2567 35.4638L27.8482 37.7915L22.4002 36.6892L21.8766 36.5838L21.6967 37.0863C20.5215 40.3866 19.3966 41.5553 17.398 41.5553L17.3963 41.5553ZM114.867 36.6779C115.417 35.3811 116.169 35.1007 117.218 35.1007C117.889 35.1007 118.354 35.2449 118.597 35.5286C118.805 35.7701 118.899 36.1543 118.878 36.6779L114.866 36.6779L114.867 36.6779ZM46.8652 36.6779C47.4147 35.3811 48.1669 35.1007 49.2156 35.1007C49.8867 35.1007 50.3519 35.2449 50.595 35.5286C50.8025 35.7701 50.8965 36.1543 50.8755 36.6779L46.8636 36.6779L46.8652 36.6779ZM114.187 40.607L118.459 40.607L118.451 40.6232C117.98 41.4986 117.565 42.074 116.148 42.074C115.367 42.074 114.848 41.9297 114.563 41.6331C114.354 41.4159 114.229 41.0771 114.188 40.6087L114.187 40.607ZM51.9858 40.607L55.8534 40.607C55.8275 41.0658 55.8194 41.5083 55.8307 41.933L51.9858 40.607ZM46.1844 40.607L50.4573 40.607L50.4492 40.6232C49.9775 41.4986 49.5625 42.074 48.1458 42.074C47.3645 42.074 46.8458 41.9297 46.5605 41.6331C46.3514 41.4159 46.2266 41.0771 46.1861 40.6087L46.1844 40.607Z" fill="rgb(0,0,0)" fill-rule="nonzero" />
		<path id="Vector" d="M95.7969 11.1589L95.0837 15.1626L86.8881 21.1699L94.0122 21.1699L92.9797 26.9599L69.9152 26.9599L70.416 24.073C69.0593 26.4655 67.3832 27.5143 65.0329 27.5143C63.4865 27.5143 62.2513 26.9793 61.3663 25.9225C59.909 24.1864 59.5135 21.1488 60.2219 17.1369C60.2575 16.9376 60.2964 16.7382 60.337 16.5372L58.6706 16.5372C56.2554 16.5372 55.7335 16.9084 55.3898 18.8697L53.978 26.9599L47.0695 26.9599L47.9545 21.922C45.7954 25.5902 42.3541 27.5143 37.8884 27.5143C34.2267 27.5143 31.2928 26.3261 29.4044 24.0778C27.4706 21.7745 26.7654 18.4434 27.4219 14.699C28.6133 7.86347 33.3887 3.61658 39.8838 3.61658C43.2327 3.61658 45.7938 4.49351 47.4974 6.22306C48.705 7.4485 49.4896 9.10998 49.8429 11.1799L50.2822 8.6788L57.1891 8.6788L56.4272 13.0829C57.9688 9.35798 59.2866 8.6788 61.4052 8.6788L62.5447 8.6788L61.9709 11.8202C63.326 9.39202 65.2598 8.12444 67.6572 8.12444C70.4258 8.12444 71.9884 9.28666 72.5768 11.8478L73.1263 8.6788L103.041 8.6788L103.806 17.7886L107.735 8.6788L116.002 8.6788L100.25 39.01L95.7969 11.1589ZM39.4769 10.1814C36.5349 10.1814 35.0501 12.6274 34.6433 14.9162C34.2461 17.1775 34.4796 18.9005 35.3192 19.9007C35.9222 20.6187 36.8494 20.9834 38.0732 20.9834C40.2307 20.9834 41.4318 19.7613 42.6621 16.3102L42.7513 16.059L48.7715 17.2763L49.3048 14.2452L42.9328 14.7525L42.9409 14.4105C42.9814 12.7863 42.6897 11.6759 42.0478 11.0195C41.4967 10.4554 40.657 10.1798 39.4786 10.1798L39.4769 10.1814ZM77.96 20.4842L86.6645 14.4316L79.0233 14.4316L77.96 20.4842Z" fill="rgb(255,255,255)" fill-rule="nonzero" />
		<path id="Vector" d="M39.8838 3.92483C46.5783 3.92483 49.6208 7.43419 49.7457 13.5128L50.5415 8.98868L56.8243 8.98868L55.6411 15.8259L55.7513 15.8259C57.8212 9.58033 59.225 8.98868 61.4052 8.98868L62.1767 8.98868L61.1588 14.5566C62.381 10.6242 64.5611 8.43432 67.6588 8.43432C70.3204 8.43432 72.2039 9.50576 72.5006 13.4609L72.6108 13.4609L73.3872 8.98868L102.76 8.98868L103.603 19.0402L107.939 8.98868L115.496 8.98868L100.407 38.0426L95.8131 9.31287L94.8016 14.9878L85.948 21.4797L93.6442 21.4797L92.7219 26.6538L70.2815 26.6538L71.0579 22.1816L70.9834 22.1816C69.3575 26.1367 67.3978 27.2082 65.0328 27.2082C61.0793 27.2082 59.4162 23.4751 60.525 17.1923C60.5833 16.8633 60.6482 16.5439 60.7163 16.2311L58.6706 16.2311C56.1209 16.2311 55.4563 16.7109 55.0851 18.8181L53.717 26.6522L47.4342 26.6522L48.6304 19.8491C46.8312 24.2645 43.3316 27.2066 37.8868 27.2066C30.2375 27.2066 26.4672 21.9222 27.7234 14.7528C28.8694 8.17496 33.4519 3.92483 39.8822 3.92483M38.0716 21.2949C40.584 21.2949 41.8046 19.6318 42.9506 16.4175L49.0179 17.6446L49.6743 13.9099L43.2456 14.4221C43.3202 11.4282 42.3217 9.87696 39.4769 9.87696C36.6322 9.87696 34.8199 12.1674 34.3401 14.8663C33.6383 18.857 34.8199 21.2966 38.0732 21.2966M77.5287 21.162L87.6467 14.1271L78.7655 14.1271L77.5287 21.162ZM39.8838 3.31049C36.5965 3.31049 33.6658 4.38356 31.4111 6.41623C29.1936 8.41325 27.7088 11.2613 27.1188 14.649C26.4461 18.4858 27.1739 21.906 29.1677 24.2791C31.1161 26.5987 34.131 27.8241 37.8884 27.8241C40.6359 27.8241 43.0236 27.1044 44.9882 25.6845C45.8927 25.0296 46.6983 24.2353 47.4001 23.3049L46.8296 26.5468L46.7031 27.2698L54.2373 27.2698L54.3265 26.7592L55.6945 18.9251C55.8599 17.9785 56.0722 17.4889 56.4224 17.2345C56.7984 16.9638 57.4711 16.8471 58.6722 16.8471L59.9641 16.8471C59.9495 16.9265 59.935 17.0043 59.9204 17.0837C59.1958 21.188 59.6156 24.3132 61.1328 26.1221C62.0665 27.2357 63.4168 27.8241 65.0361 27.8241C67.0299 27.8241 68.5925 27.072 69.8681 25.4478L69.6769 26.5484L69.5521 27.2698L93.2406 27.2698L93.3314 26.7624L94.2537 21.5883L94.3834 20.8638L87.8331 20.8638L95.1696 15.4855L95.3689 15.3396L95.4127 15.0964L95.7855 13.007L99.8039 38.1382L100.099 39.9813L100.96 38.3247L116.049 9.27073L116.516 8.3711L107.539 8.3711L107.379 8.7423L104.017 16.5375L103.378 8.93519L103.331 8.3711L72.8734 8.3711L72.7842 8.8817L72.4892 10.5788C71.6723 8.70664 70.0935 7.81674 67.662 7.81674C66.0946 7.81674 64.1591 8.34354 62.5512 10.3859L62.7862 9.09729L62.9191 8.3711L61.41 8.3711C59.6367 8.3711 58.3659 8.83956 57.1032 11.0068L57.4338 9.09242L57.5586 8.3711L50.0277 8.3711L49.9385 8.88008L49.8056 9.64031C49.3664 8.18307 48.6693 6.96736 47.7227 6.00451C45.9591 4.21498 43.3234 3.30725 39.8903 3.30725L39.8838 3.31049ZM38.0732 20.6806C36.945 20.6806 36.0972 20.3532 35.5559 19.708C34.7762 18.7792 34.5671 17.1421 34.948 14.9732C35.5364 11.6714 37.6744 10.4929 39.4786 10.4929C40.5695 10.4929 41.3362 10.7377 41.8273 11.2386C42.4076 11.8335 42.6702 12.8692 42.6329 14.4075L42.6167 15.0916L43.2975 15.0381L48.9336 14.5891L48.5251 16.9168L43.0771 15.8145L42.5535 15.7091L42.3736 16.2116C41.1984 19.5119 40.0734 20.6806 38.0748 20.6806L38.0732 20.6806ZM79.2826 14.7431L85.6821 14.7431L78.3911 19.8118L79.2826 14.7431Z" fill="rgb(0,0,0)" fill-rule="nonzero" />
		<path id="Vector" d="M69.1355 12.4126L69.0561 14.5263C69.0383 15.0126 69.1598 15.434 69.3997 15.7615C69.6413 16.0873 70.0011 16.3207 70.4582 16.4309L72.4471 16.9091C72.6384 16.9545 72.7129 17.1571 72.6141 17.3597C72.5427 17.5056 72.4001 17.6142 72.2542 17.645L70.0141 18.1232C69.4986 18.2334 69.0156 18.4668 68.6022 18.7927C68.1905 19.1201 67.8452 19.5415 67.607 20.0278L66.5712 22.1432C66.4723 22.3458 66.2373 22.4738 66.046 22.4284C65.9082 22.396 65.8304 22.2809 65.8369 22.1432L65.9163 20.0278C65.9341 19.5432 65.8126 19.1201 65.571 18.7943C65.3311 18.4668 64.9713 18.2334 64.5142 18.1248L62.5253 17.6466C62.334 17.6013 62.2594 17.3986 62.3583 17.196C62.4296 17.0501 62.5723 16.9415 62.7182 16.9107L64.9583 16.4326C65.4738 16.3223 65.9568 16.0889 66.3702 15.7631C66.7819 15.4357 67.1272 15.0158 67.3654 14.5279L68.4028 12.4126C68.5017 12.21 68.7368 12.0819 68.928 12.1273C69.0658 12.1597 69.1436 12.2748 69.1371 12.4126L69.1355 12.4126Z" fill="rgb(0,0,0)" fill-rule="nonzero" />
		<path id="Vector" d="M65.1836 33.7919L65.1042 35.9056C65.0863 36.3919 65.2079 36.8133 65.4478 37.1408C65.6893 37.4666 66.0492 37.7 66.5063 37.8102L68.4952 38.2884C68.6865 38.3338 68.761 38.5364 68.6621 38.739C68.5908 38.8849 68.4482 38.9935 68.3023 39.0243L66.0621 39.5025C65.5467 39.6127 65.0636 39.8461 64.6503 40.1719C64.2386 40.4994 63.8933 40.9208 63.655 41.4071L62.6192 43.5224C62.5204 43.7251 62.2853 43.8531 62.0941 43.8077C61.9563 43.7753 61.8785 43.6602 61.885 43.5224L61.9644 41.4071C61.9822 40.9224 61.8606 40.4994 61.6191 40.1735C61.3792 39.8461 61.0194 39.6127 60.5623 39.5041L58.5734 39.0259C58.3821 38.9805 58.3075 38.7779 58.4064 38.5753C58.4777 38.4294 58.6204 38.3208 58.7662 38.29L61.0064 37.8118C61.5219 37.7016 62.0049 37.4682 62.4182 37.1424C62.83 36.8149 63.1752 36.3951 63.4135 35.9072L64.4509 33.7919C64.5498 33.5892 64.7848 33.4612 64.9761 33.5066C65.1139 33.539 65.1917 33.6541 65.1852 33.7919L65.1836 33.7919Z" fill="rgb(0,0,0)" fill-rule="nonzero" />
	</g>
</svg>
