<svg width="1122" height="810" viewBox="0 0 1122 810" fill="none" xmlns="http://www.w3.org/2000/svg">
<path d="M1033.69 151.175C984.888 168.572 949.916 215.185 949.916 270V645.708H865.324V270C865.324 200.36 921.77 143.915 991.409 143.915C1006.23 143.915 1020.47 146.488 1033.69 151.175Z" fill="url(#paint0_linear_3_444)"/>
<path d="M1117.49 270V645.708H949.916V270C949.916 215.185 984.888 168.572 1033.69 151.175H1033.72C1082.55 168.572 1117.49 215.21 1117.49 270Z" fill="black"/>
<path d="M991.409 143.915C1061.05 143.915 1117.49 200.36 1117.49 270V645.708H865.324V270C865.324 200.36 921.77 143.915 991.409 143.915Z" stroke="black" stroke-width="2.54717" stroke-miterlimit="10" stroke-linecap="round"/>
<path d="M1033.72 151.175C984.888 168.546 949.916 215.185 949.916 270V645.708H1117.49" stroke="black" stroke-width="2.54717" stroke-miterlimit="10" stroke-linecap="round"/>
<path d="M1117.49 405V548.584H823.118C813.948 548.584 807.376 557.372 809.949 566.159C815.96 586.537 825.818 619.828 831.88 639.594C840.056 666.314 822.99 679.712 805.619 677.929C807.223 682.565 823.755 729.662 832.211 751.721C841.126 774.951 841.126 799.811 815.654 804.906C791.864 809.669 776.963 794.437 764.737 765.45C764.737 765.45 770.646 793.571 747.849 800.346C726.121 806.816 711.221 794.717 701.032 774.34C697.95 768.175 692.779 755.72 687.048 741.354C681.954 754.09 655.183 766.698 634.805 736.132C614.428 705.566 583.862 618.962 568.579 534.906C553.296 450.849 604.239 405 680.654 405H1117.49Z" fill="#72FFFF"/>
<path d="M1117.49 270V405H680.654C604.239 405 553.296 359.151 568.579 275.094C583.862 191.038 614.428 104.434 634.805 73.8679C655.183 43.3019 681.954 55.9104 687.048 68.6462C692.779 54.2802 697.95 41.8245 701.032 35.6604C711.221 15.283 726.121 3.18395 747.849 9.65376C770.646 16.4292 764.737 44.55 764.737 44.55C776.963 15.5632 791.864 0.331117 815.654 5.09432C841.126 10.1887 841.126 35.049 832.211 58.2792C823.755 80.3377 807.223 127.435 805.619 132.071C822.99 130.288 840.056 143.686 831.88 170.406C825.818 190.172 815.96 223.463 809.949 243.841C807.376 252.628 813.948 261.416 823.118 261.416H1117.21C1117.39 264.243 1117.49 267.122 1117.49 270Z" fill="#72FFFF"/>
<path d="M660.914 394.327C708.674 394.327 747.391 355.611 747.391 307.851C747.391 260.091 708.674 221.375 660.914 221.375C613.155 221.375 574.438 260.091 574.438 307.851C574.438 355.611 613.155 394.327 660.914 394.327Z" fill="url(#paint1_radial_3_444)"/>
<path d="M660.914 588.371C708.674 588.371 747.391 549.654 747.391 501.894C747.391 454.135 708.674 415.418 660.914 415.418C613.155 415.418 574.438 454.135 574.438 501.894C574.438 549.654 613.155 588.371 660.914 588.371Z" fill="url(#paint2_radial_3_444)"/>
<path d="M687.048 68.6462C681.954 55.9104 655.183 43.3019 634.805 73.8679C614.428 104.434 583.862 191.038 568.579 275.094C553.296 359.151 604.239 405 680.654 405H1117.49" stroke="black" stroke-width="2.54717" stroke-miterlimit="10" stroke-linecap="round"/>
<path d="M657.73 145.189C657.73 145.189 690.844 56.0377 701.032 35.6604C711.221 15.283 726.122 3.18396 747.849 9.65378C770.647 16.4292 764.737 44.55 764.737 44.55" stroke="black" stroke-width="2.54717" stroke-miterlimit="10" stroke-linecap="round"/>
<path d="M723.956 168.113C723.956 168.113 749.428 84.0566 762.164 50.9434C774.899 17.8302 790.182 -1.50445e-06 815.654 5.09434C841.126 10.1887 841.126 35.0491 832.211 58.2792C823.296 81.5094 805.465 132.453 805.465 132.453" stroke="black" stroke-width="2.54717" stroke-miterlimit="10" stroke-linecap="round"/>
<path d="M771.563 109.936H747.39" stroke="black" stroke-width="2.54717" stroke-miterlimit="10" stroke-linecap="round"/>
<path d="M793.01 60.0368H768.837" stroke="black" stroke-width="2.54717" stroke-miterlimit="10" stroke-linecap="round"/>
<path d="M706.049 109.936H681.877" stroke="black" stroke-width="2.54717" stroke-miterlimit="10" stroke-linecap="round"/>
<path d="M727.496 60.0368H703.324" stroke="black" stroke-width="2.54717" stroke-miterlimit="10" stroke-linecap="round"/>
<path d="M654.775 94.3472H638.244" stroke="black" stroke-width="2.54717" stroke-miterlimit="10" stroke-linecap="round"/>
<path d="M743.646 168.113H623.853" stroke="black" stroke-width="2.54717" stroke-miterlimit="10" stroke-linecap="round"/>
<path d="M1117.21 261.416H823.117C813.948 261.416 807.376 252.628 809.949 243.841C815.96 223.463 825.817 190.172 831.88 170.406C840.056 143.686 822.99 130.288 805.618 132.071C803.504 132.249 801.365 132.708 799.276 133.37C745.098 150.792 750.574 227.742 750.574 227.742C731.343 239.791 718.582 261.187 718.582 285.538" stroke="black" stroke-width="2.54717" stroke-miterlimit="10" stroke-linecap="round"/>
<path d="M765.857 227.742H789.902" stroke="black" stroke-width="2.54717" stroke-miterlimit="10" stroke-linecap="round"/>
<path d="M687.048 741.354C681.954 754.09 655.183 766.698 634.805 736.132C614.428 705.566 583.862 618.962 568.579 534.906C553.296 450.849 604.239 405 680.654 405H1117.49" stroke="black" stroke-width="2.54717" stroke-miterlimit="10" stroke-linecap="round"/>
<path d="M657.73 664.811C657.73 664.811 690.844 753.962 701.032 774.34C711.221 794.717 726.122 806.816 747.849 800.346C770.647 793.571 764.737 765.45 764.737 765.45" stroke="black" stroke-width="2.54717" stroke-miterlimit="10" stroke-linecap="round"/>
<path d="M723.956 641.887C723.956 641.887 749.428 725.943 762.164 759.057C774.899 792.17 790.182 810 815.654 804.906C841.126 799.811 841.126 774.951 832.211 751.721C823.296 728.491 805.465 677.547 805.465 677.547" stroke="black" stroke-width="2.54717" stroke-miterlimit="10" stroke-linecap="round"/>
<path d="M771.563 700.064H747.39" stroke="black" stroke-width="2.54717" stroke-miterlimit="10" stroke-linecap="round"/>
<path d="M793.01 749.963H768.837" stroke="black" stroke-width="2.54717" stroke-miterlimit="10" stroke-linecap="round"/>
<path d="M706.049 700.064H681.877" stroke="black" stroke-width="2.54717" stroke-miterlimit="10" stroke-linecap="round"/>
<path d="M727.496 749.963H703.324" stroke="black" stroke-width="2.54717" stroke-miterlimit="10" stroke-linecap="round"/>
<path d="M654.775 715.653H638.244" stroke="black" stroke-width="2.54717" stroke-miterlimit="10" stroke-linecap="round"/>
<path d="M743.646 641.887H623.853" stroke="black" stroke-width="2.54717" stroke-miterlimit="10" stroke-linecap="round"/>
<path d="M718.582 524.462C718.582 548.813 731.343 570.209 750.574 582.258C750.574 582.258 745.098 659.208 799.276 676.63C801.365 677.293 803.504 677.751 805.618 677.929C822.99 679.712 840.056 666.314 831.88 639.594C825.817 619.828 815.96 586.537 809.949 566.159C807.376 557.372 813.948 548.584 823.117 548.584H1117.49" stroke="black" stroke-width="2.54717" stroke-miterlimit="10" stroke-linecap="round"/>
<path d="M765.857 582.258H789.902" stroke="black" stroke-width="2.54717" stroke-miterlimit="10" stroke-linecap="round"/>
<path d="M668.275 566.21L689.111 574.412L668.275 582.614L660.073 603.424L651.871 582.614L631.061 574.412L651.871 566.21L660.073 545.375L668.275 566.21Z" fill="white"/>
<path d="M698.714 519.521L709.081 523.622L698.714 527.697L694.613 538.064L690.538 527.697L680.171 523.622L690.538 519.521L694.613 509.179L698.714 519.521Z" fill="white"/>
<path d="M668.275 248.833L689.111 240.606L668.275 232.404L660.073 211.593L651.871 232.404L631.061 240.606L651.871 248.833L660.073 269.643L668.275 248.833Z" fill="white"/>
<path d="M698.714 295.497L709.081 291.396L698.714 287.321L694.613 276.954L690.538 287.321L680.171 291.396L690.538 295.497L694.613 305.864L698.714 295.497Z" fill="white"/>
<path d="M1070.47 610.735L1087.54 603.985L1070.47 597.26L1063.75 580.194L1057.02 597.26L1039.96 603.985L1057.02 610.735L1063.75 627.801L1070.47 610.735Z" fill="white"/>
<path d="M1054.4 214.905L1070.04 208.715L1054.4 202.551L1048.24 186.911L1042.07 202.551L1026.43 208.715L1042.07 214.905L1048.24 230.544L1054.4 214.905Z" fill="white"/>
<path d="M997.727 233.474L1005.16 230.544L997.727 227.59L994.797 220.152L991.843 227.59L984.405 230.544L991.843 233.474L994.797 240.911L997.727 233.474Z" fill="white"/>
<path d="M1003.89 583.633L1011.33 580.704L1003.89 577.775L1000.96 570.311L998.007 577.775L990.569 580.704L998.007 583.633L1000.96 591.096L1003.89 583.633Z" fill="white"/>
<path d="M514.095 310.322L440.278 236.505V326.624L237.829 124.149V202.271L101.173 65.6151" stroke="url(#paint3_linear_3_444)" stroke-width="20.3774" stroke-miterlimit="10" stroke-linecap="round"/>
<path d="M514.095 499.908L440.278 573.725V483.606L237.829 686.055V607.933L101.173 744.589" stroke="url(#paint4_linear_3_444)" stroke-width="20.3774" stroke-miterlimit="10" stroke-linecap="round"/>
<path d="M378.458 375.02L292.288 288.849V353.802L173.87 235.384" stroke="url(#paint5_linear_3_444)" stroke-width="20.3774" stroke-miterlimit="10" stroke-linecap="round"/>
<path d="M378.458 435.133L292.288 521.304V456.351L173.87 574.769" stroke="url(#paint6_linear_3_444)" stroke-width="20.3774" stroke-miterlimit="10" stroke-linecap="round"/>
<path d="M495.145 345.065L457.396 454.746V345.065H495.145Z" fill="url(#paint7_linear_3_444)"/>
<path d="M635.824 345.065L565.472 454.746L495.144 345.065H635.824Z" fill="url(#paint8_linear_3_444)"/>
<path d="M673.803 345.065V454.746H673.574L635.825 345.065H673.803Z" fill="url(#paint9_linear_3_444)"/>
<path d="M673.803 454.746L565.599 527.875V454.746H673.803Z" fill="url(#paint10_linear_3_444)"/>
<path d="M565.599 454.746V527.875L457.396 454.746H565.599Z" fill="url(#paint11_linear_3_444)"/>
<path d="M565.599 271.961L495.145 345.065H457.396L565.599 271.961Z" fill="url(#paint12_linear_3_444)"/>
<path d="M673.803 345.065H635.825L565.599 271.961L673.803 345.065Z" fill="url(#paint13_linear_3_444)"/>
<path d="M565.472 454.746H457.396L495.145 345.065L565.472 454.746Z" fill="url(#paint14_linear_3_444)"/>
<path d="M673.574 454.746H565.472L635.825 345.065L673.574 454.746Z" fill="url(#paint15_linear_3_444)"/>
<path d="M635.824 345.065H495.144L565.599 271.961L635.824 345.065Z" fill="url(#paint16_linear_3_444)"/>
<path d="M565.599 454.746L472.602 410.553L495.145 345.065L565.599 454.746Z" fill="url(#paint17_linear_3_444)"/>
<path d="M495.144 345.065L600.648 399.906L635.824 345.065H495.144Z" fill="url(#paint18_linear_3_444)"/>
<path d="M635.825 345.065L626.502 454.746H565.599L635.825 345.065Z" fill="url(#paint19_linear_3_444)"/>
<path d="M565.472 527.774L511.446 454.746H457.396L565.472 527.774Z" fill="url(#paint20_linear_3_444)"/>
<path d="M565.599 271.961L594.433 345.065H635.825L565.599 271.961Z" fill="url(#paint21_linear_3_444)"/>
<path d="M673.803 345.065H457.396V454.746H673.803V345.065Z" stroke="black" stroke-width="2.54717" stroke-linecap="round" stroke-linejoin="round"/>
<path d="M457.396 454.746L565.599 527.85L673.803 454.746H457.396Z" stroke="black" stroke-width="2.54717" stroke-linecap="round" stroke-linejoin="round"/>
<path d="M457.396 345.065L565.599 271.961L673.803 345.065H457.396Z" stroke="black" stroke-width="2.54717" stroke-linecap="round" stroke-linejoin="round"/>
<path d="M673.548 454.746L635.825 345.065L565.472 454.746L495.145 345.065L457.396 454.746" stroke="black" stroke-width="2.54717" stroke-linecap="round" stroke-linejoin="round"/>
<path d="M565.599 527.85V454.746" stroke="black" stroke-width="2.54717" stroke-linecap="round" stroke-linejoin="round"/>
<path d="M635.824 345.065L565.599 271.961L495.144 345.065" stroke="black" stroke-width="2.54717" stroke-linecap="round" stroke-linejoin="round"/>
<path d="M497.844 325.477L504.594 346.466L525.558 353.216L504.594 359.966L497.844 380.929L491.094 359.966L470.106 353.216L491.094 346.466L497.844 325.477Z" fill="white"/>
<path d="M585.722 303.597L589.721 316.053L602.202 320.077L589.721 324.102L585.722 336.558L581.697 324.102L569.241 320.077L581.697 316.053L585.722 303.597Z" fill="white"/>
<path d="M626.782 421.786L633.609 443.004L654.826 449.83L633.609 456.657L626.782 477.875L619.956 456.657L598.738 449.83L619.956 443.004L626.782 421.786Z" fill="white"/>
<defs>
<linearGradient id="paint0_linear_3_444" x1="949.508" y1="645.708" x2="949.508" y2="143.915" gradientUnits="userSpaceOnUse">
<stop stop-color="#FF57CB"/>
<stop offset="0.24" stop-color="#746CFF"/>
<stop offset="0.47" stop-color="#72FFFF"/>
<stop offset="0.75" stop-color="#BDFA77"/>
<stop offset="1" stop-color="#FFE460"/>
</linearGradient>
<radialGradient id="paint1_radial_3_444" cx="0" cy="0" r="1" gradientUnits="userSpaceOnUse" gradientTransform="translate(660.914 307.851) scale(86.4764 86.4764)">
<stop stop-color="#BDFA77"/>
<stop offset="1" stop-color="#72FFFF"/>
</radialGradient>
<radialGradient id="paint2_radial_3_444" cx="0" cy="0" r="1" gradientUnits="userSpaceOnUse" gradientTransform="translate(1.27348 501.894) scale(1.27359)">
<stop stop-color="#BDFA77"/>
<stop offset="1" stop-color="#72FFFF"/>
</radialGradient>
<linearGradient id="paint3_linear_3_444" x1="90.9847" y1="203.315" x2="524.284" y2="203.315" gradientUnits="userSpaceOnUse">
<stop stop-color="#FF57CB"/>
<stop offset="0.2" stop-color="#FFE460"/>
<stop offset="0.4" stop-color="#BDFA77"/>
<stop offset="0.6" stop-color="#72FFFF"/>
<stop offset="0.8" stop-color="#746CFF"/>
<stop offset="1" stop-color="#FF57CB"/>
</linearGradient>
<linearGradient id="paint4_linear_3_444" x1="-0.000246267" y1="606.889" x2="2.54692" y2="606.889" gradientUnits="userSpaceOnUse">
<stop stop-color="#FF57CB"/>
<stop offset="0.2" stop-color="#FFE460"/>
<stop offset="0.4" stop-color="#BDFA77"/>
<stop offset="0.6" stop-color="#72FFFF"/>
<stop offset="0.8" stop-color="#746CFF"/>
<stop offset="1" stop-color="#FF57CB"/>
</linearGradient>
<linearGradient id="paint5_linear_3_444" x1="163.681" y1="305.202" x2="388.647" y2="305.202" gradientUnits="userSpaceOnUse">
<stop stop-color="#FFE460"/>
<stop offset="0.32" stop-color="#BDFA77"/>
<stop offset="0.66" stop-color="#72FFFF"/>
<stop offset="1" stop-color="#746CFF"/>
</linearGradient>
<linearGradient id="paint6_linear_3_444" x1="-0.000179659" y1="504.951" x2="2.54699" y2="504.951" gradientUnits="userSpaceOnUse">
<stop stop-color="#FFE460"/>
<stop offset="0.32" stop-color="#BDFA77"/>
<stop offset="0.66" stop-color="#72FFFF"/>
<stop offset="1" stop-color="#746CFF"/>
</linearGradient>
<linearGradient id="paint7_linear_3_444" x1="474.716" y1="356.731" x2="462.948" y2="443.895" gradientUnits="userSpaceOnUse">
<stop stop-color="#70B7E8"/>
<stop offset="1" stop-color="#E2F5FF"/>
</linearGradient>
<linearGradient id="paint8_linear_3_444" x1="486.713" y1="343.995" x2="613.002" y2="405.968" gradientUnits="userSpaceOnUse">
<stop stop-color="#21A6FF"/>
<stop offset="1" stop-color="#B6D4E8"/>
</linearGradient>
<linearGradient id="paint9_linear_3_444" x1="671.944" y1="417.456" x2="655.998" y2="350.032" gradientUnits="userSpaceOnUse">
<stop stop-color="#BFF9FF"/>
<stop offset="1" stop-color="#F3DAF3"/>
</linearGradient>
<linearGradient id="paint10_linear_3_444" x1="556.455" y1="496.596" x2="650.191" y2="442.52" gradientUnits="userSpaceOnUse">
<stop stop-color="#E5F6E7"/>
<stop offset="1" stop-color="#545AFC"/>
</linearGradient>
<linearGradient id="paint11_linear_3_444" x1="475.251" y1="429.096" x2="563.562" y2="491.604" gradientUnits="userSpaceOnUse">
<stop stop-color="#0B66EA"/>
<stop offset="1" stop-color="#F7E8E7"/>
</linearGradient>
<linearGradient id="paint12_linear_3_444" x1="476.219" y1="345.116" x2="558.977" y2="275.4" gradientUnits="userSpaceOnUse">
<stop stop-color="white"/>
<stop offset="1" stop-color="#E5B5F4"/>
</linearGradient>
<linearGradient id="paint13_linear_3_444" x1="657.093" y1="347.026" x2="575.202" y2="276.292" gradientUnits="userSpaceOnUse">
<stop stop-color="#4A59FB"/>
<stop offset="1" stop-color="#E5B5F4"/>
</linearGradient>
<linearGradient id="paint14_linear_3_444" x1="468.603" y1="391.118" x2="545.629" y2="479.53" gradientUnits="userSpaceOnUse">
<stop stop-color="#D7F1E0"/>
<stop offset="1" stop-color="#5A62FB"/>
</linearGradient>
<linearGradient id="paint15_linear_3_444" x1="587.708" y1="392.137" x2="664.531" y2="438.266" gradientUnits="userSpaceOnUse">
<stop stop-color="#43A9FF"/>
<stop offset="1" stop-color="#8DC7EE"/>
</linearGradient>
<linearGradient id="paint16_linear_3_444" x1="542.649" y1="286.302" x2="573.342" y2="365.315" gradientUnits="userSpaceOnUse">
<stop stop-color="#FEEEEA"/>
<stop offset="1" stop-color="#505DFB"/>
</linearGradient>
<linearGradient id="paint17_linear_3_444" x1="560.454" y1="443.946" x2="481.517" y2="375.758" gradientUnits="userSpaceOnUse">
<stop stop-color="#2A33F1"/>
<stop offset="0.1" stop-color="#343EEF" stop-opacity="0.94"/>
<stop offset="0.28" stop-color="#4F5CED" stop-opacity="0.78"/>
<stop offset="0.54" stop-color="#7B8CE9" stop-opacity="0.53"/>
<stop offset="0.84" stop-color="#B6CDE3" stop-opacity="0.19"/>
<stop offset="1" stop-color="#D7F1E0" stop-opacity="0"/>
</linearGradient>
<linearGradient id="paint18_linear_3_444" x1="605.08" y1="379.274" x2="532.027" y2="316.18" gradientUnits="userSpaceOnUse">
<stop stop-color="#A8D0EA" stop-opacity="0"/>
<stop offset="0.1" stop-color="#89BEEC" stop-opacity="0.19"/>
<stop offset="0.23" stop-color="#68ABF0" stop-opacity="0.4"/>
<stop offset="0.36" stop-color="#4C9AF2" stop-opacity="0.59"/>
<stop offset="0.49" stop-color="#358DF5" stop-opacity="0.74"/>
<stop offset="0.62" stop-color="#2382F6" stop-opacity="0.85"/>
<stop offset="0.75" stop-color="#167BF8" stop-opacity="0.93"/>
<stop offset="0.88" stop-color="#0E76F8" stop-opacity="0.98"/>
<stop offset="1" stop-color="#0C75F9"/>
</linearGradient>
<linearGradient id="paint19_linear_3_444" x1="623.7" y1="365.493" x2="599.655" y2="443.131" gradientUnits="userSpaceOnUse">
<stop stop-color="#1C7AF7"/>
<stop offset="0.1" stop-color="#1F7DF7" stop-opacity="0.94"/>
<stop offset="0.28" stop-color="#2785F7" stop-opacity="0.79"/>
<stop offset="0.52" stop-color="#3592F8" stop-opacity="0.54"/>
<stop offset="0.83" stop-color="#47A4FA" stop-opacity="0.21"/>
<stop offset="1" stop-color="#53B0FB" stop-opacity="0"/>
</linearGradient>
<linearGradient id="paint20_linear_3_444" x1="457.396" y1="491.273" x2="565.472" y2="491.273" gradientUnits="userSpaceOnUse">
<stop stop-color="#2D7BEB" stop-opacity="0"/>
<stop offset="0.16" stop-color="#518CE7" stop-opacity="0.19"/>
<stop offset="0.46" stop-color="#95ACE0" stop-opacity="0.53"/>
<stop offset="0.72" stop-color="#C6C4DB" stop-opacity="0.78"/>
<stop offset="0.9" stop-color="#E5D3D8" stop-opacity="0.94"/>
<stop offset="1" stop-color="#F1D9D7"/>
</linearGradient>
<linearGradient id="paint21_linear_3_444" x1="579.761" y1="286.404" x2="613.384" y2="342.187" gradientUnits="userSpaceOnUse">
<stop stop-color="#D3C2DF"/>
<stop offset="0.19" stop-color="#C4BAE2"/>
<stop offset="0.55" stop-color="#9FA6EB"/>
<stop offset="1" stop-color="#688AF8"/>
</linearGradient>
</defs>
</svg>
