<svg width="999" height="534" viewBox="0 0 999 534" fill="none" xmlns="http://www.w3.org/2000/svg">
<g clip-path="url(#clip0_3_646)">
<path d="M920.801 43.4629C876.317 59.3204 844.439 101.808 844.439 151.772V494.229H767.334V151.772C767.334 88.2957 818.784 36.846 882.261 36.846C895.773 36.846 908.752 39.1909 920.801 43.4629Z" fill="url(#paint0_linear_3_646)"/>
<path d="M997.187 151.772V494.229H844.439V151.772C844.439 101.808 876.317 59.3204 920.801 43.463H920.825C965.332 59.3204 997.187 101.831 997.187 151.772Z" fill="black"/>
<path d="M882.261 36.846C945.737 36.846 997.187 88.2957 997.187 151.772V494.229H767.334V151.772C767.334 88.2957 818.784 36.846 882.261 36.846Z" stroke="black" stroke-width="2.32174" stroke-miterlimit="10" stroke-linecap="round"/>
<path d="M920.825 43.463C876.317 59.2972 844.439 101.808 844.439 151.772V494.229H997.187" stroke="black" stroke-width="2.32174" stroke-miterlimit="10" stroke-linecap="round"/>
<path d="M954.351 462.328L969.906 456.198L954.351 450.069L948.221 434.513L942.069 450.069L926.513 456.198L942.069 462.328L948.221 477.884L954.351 462.328Z" fill="white"/>
<path d="M939.7 101.53L953.956 95.911L939.7 90.2924L934.059 76.0369L928.44 90.2924L914.185 95.911L928.44 101.53L934.059 115.785L939.7 101.53Z" fill="white"/>
<path d="M890.967 331.312L905.223 325.67L890.967 320.052L885.349 305.796L879.73 320.052L865.475 325.67L879.73 331.312L885.349 345.568L890.967 331.312Z" fill="white"/>
<path d="M919.176 200.993L926.513 198.114L919.176 195.212L916.297 187.875L913.395 195.212L906.059 198.114L913.395 200.993L916.297 208.33L919.176 200.993Z" fill="white"/>
<path d="M888.019 118.478L894.821 115.785L888.019 113.115L885.349 106.336L882.679 113.115L875.876 115.785L882.679 118.478L885.349 125.258L888.019 118.478Z" fill="white"/>
<path d="M968.466 288.639L975.269 285.945L968.466 283.275L965.796 276.496L963.126 283.275L956.324 285.945L963.126 288.639L965.796 295.418L968.466 288.639Z" fill="white"/>
<path d="M893.661 437.648L900.44 434.978L893.661 432.308L890.968 425.505L888.298 432.308L881.518 434.978L888.298 437.648L890.968 444.45L893.661 437.648Z" fill="white"/>
<path d="M156.369 113.742L175.152 106.336L156.369 98.9294L148.963 80.1465L141.556 98.9294L122.773 106.336L141.556 113.742L148.963 132.502L156.369 113.742Z" fill="white"/>
<path d="M226.949 80.0304L237.095 76.037L226.949 72.0436L222.956 61.9208L218.986 72.0436L208.84 76.037L218.986 80.0304L222.956 90.1532L226.949 80.0304Z" fill="white"/>
<path d="M247.45 251.468L262.263 245.617L247.45 239.766L241.6 224.953L235.749 239.766L220.936 245.617L235.749 251.468L241.6 266.304L247.45 251.468Z" fill="white"/>
<path d="M40.2121 224.837L5.82715 324.811V224.837H40.2121Z" fill="url(#paint1_linear_3_646)"/>
<path d="M168.442 224.837L104.315 324.811L40.2119 224.837H168.442Z" fill="url(#paint2_linear_3_646)"/>
<path d="M203.059 224.837V324.811H202.85L168.441 224.837H203.059Z" fill="url(#paint3_linear_3_646)"/>
<path d="M203.059 324.811L104.432 391.445V324.811H203.059Z" fill="url(#paint4_linear_3_646)"/>
<path d="M104.431 324.811V391.445L5.82715 324.811H104.431Z" fill="url(#paint5_linear_3_646)"/>
<path d="M104.431 158.18L40.2121 224.837H5.82715L104.431 158.18Z" fill="url(#paint6_linear_3_646)"/>
<path d="M203.059 224.837H168.442L104.432 158.18L203.059 224.837Z" fill="url(#paint7_linear_3_646)"/>
<path d="M104.315 324.811H5.82715L40.2121 224.837L104.315 324.811Z" fill="url(#paint8_linear_3_646)"/>
<path d="M202.85 324.811H104.315L168.441 224.837L202.85 324.811Z" fill="url(#paint9_linear_3_646)"/>
<path d="M168.442 224.837H40.2119L104.431 158.18L168.442 224.837Z" fill="url(#paint10_linear_3_646)"/>
<path d="M104.431 324.811L19.6646 284.529L40.2119 224.837L104.431 324.811Z" fill="url(#paint11_linear_3_646)"/>
<path d="M40.2119 224.837L136.378 274.824L168.442 224.837H40.2119Z" fill="url(#paint12_linear_3_646)"/>
<path d="M168.442 224.837L159.944 324.811H104.432L168.442 224.837Z" fill="url(#paint13_linear_3_646)"/>
<path d="M104.315 391.376L55.0712 324.811H5.82715L104.315 391.376Z" fill="url(#paint14_linear_3_646)"/>
<path d="M104.432 158.18L130.714 224.837H168.442L104.432 158.18Z" fill="url(#paint15_linear_3_646)"/>
<path d="M203.082 224.837H5.82715V324.811H203.082V224.837Z" stroke="black" stroke-width="2.32174" stroke-linecap="round" stroke-linejoin="round"/>
<path d="M5.82715 324.811L104.431 391.445L203.059 324.811H5.82715Z" stroke="black" stroke-width="2.32174" stroke-linecap="round" stroke-linejoin="round"/>
<path d="M5.82715 224.837L104.431 158.18L203.059 224.837H5.82715Z" stroke="black" stroke-width="2.32174" stroke-linecap="round" stroke-linejoin="round"/>
<path d="M202.827 324.811L168.442 224.837L104.315 324.811L40.2121 224.837L5.82715 324.811" stroke="black" stroke-width="2.32174" stroke-linecap="round" stroke-linejoin="round"/>
<path d="M104.432 391.445V324.811" stroke="black" stroke-width="2.32174" stroke-linecap="round" stroke-linejoin="round"/>
<path d="M168.442 224.837L104.431 158.18L40.2119 224.837" stroke="black" stroke-width="2.32174" stroke-linecap="round" stroke-linejoin="round"/>
<path d="M42.6729 206.983L48.8255 226.114L67.9334 232.267L48.8255 238.396L42.6729 257.527L36.5203 238.396L17.3892 232.267L36.5203 226.114L42.6729 206.983Z" fill="white"/>
<path d="M122.773 187.016L126.441 198.393L137.794 202.061L126.441 205.706L122.773 217.083L119.128 205.706L107.751 202.061L119.128 198.393L122.773 187.016Z" fill="white"/>
<path d="M160.2 294.768L166.422 314.108L185.762 320.33L166.422 326.553L160.2 345.893L153.977 326.553L134.637 320.33L153.977 314.108L160.2 294.768Z" fill="white"/>
<path d="M649.298 303.73C647.672 303.73 646.047 303.637 644.399 303.428C622.11 300.758 606.229 280.512 608.899 258.247L622.458 145.55C625.152 123.261 645.351 107.404 667.639 110.05C689.928 112.72 705.809 132.966 703.139 155.231L689.58 267.929C687.096 288.569 669.566 303.707 649.298 303.707V303.73Z" fill="#72FFFF" stroke="black" stroke-width="2.32174" stroke-miterlimit="10"/>
<path d="M651.433 302.221C633.091 302.221 616.444 289.707 611.963 271.063L572.726 107.752C567.479 85.9276 580.922 63.9871 602.746 58.7632C624.57 53.5161 646.511 66.959 651.735 88.7833L690.972 252.094C696.219 273.919 682.776 295.859 660.952 301.083C657.771 301.849 654.567 302.221 651.433 302.221Z" fill="#72FFFF" stroke="black" stroke-width="2.32174" stroke-miterlimit="10"/>
<path d="M1119.61 413.78H633.695C581.131 413.78 538.504 371.153 538.504 318.589C538.504 266.025 581.131 223.398 633.695 223.398H1119.61C1172.18 223.398 1214.8 266.025 1214.8 318.589C1214.8 371.153 1172.18 413.78 1119.61 413.78Z" fill="#72FFFF" stroke="black" stroke-width="2.32174" stroke-miterlimit="10"/>
<path d="M598.985 269.74L579.552 211.139L489.886 136.843C472.613 122.518 470.198 96.9093 484.523 79.6356C498.848 62.3619 524.457 59.9473 541.731 74.2724L640.382 156.021C646.256 160.873 650.621 167.281 653.012 174.502L676.113 244.154" fill="#72FFFF"/>
<path d="M598.985 269.74L579.552 211.139L489.886 136.843C472.613 122.518 470.198 96.9093 484.523 79.6356C498.848 62.3619 524.457 59.9473 541.731 74.2724L640.382 156.021C646.256 160.873 650.621 167.281 653.012 174.502L676.113 244.154" stroke="black" stroke-width="2.32174" stroke-miterlimit="10"/>
<path d="M553.804 314.433L538.457 276.775L431.657 294.884C409.531 298.645 388.566 283.74 384.805 261.614C381.044 239.487 395.949 218.522 418.075 214.761L556.985 191.218C575.745 188.038 594.226 198.323 601.4 215.945L635.065 298.576" fill="#72FFFF"/>
<path d="M553.804 314.433L538.457 276.775L431.657 294.884C409.531 298.645 388.566 283.74 384.805 261.614C381.044 239.487 395.949 218.522 418.075 214.761L556.985 191.218C575.745 188.038 594.226 198.323 601.4 215.945L635.065 298.576" stroke="black" stroke-width="2.32174" stroke-miterlimit="10"/>
<path d="M492.278 331.405C482.736 345.8 472.892 356.015 470.268 354.274L269.275 221.192C271.945 222.864 281.766 212.625 291.262 198.3C300.689 184.067 306.261 171.135 303.8 169.162L504.723 302.221C507.37 303.962 501.774 317.057 492.278 331.405Z" fill="white"/>
<path d="M291.262 198.3C281.767 212.625 271.946 222.864 269.276 221.192C269.276 221.169 269.252 221.169 269.252 221.169L184.416 164.983C187.04 166.724 196.907 156.485 206.426 142.114C215.945 127.742 221.517 114.671 218.894 112.929L303.8 169.162C306.261 171.135 300.689 184.067 291.262 198.3Z" fill="url(#paint16_linear_3_646)"/>
<path d="M206.426 142.114C196.907 156.485 187.039 166.724 184.416 164.983C181.769 163.218 187.341 150.17 196.86 135.775C206.379 121.404 216.247 111.165 218.893 112.929C221.517 114.671 215.945 127.742 206.426 142.114Z" fill="black"/>
<path d="M184.416 164.983C181.77 163.241 187.365 150.17 196.884 135.799C206.403 121.427 216.271 111.188 218.894 112.929L504.723 302.221C507.37 303.962 501.775 317.057 492.279 331.405C482.737 345.8 472.892 356.015 470.269 354.274L184.416 164.983ZM184.416 164.983L184.37 164.936" stroke="black" stroke-width="2.32174" stroke-miterlimit="10"/>
<path d="M269.252 221.146C271.899 222.91 281.743 212.648 291.263 198.276C300.782 183.905 306.377 170.834 303.73 169.092" stroke="black" stroke-width="2.32174" stroke-miterlimit="10"/>
<path d="M218.894 112.906C221.541 114.647 215.945 127.719 206.426 142.09C196.907 156.462 187.04 166.701 184.416 164.96" stroke="black" stroke-width="2.32174" stroke-miterlimit="10"/>
<path d="M621.623 395.137C614.518 406.072 602.306 413.409 588.283 413.688L480.763 415.731C480.508 415.731 480.252 415.731 479.997 415.731C466.717 415.731 454.272 409.253 446.657 398.341L410.507 346.473C397.668 328.062 402.195 302.732 420.607 289.916C439.018 277.076 464.348 281.604 477.164 300.015L500.893 334.075L561.769 333.239" fill="#72FFFF"/>
<path d="M621.623 395.137C614.518 406.072 602.306 413.409 588.283 413.687L480.763 415.731C480.508 415.731 480.252 415.731 479.997 415.731C466.717 415.731 454.272 409.253 446.657 398.341L410.507 346.473C397.668 328.062 402.195 302.732 420.607 289.916C439.018 277.076 464.348 281.604 477.164 300.015L500.893 334.075L561.769 333.239" stroke="black" stroke-width="2.32174" stroke-miterlimit="10"/>
</g>
<defs>
<linearGradient id="paint0_linear_3_646" x1="844.068" y1="494.229" x2="844.068" y2="36.846" gradientUnits="userSpaceOnUse">
<stop stop-color="#FF57CB"/>
<stop offset="0.24" stop-color="#746CFF"/>
<stop offset="0.47" stop-color="#72FFFF"/>
<stop offset="0.75" stop-color="#BDFA77"/>
<stop offset="1" stop-color="#FFE460"/>
</linearGradient>
<linearGradient id="paint1_linear_3_646" x1="21.5918" y1="235.448" x2="10.8653" y2="314.897" gradientUnits="userSpaceOnUse">
<stop stop-color="#70B7E8"/>
<stop offset="1" stop-color="#E2F5FF"/>
</linearGradient>
<linearGradient id="paint2_linear_3_646" x1="32.527" y1="223.839" x2="147.639" y2="280.35" gradientUnits="userSpaceOnUse">
<stop stop-color="#21A6FF"/>
<stop offset="1" stop-color="#B6D4E8"/>
</linearGradient>
<linearGradient id="paint3_linear_3_646" x1="201.364" y1="290.798" x2="186.83" y2="229.365" gradientUnits="userSpaceOnUse">
<stop stop-color="#BFF9FF"/>
<stop offset="1" stop-color="#F3DAF3"/>
</linearGradient>
<linearGradient id="paint4_linear_3_646" x1="96.0966" y1="362.934" x2="181.537" y2="313.667" gradientUnits="userSpaceOnUse">
<stop stop-color="#E5F6E7"/>
<stop offset="1" stop-color="#545AFC"/>
</linearGradient>
<linearGradient id="paint5_linear_3_646" x1="22.0793" y1="301.408" x2="102.574" y2="358.407" gradientUnits="userSpaceOnUse">
<stop stop-color="#0B66EA"/>
<stop offset="1" stop-color="#F7E8E7"/>
</linearGradient>
<linearGradient id="paint6_linear_3_646" x1="22.9616" y1="224.884" x2="98.3949" y2="161.338" gradientUnits="userSpaceOnUse">
<stop stop-color="white"/>
<stop offset="1" stop-color="#E5B5F4"/>
</linearGradient>
<linearGradient id="paint7_linear_3_646" x1="187.829" y1="226.625" x2="113.208" y2="162.15" gradientUnits="userSpaceOnUse">
<stop stop-color="#4A59FB"/>
<stop offset="1" stop-color="#E5B5F4"/>
</linearGradient>
<linearGradient id="paint8_linear_3_646" x1="16.0196" y1="266.791" x2="86.229" y2="347.379" gradientUnits="userSpaceOnUse">
<stop stop-color="#D7F1E0"/>
<stop offset="1" stop-color="#5A62FB"/>
</linearGradient>
<linearGradient id="paint9_linear_3_646" x1="124.584" y1="267.743" x2="194.607" y2="309.79" gradientUnits="userSpaceOnUse">
<stop stop-color="#43A9FF"/>
<stop offset="1" stop-color="#8DC7EE"/>
</linearGradient>
<linearGradient id="paint10_linear_3_646" x1="83.5356" y1="171.275" x2="111.489" y2="243.272" gradientUnits="userSpaceOnUse">
<stop stop-color="#FEEEEA"/>
<stop offset="1" stop-color="#505DFB"/>
</linearGradient>
<linearGradient id="paint11_linear_3_646" x1="99.7413" y1="314.967" x2="27.7906" y2="252.814" gradientUnits="userSpaceOnUse">
<stop stop-color="#2A33F1"/>
<stop offset="0.1" stop-color="#343EEF" stop-opacity="0.94"/>
<stop offset="0.28" stop-color="#4F5CED" stop-opacity="0.78"/>
<stop offset="0.54" stop-color="#7B8CE9" stop-opacity="0.53"/>
<stop offset="0.84" stop-color="#B6CDE3" stop-opacity="0.19"/>
<stop offset="1" stop-color="#D7F1E0" stop-opacity="0"/>
</linearGradient>
<linearGradient id="paint12_linear_3_646" x1="140.418" y1="256.018" x2="73.8307" y2="198.485" gradientUnits="userSpaceOnUse">
<stop stop-color="#A8D0EA" stop-opacity="0"/>
<stop offset="0.1" stop-color="#89BEEC" stop-opacity="0.19"/>
<stop offset="0.23" stop-color="#68ABF0" stop-opacity="0.4"/>
<stop offset="0.36" stop-color="#4C9AF2" stop-opacity="0.59"/>
<stop offset="0.49" stop-color="#358DF5" stop-opacity="0.74"/>
<stop offset="0.62" stop-color="#2382F6" stop-opacity="0.85"/>
<stop offset="0.75" stop-color="#167BF8" stop-opacity="0.93"/>
<stop offset="0.88" stop-color="#0E76F8" stop-opacity="0.98"/>
<stop offset="1" stop-color="#0C75F9"/>
</linearGradient>
<linearGradient id="paint13_linear_3_646" x1="157.414" y1="243.458" x2="135.473" y2="314.224" gradientUnits="userSpaceOnUse">
<stop stop-color="#1C7AF7"/>
<stop offset="0.1" stop-color="#1F7DF7" stop-opacity="0.94"/>
<stop offset="0.28" stop-color="#2785F7" stop-opacity="0.79"/>
<stop offset="0.52" stop-color="#3592F8" stop-opacity="0.54"/>
<stop offset="0.83" stop-color="#47A4FA" stop-opacity="0.21"/>
<stop offset="1" stop-color="#53B0FB" stop-opacity="0"/>
</linearGradient>
<linearGradient id="paint14_linear_3_646" x1="5.82715" y1="358.082" x2="104.315" y2="358.082" gradientUnits="userSpaceOnUse">
<stop stop-color="#2D7BEB" stop-opacity="0"/>
<stop offset="0.16" stop-color="#518CE7" stop-opacity="0.19"/>
<stop offset="0.46" stop-color="#95ACE0" stop-opacity="0.53"/>
<stop offset="0.72" stop-color="#C6C4DB" stop-opacity="0.78"/>
<stop offset="0.9" stop-color="#E5D3D8" stop-opacity="0.94"/>
<stop offset="1" stop-color="#F1D9D7"/>
</linearGradient>
<linearGradient id="paint15_linear_3_646" x1="117.341" y1="171.368" x2="147.987" y2="222.214" gradientUnits="userSpaceOnUse">
<stop stop-color="#D3C2DF"/>
<stop offset="0.19" stop-color="#C4BAE2"/>
<stop offset="0.55" stop-color="#9FA6EB"/>
<stop offset="1" stop-color="#688AF8"/>
</linearGradient>
<linearGradient id="paint16_linear_3_646" x1="200.25" y1="139.653" x2="292.121" y2="197.069" gradientUnits="userSpaceOnUse">
<stop stop-color="#BDFA77"/>
<stop offset="0.48" stop-color="#74FFFC"/>
<stop offset="1" stop-color="#6F7FF5"/>
</linearGradient>
<clipPath id="clip0_3_646">
<rect width="998.348" height="534" fill="white"/>
</clipPath>
</defs>
</svg>
