<svg width="140" height="139" viewBox="0 0 140 139" fill="none" xmlns="http://www.w3.org/2000/svg">
<rect width="236" height="32" transform="translate(22.6274 -51) rotate(45)" fill="#726FF7"/>
<path d="M69.2201 20.72L70.1026 19.8375L71.9354 21.6703C72.6519 22.3869 73.327 22.7904 73.9605 22.8809C74.6017 22.9639 75.2277 22.6999 75.8386 22.0889C76.4043 21.5233 76.657 20.9312 76.5966 20.3127C76.5514 19.6942 76.1818 19.038 75.4879 18.3441L73.5419 16.3981L74.4018 15.5383L76.3704 17.5069C76.8606 17.9971 77.2377 18.4874 77.5017 18.9777C77.7733 19.4755 77.9317 19.9657 77.9769 20.4485C78.0222 20.9312 77.9505 21.4026 77.7619 21.8627C77.5885 22.3228 77.2905 22.764 76.8682 23.1864C76.31 23.7445 75.7104 24.0877 75.0693 24.2159C74.4282 24.3441 73.7569 24.2612 73.0554 23.967C72.3615 23.6653 71.6525 23.1524 70.9285 22.4283L69.2201 20.72ZM66.3804 22.451L73.8474 14.9839L74.8883 16.0248L67.4212 23.4918L66.3804 22.451ZM76.3922 32.757C75.8491 32.2139 75.4607 31.6445 75.2269 31.0486C75.0006 30.4603 74.9139 29.8531 74.9667 29.2271C75.027 28.6086 75.2193 27.9939 75.5437 27.383C75.8755 26.7645 76.3356 26.1611 76.9239 25.5728C77.7838 24.7129 78.6436 24.1397 79.5035 23.8531C80.3708 23.5589 81.2043 23.5174 82.0038 23.7286C82.8033 23.9398 83.5236 24.366 84.1647 25.0071C84.6701 25.5124 85.0396 26.0555 85.2735 26.6363C85.5073 27.217 85.5978 27.8204 85.545 28.4464C85.4997 29.08 85.3112 29.7211 84.9793 30.3698C84.655 31.0109 84.1836 31.6407 83.5651 32.2592C82.9843 32.8399 82.3809 33.2925 81.7549 33.6168C81.144 33.9411 80.5255 34.1297 79.8994 34.1825C79.2885 34.2353 78.6851 34.1448 78.0893 33.911C77.5009 33.6847 76.9353 33.3 76.3922 32.757ZM77.2973 31.8745C77.78 32.3572 78.3004 32.6514 78.8586 32.757C79.4318 32.8626 80.0201 32.7871 80.6235 32.5307C81.242 32.2743 81.8605 31.8368 82.479 31.2183C83.1201 30.5772 83.5726 29.9436 83.8366 29.3176C84.1081 28.684 84.1949 28.0769 84.0968 27.4961C83.9988 26.9153 83.7084 26.3836 83.2257 25.9009C82.7656 25.4408 82.2489 25.1579 81.6757 25.0523C81.1025 24.9467 80.5028 25.0259 79.8768 25.2899C79.2508 25.5539 78.6135 26.0102 77.9648 26.6589C77.4972 27.1265 77.1276 27.5941 76.8561 28.0618C76.5996 28.5294 76.4374 28.9857 76.3696 29.4307C76.3168 29.8757 76.3658 30.3019 76.5166 30.7092C76.675 31.124 76.9353 31.5125 77.2973 31.8745ZM84.3897 35.8896L85.2722 35.0072L87.105 36.84C87.8216 37.5565 88.4966 37.96 89.1302 38.0505C89.7713 38.1335 90.3973 37.8695 91.0083 37.2586C91.574 36.6929 91.8266 36.1008 91.7663 35.4823C91.721 34.8639 91.3515 34.2077 90.6575 33.5137L88.7116 31.5678L89.5714 30.708L91.54 32.6765C92.0303 33.1668 92.4074 33.6571 92.6714 34.1473C92.9429 34.6451 93.1013 35.1354 93.1466 35.6181C93.1918 36.1008 93.1202 36.5722 92.9316 37.0323C92.7581 37.4924 92.4602 37.9336 92.0378 38.356C91.4797 38.9142 90.88 39.2573 90.2389 39.3856C89.5978 39.5138 88.9265 39.4308 88.2251 39.1367C87.5312 38.835 86.8222 38.3221 86.0981 37.598L84.3897 35.8896ZM81.55 37.6206L89.0171 30.1536L90.0579 31.1944L82.5909 38.6615L81.55 37.6206ZM91.529 47.8937C91.1217 47.4864 90.7973 47.0716 90.556 46.6492C90.3071 46.2344 90.1411 45.8196 90.0582 45.4047C89.9828 44.9823 89.979 44.5637 90.0469 44.1489C90.1223 43.7416 90.2694 43.3381 90.4881 42.9383C90.7144 42.5461 91.0161 42.1615 91.3932 41.7843L96.0205 37.157L97.0614 38.1979L92.468 42.7913C92.0155 43.2438 91.7138 43.7039 91.5629 44.1715C91.4196 44.6316 91.4234 45.0955 91.5742 45.5631C91.7251 46.0307 92.0268 46.4908 92.4793 46.9434C92.9469 47.411 93.407 47.7203 93.8596 47.8711C94.3272 48.022 94.7911 48.0182 95.2512 47.8598C95.7188 47.7089 96.1789 47.4072 96.6314 46.9547L101.225 42.3613L102.254 43.3909L97.6271 48.0182C96.6767 48.9685 95.6773 49.4399 94.6289 49.4324C93.5805 49.4249 92.5472 48.912 91.529 47.8937ZM96.6865 52.7571L104.154 45.2901L105.194 46.3309L97.7274 53.798L96.6865 52.7571ZM97.0259 53.0965L97.931 52.1914L102.117 56.3775L101.212 57.2826L97.0259 53.0965ZM102.108 58.1782L112.199 53.3359L113.715 54.8519L108.873 64.9438L107.753 63.8237L112.154 55.033L112.018 54.8972L103.228 59.2982L102.108 58.1782ZM105.026 57.7482L105.818 56.9563L110.219 61.3573L109.428 62.1493L105.026 57.7482ZM110.177 66.2474L117.644 58.7804L120.246 61.3825C120.623 61.7596 120.936 62.133 121.185 62.5026C121.441 62.8797 121.63 63.2493 121.751 63.6113C121.879 63.9809 121.939 64.3354 121.932 64.6748C121.932 65.0217 121.856 65.3536 121.705 65.6704C121.57 65.9872 121.362 66.2851 121.083 66.5642C120.819 66.8282 120.536 67.028 120.235 67.1638C119.941 67.3071 119.631 67.3825 119.307 67.3901C118.983 67.3976 118.651 67.3373 118.311 67.2091C117.979 67.0733 117.64 66.8697 117.293 66.5981L117.146 66.7452C117.387 67.0469 117.553 67.3561 117.644 67.6729C117.734 67.9897 117.742 68.3291 117.666 68.6912C117.599 69.0457 117.44 69.453 117.191 69.913L115.992 72.0626L114.872 70.9426L116.015 69.0306C116.256 68.6535 116.388 68.2876 116.411 67.9331C116.441 67.5862 116.38 67.2468 116.23 66.9149C116.079 66.583 115.841 66.2549 115.517 65.9306L114.046 64.4598L111.218 67.2883L110.177 66.2474ZM114.895 63.6113L116.365 65.0821C117.037 65.7534 117.663 66.138 118.243 66.2361C118.832 66.3417 119.375 66.1456 119.873 65.6478C120.37 65.15 120.57 64.6182 120.472 64.0525C120.389 63.4869 120.005 62.8608 119.318 62.1745L117.825 60.6811L114.895 63.6113Z" fill="#CBFB45"/>
</svg>
