<svg width="1440" height="1021" viewBox="0 0 1440 1021" fill="none" xmlns="http://www.w3.org/2000/svg">
<path d="M943.745 329.485C945.505 318.965 946.43 307.906 946.43 296.255C946.43 289.936 946.032 283.719 945.274 277.605L970.373 286.493C972.531 242.525 990.732 211.864 1015.11 187.112L975.498 153.998C975.498 153.998 948.703 149.181 941.009 130.787C941.009 130.787 940.971 130.094 941.048 128.912C938.89 127.949 936.706 127.127 934.484 126.42C934.78 114.513 930.721 102.297 926.43 91.7389C926.251 91.3022 926.071 90.8783 925.891 90.4544C920.535 78.2004 911.338 70.0695 904.812 81.6684C903.438 84.109 901.987 87.1404 900.497 90.5057C899.572 92.6252 898.634 94.8859 897.696 97.2236C893.47 107.769 889.334 119.921 886.508 128.334C871.107 134.589 857.762 146.355 849.798 162.887L836.066 191.377L818.071 228.743C817.3 230.335 816.44 231.864 815.476 233.328C815.463 233.328 815.463 233.341 815.45 233.341C808.514 243.797 796.633 250.695 783.145 250.695C783.004 250.695 782.863 250.694 782.734 250.682C808.27 272.338 839.149 292.363 882.18 306.172C882.18 306.172 854.948 329.164 805.38 330.256C805.38 330.256 797.339 372.04 732.961 369.497C732.961 369.497 728.234 402.585 684.445 408.109C640.207 413.683 593.478 364.821 562.586 337.256C559.696 338.361 556.767 339.44 553.8 340.493C552.156 342.253 550.601 344.141 549.163 346.158L525.657 378.938L508.2 403.279L496.422 396.022C488.06 410.896 472.659 404.307 464.836 420.812C456.731 437.909 472.98 445.616 464.862 462.725C457.052 479.205 441.702 472.667 433.328 487.439L499.98 524.702C503.075 526.282 506.248 527.566 509.472 528.53C531.964 535.286 556.818 527.245 570.922 507.567L590.87 479.758C647.388 498.871 701.927 499.616 744.341 493.116C783.595 487.118 829.683 471.229 862.938 449.456C866.586 449.521 870.298 449.187 874.023 448.429L891.775 444.845L893.201 435.648C909.591 438.577 908.191 455.429 925.737 457.446C943.848 459.54 945.903 441.672 964.014 443.766C980.058 445.616 980.263 459.861 992.723 464.511L1004.59 387.724C1007.16 371.115 1001.46 354.301 989.306 342.702C977.181 331.129 960.174 326.197 943.732 329.485H943.745ZM926.43 189.399C926.43 175.77 935.512 164.582 947.149 163.298C947.894 163.208 948.639 163.169 949.397 163.169C952.634 163.169 955.717 163.94 958.504 165.314C961.587 166.843 964.31 169.104 966.519 171.93C968.6 174.588 970.219 177.748 971.208 181.216C971.953 183.785 972.351 186.534 972.351 189.399C972.351 203.901 962.075 215.641 949.397 215.641C936.719 215.641 926.43 203.901 926.43 189.399Z" fill="white"/>
<path d="M944.311 130.416C941.099 128.823 937.824 127.487 934.484 126.421C934.78 114.514 930.721 102.298 926.431 91.7396C926.251 91.3028 926.071 90.879 925.891 90.4551C932.146 91.2258 938.312 92.5745 944.311 94.4755C944.311 94.4755 951.979 113.101 944.311 130.416Z" fill="#FFBCEE"/>
<path d="M511.463 241.408L504.809 242.333C503.435 242.333 502.112 243.72 500.917 246.25C501.251 241.999 500.442 236.116 498.592 229L510.679 211.158C510.101 215.32 509.806 219.584 509.806 223.9C509.806 229.886 510.371 235.73 511.463 241.408Z" fill="#4D4D4D"/>
<path d="M500.917 246.251C500.147 247.856 499.415 249.937 498.747 252.403C498.438 252.725 498.092 252.994 497.719 253.213C494.867 254.857 490.41 253.354 484.848 249.282L485.414 248.447L496.91 231.479L498.592 229C500.442 236.116 501.251 241.999 500.917 246.251Z" fill="black"/>
<path d="M642.674 16.3648L633.078 30.5327L615.314 56.7492L556.664 143.298C532.182 157.26 514.674 182.064 510.679 211.158L498.592 228.999L496.91 231.478L485.414 248.446L484.848 249.281L472.851 266.982C472.17 266.224 471.323 265.607 470.334 265.171L455.061 258.491C454.714 258.337 454.367 258.221 454.021 258.131L469.152 235.807L469.743 234.934L490.243 204.697L490.269 204.658L604.704 35.7606L625.667 4.8301C628.852 0.128871 635.236 -1.0914 639.938 2.09413C644.639 5.26682 645.859 11.6636 642.674 16.3648Z" fill="#B3B3B3"/>
<path d="M448.125 303.486L442.974 311.078L378.827 405.744C376.836 408.686 373.599 410.266 370.31 410.266C368.332 410.266 366.316 409.688 364.556 408.493C359.855 405.308 358.634 398.924 361.807 394.223L418.145 311.078L428.96 295.111L448.125 303.486Z" fill="#B3B3B3"/>
<path d="M778.213 179.342C778.213 194.345 776.363 208.898 772.895 222.822C770.801 209.065 767.308 195.758 762.555 183.067C762.17 182.001 761.759 180.935 761.335 179.894C737.251 118.598 683.88 72.0355 618.435 57.418C617.395 57.1868 616.354 56.9684 615.314 56.75L633.078 30.5336C634.928 30.8033 636.816 30.9446 638.743 30.9446C651.716 30.9446 663.225 24.702 670.47 15.0684C729.916 40.8995 772.613 98.0592 777.699 165.7C777.892 168.295 778.033 170.89 778.11 173.51C778.187 175.45 778.213 177.389 778.213 179.342Z" fill="#F2F2F2"/>
<path d="M604.704 35.7611L490.269 204.659L490.243 204.684C484.36 190.272 476.242 173.78 466.403 156.722C439.082 109.414 408.781 75.7216 398.582 81.3091C400.367 80.1916 429.461 62.2858 456.101 55.311C478.529 49.4409 494.431 47.116 511.245 58.4966C538.18 36.0052 578.629 31.3553 604.704 35.7611Z" fill="#4D4D4D"/>
<path d="M490.243 204.684L469.743 234.934C460.88 225.005 450.925 211.672 440.945 196.129C437.219 190.323 433.494 184.209 429.821 177.851C402.423 130.389 388.396 87.1918 398.492 81.3602C398.518 81.3474 398.556 81.3217 398.582 81.3088C408.781 75.7213 439.082 109.413 466.403 156.721C476.242 173.779 484.36 190.272 490.243 204.684Z" fill="black"/>
<path d="M469.743 234.933L469.152 235.807L454.021 258.131C453.391 257.964 452.762 257.874 452.132 257.874C449.307 257.874 446.609 259.518 445.402 262.28C444.31 264.785 444.721 267.572 446.25 269.602L445.71 270.411L440.148 267.983C439.198 267.572 438.196 267.367 437.22 267.367C434.394 267.367 431.696 269.011 430.489 271.772C428.896 275.42 430.515 279.659 434.098 281.342L427.92 278.645C426.969 278.233 425.967 278.028 424.991 278.028C422.165 278.028 419.481 279.672 418.273 282.434C416.642 286.146 418.338 290.462 422.05 292.093L428.96 295.112L418.145 311.078H396.899C401.421 311.078 405.082 285.35 405.082 253.61C405.082 249.628 405.03 245.749 404.915 241.998C404.568 229.898 403.669 219.186 402.41 211.157C400.958 201.832 399.032 196.129 396.899 196.129H440.945C450.925 211.671 460.88 225.004 469.743 234.933Z" fill="#4D4D4D"/>
<path d="M402.41 211.157H402.294C397.863 211.157 394.086 213.881 392.494 217.721C391.928 217.22 391.312 216.796 390.67 216.462C392.16 204.029 394.407 196.129 396.899 196.129C399.032 196.129 400.958 201.832 402.41 211.157Z" fill="black"/>
<path d="M405.082 253.609C405.082 285.349 401.421 311.077 396.899 311.077C392.378 311.077 388.73 285.349 388.73 253.609C388.73 247.392 388.871 241.419 389.141 235.819L391.8 233.16C392.494 238.337 396.925 242.331 402.294 242.331C403.206 242.331 404.08 242.216 404.915 241.997C405.03 245.748 405.082 249.627 405.082 253.609Z" fill="black"/>
<path d="M474.123 274.83C474.007 275.1 473.866 275.37 473.725 275.614C472.376 277.887 469.935 279.223 467.405 279.223C466.994 279.223 466.57 279.185 466.159 279.108C465.722 279.043 465.298 278.928 464.875 278.761C464.733 278.722 464.605 278.671 464.464 278.607L449.178 271.927C447.971 271.401 446.982 270.591 446.249 269.602C444.721 267.573 444.31 264.786 445.402 262.281C446.609 259.519 449.307 257.875 452.132 257.875C452.762 257.875 453.391 257.965 454.021 258.132C454.367 258.222 454.714 258.337 455.061 258.492L470.334 265.171C471.323 265.608 472.17 266.224 472.851 266.982C474.714 269.05 475.305 272.107 474.123 274.83Z" fill="white"/>
<path d="M470.488 289.242C469.28 292.004 466.583 293.648 463.757 293.648C462.807 293.648 461.843 293.455 460.918 293.07L460.829 293.031L449.217 287.945L437.335 282.768L434.278 281.432L434.098 281.342C430.515 279.66 428.896 275.421 430.489 271.773C431.696 269.011 434.394 267.367 437.22 267.367C438.196 267.367 439.198 267.573 440.148 267.984L445.71 270.411L449.178 271.927L464.464 278.606L464.862 278.773L465.851 279.21L466.699 279.583C470.411 281.214 472.106 285.53 470.488 289.242Z" fill="white"/>
<path d="M467.944 302.471C467.842 302.972 467.688 303.46 467.482 303.935C466.275 306.697 463.577 308.341 460.751 308.341C459.775 308.341 458.773 308.136 457.823 307.725L448.125 303.486L428.96 295.111L422.05 292.092C418.337 290.461 416.642 286.145 418.273 282.433C419.481 279.671 422.165 278.027 424.991 278.027C425.967 278.027 426.969 278.233 427.92 278.644L434.098 281.341L434.278 281.431L437.335 282.767L449.204 287.956L460.828 293.03L460.918 293.069L463.693 294.276C466.93 295.702 468.625 299.144 467.944 302.471Z" fill="white"/>
<path d="M515.445 298.811C515.445 299.479 515.445 300.16 515.432 300.815H493.185C489.614 300.815 486.505 298.875 484.848 295.985V286.39C485.272 285.658 485.786 284.977 486.377 284.386C488.124 282.639 490.526 281.561 493.185 281.561H514.944C515.265 286.994 515.445 292.8 515.445 298.811Z" fill="white"/>
<path d="M484.848 284.477V297.9C484.848 302.909 480.789 306.968 475.78 306.968C472.44 306.968 469.525 305.183 467.945 302.485C468.625 299.146 466.93 295.703 463.693 294.277L460.918 293.07C461.843 293.455 462.807 293.648 463.757 293.648C466.583 293.648 469.28 292.004 470.488 289.242C472.106 285.53 470.411 281.214 466.699 279.583L465.851 279.21C465.954 279.172 466.056 279.133 466.159 279.108C466.57 279.185 466.994 279.223 467.405 279.223C469.936 279.223 472.376 277.887 473.725 275.614L473.763 275.639C474.418 275.485 475.086 275.408 475.78 275.408C477.476 275.408 479.055 275.871 480.404 276.693H480.417C481.059 277.065 481.663 277.54 482.19 278.067C483.834 279.698 484.848 281.972 484.848 284.477Z" fill="white"/>
<path d="M494.444 311.079H442.974L448.125 303.488L457.823 307.727C458.773 308.138 459.775 308.343 460.751 308.343C463.577 308.343 466.275 306.699 467.482 303.937C467.688 303.462 467.842 302.974 467.945 302.486C469.525 305.183 472.44 306.969 475.78 306.969C480.789 306.969 484.848 302.91 484.848 297.9V295.986C486.505 298.876 489.614 300.816 493.185 300.816H494.2C494.2 304.336 494.302 307.765 494.444 311.079Z" fill="#4D4D4D"/>
<path d="M381.871 216.347C380.933 216.797 380.06 217.413 379.276 218.197L365.031 232.442H329.233C325.996 232.442 323.17 230.669 321.68 228.049C320.948 226.777 320.524 225.3 320.524 223.733C320.524 222.166 320.948 220.689 321.68 219.417C322.052 218.749 322.527 218.133 323.067 217.58C324.647 216.013 326.818 215.037 329.233 215.037H377.298C378.981 215.037 380.548 215.512 381.871 216.347Z" fill="white"/>
<path d="M320.524 223.733C320.524 225.3 320.948 226.777 321.68 228.049C321.307 228.73 320.832 229.346 320.292 229.886C318.713 231.466 316.542 232.442 314.14 232.442H293.524C288.72 232.442 284.815 228.537 284.815 223.733C284.815 221.331 285.791 219.16 287.371 217.58C288.951 216.013 291.122 215.037 293.524 215.037H314.14C317.377 215.037 320.19 216.797 321.68 219.417C320.948 220.689 320.524 222.166 320.524 223.733Z" fill="white"/>
<path d="M337.993 261.831C336.092 263.732 335.141 266.212 335.141 268.703C335.141 270.45 335.603 272.184 336.541 273.713C335.359 274.278 334.075 274.574 332.765 274.574C331.288 274.574 329.798 274.201 328.423 273.405L318.725 267.817C314.564 265.415 313.138 260.085 315.54 255.923C316.863 253.624 319.085 252.159 321.513 251.722C322.026 251.62 322.553 251.568 323.08 251.568C324.557 251.568 326.06 251.941 327.421 252.737L334.229 256.668L337.119 258.338C338.044 258.877 338.84 259.558 339.483 260.341L337.993 261.831Z" fill="white"/>
<path d="M362.128 261.15C362.128 263.629 361.191 266.121 359.29 268.022L351.737 275.575C347.935 279.364 341.782 279.364 337.993 275.575C337.415 274.997 336.939 274.38 336.541 273.712C335.604 272.184 335.141 270.45 335.141 268.703C335.141 266.211 336.092 263.732 337.993 261.831L339.483 260.341L345.545 254.278C347.1 252.724 349.039 251.812 351.056 251.529C351.274 253.662 352.199 255.73 353.843 257.374C356.091 259.609 359.161 260.534 362.077 260.11C362.115 260.456 362.128 260.803 362.128 261.15Z" fill="white"/>
<path d="M395.872 225.068C395.872 227.547 394.921 230.039 393.02 231.94L391.8 233.161L389.141 235.819L367.587 257.373C366.033 258.927 364.093 259.839 362.077 260.109C359.161 260.533 356.091 259.608 353.843 257.373C352.199 255.729 351.274 253.661 351.056 251.529C351.017 251.182 351.005 250.848 351.005 250.501C351.005 248.022 351.942 245.53 353.843 243.629L379.276 218.196C380.06 217.413 380.933 216.796 381.871 216.347C384.645 214.985 387.934 215.024 390.67 216.462C391.312 216.796 391.928 217.22 392.494 217.721C392.673 217.862 392.853 218.029 393.02 218.196C394.921 220.097 395.872 222.576 395.872 225.068Z" fill="white"/>
<path d="M346.188 241.998L337.44 253.931C336.58 255.126 335.462 256.05 334.229 256.667L327.421 252.736C326.06 251.94 324.557 251.567 323.08 251.567C322.553 251.567 322.026 251.619 321.513 251.722C320.472 248.934 320.819 245.697 322.707 243.116L330.53 232.441H346.958C348.487 235.421 348.307 239.121 346.188 241.998Z" fill="white"/>
<path d="M404.915 241.999C404.08 242.217 403.206 242.333 402.294 242.333C396.925 242.333 392.494 238.338 391.8 233.161L393.02 231.941C394.921 230.04 395.872 227.548 395.872 225.069C395.872 222.59 394.921 220.098 393.02 218.197C392.853 218.03 392.673 217.863 392.494 217.735C394.086 213.881 397.863 211.158 402.294 211.158H402.41C403.669 219.186 404.568 229.899 404.915 241.999Z" fill="white"/>
<path d="M515.432 300.814C515.419 304.334 515.329 307.764 515.188 311.078C514.186 335.354 510.23 353.748 505.426 355.187C505.387 355.2 505.336 355.213 505.297 355.225C505.13 355.264 504.976 355.29 504.809 355.29C499.736 355.29 495.497 336.369 494.444 311.078C494.302 307.764 494.212 304.334 494.199 300.814H515.432Z" fill="black"/>
<path d="M618.435 57.418C618.088 65.8442 615.725 76.7238 608.724 89.376C600.003 105.137 595.584 118.662 594.3 131.533C580.697 132.728 567.942 136.864 556.664 143.299L615.314 56.75C616.354 56.9684 617.395 57.1868 618.435 57.418Z" fill="#333333"/>
<path d="M882.18 306.171C882.18 306.171 854.948 329.163 805.38 330.255C805.38 330.255 797.339 372.039 732.96 369.496C732.96 369.496 728.233 402.585 684.445 408.108C640.207 413.683 593.478 364.821 562.586 337.255C544.667 344.05 525.374 349.959 505.426 355.187C510.23 353.748 514.186 335.354 515.188 311.077C515.329 307.764 515.419 304.334 515.432 300.814C515.445 300.159 515.445 299.479 515.445 298.811C515.445 292.799 515.265 286.993 514.944 281.56C513.57 258.799 509.562 242.332 504.809 242.332L511.463 241.407C510.371 235.729 509.806 229.885 509.806 223.899C509.806 219.583 510.101 215.319 510.679 211.157C514.674 182.063 532.182 157.26 556.664 143.297C567.942 136.862 580.697 132.726 594.3 131.544C597.01 131.3 599.759 131.172 602.533 131.172C606.528 131.172 610.471 131.429 614.338 131.917C618.628 132.611 622.764 133.433 626.772 134.383C626.81 134.396 626.862 134.409 626.9 134.409C679.885 146.856 710.161 179.52 744.469 214.381C745.715 234.509 762.324 250.475 782.734 250.681C808.27 272.337 839.149 292.362 882.18 306.171Z" fill="#4D4D4D"/>
<path d="M1036.78 205.223L1015.11 187.111C990.732 211.863 972.531 242.524 970.373 286.492L987.045 292.401C1010.72 300.789 1036.96 290.705 1048.92 268.625C1053.07 260.957 1055.07 252.62 1055.07 244.374C1055.07 229.654 1048.7 215.19 1036.78 205.223Z" fill="#D7DCFF"/>
<path d="M1035.23 254.677C1036.52 254.677 1037.59 251.928 1037.59 248.55C1037.59 245.172 1036.52 242.436 1035.23 242.436C1033.93 242.436 1032.86 245.172 1032.86 248.55C1032.86 251.928 1033.92 254.677 1035.23 254.677Z" fill="#D7DCFF"/>
<path d="M498.746 252.403C496.858 259.403 495.407 269.615 494.687 281.56H493.185C490.526 281.56 488.124 282.639 486.377 284.386C485.786 284.977 485.272 285.658 484.848 286.39V284.476C484.848 281.972 483.833 279.698 482.189 278.067C481.663 277.54 481.059 277.065 480.417 276.692H480.404C479.055 275.87 477.475 275.408 475.78 275.408C475.086 275.408 474.418 275.485 473.763 275.639L473.725 275.613C473.866 275.369 474.007 275.099 474.123 274.83C475.304 272.107 474.714 269.05 472.851 266.982L484.848 249.281C490.41 253.353 494.867 254.856 497.719 253.212C498.091 252.993 498.438 252.724 498.746 252.403Z" fill="#4D4D4D"/>
<path d="M514.944 281.56H494.687C495.407 269.615 496.858 259.403 498.746 252.402C499.414 249.936 500.147 247.855 500.917 246.25C502.112 243.719 503.435 242.332 504.809 242.332C509.562 242.332 513.569 258.799 514.944 281.56Z" fill="black"/>
<path d="M1037.59 248.55C1037.59 251.928 1036.52 254.677 1035.23 254.677C1033.93 254.677 1032.86 251.928 1032.86 248.55C1032.86 245.172 1033.92 242.436 1035.23 242.436C1036.54 242.436 1037.59 245.172 1037.59 248.55Z" fill="black"/>
<path d="M971.208 181.215C947.509 168.512 926.43 189.398 926.43 189.398C926.43 203.9 936.706 215.64 949.397 215.64C962.088 215.64 972.351 203.9 972.351 189.398C972.351 186.533 971.953 183.784 971.208 181.215Z" fill="white"/>
<path d="M964.168 191.621L952.03 193.073C952.698 198.686 955.961 202.925 959.313 202.526C962.666 202.128 964.836 197.234 964.168 191.621Z" fill="black"/>
<path d="M812.753 162.86L809.747 169.09L804.635 179.687C798.482 175.576 791.096 173.174 783.146 173.174C781.437 173.174 779.754 173.29 778.11 173.508C778.033 170.888 777.892 168.293 777.699 165.699C783.608 162.064 790.557 159.957 798.007 159.957C803.222 159.957 808.206 160.985 812.753 162.86Z" fill="#FFBCEE"/>
<path d="M893.856 91.5335C892.969 91.7005 892.07 91.8803 891.184 92.0729C884.839 93.4473 878.712 95.3741 872.867 97.8275C867.241 100.165 861.885 102.991 856.824 106.254C851.596 109.606 846.702 113.434 842.168 117.699C837.518 122.053 833.279 126.857 829.49 132.072C825.778 137.146 822.502 142.605 819.715 148.398L819.06 149.759L812.753 162.861L809.747 169.091L804.635 179.688C798.482 175.578 791.096 173.176 783.145 173.176C781.437 173.176 779.754 173.291 778.11 173.51C778.187 175.449 778.213 177.389 778.213 179.341C778.213 194.344 776.363 208.897 772.895 222.821C770.802 209.064 767.308 195.757 762.555 183.066C762.17 182 761.759 180.934 761.335 179.894C751.097 186.855 744.38 198.621 744.38 211.942C744.38 212.764 744.405 213.573 744.47 214.382C745.715 234.51 762.324 250.476 782.735 250.682C782.863 250.695 783.004 250.695 783.145 250.695C796.633 250.695 808.514 243.797 815.45 233.341C815.463 233.341 815.463 233.328 815.476 233.328C816.44 231.864 817.3 230.335 818.071 228.743L836.066 191.39L849.798 162.887C857.762 146.355 871.107 134.59 886.508 128.334C889.334 119.921 893.47 107.769 897.696 97.2238C898.634 94.886 899.572 92.6253 900.497 90.5059C898.287 90.7756 896.065 91.1096 893.856 91.5335Z" fill="#FFBCEE"/>
<path d="M975.498 153.997C975.498 153.997 948.703 149.18 941.009 130.786C941.009 130.786 939.879 112.983 959.583 105.777C959.416 111.391 961.548 117.672 967.38 124.223C973.841 131.48 976.628 137.453 977.566 142.09C979.184 149.964 975.498 153.997 975.498 153.997Z" fill="white"/>
<path d="M987.02 119.959C985.632 114.051 981.817 107.68 977.694 99.3049C975.112 94.0385 974.059 89.0932 974.136 84.5718C974.303 73.1655 981.625 64.4567 989.563 59.9609C988.548 65.2787 988.882 71.3287 991.438 77.9181C993.866 84.1607 995.728 89.5299 996.653 94.3596C998.542 104.379 996.409 112.008 987.02 119.959Z" fill="white"/>
<path d="M977.566 142.09C976.628 137.453 973.841 131.48 967.38 124.223C961.548 117.672 959.416 111.39 959.583 105.777C959.866 95.9894 967.161 88.2311 974.123 84.5703C974.046 89.0917 975.1 94.037 977.681 99.3034C981.805 107.678 985.62 114.049 987.007 119.958C988.664 127.074 986.776 133.548 977.553 142.09H977.566Z" fill="white"/>
<path d="M971.208 181.217L926.43 189.399C926.43 175.771 935.512 164.583 947.149 163.298C947.894 163.208 948.639 163.17 949.397 163.17C952.634 163.17 955.717 163.941 958.504 165.315H958.517C961.6 166.844 964.31 169.104 966.519 171.93C968.6 174.589 970.219 177.749 971.208 181.217Z" fill="#FFBCEE"/>
<path d="M916.373 127.795C916.373 127.795 912.108 126.819 910.772 121.244C910.772 121.244 903.104 126.536 903.168 135.785L899.726 127.05L908.499 101.283C908.499 101.283 918.8 104.469 916.373 127.795Z" fill="#D7DCFF"/>
<path d="M926.058 131.327L916.373 127.795C918.801 104.353 908.499 101.283 908.499 101.283L911.954 91.1353C912.481 89.6068 914.472 89.2086 915.512 90.4417C919.404 95.0659 926.456 106.87 926.058 131.327Z" fill="#FFBCEE"/>
<path d="M496.422 396.022C488.06 410.896 472.659 404.307 464.836 420.813C456.731 437.909 472.98 445.616 464.862 462.725C457.052 479.205 441.702 472.667 433.328 487.439L423.064 481.697C395.615 467.594 384.8 433.914 398.903 406.465C410.785 383.344 436.552 372.028 460.79 377.461H460.803C465.337 378.476 469.82 380.081 474.149 382.304L488.766 391.308L496.422 396.022Z" fill="#D7DCFF"/>
<path d="M525.657 378.938L508.2 403.279L496.422 396.021L488.766 391.307L474.149 382.303C469.82 380.081 465.337 378.475 460.803 377.46C477.167 366.388 498.888 364.359 517.68 374.018L525.657 378.938Z" fill="#B0BDFF"/>
<path d="M992.736 464.511L989.19 487.439C985.26 512.821 963.385 530.97 938.466 530.97C935.858 530.97 933.212 530.765 930.553 530.354C910.464 527.258 894.909 512.898 889.296 494.684C887.061 487.49 886.393 479.681 887.626 471.73L891.788 444.845L893.213 435.648C909.603 438.577 908.203 455.43 925.749 457.446C943.861 459.54 945.916 441.673 964.027 443.766C980.071 445.616 980.276 459.861 992.736 464.511Z" fill="#D7DCFF"/>
<path d="M889.296 494.684C887.061 494.671 884.8 494.491 882.527 494.144C863.773 491.241 849.451 477.33 845.135 460.003C851.236 456.74 857.184 453.221 862.938 449.457C866.586 449.521 870.298 449.187 874.023 448.429L891.775 444.846L887.613 471.73C886.38 479.681 887.048 487.491 889.283 494.684H889.296Z" fill="#B0BDFF"/>
<path d="M1008.3 71.4304C1008.37 79.9595 1005.36 86.6902 996.653 94.3586C995.729 89.5289 993.866 84.1598 991.438 77.9171C983.975 58.7397 995.472 44.0194 1003.95 39.1641C1003.49 42.6065 1003.62 46.2802 1004.57 50.0694C1006.71 58.6755 1008.25 65.4961 1008.3 71.4304Z" fill="white"/>
<path d="M1016.34 43.9689C1017.36 54.72 1016.88 62.26 1008.3 71.4312C1008.25 65.4969 1006.71 58.6763 1004.57 50.0702C1003.62 46.2809 1003.49 42.6073 1003.95 39.1648C1006.07 23.6225 1020.47 13.0897 1026.35 19.525C1034.89 28.8504 1016.34 43.9689 1016.34 43.9689Z" fill="white"/>
<path d="M957.772 197.092C957.04 197.092 956.449 197.683 956.449 198.415C956.449 199.147 957.04 199.738 957.772 199.738C958.504 199.738 959.095 199.147 959.095 198.415C959.095 197.683 958.504 197.092 957.772 197.092Z" fill="white"/>
<path d="M500.917 246.251C500.147 247.857 499.415 249.938 498.747 252.404C498.438 252.725 498.092 252.995 497.719 253.213C494.867 254.857 490.41 253.355 484.848 249.283L485.414 248.448L491.412 239.598C495.163 242.179 498.413 243.541 500.982 243.515C501.007 244.492 500.982 245.404 500.917 246.251Z" fill="#333333"/>
<path d="M509.588 349.267C508.329 352.658 506.916 354.739 505.426 355.189C505.387 355.202 505.336 355.215 505.297 355.227C505.13 355.266 504.976 355.292 504.809 355.292C499.736 355.292 495.497 336.371 494.444 311.079C494.302 307.765 494.212 304.336 494.199 300.816H501.919C502.086 323.886 505.272 343.14 509.588 349.267Z" fill="#333333"/>
<path d="M509.575 248.305C506.261 253.058 503.615 265.556 502.484 281.56H494.687C495.407 269.615 496.858 259.403 498.746 252.402C499.414 249.936 500.147 247.855 500.917 246.25C501.572 244.85 502.279 243.796 502.998 243.141C503.011 243.141 503.011 243.128 503.024 243.128C503.255 243.038 503.486 242.949 503.692 242.82C503.897 242.705 504.09 242.563 504.27 242.396H504.295C504.462 242.358 504.642 242.332 504.809 242.332C506.53 242.332 508.149 244.49 509.575 248.305Z" fill="#333333"/>
<path d="M476.114 225.532L469.743 234.934C460.88 225.005 450.925 211.672 440.945 196.13C437.219 190.324 433.494 184.21 429.821 177.851C402.423 130.389 388.396 87.1921 398.492 81.3605C398.518 81.3476 398.556 81.3219 398.582 81.3091C400.92 80.0246 404.298 80.8082 408.473 83.3515C402.448 93.6531 415.088 131.571 438.787 172.624C451.298 194.293 464.592 212.841 476.114 225.532Z" fill="#333333"/>
<path d="M400.997 203.887C400.38 205.968 399.802 208.563 399.276 211.607C396.193 212.519 393.714 214.793 392.494 217.721C391.928 217.22 391.312 216.796 390.67 216.462C392.16 204.029 394.407 196.129 396.899 196.129C398.402 196.129 399.802 198.955 400.997 203.887Z" fill="#333333"/>
<path d="M400.997 303.334C399.802 308.253 398.389 311.079 396.899 311.079C392.391 311.079 388.73 285.351 388.73 253.611C388.73 247.394 388.871 241.421 389.141 235.821L391.8 233.162C392.224 236.335 394.061 239.071 396.655 240.689C396.501 244.838 396.424 249.154 396.424 253.598C396.424 275.435 398.287 294.317 400.997 303.334Z" fill="#333333"/>
<path d="M977.566 142.092C976.628 137.455 973.841 131.482 967.38 124.225C961.549 117.674 959.416 111.393 959.583 105.779C957.181 106.653 955.1 107.693 953.276 108.836C953.662 112.998 954.972 117.044 957.001 120.718C959.763 125.727 963.976 129.581 967.11 134.346C969.05 137.288 970.245 140.242 971.067 143.415C971.465 144.956 971.786 146.536 972.056 148.193C972.338 149.94 972.634 151.674 972.916 153.421C974.522 153.832 975.485 153.999 975.485 153.999C975.485 153.999 979.172 149.966 977.553 142.092H977.566Z" fill="url(#paint0_linear_85_762)"/>
<path d="M987.02 119.96C985.632 114.051 981.818 107.68 977.694 99.3054C975.113 94.039 974.059 89.0937 974.136 84.5723C972.055 85.6641 969.949 87.1284 967.996 88.901C967.573 101.283 976.102 108.605 979.66 118.573C980.006 119.523 983.796 127.847 983.95 134.937C987.598 129.632 988.189 124.957 987.033 119.96H987.02Z" fill="url(#paint1_linear_85_762)"/>
<path d="M996.653 94.3596C995.728 89.5299 993.866 84.1607 991.438 77.9181C988.882 71.3287 988.548 65.2787 989.563 59.9609C987.277 61.2583 985.054 62.9153 983.025 64.8677C981.997 79.6779 993.583 90.4162 992.915 113.781C997.244 107.885 998.053 101.771 996.653 94.3596Z" fill="url(#paint2_linear_85_762)"/>
<path d="M1004.57 50.0714C1003.62 46.2821 1003.49 42.6084 1003.95 39.166C1001.86 40.3606 999.569 42.1718 997.437 44.4967C999.543 54.1047 1005.48 74.8491 1000.94 90.1474C1006.38 84.1103 1008.36 78.3686 1008.3 71.4324C1008.25 65.498 1006.71 58.6774 1004.57 50.0714Z" fill="url(#paint3_linear_85_762)"/>
<path d="M1015.11 187.113L1005.23 178.854C975.704 209.129 960.547 242.025 957.772 282.037L970.373 286.494C972.531 242.526 990.732 211.865 1015.11 187.113Z" fill="url(#paint4_linear_85_762)"/>
<path d="M971.208 181.217L926.43 189.399C926.43 175.771 935.512 164.583 947.149 163.298C947.894 163.208 948.639 163.17 949.397 163.17C952.634 163.17 955.717 163.941 958.504 165.315H958.517C961.6 166.844 964.31 169.104 966.519 171.93C968.6 174.589 970.219 177.749 971.208 181.217Z" fill="url(#paint5_linear_85_762)"/>
<path d="M812.753 162.862L809.747 169.092L804.635 179.689C798.482 175.578 791.097 173.176 783.146 173.176C781.437 173.176 779.755 173.292 778.11 173.51C778.033 170.89 777.892 168.295 777.699 165.701C783.608 162.066 790.557 159.959 798.007 159.959C803.222 159.959 808.206 160.987 812.753 162.862Z" fill="url(#paint6_linear_85_762)"/>
<path d="M893.856 91.5335C892.969 91.7005 892.07 91.8803 891.184 92.0729C884.839 93.4473 878.712 95.3741 872.867 97.8275C867.241 100.165 861.885 102.991 856.824 106.254C851.596 109.606 846.702 113.434 842.168 117.699C837.518 122.053 833.279 126.857 829.49 132.072C825.778 137.146 822.502 142.605 819.715 148.398L819.06 149.759L812.753 162.861L809.747 169.091L804.635 179.688C798.482 175.578 791.096 173.176 783.145 173.176C781.437 173.176 779.754 173.291 778.11 173.51C778.187 175.449 778.213 177.389 778.213 179.341C778.213 194.344 776.363 208.897 772.895 222.821C770.802 209.064 767.308 195.757 762.555 183.066C762.17 182 761.759 180.934 761.335 179.894C751.097 186.855 744.38 198.621 744.38 211.942C744.38 212.764 744.405 213.573 744.47 214.382C745.715 234.51 762.324 250.476 782.735 250.682C782.863 250.695 783.004 250.695 783.145 250.695C796.633 250.695 808.514 243.797 815.45 233.341C815.463 233.341 815.463 233.328 815.476 233.328C816.44 231.864 817.3 230.335 818.071 228.743L836.066 191.39L849.798 162.887C857.762 146.355 871.107 134.59 886.508 128.334C889.334 119.921 893.47 107.769 897.696 97.2238C898.634 94.886 899.572 92.6253 900.497 90.5059C898.287 90.7756 896.065 91.1096 893.856 91.5335Z" fill="url(#paint7_linear_85_762)"/>
<path d="M944.311 94.4755C938.312 92.5745 932.146 91.2258 925.891 90.4551C926.071 90.879 926.251 91.3028 926.431 91.7396C930.721 102.298 934.78 114.514 934.484 126.421C936.706 127.127 938.89 127.962 941.048 128.913C941.266 125.766 942.397 119.189 947.715 113.422C947.715 102.76 944.311 94.4755 944.311 94.4755Z" fill="#FF7980"/>
<path d="M1021.68 25.2148C1013.45 26.4608 1011.32 34.6815 1011.34 39.28C1011.35 43.8785 1013.74 55.1049 1008.3 71.4308C1008.3 71.4308 1017.01 62.465 1016.7 52.2919C1016.4 42.1187 1012.68 29.7491 1021.69 25.2148H1021.68Z" fill="url(#paint8_linear_85_762)"/>
<path d="M994.83 450.948L992.736 464.512C980.276 459.862 980.071 445.617 964.028 443.768C945.916 441.674 943.861 459.541 925.75 457.448C908.204 455.431 909.604 438.578 893.214 435.65L895.179 422.959L895.474 423.01C908.139 425.271 914.498 433.158 918.685 438.386C922.346 442.933 923.566 444.269 927.214 444.693C927.715 444.744 928.19 444.77 928.627 444.77C931.273 444.77 932.84 443.729 936.976 440.492C942.23 436.382 949.423 430.756 961.15 430.756C962.576 430.756 964.04 430.833 965.505 431.013C979.775 432.657 986.583 441.122 991.092 446.722C992.62 448.61 993.751 449.985 994.83 450.948Z" fill="url(#paint9_linear_85_762)"/>
<path d="M508.2 403.279L507.366 402.766" stroke="black" stroke-width="0.642245" stroke-linecap="round" stroke-linejoin="round"/>
<path d="M507.366 402.765C501.084 413.593 492.209 417.036 485.696 419.54C480.083 421.711 478.22 422.572 476.448 426.31C474.675 430.048 475.176 432.039 477.052 437.755C479.312 444.639 482.729 455.044 476.461 468.236C470.218 481.414 460.006 485.358 453.25 487.965C448.099 489.956 446.198 490.804 444.541 493.707L433.328 487.439C441.702 472.667 457.052 479.205 464.862 462.725C472.98 445.616 456.731 437.909 464.836 420.812C472.659 404.306 488.06 410.896 496.422 396.021L507.366 402.765Z" fill="url(#paint10_linear_85_762)"/>
<path d="M722.505 49.5701V117.751C714.772 109.312 706.333 101.528 697.265 94.5273V29.5449C706.282 35.4664 714.721 42.1715 722.505 49.5701Z" fill="white"/>
<path d="M736.93 64.9835V135.412C733.885 131.212 730.687 127.14 727.322 123.209V54.3223C730.674 57.739 733.873 61.297 736.93 64.9835Z" fill="white"/>
<path d="M778.213 179.342C778.213 177.389 778.187 175.45 778.11 173.51C778.033 170.89 777.892 168.295 777.699 165.7C772.613 98.0592 729.916 40.8995 670.47 15.0684C669.173 16.7896 667.734 18.408 666.18 19.898C724.509 46.1658 766.255 102.735 771.277 169.554C771.47 172.149 771.611 174.743 771.688 177.364C771.765 179.303 771.791 181.243 771.791 183.195C771.791 191.621 771.187 199.906 770.057 208.012C771.174 212.88 772.125 217.825 772.895 222.822C776.364 208.898 778.213 194.345 778.213 179.342Z" fill="url(#paint11_linear_85_762)"/>
<path d="M510.679 211.158L498.592 229L496.91 231.479L485.413 248.447L484.848 249.282L472.851 266.982" stroke="black" stroke-width="0.642245" stroke-linecap="round" stroke-linejoin="round"/>
<path d="M556.664 143.298L615.314 56.7492L633.078 30.5327L642.674 16.3648C645.859 11.6636 644.639 5.26682 639.938 2.09413C635.236 -1.0914 628.852 0.128871 625.667 4.8301L604.704 35.7606L490.269 204.658L490.243 204.684L469.743 234.934L469.152 235.807L454.021 258.131" stroke="black" stroke-width="0.642245" stroke-linecap="round" stroke-linejoin="round"/>
<path d="M437.335 282.769V282.756" stroke="black" stroke-width="0.642245" stroke-linecap="round" stroke-linejoin="round"/>
<path d="M428.96 295.111L361.807 394.223C358.634 398.924 359.855 405.308 364.556 408.493C366.316 409.688 368.332 410.266 370.31 410.266C373.599 410.266 376.836 408.686 378.827 405.744L448.125 303.486" stroke="black" stroke-width="0.642245" stroke-linecap="round" stroke-linejoin="round"/>
<path d="M464.875 278.76L464.862 278.773" stroke="black" stroke-width="0.642245" stroke-linecap="round" stroke-linejoin="round"/>
<path d="M446.25 269.602L445.71 270.411" stroke="black" stroke-width="0.642245" stroke-linecap="round" stroke-linejoin="round"/>
<path d="M633.078 30.5336C634.928 30.8033 636.816 30.9446 638.743 30.9446C651.716 30.9446 663.225 24.702 670.47 15.0684C733.872 42.6207 778.213 105.805 778.213 179.342C778.213 194.345 776.363 208.898 772.895 222.822C760.256 139.857 696.841 73.5897 615.314 56.75" stroke="black" stroke-width="0.642245" stroke-linecap="round" stroke-linejoin="round"/>
<path d="M398.492 81.3606C398.492 81.3606 428.588 62.5171 456.101 55.3112C483.615 48.1052 501.29 46.2555 522.908 68.4643" stroke="black" stroke-width="0.642245" stroke-linecap="round" stroke-linejoin="round"/>
<path d="M511.245 58.4966C538.18 36.0052 578.629 31.3553 604.704 35.7611" stroke="black" stroke-width="0.642245" stroke-linecap="round" stroke-linejoin="round"/>
<path d="M594.3 131.546C595.584 118.662 600.003 105.137 608.725 89.376C615.725 76.7238 618.088 65.8442 618.435 57.418" stroke="black" stroke-width="0.642245" stroke-linecap="round" stroke-linejoin="round"/>
<path d="M607.376 316.498H607.363" stroke="black" stroke-width="0.642245" stroke-linecap="round" stroke-linejoin="round"/>
<path d="M511.463 241.407C510.371 235.729 509.806 229.885 509.806 223.899C509.806 219.583 510.101 215.319 510.68 211.157C514.674 182.063 532.182 157.26 556.664 143.297C567.942 136.862 580.697 132.726 594.3 131.544C597.01 131.3 599.759 131.172 602.533 131.172C606.528 131.172 610.472 131.429 614.338 131.917C618.577 132.456 622.738 133.278 626.772 134.383C626.81 134.396 626.862 134.409 626.9 134.409" stroke="black" stroke-width="0.642245" stroke-linecap="round" stroke-linejoin="round"/>
<path d="M614.338 131.918C618.628 132.612 622.764 133.434 626.772 134.384C626.81 134.397 626.862 134.41 626.9 134.41C679.885 146.857 710.161 179.521 744.47 214.382" stroke="black" stroke-width="0.642245" stroke-linecap="round" stroke-linejoin="round"/>
<path d="M782.734 250.682C808.27 272.338 839.149 292.363 882.18 306.172C882.18 306.172 854.948 329.164 805.38 330.256C805.38 330.256 797.339 372.04 732.96 369.497C732.96 369.497 728.234 402.585 684.445 408.109C640.207 413.683 593.478 364.821 562.586 337.256" stroke="black" stroke-width="0.642245" stroke-linecap="round" stroke-linejoin="round"/>
<path d="M494.199 300.815C494.212 304.334 494.302 307.764 494.444 311.078C495.497 336.37 499.736 355.29 504.809 355.29C504.976 355.29 505.13 355.264 505.297 355.226C505.336 355.226 505.387 355.2 505.426 355.187C510.23 353.749 514.186 335.355 515.188 311.078C515.329 307.764 515.419 304.334 515.432 300.815C515.445 300.16 515.445 299.479 515.445 298.811C515.445 292.8 515.265 286.994 514.944 281.56C513.57 258.799 509.562 242.332 504.809 242.332C503.435 242.332 502.112 243.719 500.917 246.25C500.147 247.855 499.415 249.936 498.747 252.402C496.858 259.403 495.407 269.615 494.688 281.56" stroke="black" stroke-width="0.642245" stroke-linecap="round" stroke-linejoin="round"/>
<path d="M621.21 152.16C650.843 165.121 669.584 193.752 669.584 227.521C669.584 295.522 593.901 331.976 505.297 355.225" stroke="black" stroke-width="0.642245" stroke-linecap="round" stroke-linejoin="round"/>
<path d="M504.809 242.332L606.361 228.164" stroke="black" stroke-width="0.642245" stroke-linecap="round" stroke-linejoin="round"/>
<path d="M490.243 204.697C484.36 190.272 476.242 173.779 466.403 156.721C439.082 109.413 408.781 75.7213 398.582 81.3088C398.556 81.3217 398.518 81.3474 398.492 81.3602C388.396 87.1918 402.423 130.389 429.821 177.851C443.334 201.242 457.566 221.305 469.743 234.934" stroke="black" stroke-width="0.642245" stroke-linecap="round" stroke-linejoin="round"/>
<path d="M484.848 249.281C490.41 253.353 494.867 254.856 497.719 253.212C498.092 252.993 498.438 252.724 498.747 252.403" stroke="black" stroke-width="0.642245" stroke-linecap="round" stroke-linejoin="round"/>
<path d="M498.592 229C500.442 236.116 501.251 241.999 500.917 246.251" stroke="black" stroke-width="0.642245" stroke-linecap="round" stroke-linejoin="round"/>
<path d="M440.945 196.129H396.899" stroke="black" stroke-width="0.642245" stroke-linecap="round" stroke-linejoin="round"/>
<path d="M389.141 235.82C388.871 241.42 388.73 247.393 388.73 253.61C388.73 285.35 392.391 311.078 396.899 311.078C401.408 311.078 405.082 285.35 405.082 253.61C405.082 249.628 405.03 245.749 404.915 241.998C404.568 229.898 403.669 219.186 402.41 211.157C400.958 201.832 399.032 196.129 396.899 196.129C394.407 196.129 392.16 204.029 390.67 216.462" stroke="black" stroke-width="0.642245" stroke-linecap="round" stroke-linejoin="round"/>
<path d="M467.945 302.472C469.525 305.183 472.44 306.968 475.78 306.968C480.79 306.968 484.849 302.909 484.849 297.9V284.477C484.849 281.972 483.834 279.698 482.19 278.067C481.663 277.54 481.059 277.065 480.417 276.693H480.404C479.056 275.871 477.476 275.408 475.78 275.408C475.086 275.408 474.419 275.485 473.763 275.639L473.725 275.614" stroke="black" stroke-width="0.642245" stroke-linecap="round" stroke-linejoin="round"/>
<path d="M467.842 280.07L467.829 280.084" stroke="black" stroke-width="0.642245" stroke-linecap="round" stroke-linejoin="round"/>
<path d="M484.848 286.39C485.272 285.658 485.786 284.977 486.377 284.386C488.124 282.639 490.526 281.561 493.185 281.561H514.944" stroke="black" stroke-width="0.642245" stroke-linecap="round" stroke-linejoin="round"/>
<path d="M515.432 300.816H493.185C489.614 300.816 486.505 298.876 484.848 295.986" stroke="black" stroke-width="0.642245" stroke-linecap="round" stroke-linejoin="round"/>
<path d="M470.302 265.174L455.025 258.496C451.314 256.874 446.99 258.567 445.367 262.279C443.745 265.991 445.439 270.315 449.15 271.937L464.427 278.615C468.139 280.237 472.463 278.543 474.085 274.832C475.708 271.12 474.014 266.796 470.302 265.174Z" stroke="black" stroke-width="0.642245" stroke-linecap="round" stroke-linejoin="round"/>
<path d="M466.66 279.594L440.108 267.988C436.396 266.366 432.072 268.06 430.45 271.771C428.828 275.483 430.521 279.807 434.233 281.429L460.785 293.035C464.497 294.658 468.821 292.964 470.443 289.252C472.066 285.541 470.372 281.217 466.66 279.594Z" stroke="black" stroke-width="0.642245" stroke-linecap="round" stroke-linejoin="round"/>
<path d="M463.661 294.288L427.893 278.654C424.182 277.032 419.858 278.726 418.235 282.437C416.613 286.149 418.307 290.473 422.018 292.095L457.786 307.729C461.498 309.352 465.822 307.658 467.444 303.946C469.067 300.235 467.373 295.911 463.661 294.288Z" stroke="black" stroke-width="0.642245" stroke-linecap="round" stroke-linejoin="round"/>
<path d="M494.444 311.078H442.974" stroke="black" stroke-width="0.642245" stroke-linecap="round" stroke-linejoin="round"/>
<path d="M418.145 311.078H396.899" stroke="black" stroke-width="0.642245" stroke-linecap="round" stroke-linejoin="round"/>
<path d="M365.031 232.442H329.233C324.416 232.442 320.524 228.537 320.524 223.733C320.524 221.331 321.5 219.16 323.067 217.58C324.647 216.013 326.818 215.037 329.233 215.037H377.298C378.981 215.037 380.548 215.512 381.871 216.347" stroke="black" stroke-width="0.642245" stroke-linecap="round" stroke-linejoin="round"/>
<path d="M321.68 228.049C321.307 228.73 320.832 229.346 320.292 229.886C318.713 231.466 316.542 232.442 314.14 232.442H293.524C288.72 232.442 284.815 228.537 284.815 223.733C284.815 221.331 285.791 219.16 287.371 217.58C288.951 216.013 291.122 215.037 293.524 215.037H314.14C317.377 215.037 320.19 216.797 321.68 219.417" stroke="black" stroke-width="0.642245" stroke-linecap="round" stroke-linejoin="round"/>
<path d="M339.483 260.341C338.84 259.558 338.044 258.877 337.119 258.338L327.421 252.737C326.06 251.941 324.557 251.568 323.08 251.568C320.074 251.568 317.145 253.135 315.54 255.923C313.138 260.085 314.564 265.415 318.725 267.817L328.423 273.405C329.798 274.201 331.288 274.574 332.765 274.574C334.075 274.574 335.359 274.278 336.541 273.713" stroke="black" stroke-width="0.642245" stroke-linecap="round" stroke-linejoin="round"/>
<path d="M362.077 260.11C362.115 260.456 362.128 260.803 362.128 261.15C362.128 263.629 361.191 266.121 359.29 268.022L351.737 275.575C347.935 279.364 341.782 279.364 337.993 275.575C336.092 273.674 335.141 271.195 335.141 268.703C335.141 266.211 336.092 263.732 337.993 261.831L345.545 254.278C347.1 252.724 349.039 251.812 351.056 251.529" stroke="black" stroke-width="0.642245" stroke-linecap="round" stroke-linejoin="round"/>
<path d="M367.589 257.387L393.03 231.947C396.822 228.154 396.822 222.006 393.03 218.214L393.021 218.204C389.229 214.412 383.08 214.412 379.288 218.204L353.847 243.645C350.055 247.437 350.055 253.586 353.847 257.378L353.856 257.387C357.649 261.18 363.797 261.18 367.589 257.387Z" stroke="black" stroke-width="0.642245" stroke-linecap="round" stroke-linejoin="round"/>
<path d="M321.513 251.722C320.472 248.934 320.819 245.697 322.707 243.116L330.53 232.441" stroke="black" stroke-width="0.642245" stroke-linecap="round" stroke-linejoin="round"/>
<path d="M346.958 232.441C348.487 235.421 348.307 239.121 346.188 241.998L337.44 253.931C336.58 255.126 335.462 256.05 334.229 256.667" stroke="black" stroke-width="0.642245" stroke-linecap="round" stroke-linejoin="round"/>
<path d="M391.8 233.16C392.494 238.337 396.925 242.331 402.294 242.331C403.206 242.331 404.08 242.216 404.915 241.997" stroke="black" stroke-width="0.642245" stroke-linecap="round" stroke-linejoin="round"/>
<path d="M392.494 217.735C394.086 213.881 397.863 211.158 402.294 211.158H402.41" stroke="black" stroke-width="0.642245" stroke-linecap="round" stroke-linejoin="round"/>
<path d="M778.11 173.51C779.754 173.291 781.437 173.176 783.145 173.176C791.096 173.176 798.482 175.578 804.635 179.688" stroke="black" stroke-width="0.642245" stroke-linecap="round" stroke-linejoin="round"/>
<path d="M761.335 179.892C751.097 186.854 744.38 198.62 744.38 211.94C744.38 212.762 744.405 213.572 744.47 214.381C745.715 234.509 762.324 250.475 782.735 250.681C782.863 250.693 783.004 250.693 783.145 250.693C796.633 250.693 808.514 243.796 815.45 233.34C815.463 233.34 815.463 233.34 815.476 233.34C816.44 231.876 817.3 230.347 818.071 228.754L836.066 191.401L849.798 162.898C857.762 146.367 871.107 134.601 886.508 128.346" stroke="black" stroke-width="0.642245" stroke-linecap="round" stroke-linejoin="round"/>
<path d="M941.048 128.912C938.89 127.948 936.706 127.126 934.484 126.42" stroke="black" stroke-width="0.642245" stroke-linecap="round" stroke-linejoin="round"/>
<path d="M975.498 153.998L1015.11 187.112L1036.78 205.223C1048.7 215.191 1055.07 229.654 1055.07 244.375C1055.07 252.621 1053.07 260.958 1048.92 268.626C1036.96 290.706 1010.72 300.79 987.046 292.402L970.373 286.493L945.274 277.604L921.036 269.011C911.402 265.594 904.055 257.669 901.396 247.791L894.678 222.834" stroke="black" stroke-width="0.642245" stroke-linecap="round" stroke-linejoin="round"/>
<path d="M799.702 189.938L809.747 169.091L819.715 148.398C833.677 119.394 859.727 98.8679 891.184 92.0729C894.279 91.405 897.388 90.8784 900.496 90.5059" stroke="black" stroke-width="0.642245" stroke-linecap="round" stroke-linejoin="round"/>
<path d="M925.891 90.4551C932.146 91.2258 938.312 92.5745 944.311 94.4755C944.311 94.4755 947.727 102.76 947.715 113.409" stroke="black" stroke-width="0.642245" stroke-linecap="round" stroke-linejoin="round"/>
<path d="M970.373 286.492C972.531 242.524 990.732 211.863 1015.11 187.111" stroke="black" stroke-width="0.642245" stroke-linecap="round" stroke-linejoin="round"/>
<path d="M862.951 449.457H862.938C829.683 471.229 783.595 487.118 744.341 493.117C701.927 499.616 647.388 498.871 590.87 479.758" stroke="black" stroke-width="0.642245" stroke-linecap="round" stroke-linejoin="round"/>
<path d="M945.274 277.604C946.032 283.718 946.43 289.935 946.43 296.254C946.43 307.905 945.505 318.977 943.745 329.497" stroke="black" stroke-width="0.642245" stroke-linecap="round" stroke-linejoin="round"/>
<path d="M1034.22 285.466L1009.55 276.963" stroke="black" stroke-width="0.642245" stroke-linecap="round" stroke-linejoin="round"/>
<path d="M1035.23 254.676C1036.53 254.676 1037.59 251.933 1037.59 248.549C1037.59 245.165 1036.53 242.422 1035.23 242.422C1033.92 242.422 1032.86 245.165 1032.86 248.549C1032.86 251.933 1033.92 254.676 1035.23 254.676Z" stroke="black" stroke-width="0.642245" stroke-linecap="round" stroke-linejoin="round"/>
<path d="M949.397 215.641C962.074 215.641 972.351 203.892 972.351 189.398C972.351 174.905 962.074 163.156 949.397 163.156C936.72 163.156 926.443 174.905 926.443 189.398C926.443 203.892 936.72 215.641 949.397 215.641Z" stroke="black" stroke-width="0.642245" stroke-linecap="round" stroke-linejoin="round"/>
<path d="M926.43 189.399L971.208 181.217" stroke="black" stroke-width="0.642245" stroke-linecap="round" stroke-linejoin="round"/>
<path d="M964.156 191.621C964.824 197.234 962.666 202.128 959.313 202.526C955.961 202.925 952.698 198.699 952.03 193.085L964.168 191.634L964.156 191.621Z" stroke="black" stroke-width="0.642245" stroke-linecap="round" stroke-linejoin="round"/>
<path d="M815.476 233.328C815.476 233.328 815.463 233.328 815.45 233.328" stroke="black" stroke-width="0.642245" stroke-linecap="round" stroke-linejoin="round"/>
<path d="M762.555 183.066V183.053" stroke="black" stroke-width="0.642245" stroke-linecap="round" stroke-linejoin="round"/>
<path d="M777.699 165.699C783.608 162.064 790.557 159.957 798.007 159.957C803.222 159.957 808.206 160.985 812.753 162.86" stroke="black" stroke-width="0.642245" stroke-linecap="round" stroke-linejoin="round"/>
<path d="M836.066 191.39V191.377" stroke="black" stroke-width="0.642245" stroke-linecap="round" stroke-linejoin="round"/>
<path d="M903.168 135.783L899.726 127.036L911.954 91.1217C912.481 89.5931 914.472 89.1949 915.512 90.428C919.404 95.0522 926.456 106.844 926.058 131.3" stroke="black" stroke-width="0.642245" stroke-linecap="round" stroke-linejoin="round"/>
<path d="M908.499 101.283C908.499 101.283 918.801 104.34 916.386 127.782" stroke="black" stroke-width="0.642245" stroke-linecap="round" stroke-linejoin="round"/>
<path d="M933.572 134.41C936.604 120.088 931.684 104.674 926.43 91.7268C921.177 78.7791 911.569 69.6592 904.812 81.6564C898.056 93.6535 889.476 119.446 885.34 131.829L889.077 140.858" stroke="black" stroke-width="0.642245" stroke-linecap="round" stroke-linejoin="round"/>
<path d="M824.84 191.389L809.747 169.09" stroke="black" stroke-width="0.642245" stroke-linecap="round" stroke-linejoin="round"/>
<path d="M825.97 159.959L819.06 149.76" stroke="black" stroke-width="0.642245" stroke-linecap="round" stroke-linejoin="round"/>
<path d="M842.168 150.813L829.49 132.072" stroke="black" stroke-width="0.642245" stroke-linecap="round" stroke-linejoin="round"/>
<path d="M847.678 125.841L842.168 117.697" stroke="black" stroke-width="0.642245" stroke-linecap="round" stroke-linejoin="round"/>
<path d="M867.434 121.925L856.824 106.254" stroke="black" stroke-width="0.642245" stroke-linecap="round" stroke-linejoin="round"/>
<path d="M878.57 106.254L872.867 97.8281" stroke="black" stroke-width="0.642245" stroke-linecap="round" stroke-linejoin="round"/>
<path d="M897.696 97.2235L893.855 91.5332" stroke="black" stroke-width="0.642245" stroke-linecap="round" stroke-linejoin="round"/>
<path d="M941.009 173.907C941.009 173.907 950.63 163.605 947.907 151.736" stroke="black" stroke-width="0.642245" stroke-linecap="round" stroke-linejoin="round"/>
<path d="M963.963 174.461C963.963 174.461 970.437 169.695 970.373 161.744" stroke="black" stroke-width="0.642245" stroke-linecap="round" stroke-linejoin="round"/>
<path d="M956.256 169.155C956.256 169.155 960.611 163.632 960.212 157.184" stroke="black" stroke-width="0.642245" stroke-linecap="round" stroke-linejoin="round"/>
<path d="M644.267 288.33C648.223 292.351 652.474 296.422 657.022 300.494C673.823 315.523 690.136 326.467 703.739 334.328" stroke="black" stroke-width="0.642245" stroke-linecap="round" stroke-linejoin="round"/>
<path d="M668.8 215.691C675.852 223.848 684.137 232.454 693.771 241.073C710.572 256.101 726.885 267.045 740.487 274.894" stroke="black" stroke-width="0.642245" stroke-linecap="round" stroke-linejoin="round"/>
<path d="M959.583 105.777C939.879 112.983 941.009 130.786 941.009 130.786C948.703 149.18 975.498 153.997 975.498 153.997C975.498 153.997 984.81 143.811 967.38 124.223C951.388 106.252 963.167 90.3248 974.123 84.5703" stroke="black" stroke-width="0.642245" stroke-linecap="round" stroke-linejoin="round"/>
<path d="M977.566 142.091C986.788 133.549 988.677 127.076 987.02 119.959C985.632 114.051 981.817 107.68 977.694 99.3049C975.112 94.0385 974.059 89.0932 974.136 84.5718C974.303 73.1655 981.625 64.4567 989.563 59.9609H989.576" stroke="black" stroke-width="0.642245" stroke-linecap="round" stroke-linejoin="round"/>
<path d="M1003.95 39.1641C995.472 44.0066 983.975 58.7397 991.438 77.9043C998.901 97.0689 1000.93 108.18 987.007 119.959" stroke="black" stroke-width="0.642245" stroke-linecap="round" stroke-linejoin="round"/>
<path d="M996.64 94.3856C1011.42 81.348 1009.81 71.0593 1004.57 50.0707C999.325 29.0821 1019.17 11.6773 1026.36 19.5255C1034.91 28.8509 1016.36 43.9694 1016.36 43.9694" stroke="black" stroke-width="0.642245" stroke-linecap="round" stroke-linejoin="round"/>
<path d="M1008.3 71.4308C1017.74 61.3347 1017.37 53.2167 1016.01 40.6287C1014.65 28.0407 1021.69 25.2148 1021.69 25.2148" stroke="black" stroke-width="0.642245" stroke-linecap="round" stroke-linejoin="round"/>
<path d="M974.136 84.5703H974.123" stroke="black" stroke-width="0.642245" stroke-linecap="round" stroke-linejoin="round"/>
<path d="M618.667 440.979L570.922 507.554C556.806 527.233 531.964 535.274 509.472 528.517C506.248 527.541 503.062 526.269 499.98 524.689L423.064 481.685C395.615 467.581 384.8 433.889 398.903 406.452C413.007 379.002 446.699 368.187 474.136 382.291L508.188 403.267" stroke="black" stroke-width="0.642245" stroke-linecap="round" stroke-linejoin="round"/>
<path d="M553.8 340.492C552.155 342.252 550.601 344.14 549.163 346.157L525.657 378.937L508.2 403.278L494.687 422.121" stroke="black" stroke-width="0.642245" stroke-linecap="round" stroke-linejoin="round"/>
<path d="M460.79 377.46H460.803C477.167 366.388 498.888 364.359 517.68 374.018L525.657 378.938" stroke="black" stroke-width="0.642245" stroke-linecap="round" stroke-linejoin="round"/>
<path d="M893.856 339.581L943.642 329.511C960.11 326.171 977.168 331.104 989.319 342.716C1001.47 354.315 1007.19 371.128 1004.62 387.724L989.19 487.439C985.26 512.821 963.385 530.97 938.479 530.97C935.871 530.97 933.225 530.765 930.566 530.354C902.526 526.012 883.31 499.77 887.639 471.73L897.144 410.267" stroke="black" stroke-width="0.642245" stroke-linecap="round" stroke-linejoin="round"/>
<path d="M891.788 444.845L874.023 448.441C846.201 454.08 819.098 436.085 813.472 408.275" stroke="black" stroke-width="0.642245" stroke-linecap="round" stroke-linejoin="round"/>
<path d="M845.135 460.002C849.451 477.33 863.773 491.241 882.527 494.144C884.8 494.491 887.061 494.67 889.296 494.683" stroke="black" stroke-width="0.642245" stroke-linecap="round" stroke-linejoin="round"/>
<path d="M893.213 435.648C909.603 438.577 908.203 455.43 925.75 457.446C943.861 459.54 945.916 441.673 964.027 443.766C980.071 445.616 980.276 459.861 992.736 464.511" stroke="black" stroke-width="0.642245" stroke-linecap="round" stroke-linejoin="round"/>
<path d="M433.328 487.439C441.702 472.667 457.052 479.205 464.862 462.725C472.98 445.616 456.731 437.909 464.836 420.812C472.659 404.306 488.06 410.896 496.422 396.021" stroke="black" stroke-width="0.642245" stroke-linecap="round" stroke-linejoin="round"/>
<path d="M783.724 465.076C773.371 469.893 748.747 473.284 720 473.284C691.253 473.284 666.63 469.893 656.277 465.076C666.63 460.272 691.253 456.881 720 456.881C748.747 456.881 773.371 460.272 783.724 465.076Z" fill="black"/>
<path d="M788.952 470.163C788.952 477.497 758.085 483.444 720 483.444C681.915 483.444 651.049 477.497 651.049 470.163C651.049 468.364 652.911 466.643 656.277 465.076C666.63 469.893 691.253 473.284 720 473.284C748.747 473.284 773.371 469.893 783.724 465.076C787.089 466.643 788.952 468.364 788.952 470.163Z" fill="url(#paint12_linear_85_762)"/>
<path d="M720 483.444C758.081 483.444 788.952 477.498 788.952 470.163C788.952 462.827 758.081 456.881 720 456.881C681.919 456.881 651.049 462.827 651.049 470.163C651.049 477.498 681.919 483.444 720 483.444Z" stroke="black" stroke-width="0.642245" stroke-linecap="round" stroke-linejoin="round"/>
<path d="M656.277 465.076C666.63 469.893 691.253 473.284 720 473.284C748.747 473.284 773.371 469.893 783.724 465.076" stroke="black" stroke-width="0.642245" stroke-linecap="round" stroke-linejoin="round"/>
<path d="M773.705 461.84C774.488 462.726 774.886 463.651 774.886 464.589C774.886 471.923 750.314 477.87 720 477.87C689.686 477.87 665.114 471.923 665.114 464.589C665.114 463.651 665.512 462.726 666.295 461.84" stroke="white" stroke-width="0.642245" stroke-linecap="round" stroke-linejoin="round"/>
<path d="M720 491.151C750.313 491.151 774.886 485.205 774.886 477.87C774.886 470.534 750.313 464.588 720 464.588C689.687 464.588 665.114 470.534 665.114 477.87C665.114 485.205 689.687 491.151 720 491.151Z" stroke="white" stroke-width="0.642245" stroke-linecap="round" stroke-linejoin="round"/>
<path d="M720 504.432C750.313 504.432 774.886 498.486 774.886 491.151C774.886 483.815 750.313 477.869 720 477.869C689.687 477.869 665.114 483.815 665.114 491.151C665.114 498.486 689.687 504.432 720 504.432Z" stroke="white" stroke-width="0.642245" stroke-linecap="round" stroke-linejoin="round"/>
<path d="M720 517.727C750.313 517.727 774.886 511.781 774.886 504.446C774.886 497.11 750.313 491.164 720 491.164C689.687 491.164 665.114 497.11 665.114 504.446C665.114 511.781 689.687 517.727 720 517.727Z" stroke="white" stroke-width="0.642245" stroke-linecap="round" stroke-linejoin="round"/>
<path d="M720 531.009C750.313 531.009 774.886 525.062 774.886 517.727C774.886 510.392 750.313 504.445 720 504.445C689.687 504.445 665.114 510.392 665.114 517.727C665.114 525.062 689.687 531.009 720 531.009Z" stroke="white" stroke-width="0.642245" stroke-linecap="round" stroke-linejoin="round"/>
<path d="M720 544.29C750.313 544.29 774.886 538.343 774.886 531.008C774.886 523.673 750.313 517.727 720 517.727C689.687 517.727 665.114 523.673 665.114 531.008C665.114 538.343 689.687 544.29 720 544.29Z" stroke="white" stroke-width="0.642245" stroke-linecap="round" stroke-linejoin="round"/>
<path d="M720 557.571C750.313 557.571 774.886 551.625 774.886 544.289C774.886 536.954 750.313 531.008 720 531.008C689.687 531.008 665.114 536.954 665.114 544.289C665.114 551.625 689.687 557.571 720 557.571Z" stroke="white" stroke-width="0.642245" stroke-linecap="round" stroke-linejoin="round"/>
<path d="M720 570.854C750.313 570.854 774.886 564.908 774.886 557.573C774.886 550.237 750.313 544.291 720 544.291C689.687 544.291 665.114 550.237 665.114 557.573C665.114 564.908 689.687 570.854 720 570.854Z" stroke="white" stroke-width="0.642245" stroke-linecap="round" stroke-linejoin="round"/>
<path d="M720 584.136C750.313 584.136 774.886 578.189 774.886 570.854C774.886 563.519 750.313 557.572 720 557.572C689.687 557.572 665.114 563.519 665.114 570.854C665.114 578.189 689.687 584.136 720 584.136Z" stroke="white" stroke-width="0.642245" stroke-linecap="round" stroke-linejoin="round"/>
<path d="M720 597.417C750.313 597.417 774.886 591.47 774.886 584.135C774.886 576.8 750.313 570.854 720 570.854C689.687 570.854 665.114 576.8 665.114 584.135C665.114 591.47 689.687 597.417 720 597.417Z" stroke="white" stroke-width="0.642245" stroke-linecap="round" stroke-linejoin="round"/>
<path d="M720 610.698C750.313 610.698 774.886 604.752 774.886 597.416C774.886 590.081 750.313 584.135 720 584.135C689.687 584.135 665.114 590.081 665.114 597.416C665.114 604.752 689.687 610.698 720 610.698Z" stroke="white" stroke-width="0.642245" stroke-linecap="round" stroke-linejoin="round"/>
<path d="M720 623.979C750.313 623.979 774.886 618.033 774.886 610.698C774.886 603.362 750.313 597.416 720 597.416C689.687 597.416 665.114 603.362 665.114 610.698C665.114 618.033 689.687 623.979 720 623.979Z" stroke="white" stroke-width="0.642245" stroke-linecap="round" stroke-linejoin="round"/>
<path d="M720 637.262C750.313 637.262 774.886 631.316 774.886 623.981C774.886 616.646 750.313 610.699 720 610.699C689.687 610.699 665.114 616.646 665.114 623.981C665.114 631.316 689.687 637.262 720 637.262Z" stroke="white" stroke-width="0.642245" stroke-linecap="round" stroke-linejoin="round"/>
<path d="M720 650.544C750.313 650.544 774.886 644.597 774.886 637.262C774.886 629.927 750.313 623.98 720 623.98C689.687 623.98 665.114 629.927 665.114 637.262C665.114 644.597 689.687 650.544 720 650.544Z" stroke="white" stroke-width="0.642245" stroke-linecap="round" stroke-linejoin="round"/>
<path d="M720 663.825C750.313 663.825 774.886 657.879 774.886 650.543C774.886 643.208 750.313 637.262 720 637.262C689.687 637.262 665.114 643.208 665.114 650.543C665.114 657.879 689.687 663.825 720 663.825Z" stroke="white" stroke-width="0.642245" stroke-linecap="round" stroke-linejoin="round"/>
<path d="M720 677.12C750.313 677.12 774.886 671.174 774.886 663.838C774.886 656.503 750.313 650.557 720 650.557C689.687 650.557 665.114 656.503 665.114 663.838C665.114 671.174 689.687 677.12 720 677.12Z" stroke="white" stroke-width="0.642245" stroke-linecap="round" stroke-linejoin="round"/>
<path d="M720 690.401C750.313 690.401 774.886 684.455 774.886 677.12C774.886 669.784 750.313 663.838 720 663.838C689.687 663.838 665.114 669.784 665.114 677.12C665.114 684.455 689.687 690.401 720 690.401Z" stroke="white" stroke-width="0.642245" stroke-linecap="round" stroke-linejoin="round"/>
<path d="M720 703.682C750.313 703.682 774.886 697.736 774.886 690.401C774.886 683.065 750.313 677.119 720 677.119C689.687 677.119 665.114 683.065 665.114 690.401C665.114 697.736 689.687 703.682 720 703.682Z" stroke="white" stroke-width="0.642245" stroke-linecap="round" stroke-linejoin="round"/>
<path d="M720 716.964C750.313 716.964 774.886 711.017 774.886 703.682C774.886 696.347 750.313 690.4 720 690.4C689.687 690.4 665.114 696.347 665.114 703.682C665.114 711.017 689.687 716.964 720 716.964Z" stroke="white" stroke-width="0.642245" stroke-linecap="round" stroke-linejoin="round"/>
<path d="M720 730.247C750.313 730.247 774.886 724.3 774.886 716.965C774.886 709.63 750.313 703.684 720 703.684C689.687 703.684 665.114 709.63 665.114 716.965C665.114 724.3 689.687 730.247 720 730.247Z" stroke="white" stroke-width="0.642245" stroke-linecap="round" stroke-linejoin="round"/>
<path d="M720 743.528C750.313 743.528 774.886 737.582 774.886 730.247C774.886 722.911 750.313 716.965 720 716.965C689.687 716.965 665.114 722.911 665.114 730.247C665.114 737.582 689.687 743.528 720 743.528Z" stroke="white" stroke-width="0.642245" stroke-linecap="round" stroke-linejoin="round"/>
<path d="M720 756.809C750.313 756.809 774.886 750.863 774.886 743.528C774.886 736.192 750.313 730.246 720 730.246C689.687 730.246 665.114 736.192 665.114 743.528C665.114 750.863 689.687 756.809 720 756.809Z" stroke="white" stroke-width="0.642245" stroke-linecap="round" stroke-linejoin="round"/>
<path d="M720 770.091C750.313 770.091 774.886 764.144 774.886 756.809C774.886 749.474 750.313 743.527 720 743.527C689.687 743.527 665.114 749.474 665.114 756.809C665.114 764.144 689.687 770.091 720 770.091Z" stroke="white" stroke-width="0.642245" stroke-linecap="round" stroke-linejoin="round"/>
<path d="M720 783.372C750.313 783.372 774.886 777.425 774.886 770.09C774.886 762.755 750.313 756.809 720 756.809C689.687 756.809 665.114 762.755 665.114 770.09C665.114 777.425 689.687 783.372 720 783.372Z" stroke="white" stroke-width="0.642245" stroke-linecap="round" stroke-linejoin="round"/>
<path d="M720 796.655C750.313 796.655 774.886 790.709 774.886 783.373C774.886 776.038 750.313 770.092 720 770.092C689.687 770.092 665.114 776.038 665.114 783.373C665.114 790.709 689.687 796.655 720 796.655Z" stroke="white" stroke-width="0.642245" stroke-linecap="round" stroke-linejoin="round"/>
<path d="M720 809.936C750.313 809.936 774.886 803.99 774.886 796.655C774.886 789.319 750.313 783.373 720 783.373C689.687 783.373 665.114 789.319 665.114 796.655C665.114 803.99 689.687 809.936 720 809.936Z" stroke="white" stroke-width="0.642245" stroke-linecap="round" stroke-linejoin="round"/>
<path d="M720 823.218C750.313 823.218 774.886 817.271 774.886 809.936C774.886 802.601 750.313 796.654 720 796.654C689.687 796.654 665.114 802.601 665.114 809.936C665.114 817.271 689.687 823.218 720 823.218Z" stroke="white" stroke-width="0.642245" stroke-linecap="round" stroke-linejoin="round"/>
<path d="M720 836.512C750.313 836.512 774.886 830.566 774.886 823.231C774.886 815.896 750.313 809.949 720 809.949C689.687 809.949 665.114 815.896 665.114 823.231C665.114 830.566 689.687 836.512 720 836.512Z" stroke="white" stroke-width="0.642245" stroke-linecap="round" stroke-linejoin="round"/>
<path d="M720 849.794C750.313 849.794 774.886 843.847 774.886 836.512C774.886 829.177 750.313 823.23 720 823.23C689.687 823.23 665.114 829.177 665.114 836.512C665.114 843.847 689.687 849.794 720 849.794Z" stroke="white" stroke-width="0.642245" stroke-linecap="round" stroke-linejoin="round"/>
<path d="M720 863.075C750.313 863.075 774.886 857.129 774.886 849.793C774.886 842.458 750.313 836.512 720 836.512C689.687 836.512 665.114 842.458 665.114 849.793C665.114 857.129 689.687 863.075 720 863.075Z" stroke="white" stroke-width="0.642245" stroke-linecap="round" stroke-linejoin="round"/>
<path d="M720 876.356C750.313 876.356 774.886 870.41 774.886 863.075C774.886 855.739 750.313 849.793 720 849.793C689.687 849.793 665.114 855.739 665.114 863.075C665.114 870.41 689.687 876.356 720 876.356Z" stroke="white" stroke-width="0.642245" stroke-linecap="round" stroke-linejoin="round"/>
<path d="M720 889.637C750.313 889.637 774.886 883.691 774.886 876.356C774.886 869.021 750.313 863.074 720 863.074C689.687 863.074 665.114 869.021 665.114 876.356C665.114 883.691 689.687 889.637 720 889.637Z" stroke="white" stroke-width="0.642245" stroke-linecap="round" stroke-linejoin="round"/>
<path d="M720 902.921C750.313 902.921 774.886 896.974 774.886 889.639C774.886 882.304 750.313 876.357 720 876.357C689.687 876.357 665.114 882.304 665.114 889.639C665.114 896.974 689.687 902.921 720 902.921Z" stroke="white" stroke-width="0.642245" stroke-linecap="round" stroke-linejoin="round"/>
<path d="M720 916.202C750.313 916.202 774.886 910.256 774.886 902.92C774.886 895.585 750.313 889.639 720 889.639C689.687 889.639 665.114 895.585 665.114 902.92C665.114 910.256 689.687 916.202 720 916.202Z" stroke="white" stroke-width="0.642245" stroke-linecap="round" stroke-linejoin="round"/>
<path d="M720 929.483C750.313 929.483 774.886 923.537 774.886 916.202C774.886 908.866 750.313 902.92 720 902.92C689.687 902.92 665.114 908.866 665.114 916.202C665.114 923.537 689.687 929.483 720 929.483Z" stroke="white" stroke-width="0.642245" stroke-linecap="round" stroke-linejoin="round"/>
<path d="M720 942.764C750.313 942.764 774.886 936.818 774.886 929.483C774.886 922.148 750.313 916.201 720 916.201C689.687 916.201 665.114 922.148 665.114 929.483C665.114 936.818 689.687 942.764 720 942.764Z" stroke="white" stroke-width="0.642245" stroke-linecap="round" stroke-linejoin="round"/>
<path d="M720 956.046C750.313 956.046 774.886 950.099 774.886 942.764C774.886 935.429 750.313 929.482 720 929.482C689.687 929.482 665.114 935.429 665.114 942.764C665.114 950.099 689.687 956.046 720 956.046Z" stroke="white" stroke-width="0.642245" stroke-linecap="round" stroke-linejoin="round"/>
<path d="M720 969.329C750.313 969.329 774.886 963.382 774.886 956.047C774.886 948.712 750.313 942.766 720 942.766C689.687 942.766 665.114 948.712 665.114 956.047C665.114 963.382 689.687 969.329 720 969.329Z" stroke="white" stroke-width="0.642245" stroke-linecap="round" stroke-linejoin="round"/>
<path d="M720 982.61C750.313 982.61 774.886 976.664 774.886 969.329C774.886 961.993 750.313 956.047 720 956.047C689.687 956.047 665.114 961.993 665.114 969.329C665.114 976.664 689.687 982.61 720 982.61Z" stroke="white" stroke-width="0.642245" stroke-linecap="round" stroke-linejoin="round"/>
<path d="M720 995.905C750.313 995.905 774.886 989.959 774.886 982.623C774.886 975.288 750.313 969.342 720 969.342C689.687 969.342 665.114 975.288 665.114 982.623C665.114 989.959 689.687 995.905 720 995.905Z" stroke="white" stroke-width="0.642245" stroke-linecap="round" stroke-linejoin="round"/>
<path d="M720 1009.19C750.313 1009.19 774.886 1003.24 774.886 995.905C774.886 988.569 750.313 982.623 720 982.623C689.687 982.623 665.114 988.569 665.114 995.905C665.114 1003.24 689.687 1009.19 720 1009.19Z" stroke="white" stroke-width="0.642245" stroke-linecap="round" stroke-linejoin="round"/>
<path d="M720 1022.47C750.313 1022.47 774.886 1016.52 774.886 1009.19C774.886 1001.85 750.313 995.904 720 995.904C689.687 995.904 665.114 1001.85 665.114 1009.19C665.114 1016.52 689.687 1022.47 720 1022.47Z" stroke="white" stroke-width="0.642245" stroke-linecap="round" stroke-linejoin="round"/>
<path d="M720 1035.75C750.313 1035.75 774.886 1029.8 774.886 1022.47C774.886 1015.13 750.313 1009.19 720 1009.19C689.687 1009.19 665.114 1015.13 665.114 1022.47C665.114 1029.8 689.687 1035.75 720 1035.75Z" stroke="white" stroke-width="0.642245" stroke-linecap="round" stroke-linejoin="round"/>
<path d="M1440 1020.77H0V176.347C41.7467 193.7 58.2533 277.443 45.7467 350.169C33.24 422.894 69.36 452.402 69.36 452.402C56.8267 411.985 72.4933 390.667 72.4933 390.667C72.4933 390.667 75.5733 431.719 106.333 481.706C119.507 503.105 125.173 528.064 128.76 552.739C131.813 573.733 130.147 602.915 140.733 621.567C148.707 635.617 166.813 638.919 178.6 627.915C187.373 619.74 189.067 605.839 189.52 594.469C190.28 575.222 186.92 555.027 181.667 536.538C233.347 554.025 235.373 628.741 221.28 672.46C207.187 716.179 214.653 780.553 258.08 780.553C295.8 780.553 321.507 748.759 292.533 674.842C263.56 600.925 311.32 557.206 311.32 557.206C311.32 557.206 294.093 643.047 363.787 674.842C395.8 689.447 417.053 719.725 428.053 752.752C440.547 790.245 437.4 822.892 428.707 860.818C425.347 875.464 423.187 890.907 427.093 905.404C435.067 934.938 472.467 946.443 495.04 925.49C517.72 904.443 510.107 864.256 502.44 838.309C484.507 777.63 513.68 757.232 513.68 757.232C509.36 819.576 539.627 828.793 549.573 828.793C559.52 828.793 594.547 823.961 570.693 767.776C546.84 711.591 570.76 687.877 570.76 687.877C570.76 687.877 568.6 725.627 588.387 748.136C608.173 770.646 629.56 826.899 614.52 877.534C605.053 909.41 613.56 948.46 637.853 971.47C658 990.555 687.32 991.976 711.067 979.09C739.293 963.768 748.733 934.221 757.893 905.133C765.853 879.835 777.787 855.607 797.76 837.889C825.36 813.404 859.773 808.179 869.96 767.681C876.093 743.331 874.72 715.326 868.347 691.057C868.347 691.057 949.813 714.799 922.027 822.581C894.24 930.363 971.973 941.259 995.893 911.292C1029.76 868.858 980.653 797.797 990.08 748.542C1002.32 684.642 1073.09 648.692 1094.13 586.97C1094.13 586.97 1109.71 610.468 1104.73 628.145C1104.73 628.145 1131.25 610.481 1120.48 541.491C1120.48 541.491 1166.05 598.692 1132.91 664.312C1099.76 729.931 1136.23 764.419 1171.85 764.419C1207.48 764.419 1223.23 708.058 1206.65 660.102C1190.08 612.146 1184.28 544.848 1248.09 524.653C1248.09 524.653 1232.35 554.093 1238.97 586.903C1245.6 619.712 1263 621.391 1278.75 619.712C1294.49 618.034 1307.75 588.581 1305.27 560.82C1302.79 533.059 1316.87 487.363 1351.68 463.094C1386.48 438.826 1439.97 385.618 1439.97 176.32V1020.74L1440 1020.77Z" fill="#FF66C8"/>
<path d="M1166.48 567.561C1166.48 567.561 1151.37 531.016 1170.17 502.93C1188.97 474.858 1207.53 445.838 1203.51 412.893C1203.51 412.893 1238.89 442.86 1213.28 486.051C1187.67 529.243 1178.96 527.591 1166.48 567.548V567.561Z" fill="#FF66C8"/>
<path d="M963.24 762.187C963.24 762.187 935.067 716.613 952.787 671.96C970.507 627.306 996.067 599.126 989.293 555.812C989.293 555.812 1011.43 611.687 987 659.006C966.347 699.003 960.867 713.892 963.253 762.2L963.24 762.187Z" fill="#FF66C8"/>
<path d="M167.093 510.755C167.093 510.755 120.507 463.584 138.44 408.576C156.387 353.555 187.88 316.062 171.653 267.348C171.653 267.348 211.36 327.58 184.427 386.973C161.653 437.163 156.28 455.435 167.093 510.768V510.755Z" fill="#FF66C8"/>
<path d="M261.813 594.307C261.813 594.307 241.107 563.013 257.027 532.721C272.947 502.429 279.773 484.874 275.987 469.565C275.987 469.565 287.64 475.683 285.227 489.016C285.227 489.016 296.747 470.31 291.573 458.209C291.573 458.209 317.547 482.18 294.907 516.75C272.267 551.305 262.627 551.887 261.8 594.321L261.813 594.307Z" fill="#FF66C8"/>
<defs>
<linearGradient id="paint0_linear_85_762" x1="955.332" y1="107.655" x2="978.234" y2="152.599" gradientUnits="userSpaceOnUse">
<stop stop-color="#FF57CB"/>
<stop offset="0.34" stop-color="#746CFF"/>
<stop offset="0.68" stop-color="#72FFFF"/>
<stop offset="1" stop-color="#BDFA77"/>
</linearGradient>
<linearGradient id="paint1_linear_85_762" x1="969.949" y1="86.088" x2="987.289" y2="133.73" gradientUnits="userSpaceOnUse">
<stop stop-color="#FF57CB"/>
<stop offset="0.34" stop-color="#746CFF"/>
<stop offset="0.68" stop-color="#72FFFF"/>
<stop offset="1" stop-color="#BDFA77"/>
</linearGradient>
<linearGradient id="paint2_linear_85_762" x1="984.823" y1="61.1427" x2="997.655" y2="112.599" gradientUnits="userSpaceOnUse">
<stop stop-color="#FF57CB"/>
<stop offset="0.34" stop-color="#746CFF"/>
<stop offset="0.68" stop-color="#72FFFF"/>
<stop offset="1" stop-color="#BDFA77"/>
</linearGradient>
<linearGradient id="paint3_linear_85_762" x1="1001.6" y1="39.333" x2="1005.13" y2="89.8648" gradientUnits="userSpaceOnUse">
<stop stop-color="#FF57CB"/>
<stop offset="0.34" stop-color="#746CFF"/>
<stop offset="0.68" stop-color="#72FFFF"/>
<stop offset="1" stop-color="#BDFA77"/>
</linearGradient>
<linearGradient id="paint4_linear_85_762" x1="960.829" y1="283.334" x2="1005.18" y2="178.841" gradientUnits="userSpaceOnUse">
<stop stop-color="#FF57CB"/>
<stop offset="0.34" stop-color="#746CFF"/>
<stop offset="0.68" stop-color="#72FFFF"/>
<stop offset="1" stop-color="#BDFA77"/>
</linearGradient>
<linearGradient id="paint5_linear_85_762" x1="926.43" y1="176.285" x2="971.208" y2="176.285" gradientUnits="userSpaceOnUse">
<stop stop-color="#FF57CB"/>
<stop offset="0.34" stop-color="#746CFF"/>
<stop offset="0.68" stop-color="#72FFFF"/>
<stop offset="1" stop-color="#BDFA77"/>
</linearGradient>
<linearGradient id="paint6_linear_85_762" x1="777.699" y1="169.824" x2="812.753" y2="169.824" gradientUnits="userSpaceOnUse">
<stop stop-color="#FF57CB"/>
<stop offset="0.47" stop-color="#746CFF"/>
<stop offset="1" stop-color="#72FFFF"/>
</linearGradient>
<linearGradient id="paint7_linear_85_762" x1="753.448" y1="236.848" x2="911.8" y2="103.98" gradientUnits="userSpaceOnUse">
<stop stop-color="#FF57CB"/>
<stop offset="0.2" stop-color="#746CFF"/>
<stop offset="0.4" stop-color="#72FFFF"/>
<stop offset="0.6" stop-color="#BDFA77"/>
<stop offset="0.8" stop-color="#FFE460"/>
<stop offset="1" stop-color="#FF57CB"/>
</linearGradient>
<linearGradient id="paint8_linear_85_762" x1="1017.82" y1="24.5341" x2="1009.52" y2="71.6491" gradientUnits="userSpaceOnUse">
<stop stop-color="#FF57CB"/>
<stop offset="0.34" stop-color="#746CFF"/>
<stop offset="0.68" stop-color="#72FFFF"/>
<stop offset="1" stop-color="#BDFA77"/>
</linearGradient>
<linearGradient id="paint9_linear_85_762" x1="893.214" y1="443.729" x2="994.83" y2="443.729" gradientUnits="userSpaceOnUse">
<stop stop-color="#FF57CB"/>
<stop offset="0.34" stop-color="#746CFF"/>
<stop offset="0.68" stop-color="#72FFFF"/>
<stop offset="1" stop-color="#BDFA77"/>
</linearGradient>
<linearGradient id="paint10_linear_85_762" x1="438.286" y1="490.907" x2="502.42" y2="399.297" gradientUnits="userSpaceOnUse">
<stop stop-color="#FF57CB"/>
<stop offset="0.34" stop-color="#746CFF"/>
<stop offset="0.68" stop-color="#72FFFF"/>
<stop offset="1" stop-color="#BDFA77"/>
</linearGradient>
<linearGradient id="paint11_linear_85_762" x1="666.18" y1="118.945" x2="778.213" y2="118.945" gradientUnits="userSpaceOnUse">
<stop stop-color="#FF57CB"/>
<stop offset="0.2" stop-color="#746CFF"/>
<stop offset="0.4" stop-color="#72FFFF"/>
<stop offset="0.6" stop-color="#BDFA77"/>
<stop offset="0.8" stop-color="#FFE460"/>
<stop offset="1" stop-color="#FF57CB"/>
</linearGradient>
<linearGradient id="paint12_linear_85_762" x1="651.049" y1="474.26" x2="788.952" y2="474.26" gradientUnits="userSpaceOnUse">
<stop stop-color="#FF57CB"/>
<stop offset="0.2" stop-color="#746CFF"/>
<stop offset="0.4" stop-color="#72FFFF"/>
<stop offset="0.6" stop-color="#BDFA77"/>
<stop offset="0.8" stop-color="#FFE460"/>
<stop offset="1" stop-color="#FF57CB"/>
</linearGradient>
</defs>
</svg>
